M48
;Layer_Color=9474304
;FILE_FORMAT=2:4
INCH,TZ
;TYPE=PLATED
T1F00S00C0.0079
T2F00S00C0.0157
T3F00S00C0.0197
T5F00S00C0.0276
T6F00S00C0.1378
%
T01
X2539Y12283
Y12717
X2972
Y12283
X873Y21500
X715Y21657
X400
X558Y21500
X400Y21342
X715
Y21972
X400
X558Y21815
X873
X243
Y21500
T02
X-7480Y787
X-5512
X-3543
X-3051Y3642
X-2559Y4429
X-2165
X-1674Y2978
X-945Y3253
X-4331Y5118
X-5315Y6201
X-6634Y6198
Y5855
X-8215Y5733
X-8385Y6873
X-7874Y8661
X-6693Y10630
X-5395Y9744
X-5315Y7972
X-3295Y7943
X-3285Y6193
Y9763
X-1969Y10630
X-787Y9449
X-10630
Y7087
Y4331
X-6299
X234Y3671
X461Y3457
X1115Y3283
X1684Y2978
X1649Y4452
X1642Y4846
X1649Y5240
X2657Y5023
Y4724
X2953Y3642
X3543Y3937
X5512
X4905Y2063
X3445Y1870
X3150Y787
X3587Y551
X6367Y555
X7087Y787
X6791Y1673
X6890Y5413
Y6004
X8268Y5906
X10630Y6299
X10416Y7799
Y8079
Y8359
X10106
Y8079
Y7799
X9516
Y8079
Y8359
X9206
Y8079
Y7799
X7087Y7533
X7095Y9393
X8268Y9843
X10630Y9055
Y11024
X4265Y11086
X4265Y11430
X4331Y9449
X3248Y10039
X2953
X1870
X1575Y9449
X394Y10630
X662Y7011
Y6328
X676Y4844
X2370Y6328
X2264Y6988
X4331Y5512
X10630Y3937
X8268Y12992
X5315Y13484
X4921
X4626Y12008
X4265Y11775
X1525Y12210
X1607Y14417
X1959Y15650
X1645Y17140
X1358
X499Y18328
X2585
X3025Y19373
X3055Y19963
X3075Y20553
X770Y20285
X4391Y21998
X4338Y22634
X4320Y23288
X6496Y24409
Y25984
X8071
X7283Y25197
X8071Y24409
X8709Y22937
X9104Y22943
X9110Y22548
X9116Y22153
X8721Y22147
X8715Y22542
X10827Y22736
X11024Y22047
X10800Y21710
Y21306
X9500Y19767
X8912Y18906
X7425Y20642
X5906Y21260
Y17323
X6720Y15872
X3950Y15720
X4035Y14862
X2559Y13780
X470Y13910
X4331Y18110
X-787Y20276
X-2756Y20472
X-2758Y19957
X-3929Y19374
X-4491Y20483
X-5595Y21163
Y21853
X-5631Y22443
X-5271Y22442
X-5595Y24093
X-6299Y24409
X-7087Y25197
X-7874Y24409
Y25984
X-6299
X-2828Y22326
X-1175Y22130
X-1575Y16142
X-3065Y13533
X-3055Y12923
X-3695Y13543
X-4538Y12913
X-5841Y14650
X-7874Y13386
X-8258Y16621
X-8578
X-8558Y18278
X-8248
X-6465Y17723
X-6775Y17383
X-10630Y16535
Y18898
Y20866
Y22835
Y11811
T03
X4190Y16550
X5870Y15840
T05
X4915Y319
Y1027
X10587Y18669
X11296
T06
X10335Y13583
X-10335
M30
