M48
;Layer_Color=9474304
;FILE_FORMAT=2:4
INCH,TZ
;TYPE=PLATED
T1F00S00C0.0079
T2F00S00C0.0157
T3F00S00C0.0197
T5F00S00C0.0276
T6F00S00C0.1378
%
T01
X2539Y12283
Y12717
X2972
Y12283
X873Y21500
X715Y21657
X400
X558Y21500
X400Y21342
X715
Y21972
X400
X558Y21815
X873
X243
Y21500
T02
X-8215Y5733
X-8385Y6873
X-6634Y6198
Y5855
X-5315Y6201
Y7972
X-5395Y9744
X-3285Y9763
X-3295Y7943
X-3285Y6193
X-2559Y4429
X-2165
X-3051Y3642
X-1674Y2978
X-945Y3253
X234Y3671
X461Y3457
X1115Y3283
X1684Y2978
X1649Y4452
X1642Y4846
X1649Y5240
X2657Y5023
Y4724
X2953Y3642
X3445Y1870
X3587Y551
X6367Y555
X6791Y1673
X4905Y2063
X6890Y5413
Y6004
X7087Y7533
X7095Y9393
X9206Y8359
Y8079
Y7799
X9516
Y8079
Y8359
X10106
Y8079
Y7799
X10416
Y8079
Y8359
X3248Y10039
X2953
X1870
X4265Y11086
X4265Y11430
X2264Y6988
X2370Y6328
X662
Y7011
X676Y4844
X1525Y12210
X1607Y14417
X1959Y15650
X1645Y17140
X1358
X356Y18047
X770Y20285
X3075Y20553
X3055Y19963
X3025Y19373
X2816Y18323
X3950Y15720
X4035Y14862
X4921Y13484
X5315
X4626Y12008
X4265Y11775
X2559Y13780
X470Y13910
X4391Y21998
X4338Y22634
X4320Y23288
X5906Y21260
X7425Y20642
X8721Y22147
X9116Y22153
X9110Y22548
X9104Y22943
X8709Y22937
X8715Y22542
X10827Y22736
X10800Y21710
Y21306
X9500Y19767
X8912Y18906
X-787Y20276
X-2756Y20472
X-2758Y19957
X-3929Y19374
X-4491Y20483
X-5595Y21163
Y21853
X-5631Y22443
X-5271Y22442
X-5595Y24093
X-2828Y22326
X-1175Y22130
X-6465Y17723
X-6775Y17383
X-8258Y16621
X-8578
X-8558Y18278
X-8248
X-5841Y14650
X-4538Y12913
X-3695Y13543
X-3065Y13533
X-3055Y12923
T03
X4190Y16550
X5870Y15840
T05
X4915Y319
Y1027
X10587Y18669
X11296
T06
X10335Y13583
X-10335
M30
