M48
;Layer_Color=9474304
;FILE_FORMAT=2:4
INCH,TZ
;TYPE=PLATED
T1F00S00C0.0079
T2F00S00C0.0157
T4F00S00C0.0276
;TYPE=NON_PLATED
T5F00S00C0.1575
%
T01
X-4942Y23937
Y24252
X-4785Y24409
X-4470
X-4627Y24252
X-4313
X-4470Y24094
X-4785
X-4627Y23937
X-4313
X-4470Y23780
X-4785
T02
X-13400Y8170
X-13570Y9310
X-11820Y8635
Y8293
X-10370Y8630
X-10390Y10380
X-10420Y12200
X-8470Y12210
X-8480Y10440
X-8470Y8660
X-6122Y7130
X-6147Y6791
X-6411Y6558
X-6130Y5690
X-6859Y5415
X-7677Y5512
X-6700Y11520
X-6060Y13420
X-6240Y13840
X-4810Y11510
X-4540Y8840
X-4560Y8450
X-4232Y6764
X-3960Y6580
X-4070Y5720
X-3501Y5415
X-2756Y5512
X-1730Y4370
X-1598Y2988
X1182Y2992
X2351Y3604
X650Y5400
X-280Y4500
X1585Y6680
Y7020
X2310Y7540
X2320Y7920
X1902Y9970
X1910Y11830
X1950Y13540
X2730Y13570
X4030Y13320
Y13040
Y12760
X4340
Y13040
Y13320
X4810Y13330
Y13050
Y12770
X5120
Y13050
Y13330
X20Y11470
X-1720Y11350
X-1585Y8253
X-990Y8160
Y7860
X-286Y8686
X180Y8640
X520
X-3543Y7283
X78Y14474
X-1670Y17040
X-2090
X-3524Y19100
X-3920
X-5105Y20761
X-2369
X-2160Y21810
X-2130Y22400
X-2110Y22990
X-794Y24435
X-847Y25071
X-865Y25725
X-1990Y25947
X1409Y25320
X1804Y25326
X1810Y24931
X1815Y24536
X1420Y24530
X1414Y24925
X1440Y22028
X1843
X3266Y23190
X4430Y24050
X3650Y21160
X4250Y17340
X1070Y18360
Y18740
X-5370Y17210
X-5133Y15321
X-8240Y15360
X-8250Y15970
X-8880Y15980
X-9810Y15350
X-11960Y19820
X-11650Y20160
X-13150Y20690
X-13460
X-13480Y19090
X-13160
X-9114Y21811
X-8000Y22340
X-7997Y23029
X-8013Y24764
X-6360Y24567
X-10456Y24879
X-10816Y24880
X-10780Y24290
Y23600
Y26530
T04
X-271Y2910
Y3618
T05
X5150Y16020
X-15520
M30
