G04*
G04 #@! TF.GenerationSoftware,Altium Limited,Altium Designer,22.5.1 (42)*
G04*
G04 Layer_Physical_Order=1*
G04 Layer_Color=255*
%FSLAX25Y25*%
%MOIN*%
G70*
G04*
G04 #@! TF.SameCoordinates,0FBEFC20-2016-4514-BA3C-2F928F0B4F8F*
G04*
G04*
G04 #@! TF.FilePolarity,Positive*
G04*
G01*
G75*
%ADD11C,0.00984*%
%ADD13C,0.01575*%
%ADD15C,0.00787*%
%ADD17C,0.00591*%
%ADD57O,0.05906X0.02362*%
%ADD58R,0.05906X0.02362*%
%ADD59R,0.05709X0.04724*%
%ADD60R,0.03150X0.03543*%
%ADD61R,0.03740X0.03543*%
%ADD62R,0.11024X0.11024*%
%ADD63R,0.02756X0.00984*%
%ADD64R,0.00984X0.02756*%
%ADD65O,0.00984X0.02756*%
%ADD66R,0.03347X0.03937*%
%ADD67R,0.03937X0.03347*%
%ADD68R,0.03740X0.03150*%
%ADD69R,0.07087X0.07480*%
%ADD70R,0.03347X0.02756*%
%ADD71C,0.03937*%
%ADD72R,0.03543X0.03740*%
%ADD73R,0.00787X0.01378*%
%ADD74R,0.01772X0.02165*%
%ADD75R,0.02165X0.01772*%
%ADD76R,0.04331X0.05512*%
%ADD77R,0.05512X0.04331*%
%ADD78R,0.04724X0.02362*%
%ADD79R,0.02362X0.04331*%
%ADD80R,0.01181X0.04331*%
%ADD81R,0.05906X0.03543*%
%ADD82R,0.01575X0.03150*%
%ADD83R,0.03150X0.03740*%
%ADD84R,0.04724X0.10630*%
%ADD85R,0.02165X0.02165*%
%ADD86R,0.05118X0.06102*%
%ADD87R,0.04331X0.02362*%
%ADD88R,0.02362X0.01968*%
%ADD89R,0.04331X0.03937*%
%ADD90C,0.01968*%
%ADD91C,0.01181*%
%ADD92C,0.02756*%
%ADD93C,0.01575*%
%ADD94C,0.01500*%
%ADD95C,0.00900*%
%ADD96C,0.00902*%
%ADD97C,0.02756*%
%ADD98C,0.19685*%
%ADD99O,0.03937X0.08661*%
%ADD100O,0.03937X0.07087*%
%ADD101R,0.11417X0.11417*%
%ADD102C,0.02362*%
%ADD103C,0.01968*%
%ADD104C,0.03150*%
G36*
X100387Y229784D02*
Y219094D01*
X97441D01*
Y210039D01*
X100387D01*
Y207944D01*
X78476Y207873D01*
X76813Y209108D01*
X76978Y209608D01*
X77027D01*
Y211183D01*
X76239D01*
Y210609D01*
X75739Y210330D01*
X75618Y210404D01*
Y230598D01*
X76797Y231533D01*
X98299D01*
X100387Y229784D01*
D02*
G37*
G36*
X60376Y204337D02*
Y203433D01*
X66116D01*
Y204337D01*
X68759D01*
Y203143D01*
X70546D01*
Y202143D01*
X71546D01*
Y199569D01*
X72334D01*
Y199569D01*
X72712Y199781D01*
X75861D01*
X76239Y199569D01*
Y199569D01*
X77027D01*
Y202143D01*
X78027D01*
Y203143D01*
X79814D01*
Y204337D01*
X88970D01*
X88970Y204337D01*
X89540Y203767D01*
Y202870D01*
X89484D01*
Y200787D01*
Y198705D01*
X89540D01*
X89540Y196749D01*
X89540Y193487D01*
X88975Y193033D01*
X87356D01*
X86933Y192949D01*
X86575Y192710D01*
X85146Y191281D01*
X84922Y190945D01*
X75787D01*
X57087Y190945D01*
X55118Y192913D01*
X55118Y202756D01*
X56699Y204337D01*
X60376D01*
D02*
G37*
G36*
X103098Y195168D02*
X106264D01*
Y194168D01*
X107264D01*
Y190412D01*
X108268D01*
Y187864D01*
X107768Y187765D01*
X107706Y187914D01*
X107097Y188523D01*
X106301Y188853D01*
X105439D01*
X104643Y188523D01*
X104034Y187914D01*
X103705Y187119D01*
Y186257D01*
X104034Y185461D01*
X104643Y184852D01*
X105439Y184522D01*
X106301D01*
X107097Y184852D01*
X107706Y185461D01*
X107768Y185611D01*
X108268Y185511D01*
Y183357D01*
X107264D01*
Y179601D01*
X106264D01*
Y178601D01*
X103098D01*
Y176718D01*
X101825Y176718D01*
X99787Y176718D01*
X99425Y177051D01*
Y178134D01*
X97539D01*
Y180134D01*
X99425D01*
Y181217D01*
X96564D01*
Y182169D01*
X96835D01*
Y185039D01*
Y187909D01*
X96564D01*
Y192640D01*
X99333Y196105D01*
X103098D01*
Y195168D01*
D02*
G37*
G36*
X83547Y185941D02*
X85630D01*
Y184941D01*
X86630D01*
Y183055D01*
X87402D01*
Y181998D01*
X88100Y181300D01*
X91054D01*
X91520Y181217D01*
Y180134D01*
X93405D01*
Y179134D01*
X94406D01*
Y177051D01*
X94700D01*
Y172319D01*
X86536D01*
X86229Y172258D01*
X85969Y172084D01*
X85795Y171824D01*
X85733Y171517D01*
Y149676D01*
X71500D01*
Y150964D01*
X72757D01*
Y150232D01*
X80237D01*
Y154168D01*
X72757D01*
Y153373D01*
X71500D01*
Y161172D01*
X72757D01*
Y160231D01*
X80237D01*
Y164169D01*
X72757D01*
Y163580D01*
X71500D01*
Y182579D01*
X75000D01*
Y185852D01*
X75548Y186400D01*
X76362D01*
Y186138D01*
X78937D01*
X81512D01*
Y186400D01*
X83547D01*
Y185941D01*
D02*
G37*
G36*
X107036Y149273D02*
Y146230D01*
X106632Y145936D01*
X105836Y146195D01*
X104183Y146457D01*
X102510D01*
X100857Y146195D01*
X99266Y145678D01*
X97775Y144918D01*
X96421Y143935D01*
X95238Y142752D01*
X94255Y141398D01*
X93495Y139907D01*
X92978Y138316D01*
X92892Y137773D01*
X42236D01*
Y142773D01*
X47746D01*
Y140801D01*
X50600D01*
Y144163D01*
X51600D01*
Y145163D01*
X55454D01*
Y147525D01*
X54636D01*
Y148873D01*
X86536D01*
Y171517D01*
X107036D01*
Y149273D01*
D02*
G37*
G36*
X36236Y119571D02*
X37614D01*
Y121063D01*
X43307D01*
X44291Y120079D01*
Y110236D01*
X43307Y109252D01*
X38303Y109252D01*
Y109433D01*
X35433D01*
X32563D01*
Y109252D01*
X31496D01*
X30020Y110728D01*
Y111909D01*
X28839D01*
X28763Y111985D01*
Y114945D01*
X30496D01*
Y117323D01*
X31496D01*
Y118323D01*
X32988D01*
Y118701D01*
X33858D01*
Y119571D01*
X34236D01*
Y121063D01*
X36236D01*
Y119571D01*
D02*
G37*
%LPC*%
G36*
X97212Y229644D02*
Y227839D01*
X99017D01*
X98978Y227984D01*
X98587Y228661D01*
X98035Y229214D01*
X97358Y229605D01*
X97212Y229644D01*
D02*
G37*
G36*
X95212D02*
X95066Y229605D01*
X94389Y229214D01*
X93836Y228661D01*
X93446Y227984D01*
X93406Y227839D01*
X95212D01*
Y229644D01*
D02*
G37*
G36*
X82977Y229614D02*
X80615D01*
Y224300D01*
X82977D01*
Y229614D01*
D02*
G37*
G36*
X78615D02*
X76253D01*
Y224300D01*
X78615D01*
Y229614D01*
D02*
G37*
G36*
X99017Y225839D02*
X97212D01*
Y224033D01*
X97358Y224072D01*
X98035Y224463D01*
X98587Y225016D01*
X98978Y225693D01*
X99017Y225839D01*
D02*
G37*
G36*
X95212D02*
X93406D01*
X93446Y225693D01*
X93836Y225016D01*
X94389Y224463D01*
X95066Y224072D01*
X95212Y224033D01*
Y225839D01*
D02*
G37*
G36*
X82977Y222300D02*
X80615D01*
Y216985D01*
X82977D01*
Y222300D01*
D02*
G37*
G36*
X78615D02*
X76253D01*
Y216985D01*
X78615D01*
Y222300D01*
D02*
G37*
G36*
X93717Y219307D02*
X90173D01*
Y215567D01*
X93717D01*
Y219307D01*
D02*
G37*
G36*
X88173D02*
X84630D01*
Y215567D01*
X88173D01*
Y219307D01*
D02*
G37*
G36*
X79814Y214758D02*
X79027D01*
Y213183D01*
X79814D01*
Y214758D01*
D02*
G37*
G36*
X77027D02*
X76239D01*
Y213183D01*
X77027D01*
Y214758D01*
D02*
G37*
G36*
X93717Y213567D02*
X90173D01*
Y209827D01*
X93717D01*
Y213567D01*
D02*
G37*
G36*
X88173D02*
X84630D01*
Y209827D01*
X88173D01*
Y213567D01*
D02*
G37*
G36*
X79814Y211183D02*
X79027D01*
Y209608D01*
X79814D01*
Y211183D01*
D02*
G37*
G36*
X87484Y202870D02*
X86598D01*
Y201787D01*
X87484D01*
Y202870D01*
D02*
G37*
G36*
X66116Y201433D02*
X64246D01*
Y199662D01*
X66116D01*
Y201433D01*
D02*
G37*
G36*
X62246D02*
X60376D01*
Y199662D01*
X62246D01*
Y201433D01*
D02*
G37*
G36*
X79814Y201143D02*
X79027D01*
Y199569D01*
X79814D01*
Y201143D01*
D02*
G37*
G36*
X69546D02*
X68759D01*
Y199569D01*
X69546D01*
Y201143D01*
D02*
G37*
G36*
X87484Y199787D02*
X86598D01*
Y198705D01*
X87484D01*
Y199787D01*
D02*
G37*
G36*
X60685Y197732D02*
Y195927D01*
X62490D01*
X62451Y196073D01*
X62060Y196749D01*
X61508Y197302D01*
X60831Y197693D01*
X60685Y197732D01*
D02*
G37*
G36*
X58685D02*
X58539Y197693D01*
X57862Y197302D01*
X57310Y196749D01*
X56919Y196073D01*
X56880Y195927D01*
X58685D01*
Y197732D01*
D02*
G37*
G36*
X78362Y197555D02*
X76787D01*
Y195783D01*
X78362D01*
Y197555D01*
D02*
G37*
G36*
X74787D02*
X73213D01*
Y195783D01*
X74787D01*
Y197555D01*
D02*
G37*
G36*
X62490Y193927D02*
X60685D01*
Y192122D01*
X60831Y192161D01*
X61508Y192551D01*
X62060Y193104D01*
X62451Y193781D01*
X62490Y193927D01*
D02*
G37*
G36*
X58685D02*
X56880D01*
X56919Y193781D01*
X57310Y193104D01*
X57862Y192551D01*
X58539Y192161D01*
X58685Y192122D01*
Y193927D01*
D02*
G37*
G36*
X78362Y193783D02*
X76787D01*
Y192012D01*
X78362D01*
Y193783D01*
D02*
G37*
G36*
X74787D02*
X73213D01*
Y192012D01*
X74787D01*
Y193783D01*
D02*
G37*
G36*
X105264Y193168D02*
X103098D01*
Y190412D01*
X105264D01*
Y193168D01*
D02*
G37*
G36*
X100606Y187909D02*
X98835D01*
Y186039D01*
X100606D01*
Y187909D01*
D02*
G37*
G36*
Y184039D02*
X98835D01*
Y182169D01*
X100606D01*
Y184039D01*
D02*
G37*
G36*
X105264Y183357D02*
X103098D01*
Y180601D01*
X105264D01*
Y183357D01*
D02*
G37*
G36*
X84630Y183941D02*
X83547D01*
Y183055D01*
X84630D01*
Y183941D01*
D02*
G37*
G36*
X81512Y184138D02*
X79937D01*
Y182366D01*
X81512D01*
Y184138D01*
D02*
G37*
G36*
X77937D02*
X76362D01*
Y182366D01*
X77937D01*
Y184138D01*
D02*
G37*
G36*
X92405Y178134D02*
X91520D01*
Y177051D01*
X92405D01*
Y178134D01*
D02*
G37*
G36*
X78268Y169424D02*
X77497D01*
Y168200D01*
X80224D01*
X79841Y168772D01*
X79119Y169255D01*
X78268Y169424D01*
D02*
G37*
G36*
X75497D02*
X74725D01*
X73874Y169255D01*
X73153Y168772D01*
X72770Y168200D01*
X75497D01*
Y169424D01*
D02*
G37*
G36*
X80224Y166200D02*
X77497D01*
Y164976D01*
X78268D01*
X79119Y165146D01*
X79841Y165628D01*
X80224Y166200D01*
D02*
G37*
G36*
X75497D02*
X72770D01*
X73153Y165628D01*
X73874Y165146D01*
X74725Y164976D01*
X75497D01*
Y166200D01*
D02*
G37*
G36*
X80450Y159381D02*
X77497D01*
Y158200D01*
X80450D01*
Y159381D01*
D02*
G37*
G36*
X75497D02*
X72544D01*
Y158200D01*
X75497D01*
Y159381D01*
D02*
G37*
G36*
X80450Y156200D02*
X77497D01*
Y155019D01*
X80450D01*
Y156200D01*
D02*
G37*
G36*
X75497D02*
X72544D01*
Y155019D01*
X75497D01*
Y156200D01*
D02*
G37*
G36*
X100528Y169381D02*
X97576D01*
Y168200D01*
X100528D01*
Y169381D01*
D02*
G37*
G36*
X95576D02*
X92623D01*
Y168200D01*
X95576D01*
Y169381D01*
D02*
G37*
G36*
X100528Y166200D02*
X97576D01*
Y165019D01*
X100528D01*
Y166200D01*
D02*
G37*
G36*
X95576D02*
X92623D01*
Y165019D01*
X95576D01*
Y166200D01*
D02*
G37*
G36*
X100528Y164381D02*
X97576D01*
Y163200D01*
X100528D01*
Y164381D01*
D02*
G37*
G36*
X95576D02*
X92623D01*
Y163200D01*
X95576D01*
Y164381D01*
D02*
G37*
G36*
X100528Y161200D02*
X97576D01*
Y160019D01*
X100528D01*
Y161200D01*
D02*
G37*
G36*
X95576D02*
X92623D01*
Y160019D01*
X95576D01*
Y161200D01*
D02*
G37*
G36*
X100528Y159381D02*
X97576D01*
Y158200D01*
X100528D01*
Y159381D01*
D02*
G37*
G36*
X95576D02*
X92623D01*
Y158200D01*
X95576D01*
Y159381D01*
D02*
G37*
G36*
X100528Y156200D02*
X97576D01*
Y155019D01*
X100528D01*
Y156200D01*
D02*
G37*
G36*
X95576D02*
X92623D01*
Y155019D01*
X95576D01*
Y156200D01*
D02*
G37*
G36*
X100528Y154381D02*
X97576D01*
Y153200D01*
X100528D01*
Y154381D01*
D02*
G37*
G36*
X95576D02*
X92623D01*
Y153200D01*
X95576D01*
Y154381D01*
D02*
G37*
G36*
X100528Y151200D02*
X97576D01*
Y150019D01*
X100528D01*
Y151200D01*
D02*
G37*
G36*
X95576D02*
X92623D01*
Y150019D01*
X95576D01*
Y151200D01*
D02*
G37*
G36*
X68154Y147625D02*
X65300D01*
Y145263D01*
X68154D01*
Y147625D01*
D02*
G37*
G36*
X63300D02*
X60446D01*
Y145263D01*
X63300D01*
Y147625D01*
D02*
G37*
G36*
X68154Y143263D02*
X65300D01*
Y140901D01*
X68154D01*
Y143263D01*
D02*
G37*
G36*
X63300D02*
X60446D01*
Y140901D01*
X63300D01*
Y143263D01*
D02*
G37*
G36*
X55454Y143163D02*
X52600D01*
Y140801D01*
X55454D01*
Y143163D01*
D02*
G37*
G36*
X32988Y116323D02*
X32496D01*
Y114945D01*
X32988D01*
Y116323D01*
D02*
G37*
G36*
X38303Y113205D02*
X36433D01*
Y111433D01*
X38303D01*
Y113205D01*
D02*
G37*
G36*
X34433D02*
X32563D01*
Y111433D01*
X34433D01*
Y113205D01*
D02*
G37*
%LPD*%
D11*
X-7874Y125000D02*
X-4921Y122047D01*
X-4632Y223714D02*
X6739Y235085D01*
X-7874Y125000D02*
Y202756D01*
X39000Y148358D02*
X40091D01*
X-4632Y129829D02*
X-3740Y128937D01*
X-4632Y129829D02*
Y223714D01*
X40091Y148358D02*
X40354Y148622D01*
X37443Y145779D02*
Y146801D01*
X39000Y148358D01*
X-3740Y128937D02*
X-1083D01*
X19978Y144167D02*
X20711Y144900D01*
X16073Y144167D02*
X19978D01*
X110236Y182125D02*
Y191645D01*
Y182125D02*
X112169Y180192D01*
X110236Y191645D02*
X112169Y193578D01*
Y179601D02*
Y180192D01*
Y193578D02*
Y194168D01*
X27559Y104823D02*
X27657D01*
X28543Y103937D01*
Y101659D02*
X29528Y100675D01*
Y100394D02*
Y100675D01*
X28543Y101659D02*
Y103937D01*
X21643Y104724D02*
X21654D01*
X20560Y103642D02*
X21643Y104724D01*
X20560Y102253D02*
Y103642D01*
X18701Y100394D02*
X20560Y102253D01*
X32480Y100394D02*
X32744Y100657D01*
Y101543D01*
X35335Y104134D01*
X35433D01*
X64173Y60039D02*
X68898D01*
X19587Y153248D02*
Y156496D01*
Y153248D02*
X20276Y152559D01*
X-4921Y122047D02*
X-1083D01*
X27559Y125000D02*
Y132874D01*
X25394Y122835D02*
X27559Y125000D01*
X23622Y121063D02*
X25394Y122835D01*
X23622Y117126D02*
Y121063D01*
X19685D02*
X23622D01*
X-45590Y176295D02*
X-38581D01*
X-25920Y211454D02*
X-21654Y207188D01*
X-38581Y176295D02*
X-21654Y193223D01*
X-51615Y176295D02*
X-45590D01*
X-21654Y193223D02*
Y207188D01*
X-33636Y205549D02*
X-32812Y204724D01*
X-27559D01*
X-36265Y161134D02*
X-11747Y185652D01*
Y221297D01*
X-63897Y160667D02*
X-38616D01*
X-71771Y167753D02*
X-70984D01*
X-38233Y161134D02*
X-36265D01*
X-38700Y160667D02*
X-38233Y161134D01*
X-45590Y165588D02*
X-37716D01*
X-15049Y188255D01*
X-38574Y170903D02*
X-18249Y191227D01*
Y211657D01*
X-15049Y188255D02*
Y218300D01*
X6739Y235085D02*
X37220D01*
X73917Y186614D02*
X73917D01*
X76378Y189075D02*
X85630D01*
X73917Y186614D02*
X76378Y189075D01*
X72638Y185335D02*
X73917Y186614D01*
X91535Y185039D02*
Y185138D01*
X89379Y187294D02*
X91535Y185138D01*
X89116Y189056D02*
X89379Y188792D01*
Y187294D02*
Y188792D01*
X92221Y199620D02*
X92224Y199623D01*
Y200394D01*
X92221Y196472D02*
Y199620D01*
X92224Y200394D02*
X92618Y200787D01*
X107322D01*
X110535Y197574D01*
Y195803D02*
X112169Y194168D01*
X110535Y195803D02*
Y197574D01*
X-53661Y167753D02*
X-51496Y165588D01*
X-60748Y167753D02*
X-53661D01*
X-51496Y165588D02*
X-45590D01*
X-70984Y167753D02*
X-63897Y160667D01*
X-53858Y174052D02*
X-51615Y176295D01*
X-60748Y174052D02*
X-53858D01*
X-41425Y170903D02*
X-38574D01*
X-60748D02*
X-41450D01*
X-28283Y223264D02*
X-28282Y223263D01*
X-33636Y223265D02*
X-33635Y223264D01*
X-28283D01*
X-23951Y217359D02*
X-18249Y211657D01*
X-25920Y229170D02*
X-15049Y218300D01*
X-33636Y211454D02*
X-25920D01*
X-33636Y229170D02*
X-25920D01*
X-33636Y217359D02*
X-23951D01*
D13*
X4001Y219722D02*
D03*
X7151D02*
D03*
X2427Y218147D02*
D03*
X5576D02*
D03*
X8726D02*
D03*
X4001Y216572D02*
D03*
X7151D02*
D03*
X2427Y214997D02*
D03*
X5576D02*
D03*
X8726D02*
D03*
X4001Y213422D02*
D03*
X7151D02*
D03*
D15*
X61839Y154105D02*
X63808Y152137D01*
X59303Y156903D02*
X61839Y154366D01*
X58700Y158400D02*
X59303Y157797D01*
X63808Y152137D02*
X64300D01*
X61839Y154105D02*
Y154366D01*
X59303Y156903D02*
Y157797D01*
X40807Y162338D02*
X51108Y152037D01*
X15938Y162338D02*
X40807D01*
X51108Y152037D02*
X51600D01*
X14863Y128937D02*
X19882D01*
X4400Y139400D02*
X14863Y128937D01*
X4400Y139400D02*
Y150800D01*
X15938Y162338D01*
X2012Y124185D02*
X3165Y123031D01*
X2012Y151912D02*
X15600Y165500D01*
X2012Y124185D02*
Y151912D01*
X15600Y165500D02*
X41900D01*
X5315Y129331D02*
X9569D01*
X11931Y126969D02*
X19685D01*
X9569Y129331D02*
X11931Y126969D01*
X31496Y132677D02*
Y134457D01*
X36443Y139404D01*
X64332Y152169D02*
X76269D01*
X64300Y152137D02*
X64332Y152169D01*
X76269D02*
X76300Y152200D01*
X39370Y152559D02*
X39500Y152689D01*
Y157200D01*
X5020Y122047D02*
Y122343D01*
X3165Y123031D02*
X4331D01*
X5020Y122343D01*
X51600Y157600D02*
X56376Y162376D01*
X51600Y152037D02*
Y157600D01*
X56376Y162376D02*
X74236D01*
X5020Y122047D02*
X9147D01*
X12067Y124967D02*
X19652D01*
X9147Y122047D02*
X12067Y124967D01*
X15245Y122101D02*
X15671D01*
X16602Y123031D01*
X36443Y139404D02*
Y139601D01*
Y134081D02*
Y139404D01*
X35236Y128937D02*
Y132874D01*
X36443Y134081D01*
X35433Y126969D02*
X39173D01*
X43307D02*
X45276Y125000D01*
X35433D02*
X45276D01*
X25591Y132874D02*
X25591Y132874D01*
X25591Y132874D02*
Y137795D01*
X20711Y136868D02*
X23524Y134055D01*
Y132973D02*
Y134055D01*
X20711Y136868D02*
Y139452D01*
X23524Y132973D02*
X23622Y132874D01*
X35433Y123031D02*
X43307D01*
X46260Y120079D01*
X40053Y118412D02*
Y119177D01*
Y118412D02*
X40354Y118110D01*
X35433Y121063D02*
X38167D01*
X40053Y119177D01*
X29528Y132874D02*
Y138287D01*
X25689Y36417D02*
X29528D01*
X25323D02*
X25689D01*
X-26673D02*
X-26590D01*
X-30512D02*
X-26673D01*
X64075Y54134D02*
X68898D01*
X-26590Y36417D02*
X-26100Y35927D01*
X25170Y36264D02*
X25323Y36417D01*
X29528Y113976D02*
Y117126D01*
X16602Y123031D02*
X19685D01*
X18799Y70153D02*
X19071Y69882D01*
X22638D01*
X25591Y113484D02*
Y117126D01*
X21949Y109843D02*
X25591Y113484D01*
X21654Y109843D02*
X21949D01*
X27559Y110433D02*
Y117126D01*
D17*
X72638Y185138D02*
Y185335D01*
X85630Y189075D02*
X85927Y189372D01*
Y190500D01*
X87356Y191929D01*
X91536D01*
X92126Y191339D01*
Y191043D02*
Y191339D01*
X94882Y194783D02*
X94943Y194844D01*
Y197605D02*
X95004Y197666D01*
X94943Y194844D02*
Y197605D01*
X93504Y194783D02*
X94882D01*
Y191043D02*
X99311D01*
X93504D02*
Y192226D01*
X92126Y193604D02*
Y196376D01*
Y193604D02*
X93504Y192226D01*
X92126Y196376D02*
X92162Y196412D01*
D57*
X76497Y167200D02*
D03*
D58*
Y162200D02*
D03*
Y157200D02*
D03*
Y152200D02*
D03*
X96576Y167200D02*
D03*
Y162200D02*
D03*
Y157200D02*
D03*
Y152200D02*
D03*
D59*
X64300Y144263D02*
D03*
Y152137D02*
D03*
X51600Y152037D02*
D03*
Y144163D02*
D03*
D60*
X75787Y194783D02*
D03*
X78937Y185138D02*
D03*
X72638D02*
D03*
D61*
X36443Y145900D02*
D03*
Y139601D02*
D03*
X35433Y110433D02*
D03*
Y104134D02*
D03*
X1969Y179331D02*
D03*
Y173031D02*
D03*
X28231Y179335D02*
D03*
Y173036D02*
D03*
X63246Y208733D02*
D03*
Y202433D02*
D03*
X-50212Y129028D02*
D03*
Y135327D02*
D03*
X-70771Y63474D02*
D03*
Y57174D02*
D03*
D62*
X27559Y125000D02*
D03*
D63*
X35236Y128937D02*
D03*
Y126969D02*
D03*
Y125000D02*
D03*
Y123031D02*
D03*
Y121063D02*
D03*
X19882D02*
D03*
Y123031D02*
D03*
Y125000D02*
D03*
Y126969D02*
D03*
Y128937D02*
D03*
D64*
X31496Y117323D02*
D03*
X29528D02*
D03*
X27559D02*
D03*
X25591D02*
D03*
X23622D02*
D03*
Y132677D02*
D03*
X25591D02*
D03*
X27559D02*
D03*
X29528D02*
D03*
D65*
X31496D02*
D03*
D66*
X39370Y152559D02*
D03*
X33268D02*
D03*
X26378D02*
D03*
X20276D02*
D03*
X5020Y128937D02*
D03*
X-1083D02*
D03*
X5020Y122047D02*
D03*
X-1083D02*
D03*
X18799Y70153D02*
D03*
X12697D02*
D03*
X64075Y54134D02*
D03*
X57972D02*
D03*
X-4476Y70153D02*
D03*
X1626D02*
D03*
X-38900Y66710D02*
D03*
X-32798D02*
D03*
X-45295Y211634D02*
D03*
X-51397D02*
D03*
X-20571Y36417D02*
D03*
X-26673D02*
D03*
X19587D02*
D03*
X25689D02*
D03*
X-39000Y102527D02*
D03*
X-32898D02*
D03*
X-39140Y84623D02*
D03*
X-33037D02*
D03*
X47937Y232927D02*
D03*
X54039D02*
D03*
X54151Y226127D02*
D03*
X48048D02*
D03*
D67*
X29569Y139290D02*
D03*
Y145392D02*
D03*
X62992Y17618D02*
D03*
Y23720D02*
D03*
X-58385Y142064D02*
D03*
Y135962D02*
D03*
X20733Y173134D02*
D03*
Y179237D02*
D03*
X9389Y173134D02*
D03*
Y179237D02*
D03*
X-86449Y57076D02*
D03*
Y63178D02*
D03*
D68*
X21654Y109843D02*
D03*
Y104724D02*
D03*
X20711Y139782D02*
D03*
Y144900D02*
D03*
D69*
X57399Y127963D02*
D03*
X44800D02*
D03*
X-59763Y231227D02*
D03*
X-47165D02*
D03*
X89173Y214567D02*
D03*
X101772D02*
D03*
D70*
X27559Y109744D02*
D03*
Y104823D02*
D03*
D71*
X29528Y18701D02*
D03*
X104333Y226839D02*
D03*
X93504Y68378D02*
D03*
X48851Y240033D02*
D03*
X101063Y68378D02*
D03*
X96212Y226839D02*
D03*
X59685Y194927D02*
D03*
X-38700Y160667D02*
D03*
X-38726Y171076D02*
D03*
X-44505Y176295D02*
D03*
X-44673Y165588D02*
D03*
X41900Y165500D02*
D03*
X58700Y158400D02*
D03*
D72*
X97835Y185039D02*
D03*
X91535D02*
D03*
X-51692Y240982D02*
D03*
X-45393D02*
D03*
X-51692Y218541D02*
D03*
X-45393D02*
D03*
X-80826Y178383D02*
D03*
X-87126D02*
D03*
X-80826Y170509D02*
D03*
X-87126D02*
D03*
X55835Y24581D02*
D03*
X49536D02*
D03*
X57874Y60039D02*
D03*
X64173D02*
D03*
D73*
X92126Y194783D02*
D03*
X93504D02*
D03*
X94882D02*
D03*
Y191043D02*
D03*
X93504D02*
D03*
X92126D02*
D03*
D74*
X92618Y200787D02*
D03*
X88484D02*
D03*
X97539Y179134D02*
D03*
X93405D02*
D03*
D75*
X85630Y184941D02*
D03*
Y189075D02*
D03*
D76*
X112169Y194168D02*
D03*
Y179601D02*
D03*
X106264D02*
D03*
Y194168D02*
D03*
D77*
X56626Y3974D02*
D03*
X42059D02*
D03*
Y9879D02*
D03*
X56626D02*
D03*
D78*
X-72165Y177202D02*
D03*
Y174052D02*
D03*
Y170903D02*
D03*
Y167753D02*
D03*
X-60354D02*
D03*
Y170903D02*
D03*
Y174052D02*
D03*
Y177202D02*
D03*
D79*
X12599Y27104D02*
D03*
X9449D02*
D03*
X-9448D02*
D03*
X-12598D02*
D03*
D80*
X4922D02*
D03*
X2953D02*
D03*
X985D02*
D03*
X-984D02*
D03*
X-2952D02*
D03*
X-4921D02*
D03*
X-6889D02*
D03*
X6890D02*
D03*
D81*
X37230Y193737D02*
D03*
Y199643D02*
D03*
Y205549D02*
D03*
Y211454D02*
D03*
Y217359D02*
D03*
Y223265D02*
D03*
Y229170D02*
D03*
Y235076D02*
D03*
Y240982D02*
D03*
X-33636Y193737D02*
D03*
Y199643D02*
D03*
Y205549D02*
D03*
Y211454D02*
D03*
Y217359D02*
D03*
Y223265D02*
D03*
Y229170D02*
D03*
Y235076D02*
D03*
Y240982D02*
D03*
D82*
X70546Y202143D02*
D03*
X74287D02*
D03*
X78027D02*
D03*
Y212183D02*
D03*
X70546D02*
D03*
D83*
X18911Y63247D02*
D03*
X12415D02*
D03*
X1826D02*
D03*
X-4670D02*
D03*
X-45652Y102537D02*
D03*
X-52148D02*
D03*
X-51993Y66710D02*
D03*
X-45497D02*
D03*
X-52148Y84624D02*
D03*
X-45652D02*
D03*
D84*
X79615Y223300D02*
D03*
X70560D02*
D03*
D85*
X-80440Y64848D02*
D03*
X-76699D02*
D03*
Y68588D02*
D03*
X-80440D02*
D03*
D86*
X70909Y100375D02*
D03*
Y68879D02*
D03*
X53193Y100375D02*
D03*
Y68879D02*
D03*
D87*
X11496Y52202D02*
D03*
Y48462D02*
D03*
Y44722D02*
D03*
X21339D02*
D03*
Y48462D02*
D03*
Y52202D02*
D03*
D88*
X-21024Y48228D02*
D03*
X-26221D02*
D03*
D89*
X-41920Y135277D02*
D03*
Y128978D02*
D03*
X-25778D02*
D03*
Y135277D02*
D03*
D90*
X44900Y139600D02*
X45000Y139700D01*
X36444Y139600D02*
X44900D01*
X36443Y139601D02*
X36444Y139600D01*
X53150Y134736D02*
X54840Y133046D01*
X53150Y134736D02*
Y134843D01*
X44800Y127963D02*
X47328Y130491D01*
Y132958D02*
X49137Y134767D01*
X47328Y130491D02*
Y132958D01*
X42913Y126969D02*
X43609D01*
X54840Y129609D02*
Y133046D01*
Y129609D02*
X56496Y127953D01*
X39173Y125297D02*
X42966D01*
X42913Y126969D02*
X42913Y126969D01*
X39173Y126969D02*
X42913D01*
X101969Y214039D02*
Y215095D01*
X-55942Y218534D02*
X-51457D01*
X-60448Y231030D02*
Y231227D01*
Y231030D02*
X-57889Y228471D01*
X-87407Y170509D02*
X-86521Y169623D01*
X-32874Y97752D02*
X-32849Y97727D01*
X-32898Y102527D02*
X-32874Y102503D01*
X-32993Y80071D02*
X-32949Y80027D01*
X-33037Y84682D02*
X-32993Y84638D01*
X-32849Y62227D02*
X-32824Y62253D01*
Y66802D02*
X-32798Y66827D01*
X59357Y212523D02*
X63148Y208733D01*
X63246D01*
X59130Y212523D02*
X59357D01*
X59055Y212598D02*
X59130Y212523D01*
X-30649Y135327D02*
X-30624Y135302D01*
X29528Y18701D02*
X34449D01*
X107997Y213064D02*
X108072D01*
X102944D02*
X107997D01*
X101969Y215095D02*
X103969Y217095D01*
X101772Y214898D02*
X101969Y215095D01*
X104710Y227215D02*
X108014D01*
X108161Y227362D02*
X108268D01*
X104333Y226839D02*
X104710Y227215D01*
X108014D02*
X108161Y227362D01*
X92058Y77883D02*
X93504Y76437D01*
Y68898D02*
Y76437D01*
X92058Y77883D02*
Y77989D01*
X-80433Y170903D02*
X-72165D01*
X-81614Y170122D02*
X-81226Y170509D01*
X-47850Y231030D02*
Y231227D01*
X-55946Y211631D02*
X-51202D01*
X-80472Y178029D02*
X-78000D01*
X-80570Y178127D02*
X-80472Y178029D01*
X-80570Y178127D02*
X-78000D01*
Y178029D02*
Y178127D01*
X-76059Y177202D02*
X-72165D01*
X-78000Y178029D02*
X-77212Y177241D01*
X-72165Y177202D02*
X-71771D01*
X-77212Y177241D02*
X-76098D01*
X-76059Y177202D01*
X101063Y68378D02*
Y77989D01*
X11151Y32525D02*
Y32827D01*
X9449Y27104D02*
Y30823D01*
X11151Y32525D01*
X-9449Y27104D02*
Y32527D01*
Y27104D02*
X-9449Y27104D01*
X-55922Y240954D02*
X-51720D01*
X-55949Y240927D02*
X-55922Y240954D01*
X-51720D02*
X-51692Y240982D01*
X-45393Y231533D02*
Y240982D01*
X-33636D01*
X-52706Y224422D02*
X-52631Y224497D01*
Y226250D01*
X-47850Y231030D01*
X-56306Y224428D02*
Y227085D01*
X-57692Y228471D02*
X-56306Y227085D01*
X-57889Y228471D02*
X-57692D01*
X-60448Y231227D02*
X-60406Y231270D01*
X101969Y214039D02*
X102944Y213064D01*
X103969Y217095D02*
X107997D01*
X-12795Y28285D02*
X-12598Y28088D01*
X-16736Y29778D02*
X-15243Y28285D01*
X-16843Y29778D02*
X-16736D01*
X-15243Y28285D02*
X-12795D01*
X12795D02*
X15243D01*
X16737Y29778D02*
X16844D01*
X15243Y28285D02*
X16737Y29778D01*
X12598Y28088D02*
X12795Y28285D01*
X-51202Y211631D02*
X-51199Y211627D01*
X-55949D02*
X-55946Y211631D01*
X-51457Y218534D02*
X-51450Y218527D01*
X-55949D02*
X-55942Y218534D01*
X-86473Y179036D02*
Y181783D01*
X-87126Y178383D02*
X-86473Y179036D01*
Y181783D02*
X-85579Y182677D01*
X-86521Y167061D02*
X-85776Y166316D01*
X-87526Y170509D02*
X-87407D01*
X-86521Y167061D02*
Y169623D01*
X-85776Y166209D02*
Y166316D01*
X-82576D02*
X-81614Y167278D01*
Y170122D01*
X-82576Y166216D02*
Y166316D01*
X-81614Y179171D02*
Y181814D01*
X-82476Y182677D02*
Y182783D01*
X-81614Y179171D02*
X-80826Y178383D01*
X-82476Y182677D02*
X-81614Y181814D01*
X-60760Y177215D02*
X-60748Y177202D01*
X-64649Y177227D02*
X-64637Y177215D01*
X-60760D01*
X87207Y217302D02*
X89242Y215267D01*
X91159Y217185D02*
Y221525D01*
X89242Y215267D02*
X91159Y217185D01*
X87207Y217302D02*
Y221468D01*
X-25804Y135302D02*
X-25778Y135277D01*
X-71771Y174052D02*
X-71621Y173902D01*
X-67825D01*
X-67749Y173827D01*
X-39288Y193737D02*
X-33636D01*
D91*
X37220Y235085D02*
X37230Y235076D01*
X18847Y63779D02*
X19364Y63263D01*
X1763Y63779D02*
X2279Y63263D01*
X-21024Y48228D02*
X-20866D01*
X-21034D02*
X-21024D01*
X-53953Y97441D02*
X-53634D01*
X-52413Y98661D02*
X-52249D01*
X-53634Y97441D02*
X-52413Y98661D01*
X-52249D02*
Y102437D01*
X-50212Y129078D02*
X-45427D01*
X-50212Y129078D02*
X-50212Y129078D01*
X-45427D02*
X-45377Y129127D01*
X55038Y3580D02*
X61699D01*
X37472Y3906D02*
X43271D01*
X1544Y70248D02*
X1677Y70115D01*
X-45377Y129052D02*
X-41995D01*
X-83780Y68657D02*
X-80411D01*
X-80361Y68607D01*
X66732Y17594D02*
X67594Y16732D01*
X63217Y17594D02*
X66732D01*
X67594Y16732D02*
X67913D01*
X62992Y24581D02*
X64140Y23433D01*
X56757Y24581D02*
X62992D01*
X-52249Y102437D02*
X-52148Y102537D01*
Y84624D02*
X-52099Y84574D01*
Y80982D02*
Y84574D01*
X-53150Y79724D02*
Y79931D01*
X-52099Y80982D01*
X-32874Y97752D02*
Y102503D01*
X-45583Y102468D02*
X-39209D01*
X-39140Y102399D01*
X-45652Y102537D02*
X-45583Y102468D01*
X-45652Y84624D02*
X-45623Y84653D01*
X-39169D02*
X-39140Y84682D01*
X-45623Y84653D02*
X-39169D01*
X-32993Y80071D02*
Y84638D01*
X-45497Y66710D02*
X-45380Y66827D01*
X-38900D01*
X-32824Y62253D02*
Y66802D01*
X-51993Y66710D02*
X-51921Y66638D01*
X-53150Y62017D02*
X-51921Y63245D01*
X-53150Y62008D02*
Y62017D01*
X-51921Y63245D02*
Y66638D01*
X-21428Y47835D02*
X-21034Y48228D01*
X-21654Y44291D02*
X-21428Y44517D01*
Y47835D01*
X-25591Y44291D02*
Y47979D01*
X16418Y48462D02*
X21339D01*
X33167Y227989D02*
X36049D01*
X8023Y202845D02*
X33167Y227989D01*
X7704Y202845D02*
X8023D01*
X-41770Y135427D02*
X-36949D01*
X-41920Y135277D02*
X-41770Y135427D01*
X-30624Y135302D02*
X-25804D01*
X-30549Y129227D02*
X-26028D01*
X47837Y232877D02*
X47937Y232977D01*
X23687Y63263D02*
X23702Y63278D01*
X19364Y63263D02*
X23687D01*
X12487Y69860D02*
X12780Y70153D01*
X12487Y63324D02*
Y69860D01*
X45012Y7517D02*
X53673D01*
X43043Y9486D02*
X45012Y7517D01*
X53673D02*
X55642Y9486D01*
X-76699Y64848D02*
X-76297Y64446D01*
X-71528D02*
X-69885Y62802D01*
X-76297Y64446D02*
X-71528D01*
X-39943Y232010D02*
X-37710Y234243D01*
X-45393Y218639D02*
X-39943Y224089D01*
Y232010D01*
X47840Y226336D02*
X48048Y226127D01*
X74269Y202548D02*
X74286Y202531D01*
X74252Y206421D02*
X74269Y206403D01*
Y202548D02*
Y206403D01*
X1677Y70115D02*
X6081D01*
X2279Y63263D02*
X6602D01*
X6618Y63278D01*
X-19998Y36651D02*
X-8381D01*
X-4921Y33191D01*
Y27104D02*
Y33191D01*
X6890Y27104D02*
Y33566D01*
X9975Y36651D02*
X19454D01*
X6890Y33566D02*
X9975Y36651D01*
X6772Y48449D02*
X11484D01*
X11496Y48462D01*
X6759Y48436D02*
X6772Y48449D01*
X-58397Y141763D02*
Y146486D01*
Y141763D02*
X-58385Y141752D01*
X-58408Y146497D02*
X-58397Y146486D01*
X-57740Y135327D02*
X-50212D01*
X-41995Y129052D02*
X-41920Y128978D01*
X-34469Y234243D02*
X-33636Y235076D01*
X-37710Y234243D02*
X-34469D01*
X-45393Y218541D02*
Y218639D01*
X-45344Y211683D02*
Y218491D01*
Y211683D02*
X-45295Y211634D01*
X-45393Y218541D02*
X-45344Y218491D01*
X-45070Y204992D02*
X-44906Y204827D01*
X-45295Y211634D02*
X-45070Y211410D01*
Y204992D02*
Y211410D01*
X-33636Y199643D02*
X-33558Y199565D01*
X-27582D01*
X-4476Y62965D02*
Y70153D01*
X36049Y227989D02*
X37230Y229170D01*
X55642Y9486D02*
X56626D01*
X35866Y5512D02*
X37472Y3906D01*
X61699Y3580D02*
X63667Y5548D01*
X56757Y11549D02*
Y24581D01*
X56626Y9486D02*
Y11417D01*
X53773Y232927D02*
Y236073D01*
Y225896D02*
Y232927D01*
X48851Y240033D02*
X49813D01*
X37957Y222538D02*
X41409D01*
X37230Y223265D02*
X37957Y222538D01*
X41409D02*
X43914Y220033D01*
X-66451Y61981D02*
X-66345D01*
X-67157Y62686D02*
X-66451Y61981D01*
Y58555D02*
X-66345D01*
X-70356Y57962D02*
X-67044D01*
X-69885Y62686D02*
X-67157D01*
X-67044Y57962D02*
X-66451Y58555D01*
X-69885Y62686D02*
Y62802D01*
X-83849Y68727D02*
X-83780Y68657D01*
X43377Y226336D02*
X47840D01*
X49813Y240033D02*
X53773Y236073D01*
X43201Y232877D02*
X47837D01*
X37230Y240982D02*
X38179Y240033D01*
X48851D01*
X70867Y68921D02*
Y75327D01*
X70951Y93927D02*
Y100333D01*
X49202Y20778D02*
Y24149D01*
X49328Y24275D01*
X49051Y20627D02*
X49202Y20778D01*
X-86324Y57202D02*
X-82275D01*
X-82149Y57327D01*
X-86449Y57076D02*
X-86324Y57202D01*
X-86154Y63178D02*
X-84485Y64848D01*
X-80440D01*
X-86449Y63178D02*
X-86154D01*
X-26028Y129227D02*
X-25778Y128978D01*
X-50112Y135427D02*
X-42070D01*
X-50212Y135327D02*
X-50112Y135427D01*
X-42070D02*
X-41920Y135277D01*
X30251Y193727D02*
X30261Y193737D01*
X37230D01*
X37222Y199635D02*
X37230Y199643D01*
X30551Y199627D02*
X30559Y199635D01*
X37222D01*
X37219Y205538D02*
X37230Y205549D01*
X30751Y205527D02*
X30762Y205538D01*
X37219D01*
X56626Y11417D02*
X56757Y11549D01*
D92*
X30020Y145392D02*
Y152454D01*
X29823Y152552D02*
X33261D01*
X26385D02*
X29823D01*
X29921Y152454D01*
D93*
X28196Y179205D02*
Y183128D01*
X3196Y180315D02*
X3350Y180469D01*
X1969Y179331D02*
X2953Y180315D01*
X3350Y180469D02*
X3563D01*
X2953Y180315D02*
X3196D01*
X70553Y212189D02*
Y223293D01*
X70546Y212183D02*
X70553Y212189D01*
Y223293D02*
X70560Y223300D01*
X28196Y179205D02*
X28231Y179171D01*
X28162Y183162D02*
X28196Y183128D01*
X70867Y68921D02*
X70909Y68879D01*
D94*
X55002Y66578D02*
X55216D01*
X53193Y68387D02*
X55002Y66578D01*
X53193Y68387D02*
Y100375D01*
X57874Y60039D02*
Y63920D01*
X55216Y66578D02*
X57874Y63920D01*
Y60039D02*
X57923Y59990D01*
Y54183D02*
Y59990D01*
Y54183D02*
X57972Y54134D01*
D95*
X24606Y52165D02*
X24634D01*
X26575Y50225D01*
X21339Y52202D02*
X24570D01*
X24606Y52165D01*
X21142Y52399D02*
X21339Y52202D01*
X16490Y44722D02*
X16588Y44623D01*
X21241D02*
X21339Y44722D01*
X16588Y44623D02*
X21241D01*
X24052Y44722D02*
X26575Y47244D01*
X21339Y44722D02*
X24052D01*
X16490Y52399D02*
X21142D01*
X3036Y27186D02*
Y33316D01*
X1010Y34985D02*
X2335Y36311D01*
X3036Y33316D02*
X4294Y34574D01*
X2335Y36311D02*
Y36706D01*
X1010Y27129D02*
Y34985D01*
X4294Y34574D02*
X4607D01*
X16391Y44623D02*
X16490Y44525D01*
X10611Y44623D02*
X16391D01*
X-3065Y27216D02*
Y45163D01*
X-984Y27104D02*
Y44301D01*
X-3065Y45163D02*
X1994Y50222D01*
X-984Y44301D02*
X1959Y47244D01*
X1994Y50222D02*
X3967D01*
X1959Y47244D02*
X3856D01*
X6003Y45097D01*
X3967Y50222D02*
X5946Y52202D01*
X-3065Y27216D02*
X-2952Y27104D01*
X5946Y52202D02*
X10512D01*
X6003Y45097D02*
X10137D01*
X10611Y44623D01*
X2953Y27104D02*
X3036Y27186D01*
X12106Y52301D02*
X16392D01*
X16490Y52399D01*
D96*
X26415Y211454D02*
X37230D01*
X16732Y183237D02*
Y201772D01*
X26415Y211454D01*
X13813Y183365D02*
Y203773D01*
X27399Y217359D01*
X37230D01*
X9684Y179237D02*
X13813Y183365D01*
X9389Y179237D02*
X9684D01*
X16732Y183237D02*
X20733Y179237D01*
X13863Y171679D02*
Y172615D01*
X15619Y174371D01*
X18687D01*
X13584Y171400D02*
X13863Y171679D01*
X19412Y174357D02*
X20437Y173331D01*
X18687Y174371D02*
X18701Y174357D01*
X19412D01*
X20437Y173331D02*
X27935D01*
X9983Y170576D02*
X11540Y169019D01*
X14491D02*
X15769Y170297D01*
X11540Y169019D02*
X14491D01*
X15769Y170327D02*
X16446Y171004D01*
X15769Y170297D02*
Y170327D01*
X16446Y171004D02*
Y171400D01*
X9094Y173036D02*
X9983Y172147D01*
Y170576D02*
Y172147D01*
X27935Y173331D02*
X28231Y173036D01*
X852D02*
X9094D01*
D97*
X112957Y186688D02*
D03*
X105870D02*
D03*
X49146Y3186D02*
D03*
Y10273D02*
D03*
D98*
X-103347Y135827D02*
D03*
X103347D02*
D03*
D99*
X-22441Y6041D02*
D03*
X22441D02*
D03*
D100*
X-22441Y21789D02*
D03*
X22441D02*
D03*
D101*
X5576Y216572D02*
D03*
D102*
X4700Y139100D02*
D03*
X39500Y157200D02*
D03*
X40354Y148622D02*
D03*
X53150Y134843D02*
D03*
X15245Y122101D02*
D03*
X49213Y134843D02*
D03*
X25591Y137795D02*
D03*
X-53953Y97441D02*
D03*
X-45377Y129127D02*
D03*
X16073Y144167D02*
D03*
X67913Y16732D02*
D03*
X-66345Y61981D02*
D03*
X-53150Y62008D02*
D03*
Y79724D02*
D03*
X46260Y120079D02*
D03*
X42646Y117746D02*
D03*
X18701Y100394D02*
D03*
X29528D02*
D03*
X32480D02*
D03*
X-7874Y202756D02*
D03*
X68898Y60039D02*
D03*
Y54134D02*
D03*
X-21654Y44291D02*
D03*
X-25591D02*
D03*
X29528Y36417D02*
D03*
X-30512D02*
D03*
X26575Y47244D02*
D03*
Y50225D02*
D03*
X16418Y48462D02*
D03*
X19587Y156496D02*
D03*
X59055Y212598D02*
D03*
X-27559Y204724D02*
D03*
X7704Y202845D02*
D03*
X3563Y180469D02*
D03*
X-36949Y135427D02*
D03*
X-30649Y135327D02*
D03*
X-30549Y129227D02*
D03*
X42646Y110856D02*
D03*
X42646Y114301D02*
D03*
X22638Y69882D02*
D03*
X23702Y63278D02*
D03*
X34449Y18701D02*
D03*
X89116Y189056D02*
D03*
X95004Y197666D02*
D03*
X4607Y34574D02*
D03*
X16490Y44525D02*
D03*
X2335Y36706D02*
D03*
X108268Y227362D02*
D03*
X74252Y206421D02*
D03*
X101063Y77989D02*
D03*
X104163Y80789D02*
D03*
X101063D02*
D03*
X104163Y77989D02*
D03*
Y83589D02*
D03*
X101063D02*
D03*
X16446Y171400D02*
D03*
X13584D02*
D03*
X6618Y70115D02*
D03*
Y63278D02*
D03*
X6759Y48436D02*
D03*
X16490Y52399D02*
D03*
X-32849Y61927D02*
D03*
X-55949Y240927D02*
D03*
X-56306Y224428D02*
D03*
X-52706Y224422D02*
D03*
X-58408Y146497D02*
D03*
X107997Y213064D02*
D03*
Y217095D02*
D03*
X-44906Y204827D02*
D03*
X-27582Y199565D02*
D03*
X-16736Y29778D02*
D03*
X16844D02*
D03*
X28162Y183233D02*
D03*
X63667Y5548D02*
D03*
X-55949Y211627D02*
D03*
Y218527D02*
D03*
X43914Y219978D02*
D03*
X-66345Y58555D02*
D03*
X-83849Y68727D02*
D03*
X-85776Y166209D02*
D03*
X-82576D02*
D03*
X-85579Y182783D02*
D03*
X-82476D02*
D03*
X43201Y232877D02*
D03*
X43377Y226336D02*
D03*
X70867Y75327D02*
D03*
X70951Y93927D02*
D03*
X49051Y20627D02*
D03*
X92058Y83589D02*
D03*
X95158D02*
D03*
X-28282Y223263D02*
D03*
X-32949Y79427D02*
D03*
X-32849Y97627D02*
D03*
X-82149Y57327D02*
D03*
X91159Y221525D02*
D03*
X87207Y221468D02*
D03*
X91102Y225477D02*
D03*
X87093Y229372D02*
D03*
X91045Y229430D02*
D03*
X87150Y225420D02*
D03*
X-64649Y177227D02*
D03*
X-67749Y173827D02*
D03*
X-39288Y193737D02*
D03*
X95158Y77989D02*
D03*
X92058D02*
D03*
X95158Y80789D02*
D03*
X92058D02*
D03*
X35866Y5512D02*
D03*
X30251Y193727D02*
D03*
X30551Y199627D02*
D03*
X30751Y205527D02*
D03*
X-11747Y221297D02*
D03*
D103*
X25394Y122835D02*
D03*
Y127165D02*
D03*
X29724Y122835D02*
D03*
Y127165D02*
D03*
D104*
X11151Y32827D02*
D03*
X-9449Y32527D02*
D03*
M02*
