G04*
G04 #@! TF.GenerationSoftware,Altium Limited,Altium Designer,22.5.1 (42)*
G04*
G04 Layer_Physical_Order=4*
G04 Layer_Color=16711680*
%FSLAX25Y25*%
%MOIN*%
G70*
G04*
G04 #@! TF.SameCoordinates,99E8522F-A59E-4A80-82A0-D8EFEBB404AF*
G04*
G04*
G04 #@! TF.FilePolarity,Positive*
G04*
G01*
G75*
%ADD12C,0.00984*%
%ADD13C,0.01575*%
%ADD15C,0.00787*%
%ADD71C,0.03937*%
%ADD90C,0.01181*%
%ADD92C,0.01968*%
%ADD96C,0.00902*%
%ADD97C,0.19685*%
%ADD98C,0.02756*%
%ADD99O,0.03937X0.08661*%
%ADD100O,0.03937X0.07087*%
%ADD101R,0.11417X0.11417*%
%ADD102C,0.02362*%
%ADD103C,0.01968*%
%ADD104C,0.03150*%
%ADD105R,0.05906X0.13386*%
%ADD106R,0.03937X0.13780*%
G36*
X76658Y269716D02*
X78170Y269257D01*
X79563Y268512D01*
X80785Y267510D01*
X81787Y266289D01*
X82532Y264895D01*
X82991Y263383D01*
X83145Y261811D01*
X83033Y260664D01*
X83033D01*
X82999Y260423D01*
X82983Y260175D01*
X82832Y257874D01*
X82999Y255325D01*
X83498Y252819D01*
X84319Y250400D01*
X85449Y248109D01*
X86868Y245985D01*
X88552Y244064D01*
X90473Y242380D01*
X92597Y240961D01*
X94888Y239831D01*
X97307Y239009D01*
X99813Y238511D01*
X102362Y238344D01*
X104654Y238494D01*
X104911Y238511D01*
X105152Y238544D01*
X105152Y238544D01*
X106299Y238657D01*
X107872Y238503D01*
X109383Y238044D01*
X110777Y237299D01*
X111998Y236297D01*
X113001Y235075D01*
X113745Y233682D01*
X114204Y232170D01*
X114351Y230677D01*
X114335Y230598D01*
Y189002D01*
X113835Y188668D01*
X113387Y188853D01*
X112526D01*
X111730Y188523D01*
X111121Y187914D01*
X110791Y187119D01*
Y186257D01*
X111121Y185461D01*
X111730Y184852D01*
X112526Y184522D01*
X113387D01*
X113835Y184708D01*
X114335Y184374D01*
Y138712D01*
X113835Y138632D01*
X113395Y139989D01*
X112620Y141509D01*
X111617Y142890D01*
X110410Y144097D01*
X109029Y145100D01*
X107509Y145875D01*
X105885Y146402D01*
X104347Y146646D01*
Y135827D01*
Y125007D01*
X105885Y125251D01*
X107509Y125779D01*
X109029Y126553D01*
X110410Y127557D01*
X111617Y128763D01*
X112620Y130144D01*
X113395Y131665D01*
X113835Y133021D01*
X114335Y132942D01*
Y104497D01*
X114274Y104409D01*
X113860Y104128D01*
X113835Y104130D01*
X113740Y104149D01*
X113740Y104149D01*
X113740Y104149D01*
X102582Y104149D01*
Y116142D01*
X102490Y116603D01*
X102229Y116993D01*
X70604Y148618D01*
Y206678D01*
X70604Y206678D01*
X70513Y207139D01*
X70252Y207530D01*
X45169Y232612D01*
Y233269D01*
X44870Y233992D01*
X44316Y234546D01*
X43592Y234846D01*
X42809D01*
X42086Y234546D01*
X41532Y233992D01*
X41232Y233269D01*
Y232486D01*
X41532Y231762D01*
X42086Y231208D01*
X42809Y230909D01*
X43466D01*
X68196Y206179D01*
Y148120D01*
X68196Y148120D01*
X68287Y147659D01*
X68549Y147268D01*
X100174Y115643D01*
Y104503D01*
X99820Y104149D01*
X97795Y104149D01*
X97795Y104149D01*
X97487Y104088D01*
X97227Y103914D01*
X96873Y103561D01*
X96699Y103300D01*
X96638Y102993D01*
Y101117D01*
X94777D01*
Y93227D01*
Y85338D01*
X96638D01*
X96638Y76884D01*
X96638Y76884D01*
X96699Y76577D01*
X96873Y76317D01*
X96873Y76317D01*
X99705Y73485D01*
X99966Y73311D01*
X100273Y73250D01*
X107163D01*
Y63897D01*
X114335D01*
Y41056D01*
X114351Y40977D01*
X114204Y39484D01*
X113745Y37972D01*
X113001Y36578D01*
X111998Y35357D01*
X110777Y34355D01*
X109383Y33610D01*
X107872Y33151D01*
X106299Y32996D01*
X105152Y33109D01*
Y33109D01*
X104911Y33143D01*
X104663Y33159D01*
X102362Y33310D01*
X99813Y33143D01*
X97307Y32644D01*
X94888Y31823D01*
X92597Y30693D01*
X90473Y29274D01*
X88552Y27589D01*
X86868Y25669D01*
X85449Y23544D01*
X84319Y21253D01*
X83498Y18834D01*
X82999Y16329D01*
X82832Y13780D01*
X82982Y11488D01*
X82999Y11230D01*
X83033Y10989D01*
X83033Y10989D01*
X83145Y9843D01*
X82991Y8270D01*
X82532Y6758D01*
X81787Y5365D01*
X80785Y4143D01*
X79563Y3141D01*
X78170Y2396D01*
X76658Y1938D01*
X75165Y1791D01*
X75086Y1806D01*
X74734Y1736D01*
X51411D01*
X51096Y2236D01*
X51311Y2756D01*
Y3617D01*
X50981Y4413D01*
X50372Y5022D01*
X49576Y5352D01*
X48715D01*
X47919Y5022D01*
X47310Y4413D01*
X46980Y3617D01*
Y2756D01*
X47195Y2236D01*
X46880Y1736D01*
X24990D01*
X24769Y2185D01*
X24849Y2289D01*
X25126Y2959D01*
X25221Y3678D01*
Y8403D01*
X25126Y9122D01*
X24849Y9793D01*
X24407Y10368D01*
X23831Y10810D01*
X23161Y11088D01*
X22441Y11182D01*
X21722Y11088D01*
X21052Y10810D01*
X20595Y10459D01*
X20095Y10632D01*
Y17985D01*
X20595Y18157D01*
X21052Y17807D01*
X21722Y17529D01*
X22441Y17434D01*
X23161Y17529D01*
X23831Y17807D01*
X24407Y18248D01*
X24849Y18824D01*
X25126Y19494D01*
X25221Y20214D01*
Y23363D01*
X25126Y24083D01*
X24849Y24753D01*
X24407Y25329D01*
X23831Y25771D01*
X23161Y26048D01*
X22441Y26143D01*
X21722Y26048D01*
X21052Y25771D01*
X20514Y25358D01*
X20425Y25337D01*
X19916Y25421D01*
X19860Y25506D01*
X19599Y25680D01*
X19292Y25741D01*
X14567D01*
X14260Y25680D01*
X14000Y25506D01*
X13826Y25245D01*
X13769Y24959D01*
X-13768D01*
X-13825Y25245D01*
X-13999Y25506D01*
X-14259Y25680D01*
X-14567Y25741D01*
X-19291D01*
X-19598Y25680D01*
X-19859Y25506D01*
X-19915Y25421D01*
X-20424Y25337D01*
X-20513Y25358D01*
X-21051Y25771D01*
X-21721Y26048D01*
X-22441Y26143D01*
X-23160Y26048D01*
X-23830Y25771D01*
X-24406Y25329D01*
X-24848Y24753D01*
X-25126Y24083D01*
X-25220Y23363D01*
Y20214D01*
X-25126Y19494D01*
X-24848Y18824D01*
X-24406Y18248D01*
X-23830Y17807D01*
X-23160Y17529D01*
X-22441Y17434D01*
X-21721Y17529D01*
X-21051Y17807D01*
X-20594Y18157D01*
X-20094Y17985D01*
Y10632D01*
X-20594Y10459D01*
X-21051Y10810D01*
X-21721Y11088D01*
X-22441Y11182D01*
X-23160Y11088D01*
X-23830Y10810D01*
X-24406Y10368D01*
X-24848Y9793D01*
X-25126Y9122D01*
X-25220Y8403D01*
Y3678D01*
X-25126Y2959D01*
X-24848Y2289D01*
X-24768Y2185D01*
X-24989Y1736D01*
X-74734D01*
X-75086Y1806D01*
X-75576Y1831D01*
X-76658Y1938D01*
X-78170Y2396D01*
X-79563Y3141D01*
X-80785Y4143D01*
X-81787Y5365D01*
X-82532Y6758D01*
X-82991Y8270D01*
X-83145Y9843D01*
X-83033Y10989D01*
X-83033D01*
X-82999Y11230D01*
X-82983Y11479D01*
X-82832Y13780D01*
X-82999Y16329D01*
X-83498Y18834D01*
X-84319Y21253D01*
X-85449Y23544D01*
X-86868Y25669D01*
X-88552Y27589D01*
X-90473Y29274D01*
X-92597Y30693D01*
X-94888Y31823D01*
X-97307Y32644D01*
X-99813Y33143D01*
X-102362Y33310D01*
X-104654Y33159D01*
X-104911Y33143D01*
X-105152Y33109D01*
X-105152Y33109D01*
X-106299Y32996D01*
X-107872Y33151D01*
X-109383Y33610D01*
X-110777Y34355D01*
X-111998Y35357D01*
X-113001Y36578D01*
X-113745Y37972D01*
X-114204Y39484D01*
X-114351Y40977D01*
X-114335Y41056D01*
Y132942D01*
X-113835Y133021D01*
X-113395Y131665D01*
X-112620Y130144D01*
X-111617Y128763D01*
X-110410Y127557D01*
X-109029Y126553D01*
X-107509Y125779D01*
X-105885Y125251D01*
X-104347Y125007D01*
Y135827D01*
Y146646D01*
X-105885Y146402D01*
X-107509Y145875D01*
X-109029Y145100D01*
X-110410Y144097D01*
X-111617Y142890D01*
X-112620Y141509D01*
X-113395Y139989D01*
X-113835Y138632D01*
X-114335Y138712D01*
Y230598D01*
X-114351Y230677D01*
X-114204Y232170D01*
X-113745Y233682D01*
X-113001Y235075D01*
X-111998Y236297D01*
X-110777Y237299D01*
X-109383Y238044D01*
X-107872Y238503D01*
X-106299Y238657D01*
X-105152Y238544D01*
Y238544D01*
X-104911Y238511D01*
X-104663Y238495D01*
X-102362Y238344D01*
X-99813Y238511D01*
X-97307Y239009D01*
X-94888Y239831D01*
X-92597Y240961D01*
X-90473Y242380D01*
X-88552Y244064D01*
X-86868Y245985D01*
X-85449Y248109D01*
X-84319Y250400D01*
X-83498Y252819D01*
X-82999Y255325D01*
X-82832Y257874D01*
X-82982Y260166D01*
X-82999Y260423D01*
X-83033Y260664D01*
X-83033Y260664D01*
X-83145Y261811D01*
X-82991Y263383D01*
X-82532Y264895D01*
X-81787Y266289D01*
X-80785Y267510D01*
X-79563Y268512D01*
X-78170Y269257D01*
X-76658Y269716D01*
X-75165Y269863D01*
X-75086Y269847D01*
X-58061D01*
Y244919D01*
X-58000Y244611D01*
X-57826Y244351D01*
X-57566Y244177D01*
X-57258Y244116D01*
X60852D01*
X61159Y244177D01*
X61419Y244351D01*
X61594Y244611D01*
X61655Y244919D01*
Y269847D01*
X75086D01*
X75165Y269863D01*
X76658Y269716D01*
D02*
G37*
G36*
X113740Y103346D02*
X114094Y102993D01*
X114088Y78857D01*
X107163D01*
Y74052D01*
X100273D01*
X97441Y76884D01*
X97441Y102993D01*
X97795Y103347D01*
X113740Y103346D01*
D02*
G37*
%LPC*%
G36*
X91436Y231398D02*
X90653D01*
X89930Y231098D01*
X89376Y230545D01*
X89328Y230428D01*
X88786D01*
X88762Y230487D01*
X88208Y231041D01*
X87484Y231341D01*
X86701D01*
X85978Y231041D01*
X85424Y230487D01*
X85124Y229764D01*
Y228981D01*
X85424Y228257D01*
X85978Y227703D01*
X86095Y227655D01*
Y227114D01*
X86035Y227089D01*
X85481Y226535D01*
X85181Y225812D01*
Y225029D01*
X85481Y224305D01*
X86035Y223751D01*
X86152Y223703D01*
Y223162D01*
X86092Y223137D01*
X85538Y222583D01*
X85238Y221860D01*
Y221077D01*
X85538Y220353D01*
X86092Y219799D01*
X86816Y219500D01*
X87599D01*
X88322Y219799D01*
X88876Y220353D01*
X88924Y220470D01*
X89465D01*
X89490Y220410D01*
X90044Y219857D01*
X90768Y219557D01*
X91551D01*
X92274Y219857D01*
X92828Y220410D01*
X93128Y221134D01*
Y221917D01*
X92828Y222640D01*
X92274Y223194D01*
X92157Y223243D01*
Y223784D01*
X92217Y223809D01*
X92771Y224362D01*
X93071Y225086D01*
Y225869D01*
X92771Y226592D01*
X92217Y227146D01*
X92100Y227195D01*
Y227736D01*
X92160Y227761D01*
X92714Y228314D01*
X93013Y229038D01*
Y229821D01*
X92714Y230545D01*
X92160Y231098D01*
X91436Y231398D01*
D02*
G37*
G36*
X-52314Y226390D02*
X-53097D01*
X-53821Y226091D01*
X-54375Y225537D01*
X-54674Y224813D01*
Y224030D01*
X-54375Y223307D01*
X-53821Y222753D01*
X-53097Y222453D01*
X-52314D01*
X-51591Y222753D01*
X-51037Y223307D01*
X-50737Y224030D01*
Y224813D01*
X-51037Y225537D01*
X-51591Y226091D01*
X-52314Y226390D01*
D02*
G37*
G36*
X-27891Y225231D02*
X-28674D01*
X-29397Y224932D01*
X-29951Y224378D01*
X-30251Y223654D01*
Y222871D01*
X-29951Y222148D01*
X-29397Y221594D01*
X-28674Y221294D01*
X-27891D01*
X-27167Y221594D01*
X-26803Y221958D01*
X-14487D01*
X-13715Y221187D01*
Y220905D01*
X-13416Y220181D01*
X-12862Y219628D01*
X-12138Y219328D01*
X-11355D01*
X-10632Y219628D01*
X-10078Y220181D01*
X-9778Y220905D01*
Y221688D01*
X-10078Y222412D01*
X-10632Y222965D01*
X-11355Y223265D01*
X-12104D01*
X-13024Y224185D01*
X-13447Y224468D01*
X-13946Y224568D01*
X-26803D01*
X-27167Y224932D01*
X-27891Y225231D01*
D02*
G37*
G36*
X12285Y223281D02*
X6576D01*
Y217572D01*
X12285D01*
Y223281D01*
D02*
G37*
G36*
X4576D02*
X-1132D01*
Y217572D01*
X4576D01*
Y223281D01*
D02*
G37*
G36*
X-55558Y213596D02*
X-56341D01*
X-57064Y213296D01*
X-57618Y212742D01*
X-57918Y212019D01*
Y211236D01*
X-57618Y210512D01*
X-57064Y209958D01*
X-56341Y209659D01*
X-55558D01*
X-54834Y209958D01*
X-54280Y210512D01*
X-53981Y211236D01*
Y212019D01*
X-54280Y212742D01*
X-54834Y213296D01*
X-55558Y213596D01*
D02*
G37*
G36*
X44305Y221946D02*
X43522D01*
X42799Y221647D01*
X42245Y221093D01*
X41945Y220369D01*
Y219586D01*
X42245Y218863D01*
X42799Y218309D01*
X43522Y218009D01*
X44179D01*
X63114Y199075D01*
Y184975D01*
X62614Y184767D01*
X38002Y209379D01*
X37612Y209640D01*
X37151Y209732D01*
X37151Y209732D01*
X12730D01*
X12285Y209863D01*
X12285Y210231D01*
Y215572D01*
X-1132D01*
Y209863D01*
X6166D01*
X6322Y209429D01*
X6325Y209364D01*
X-2269Y200769D01*
X-6370D01*
X-6577Y201269D01*
X-6205Y201641D01*
X-5906Y202364D01*
Y203148D01*
X-6205Y203871D01*
X-6759Y204425D01*
X-7482Y204724D01*
X-7998D01*
X-8920Y205647D01*
X-9343Y205930D01*
X-9843Y206029D01*
X-26080D01*
X-26444Y206393D01*
X-27167Y206693D01*
X-27951D01*
X-28674Y206393D01*
X-29228Y205839D01*
X-29528Y205116D01*
Y204333D01*
X-29228Y203609D01*
X-28674Y203056D01*
X-27951Y202756D01*
X-27167D01*
X-26444Y203056D01*
X-26080Y203420D01*
X-10383D01*
X-9843Y202879D01*
Y202364D01*
X-9543Y201641D01*
X-9171Y201269D01*
X-9378Y200769D01*
X-26002D01*
X-26467Y201234D01*
X-27190Y201534D01*
X-27973D01*
X-28697Y201234D01*
X-29250Y200680D01*
X-29550Y199957D01*
Y199173D01*
X-29250Y198450D01*
X-28697Y197896D01*
X-27973Y197597D01*
X-27190D01*
X-26467Y197896D01*
X-26002Y198361D01*
X-1770D01*
X-1770Y198361D01*
X-1310Y198452D01*
X-919Y198714D01*
X7691Y207323D01*
X28553D01*
X28820Y206823D01*
X28759Y206732D01*
X14582D01*
X14582Y206732D01*
X14121Y206640D01*
X13731Y206379D01*
X10172Y202820D01*
X9672Y203027D01*
Y203237D01*
X9372Y203960D01*
X8819Y204514D01*
X8095Y204814D01*
X7312D01*
X6588Y204514D01*
X6035Y203960D01*
X5735Y203237D01*
Y202580D01*
X-58151Y138694D01*
X-58412Y138303D01*
X-58504Y137843D01*
X-58503Y137843D01*
Y82676D01*
X-81884Y59296D01*
X-82541D01*
X-83264Y58996D01*
X-83818Y58442D01*
X-84118Y57719D01*
Y56936D01*
X-83818Y56212D01*
X-83264Y55658D01*
X-82541Y55359D01*
X-81758D01*
X-81034Y55658D01*
X-80480Y56212D01*
X-80181Y56936D01*
Y57593D01*
X-56448Y81326D01*
X-56187Y81716D01*
X-56095Y82177D01*
X-56095Y82177D01*
Y96161D01*
X-55729Y96289D01*
X-55595Y96299D01*
X-55068Y95772D01*
X-54345Y95472D01*
X-53562D01*
X-53498Y95499D01*
X-53083Y95221D01*
Y81693D01*
X-53541D01*
X-54265Y81393D01*
X-54818Y80840D01*
X-55118Y80116D01*
Y79333D01*
X-54818Y78609D01*
X-54265Y78056D01*
X-53541Y77756D01*
X-52758D01*
X-52034Y78056D01*
X-51481Y78609D01*
X-51181Y79333D01*
Y79928D01*
X-50911Y80171D01*
X-50417Y80000D01*
Y66444D01*
X-52884Y63976D01*
X-53541D01*
X-54265Y63677D01*
X-54818Y63123D01*
X-55118Y62399D01*
Y61616D01*
X-54818Y60893D01*
X-54265Y60339D01*
X-53541Y60039D01*
X-52758D01*
X-52034Y60339D01*
X-51481Y60893D01*
X-51181Y61616D01*
Y62273D01*
X-48361Y65093D01*
X-48361Y65093D01*
X-48100Y65484D01*
X-48008Y65945D01*
Y134851D01*
X9664Y192523D01*
X28671D01*
X29136Y192058D01*
X29859Y191759D01*
X30642D01*
X31366Y192058D01*
X31920Y192612D01*
X32219Y193336D01*
Y194119D01*
X31920Y194842D01*
X31366Y195396D01*
X30642Y195696D01*
X29859D01*
X29136Y195396D01*
X28671Y194931D01*
X10280D01*
X10089Y195393D01*
X13134Y198439D01*
X28955D01*
X29436Y197958D01*
X30159Y197659D01*
X30942D01*
X31666Y197958D01*
X32220Y198512D01*
X32519Y199236D01*
Y200019D01*
X32220Y200742D01*
X31666Y201296D01*
X30942Y201596D01*
X30159D01*
X29436Y201296D01*
X28987Y200847D01*
X12635D01*
X12635Y200847D01*
X12137Y201258D01*
X12122Y201364D01*
X15081Y204323D01*
X29171D01*
X29636Y203858D01*
X30359Y203559D01*
X31142D01*
X31866Y203858D01*
X32420Y204412D01*
X32719Y205136D01*
Y205919D01*
X32420Y206642D01*
X32239Y206823D01*
X32446Y207323D01*
X36652D01*
X60896Y183079D01*
Y160755D01*
X60434Y160564D01*
X60392Y160605D01*
X59764Y160968D01*
X59063Y161156D01*
X58337D01*
X57793Y161010D01*
X52451Y166351D01*
X52061Y166613D01*
X51600Y166704D01*
X51600Y166704D01*
X44387D01*
X44105Y167192D01*
X43592Y167705D01*
X42964Y168068D01*
X42263Y168256D01*
X41537D01*
X40836Y168068D01*
X40208Y167705D01*
X39695Y167192D01*
X39332Y166564D01*
X39144Y165863D01*
Y165137D01*
X39332Y164436D01*
X39695Y163808D01*
X40208Y163295D01*
X40836Y162932D01*
X41537Y162744D01*
X42263D01*
X42964Y162932D01*
X43592Y163295D01*
X44105Y163808D01*
X44387Y164296D01*
X51101D01*
X56090Y159307D01*
X55944Y158763D01*
Y158037D01*
X56132Y157336D01*
X56495Y156708D01*
X57008Y156195D01*
X57636Y155832D01*
X58337Y155644D01*
X59063D01*
X59764Y155832D01*
X60392Y156195D01*
X60434Y156236D01*
X60896Y156045D01*
Y22546D01*
X60896Y22546D01*
X60987Y22085D01*
X61248Y21694D01*
X65945Y16998D01*
Y16341D01*
X66245Y15617D01*
X66798Y15064D01*
X67522Y14764D01*
X68305D01*
X69029Y15064D01*
X69582Y15617D01*
X69882Y16341D01*
Y17124D01*
X69582Y17847D01*
X69029Y18401D01*
X68305Y18701D01*
X67648D01*
X63304Y23044D01*
Y57317D01*
X63804Y57524D01*
X66929Y54399D01*
Y53742D01*
X67229Y53019D01*
X67783Y52465D01*
X68506Y52165D01*
X69289D01*
X70013Y52465D01*
X70566Y53019D01*
X70866Y53742D01*
Y54525D01*
X70566Y55249D01*
X70013Y55803D01*
X69289Y56102D01*
X68632D01*
X65522Y59212D01*
Y199574D01*
X65430Y200034D01*
X65169Y200425D01*
X65169Y200425D01*
X45882Y219712D01*
Y220369D01*
X45583Y221093D01*
X45029Y221647D01*
X44305Y221946D01*
D02*
G37*
G36*
X106301Y188853D02*
X105439D01*
X104643Y188523D01*
X104034Y187914D01*
X103705Y187119D01*
Y186257D01*
X104034Y185461D01*
X104643Y184852D01*
X105439Y184522D01*
X106301D01*
X107097Y184852D01*
X107706Y185461D01*
X108035Y186257D01*
Y187119D01*
X107706Y187914D01*
X107097Y188523D01*
X106301Y188853D01*
D02*
G37*
G36*
X-82084Y184752D02*
X-82867D01*
X-83591Y184452D01*
X-84145Y183898D01*
X-84444Y183175D01*
Y182392D01*
X-84145Y181668D01*
X-83591Y181114D01*
X-82867Y180815D01*
X-82084D01*
X-81361Y181114D01*
X-80807Y181668D01*
X-80507Y182392D01*
Y183175D01*
X-80807Y183898D01*
X-81361Y184452D01*
X-82084Y184752D01*
D02*
G37*
G36*
X16838Y173368D02*
X16054D01*
X15331Y173068D01*
X15015Y172752D01*
X14699Y173068D01*
X13975Y173368D01*
X13192D01*
X12469Y173068D01*
X11915Y172515D01*
X11615Y171791D01*
Y171008D01*
X11915Y170284D01*
X12469Y169731D01*
X12712Y169630D01*
Y154342D01*
X12808Y153859D01*
X13082Y153450D01*
X26399Y140132D01*
X26116Y139708D01*
X25982Y139764D01*
X25199D01*
X24475Y139464D01*
X23922Y138910D01*
X23622Y138187D01*
Y137404D01*
X23922Y136680D01*
X24475Y136126D01*
X25199Y135827D01*
X25982D01*
X26706Y136126D01*
X27259Y136680D01*
X27559Y137404D01*
Y138187D01*
X27504Y138321D01*
X27928Y138604D01*
X34334Y132197D01*
Y56779D01*
X29043Y51487D01*
X28096D01*
X27690Y51894D01*
X26966Y52194D01*
X26183D01*
X25460Y51894D01*
X24906Y51340D01*
X24606Y50617D01*
Y49834D01*
X24906Y49110D01*
X25281Y48735D01*
X24906Y48359D01*
X24606Y47636D01*
Y46852D01*
X24906Y46129D01*
X25460Y45575D01*
X26183Y45276D01*
X26966D01*
X27690Y45575D01*
X28244Y46129D01*
X28543Y46852D01*
Y46881D01*
X30427D01*
X30911Y46978D01*
X31320Y47251D01*
X38570Y54501D01*
X38844Y54911D01*
X38940Y55394D01*
Y133582D01*
X38844Y134065D01*
X38570Y134475D01*
X17318Y155727D01*
Y169630D01*
X17561Y169731D01*
X18115Y170284D01*
X18414Y171008D01*
Y171791D01*
X18115Y172515D01*
X17561Y173068D01*
X16838Y173368D01*
D02*
G37*
G36*
X-82184Y168178D02*
X-82968D01*
X-83691Y167878D01*
X-84245Y167324D01*
X-84544Y166601D01*
Y165818D01*
X-84245Y165094D01*
X-83691Y164540D01*
X-82968Y164241D01*
X-82184D01*
X-81461Y164540D01*
X-80907Y165094D01*
X-80607Y165818D01*
Y166601D01*
X-80907Y167324D01*
X-81461Y167878D01*
X-82184Y168178D01*
D02*
G37*
G36*
X39892Y159169D02*
X39108D01*
X38385Y158869D01*
X37831Y158315D01*
X37532Y157592D01*
Y156808D01*
X37831Y156085D01*
X38385Y155531D01*
X39108Y155231D01*
X39892D01*
X40615Y155531D01*
X41169Y156085D01*
X41469Y156808D01*
Y157592D01*
X41169Y158315D01*
X40615Y158869D01*
X39892Y159169D01*
D02*
G37*
G36*
X-44514Y206796D02*
X-45297D01*
X-46021Y206496D01*
X-46574Y205942D01*
X-46874Y205219D01*
Y204845D01*
X-59401Y192318D01*
X-59706Y191863D01*
X-59813Y191325D01*
Y147876D01*
X-60076Y147612D01*
X-60376Y146888D01*
Y146105D01*
X-60076Y145382D01*
X-59523Y144828D01*
X-58799Y144528D01*
X-58016D01*
X-57292Y144828D01*
X-56739Y145382D01*
X-56439Y146105D01*
Y146888D01*
X-56739Y147612D01*
X-57003Y147876D01*
Y190743D01*
X-44887Y202859D01*
X-44514D01*
X-43791Y203158D01*
X-43237Y203712D01*
X-42937Y204435D01*
Y205219D01*
X-43237Y205942D01*
X-43791Y206496D01*
X-44514Y206796D01*
D02*
G37*
G36*
X102347Y146646D02*
X100807Y146402D01*
X99184Y145875D01*
X97664Y145100D01*
X96283Y144097D01*
X95076Y142890D01*
X94073Y141509D01*
X93298Y139989D01*
X92771Y138366D01*
X92527Y136827D01*
X102347D01*
Y146646D01*
D02*
G37*
G36*
X-102347D02*
Y136827D01*
X-92527D01*
X-92771Y138366D01*
X-93298Y139989D01*
X-94073Y141509D01*
X-95076Y142890D01*
X-96283Y144097D01*
X-97664Y145100D01*
X-99184Y145875D01*
X-100807Y146402D01*
X-102347Y146646D01*
D02*
G37*
G36*
X49604Y136811D02*
X48821D01*
X48098Y136511D01*
X47544Y135958D01*
X47244Y135234D01*
Y134451D01*
X47544Y133727D01*
X48098Y133174D01*
X48821Y132874D01*
X49604D01*
X50328Y133174D01*
X50881Y133727D01*
X51181Y134451D01*
Y135234D01*
X50881Y135958D01*
X50328Y136511D01*
X49604Y136811D01*
D02*
G37*
G36*
X-36558Y137396D02*
X-37341D01*
X-38064Y137096D01*
X-38618Y136542D01*
X-38918Y135819D01*
Y135036D01*
X-38618Y134312D01*
X-38064Y133758D01*
X-37341Y133459D01*
X-36868D01*
X-32518Y129109D01*
Y128836D01*
X-32218Y128112D01*
X-31664Y127558D01*
X-30941Y127259D01*
X-30158D01*
X-29434Y127558D01*
X-28880Y128112D01*
X-28581Y128836D01*
Y129619D01*
X-28880Y130342D01*
X-29434Y130896D01*
X-30158Y131196D01*
X-30631D01*
X-34981Y135546D01*
Y135819D01*
X-35280Y136542D01*
X-35834Y137096D01*
X-36558Y137396D01*
D02*
G37*
G36*
X102347Y134827D02*
X92527D01*
X92771Y133288D01*
X93298Y131665D01*
X94073Y130144D01*
X95076Y128763D01*
X96283Y127557D01*
X97664Y126553D01*
X99184Y125779D01*
X100807Y125251D01*
X102347Y125007D01*
Y134827D01*
D02*
G37*
G36*
X-92527D02*
X-102347D01*
Y125007D01*
X-100807Y125251D01*
X-99184Y125779D01*
X-97664Y126553D01*
X-96283Y127557D01*
X-95076Y128763D01*
X-94073Y130144D01*
X-93298Y131665D01*
X-92771Y133288D01*
X-92527Y134827D01*
D02*
G37*
G36*
X15637Y124069D02*
X14853D01*
X14130Y123769D01*
X13576Y123216D01*
X13277Y122492D01*
Y121709D01*
X13576Y120986D01*
X14130Y120432D01*
X14853Y120132D01*
X15637D01*
X16360Y120432D01*
X16914Y120986D01*
X17214Y121709D01*
Y122492D01*
X16914Y123216D01*
X16360Y123769D01*
X15637Y124069D01*
D02*
G37*
G36*
X46651Y122047D02*
X45868D01*
X45145Y121748D01*
X44591Y121194D01*
X44291Y120470D01*
Y119687D01*
X44359Y119525D01*
X43935Y119241D01*
X43761Y119415D01*
X43038Y119715D01*
X42255D01*
X41531Y119415D01*
X40977Y118861D01*
X40678Y118138D01*
Y117355D01*
X40977Y116631D01*
X41258Y116350D01*
X41493Y116024D01*
X41258Y115697D01*
X40977Y115416D01*
X40678Y114693D01*
Y113910D01*
X40977Y113186D01*
X41258Y112906D01*
X41493Y112579D01*
X41258Y112252D01*
X40977Y111971D01*
X40678Y111248D01*
Y110465D01*
X40977Y109741D01*
X41531Y109188D01*
X42255Y108888D01*
X43038D01*
X43761Y109188D01*
X44315Y109741D01*
X44615Y110465D01*
Y111248D01*
X44315Y111971D01*
X44034Y112252D01*
X43800Y112579D01*
X44034Y112906D01*
X44315Y113186D01*
X44615Y113910D01*
Y114693D01*
X44315Y115416D01*
X44034Y115697D01*
X43800Y116024D01*
X44034Y116350D01*
X44315Y116631D01*
X44615Y117355D01*
Y118138D01*
X44547Y118300D01*
X44971Y118583D01*
X45145Y118410D01*
X45868Y118110D01*
X46651D01*
X47375Y118410D01*
X47929Y118964D01*
X48228Y119687D01*
Y120470D01*
X47929Y121194D01*
X47375Y121748D01*
X46651Y122047D01*
D02*
G37*
G36*
X-32458Y99596D02*
X-33241D01*
X-33964Y99296D01*
X-34518Y98742D01*
X-34818Y98019D01*
Y97236D01*
X-34518Y96512D01*
X-33964Y95958D01*
X-33241Y95659D01*
X-32458D01*
X-31734Y95958D01*
X-31180Y96512D01*
X-30881Y97236D01*
Y98019D01*
X-31180Y98742D01*
X-31734Y99296D01*
X-32458Y99596D01*
D02*
G37*
G36*
X92777Y101117D02*
X90808D01*
Y94227D01*
X92777D01*
Y101117D01*
D02*
G37*
G36*
Y92227D02*
X90808D01*
Y85338D01*
X92777D01*
Y92227D01*
D02*
G37*
G36*
X-32558Y81396D02*
X-33341D01*
X-34064Y81096D01*
X-34618Y80542D01*
X-34918Y79819D01*
Y79036D01*
X-34618Y78312D01*
X-34064Y77758D01*
X-33341Y77459D01*
X-32558D01*
X-31834Y77758D01*
X-31280Y78312D01*
X-30981Y79036D01*
Y79819D01*
X-31280Y80542D01*
X-31834Y81096D01*
X-32558Y81396D01*
D02*
G37*
G36*
X5092Y141068D02*
X4308D01*
X3585Y140769D01*
X3031Y140215D01*
X2732Y139492D01*
Y138708D01*
X3031Y137985D01*
X3585Y137431D01*
X4308Y137132D01*
X4965D01*
X21434Y120663D01*
Y71461D01*
X20969Y70997D01*
X20669Y70274D01*
Y69490D01*
X20969Y68767D01*
X21523Y68213D01*
X22246Y67913D01*
X23029D01*
X23753Y68213D01*
X24307Y68767D01*
X24606Y69490D01*
Y70274D01*
X24307Y70997D01*
X23842Y71461D01*
Y121162D01*
X23842Y121162D01*
X23750Y121623D01*
X23489Y122014D01*
X6668Y138835D01*
Y139492D01*
X6369Y140215D01*
X5815Y140769D01*
X5092Y141068D01*
D02*
G37*
G36*
X88265Y78857D02*
X80785D01*
Y63897D01*
X88265D01*
Y74052D01*
Y78857D01*
D02*
G37*
G36*
X24094Y65247D02*
X23311D01*
X22587Y64947D01*
X22034Y64394D01*
X21734Y63670D01*
Y62887D01*
X22034Y62163D01*
X22587Y61610D01*
X23311Y61310D01*
X24094D01*
X24818Y61610D01*
X25371Y62163D01*
X25671Y62887D01*
Y63670D01*
X25371Y64394D01*
X24818Y64947D01*
X24094Y65247D01*
D02*
G37*
G36*
X7010D02*
X6226D01*
X5503Y64947D01*
X4949Y64394D01*
X4650Y63670D01*
Y62887D01*
X4949Y62163D01*
X5503Y61610D01*
X6226Y61310D01*
X7010D01*
X7733Y61610D01*
X8287Y62163D01*
X8586Y62887D01*
Y63670D01*
X8287Y64394D01*
X7733Y64947D01*
X7010Y65247D01*
D02*
G37*
G36*
X-65953Y63949D02*
X-66736D01*
X-67460Y63649D01*
X-68014Y63096D01*
X-68313Y62372D01*
Y61589D01*
X-68014Y60866D01*
X-67460Y60312D01*
X-66736Y60012D01*
X-65953D01*
X-65230Y60312D01*
X-64676Y60866D01*
X-64376Y61589D01*
Y62372D01*
X-64676Y63096D01*
X-65230Y63649D01*
X-65953Y63949D01*
D02*
G37*
G36*
X-32458Y63896D02*
X-33241D01*
X-33964Y63596D01*
X-34518Y63042D01*
X-34818Y62319D01*
Y61536D01*
X-34518Y60812D01*
X-33964Y60258D01*
X-33241Y59959D01*
X-32458D01*
X-31734Y60258D01*
X-31180Y60812D01*
X-30881Y61536D01*
Y62319D01*
X-31180Y63042D01*
X-31734Y63596D01*
X-32458Y63896D01*
D02*
G37*
G36*
X16882Y54367D02*
X16098D01*
X15375Y54068D01*
X14821Y53514D01*
X14522Y52790D01*
Y52216D01*
X11903Y49597D01*
X11629Y49187D01*
X11533Y48704D01*
Y46204D01*
X3577Y38248D01*
X3577D01*
X3450Y38375D01*
X2727Y38675D01*
X1943D01*
X1220Y38375D01*
X666Y37821D01*
X367Y37098D01*
Y36315D01*
X666Y35591D01*
X1220Y35037D01*
X1943Y34738D01*
X2638D01*
Y34183D01*
X2938Y33459D01*
X3492Y32906D01*
X4215Y32606D01*
X4998D01*
X5722Y32906D01*
X6276Y33459D01*
X6575Y34183D01*
Y34966D01*
X6481Y35193D01*
X14648Y43360D01*
X14871D01*
X15375Y42856D01*
X16098Y42556D01*
X16882D01*
X17605Y42856D01*
X18159Y43410D01*
X18459Y44133D01*
Y44916D01*
X18159Y45640D01*
X17605Y46194D01*
X17499Y46238D01*
Y46779D01*
X17533Y46793D01*
X18087Y47347D01*
X18386Y48070D01*
Y48853D01*
X18087Y49577D01*
X17533Y50131D01*
X17499Y50145D01*
Y50686D01*
X17605Y50730D01*
X18159Y51284D01*
X18349Y51742D01*
X18465Y51916D01*
X18561Y52399D01*
X18465Y52882D01*
X18349Y53056D01*
X18159Y53514D01*
X17605Y54068D01*
X16882Y54367D01*
D02*
G37*
G36*
X-21262Y46260D02*
X-22045D01*
X-22769Y45960D01*
X-23322Y45406D01*
X-23622Y44683D01*
Y43900D01*
X-23322Y43176D01*
X-22769Y42623D01*
X-22045Y42323D01*
X-21262D01*
X-20538Y42623D01*
X-19985Y43176D01*
X-19685Y43900D01*
Y44683D01*
X-19985Y45406D01*
X-20538Y45960D01*
X-21262Y46260D01*
D02*
G37*
G36*
X11621Y35189D02*
X10681D01*
X9813Y34830D01*
X9148Y34165D01*
X8789Y33297D01*
Y32357D01*
X9148Y31489D01*
X9813Y30825D01*
X10681Y30465D01*
X11621D01*
X12489Y30825D01*
X13153Y31489D01*
X13513Y32357D01*
Y33297D01*
X13153Y34165D01*
X12489Y34830D01*
X11621Y35189D01*
D02*
G37*
G36*
X-8979Y34889D02*
X-9919D01*
X-10787Y34530D01*
X-11452Y33865D01*
X-11811Y32997D01*
Y32057D01*
X-11452Y31189D01*
X-10787Y30525D01*
X-9919Y30165D01*
X-8979D01*
X-8111Y30525D01*
X-7446Y31189D01*
X-7087Y32057D01*
Y32997D01*
X-7446Y33865D01*
X-8111Y34530D01*
X-8979Y34889D01*
D02*
G37*
G36*
X34840Y20669D02*
X34057D01*
X33334Y20370D01*
X32780Y19816D01*
X32480Y19092D01*
Y18309D01*
X32780Y17586D01*
X33334Y17032D01*
X34057Y16732D01*
X34840D01*
X35564Y17032D01*
X36118Y17586D01*
X36417Y18309D01*
Y19092D01*
X36118Y19816D01*
X35564Y20370D01*
X34840Y20669D01*
D02*
G37*
G36*
X49576Y12438D02*
X48715D01*
X47919Y12109D01*
X47310Y11500D01*
X46980Y10704D01*
Y9842D01*
X47310Y9046D01*
X47919Y8437D01*
X48715Y8107D01*
X49576D01*
X50372Y8437D01*
X50981Y9046D01*
X51311Y9842D01*
Y10704D01*
X50981Y11500D01*
X50372Y12109D01*
X49576Y12438D01*
D02*
G37*
G36*
X104619Y101117D02*
X102651D01*
Y94227D01*
X104619D01*
Y101117D01*
D02*
G37*
G36*
X100651D02*
X98682D01*
Y94227D01*
X100651D01*
Y101117D01*
D02*
G37*
G36*
X104619Y92227D02*
X102651D01*
Y85338D01*
X104619D01*
Y89297D01*
X105119Y89504D01*
X105407Y89216D01*
X105986Y88976D01*
X106613D01*
X107191Y89216D01*
X107634Y89659D01*
X107874Y90238D01*
Y90864D01*
X107634Y91443D01*
X107191Y91886D01*
X106613Y92126D01*
X105986D01*
X105407Y91886D01*
X105119Y91598D01*
X104619Y91805D01*
Y92227D01*
D02*
G37*
G36*
X100651D02*
X98682D01*
Y85338D01*
X100651D01*
Y92227D01*
D02*
G37*
%LPD*%
D12*
X-27559Y204724D02*
X-9843D01*
X-7874Y202756D01*
X-28282Y223263D02*
X-13946D01*
X-11980Y221297D01*
X-11747D01*
D13*
X67204Y158722D02*
D03*
X-62992Y43307D02*
D03*
X-43307Y51181D02*
D03*
X82677Y59055D02*
D03*
Y98425D02*
D03*
Y129921D02*
D03*
X-78740Y86614D02*
D03*
X-66929Y106299D02*
D03*
X-78740Y133858D02*
D03*
X43307Y55118D02*
D03*
X35433Y39370D02*
D03*
X55118D02*
D03*
X43307Y94488D02*
D03*
X15748D02*
D03*
X-7874D02*
D03*
X3937Y106299D02*
D03*
X-19685D02*
D03*
X-15748Y161417D02*
D03*
X59055Y173228D02*
D03*
X43307Y181102D02*
D03*
X110236Y220472D02*
D03*
X106299Y110236D02*
D03*
Y90551D02*
D03*
Y62992D02*
D03*
Y39370D02*
D03*
X70866Y7874D02*
D03*
X31496D02*
D03*
X-35433D02*
D03*
X-55118D02*
D03*
X-74803D02*
D03*
X-106299Y43307D02*
D03*
Y70866D02*
D03*
Y94488D02*
D03*
Y118110D02*
D03*
Y165354D02*
D03*
Y188976D02*
D03*
Y208661D02*
D03*
Y228346D02*
D03*
X80709Y259842D02*
D03*
X64961D02*
D03*
X72835Y251969D02*
D03*
X64961Y244094D02*
D03*
X80709D02*
D03*
X-62992D02*
D03*
X-78740D02*
D03*
X-70866Y251969D02*
D03*
X-78740Y259842D02*
D03*
X-62992D02*
D03*
X4001Y219722D02*
D03*
X7151D02*
D03*
X2427Y218147D02*
D03*
X5576D02*
D03*
X8726D02*
D03*
X4001Y216572D02*
D03*
X7151D02*
D03*
X2427Y214997D02*
D03*
X5576D02*
D03*
X8726D02*
D03*
X4001Y213422D02*
D03*
X7151D02*
D03*
D15*
X14582Y205527D02*
X30751D01*
X-54655Y136290D02*
X14582Y205527D01*
X12635Y199643D02*
X30535D01*
X30551Y199627D01*
X-51878Y135129D02*
X12635Y199643D01*
X-49213Y135350D02*
X9165Y193727D01*
X30251D01*
X-49213Y65945D02*
Y135350D01*
X22638Y69882D02*
Y121162D01*
X4700Y139100D02*
X22638Y121162D01*
X41900Y165500D02*
X51600D01*
X58700Y158400D01*
X37151Y208527D02*
X62100Y183578D01*
Y22546D02*
X67913Y16732D01*
X62100Y22546D02*
Y183578D01*
X64318Y58714D02*
Y199574D01*
Y58714D02*
X68898Y54134D01*
X43914Y219978D02*
X64318Y199574D01*
X43201Y232877D02*
X69400Y206678D01*
Y148120D02*
X101378Y116142D01*
X69400Y148120D02*
Y206678D01*
X101378Y95472D02*
Y116142D01*
X-53150Y62008D02*
X-49213Y65945D01*
X-54655Y98569D02*
X-53953Y97867D01*
Y97441D02*
Y97867D01*
X-54655Y98569D02*
Y136290D01*
X-53150Y79724D02*
X-51878Y80996D01*
Y135129D01*
X-57299Y82177D02*
Y137843D01*
X7704Y202845D01*
X-82149Y57327D02*
X-57299Y82177D01*
X-27582Y199565D02*
X-1770D01*
X7192Y208527D01*
X37151D01*
D71*
X41900Y165500D02*
D03*
X58700Y158400D02*
D03*
D90*
X-30649Y129227D02*
X-30549D01*
X-36849Y135427D02*
X-30649Y129227D01*
X-36949Y135427D02*
X-36849D01*
X-58408Y146497D02*
Y191325D01*
X-44906Y204827D01*
D92*
X104163Y80789D02*
Y83589D01*
Y77989D02*
Y80789D01*
X101063D02*
Y83589D01*
Y77989D02*
Y80789D01*
D96*
X13974Y154342D02*
Y170141D01*
X35596Y56256D02*
Y132720D01*
X37678Y55394D02*
Y133582D01*
X13974Y154342D02*
X35596Y132720D01*
X16055Y155204D02*
Y170141D01*
Y155204D02*
X37678Y133582D01*
X29565Y50225D02*
X35596Y56256D01*
X30427Y48144D02*
X37678Y55394D01*
X26575Y47244D02*
X26970D01*
X27870Y48144D01*
X30427D01*
X26575Y50225D02*
X29565D01*
X13863Y170252D02*
Y171120D01*
X16166Y170252D02*
Y171120D01*
X16055Y170141D02*
X16166Y170252D01*
Y171120D02*
X16446Y171400D01*
X13584D02*
X13863Y171120D01*
Y170252D02*
X13974Y170141D01*
X4607Y34574D02*
Y34970D01*
X5232Y35595D01*
Y35729D02*
X14125Y44622D01*
X16393D01*
X4100Y36986D02*
X12795Y45681D01*
X2615Y36986D02*
X4100D01*
X5232Y35595D02*
Y35729D01*
X12795Y45681D02*
Y48704D01*
X2335Y36706D02*
X2615Y36986D01*
X12795Y48704D02*
X16490Y52399D01*
X16393Y44622D02*
X16490Y44525D01*
Y52399D02*
X17298D01*
D97*
X103347Y135827D02*
D03*
X-103347D02*
D03*
D98*
X112957Y186688D02*
D03*
X105870D02*
D03*
X49146Y3186D02*
D03*
Y10273D02*
D03*
D99*
X-22441Y6041D02*
D03*
X22441D02*
D03*
D100*
X-22441Y21789D02*
D03*
X22441D02*
D03*
D101*
X5576Y216572D02*
D03*
D102*
X30751Y205527D02*
D03*
X30551Y199627D02*
D03*
X30251Y193727D02*
D03*
X25854Y183276D02*
D03*
X4992D02*
D03*
X4700Y139100D02*
D03*
X39500Y157200D02*
D03*
X40354Y148622D02*
D03*
X53150Y134843D02*
D03*
X15245Y122101D02*
D03*
X49213Y134843D02*
D03*
X25591Y137795D02*
D03*
X-53953Y97441D02*
D03*
X-45377Y129127D02*
D03*
X16073Y144167D02*
D03*
X67913Y16732D02*
D03*
X-66345Y61981D02*
D03*
X-53150Y62008D02*
D03*
Y79724D02*
D03*
X46260Y120079D02*
D03*
X42646Y117746D02*
D03*
X18701Y100394D02*
D03*
X29528D02*
D03*
X32480D02*
D03*
X-7874Y202756D02*
D03*
X68898Y60039D02*
D03*
Y54134D02*
D03*
X-21654Y44291D02*
D03*
X-25591D02*
D03*
X29528Y36417D02*
D03*
X-30512D02*
D03*
X26575Y47244D02*
D03*
Y50225D02*
D03*
X16418Y48462D02*
D03*
X19587Y156496D02*
D03*
X59055Y212598D02*
D03*
X-27559Y204724D02*
D03*
X7704Y202845D02*
D03*
X-36949Y135427D02*
D03*
X-30649Y135327D02*
D03*
X-30549Y129227D02*
D03*
X42646Y110856D02*
D03*
X42646Y114301D02*
D03*
X22638Y69882D02*
D03*
X23702Y63278D02*
D03*
X34449Y18701D02*
D03*
X89116Y189056D02*
D03*
X95004Y197666D02*
D03*
X4607Y34574D02*
D03*
X16490Y44525D02*
D03*
X2335Y36706D02*
D03*
X108268Y227362D02*
D03*
X74252Y206421D02*
D03*
X101063Y77989D02*
D03*
X104163Y80789D02*
D03*
X101063D02*
D03*
X104163Y77989D02*
D03*
Y83589D02*
D03*
X101063D02*
D03*
X16446Y171400D02*
D03*
X13584D02*
D03*
X6618Y70115D02*
D03*
Y63278D02*
D03*
X6759Y48436D02*
D03*
X16490Y52399D02*
D03*
X-32849Y61927D02*
D03*
X-55949Y240927D02*
D03*
X-56306Y224428D02*
D03*
X-52706Y224422D02*
D03*
X-58408Y146497D02*
D03*
X107997Y213064D02*
D03*
Y217095D02*
D03*
X-44906Y204827D02*
D03*
X-27582Y199565D02*
D03*
X-16736Y29778D02*
D03*
X16844D02*
D03*
X63667Y5548D02*
D03*
X-55949Y211627D02*
D03*
Y218527D02*
D03*
X43914Y219978D02*
D03*
X-66345Y58555D02*
D03*
X-83849Y68727D02*
D03*
X-85776Y166209D02*
D03*
X-82576D02*
D03*
X-85579Y182783D02*
D03*
X-82476D02*
D03*
X43201Y232877D02*
D03*
X43377Y226336D02*
D03*
X70867Y75327D02*
D03*
X70951Y93927D02*
D03*
X49051Y20627D02*
D03*
X92058Y83589D02*
D03*
X95158D02*
D03*
X-28282Y223263D02*
D03*
X-32949Y79427D02*
D03*
X-32849Y97627D02*
D03*
X-82149Y57327D02*
D03*
X91159Y221525D02*
D03*
X87207Y221468D02*
D03*
X91102Y225477D02*
D03*
X87093Y229372D02*
D03*
X91045Y229430D02*
D03*
X87150Y225420D02*
D03*
X-64649Y177227D02*
D03*
X-67749Y173827D02*
D03*
X-39288Y193737D02*
D03*
X95158Y77989D02*
D03*
X92058D02*
D03*
X95158Y80789D02*
D03*
X92058D02*
D03*
X35866Y5512D02*
D03*
X-11747Y221297D02*
D03*
D103*
X25394Y122835D02*
D03*
Y127165D02*
D03*
X29724Y122835D02*
D03*
Y127165D02*
D03*
D104*
X11151Y32827D02*
D03*
X-9449Y32527D02*
D03*
D105*
X84525Y71377D02*
D03*
X110903D02*
D03*
D106*
X93777Y93227D02*
D03*
X101651D02*
D03*
M02*
