G04*
G04 #@! TF.GenerationSoftware,Altium Limited,Altium Designer,22.5.1 (42)*
G04*
G04 Layer_Color=32896*
%FSLAX25Y25*%
%MOIN*%
G70*
G04*
G04 #@! TF.SameCoordinates,99E8522F-A59E-4A80-82A0-D8EFEBB404AF*
G04*
G04*
G04 #@! TF.FilePolarity,Positive*
G04*
G01*
G75*
%ADD16C,0.00800*%
%ADD109R,1.49606X0.11811*%
G36*
X-8514Y121097D02*
X-8433Y121088D01*
X-8358Y121072D01*
X-8296Y121057D01*
X-8268Y121047D01*
X-8243Y121038D01*
X-8221Y121032D01*
X-8202Y121026D01*
X-8187Y121019D01*
X-8177Y121013D01*
X-8171Y121010D01*
X-8168D01*
X-8099Y120973D01*
X-8040Y120932D01*
X-7990Y120891D01*
X-7949Y120851D01*
X-7915Y120817D01*
X-7890Y120785D01*
X-7878Y120766D01*
X-7871Y120763D01*
Y120760D01*
X-7834Y120698D01*
X-7803Y120629D01*
X-7775Y120561D01*
X-7753Y120492D01*
X-7734Y120433D01*
X-7728Y120408D01*
X-7722Y120386D01*
X-7719Y120367D01*
X-7716Y120355D01*
X-7712Y120345D01*
Y120342D01*
X-8221Y120258D01*
X-8233Y120324D01*
X-8249Y120383D01*
X-8268Y120430D01*
X-8290Y120470D01*
X-8311Y120501D01*
X-8327Y120523D01*
X-8339Y120539D01*
X-8343Y120542D01*
X-8383Y120576D01*
X-8424Y120601D01*
X-8464Y120617D01*
X-8502Y120629D01*
X-8536Y120635D01*
X-8561Y120642D01*
X-8586D01*
X-8639Y120639D01*
X-8686Y120629D01*
X-8723Y120614D01*
X-8758Y120598D01*
X-8786Y120582D01*
X-8804Y120567D01*
X-8817Y120557D01*
X-8820Y120554D01*
X-8848Y120520D01*
X-8870Y120483D01*
X-8885Y120442D01*
X-8898Y120408D01*
X-8904Y120373D01*
X-8907Y120349D01*
Y120330D01*
Y120327D01*
Y120324D01*
X-8901Y120261D01*
X-8889Y120208D01*
X-8870Y120161D01*
X-8848Y120121D01*
X-8823Y120089D01*
X-8804Y120068D01*
X-8792Y120055D01*
X-8786Y120049D01*
X-8736Y120018D01*
X-8683Y119993D01*
X-8626Y119974D01*
X-8570Y119965D01*
X-8520Y119958D01*
X-8499D01*
X-8480Y119955D01*
X-8442D01*
X-8383Y119506D01*
X-8436Y119522D01*
X-8486Y119531D01*
X-8527Y119540D01*
X-8564Y119544D01*
X-8595Y119547D01*
X-8617Y119550D01*
X-8636D01*
X-8695Y119544D01*
X-8748Y119531D01*
X-8795Y119509D01*
X-8835Y119487D01*
X-8867Y119465D01*
X-8892Y119444D01*
X-8904Y119431D01*
X-8910Y119425D01*
X-8948Y119375D01*
X-8976Y119322D01*
X-8995Y119266D01*
X-9010Y119213D01*
X-9016Y119166D01*
X-9020Y119147D01*
Y119129D01*
X-9023Y119113D01*
Y119104D01*
Y119097D01*
Y119094D01*
X-9016Y119016D01*
X-9004Y118948D01*
X-8985Y118888D01*
X-8963Y118838D01*
X-8942Y118798D01*
X-8923Y118770D01*
X-8910Y118751D01*
X-8904Y118745D01*
X-8857Y118701D01*
X-8807Y118670D01*
X-8761Y118648D01*
X-8714Y118632D01*
X-8673Y118623D01*
X-8642Y118620D01*
X-8630Y118617D01*
X-8614D01*
X-8558Y118620D01*
X-8505Y118632D01*
X-8458Y118651D01*
X-8417Y118670D01*
X-8386Y118689D01*
X-8361Y118707D01*
X-8349Y118720D01*
X-8343Y118723D01*
X-8305Y118767D01*
X-8274Y118820D01*
X-8249Y118870D01*
X-8233Y118923D01*
X-8218Y118966D01*
X-8212Y119004D01*
X-8208Y119019D01*
X-8205Y119029D01*
Y119035D01*
Y119038D01*
X-7672Y118973D01*
X-7681Y118907D01*
X-7697Y118842D01*
X-7716Y118782D01*
X-7734Y118726D01*
X-7759Y118673D01*
X-7784Y118626D01*
X-7809Y118582D01*
X-7834Y118542D01*
X-7862Y118505D01*
X-7884Y118473D01*
X-7909Y118445D01*
X-7928Y118423D01*
X-7943Y118405D01*
X-7956Y118392D01*
X-7965Y118386D01*
X-7968Y118383D01*
X-8018Y118342D01*
X-8071Y118308D01*
X-8124Y118280D01*
X-8180Y118252D01*
X-8233Y118230D01*
X-8286Y118214D01*
X-8339Y118199D01*
X-8389Y118186D01*
X-8436Y118177D01*
X-8480Y118171D01*
X-8520Y118165D01*
X-8552Y118161D01*
X-8580D01*
X-8598Y118158D01*
X-8617D01*
X-8692Y118161D01*
X-8767Y118171D01*
X-8835Y118183D01*
X-8901Y118199D01*
X-8960Y118221D01*
X-9020Y118243D01*
X-9073Y118267D01*
X-9120Y118292D01*
X-9163Y118314D01*
X-9201Y118339D01*
X-9232Y118361D01*
X-9260Y118383D01*
X-9282Y118398D01*
X-9297Y118411D01*
X-9307Y118420D01*
X-9310Y118423D01*
X-9360Y118476D01*
X-9400Y118529D01*
X-9438Y118582D01*
X-9469Y118639D01*
X-9497Y118692D01*
X-9519Y118745D01*
X-9538Y118798D01*
X-9553Y118848D01*
X-9566Y118895D01*
X-9572Y118935D01*
X-9578Y118973D01*
X-9584Y119007D01*
Y119032D01*
X-9588Y119054D01*
Y119066D01*
Y119069D01*
X-9584Y119116D01*
X-9581Y119163D01*
X-9566Y119250D01*
X-9541Y119325D01*
X-9513Y119391D01*
X-9500Y119419D01*
X-9484Y119444D01*
X-9472Y119465D01*
X-9463Y119484D01*
X-9450Y119497D01*
X-9444Y119506D01*
X-9441Y119512D01*
X-9438Y119515D01*
X-9410Y119550D01*
X-9378Y119581D01*
X-9316Y119631D01*
X-9251Y119675D01*
X-9185Y119706D01*
X-9132Y119728D01*
X-9107Y119737D01*
X-9085Y119743D01*
X-9070Y119749D01*
X-9057Y119753D01*
X-9048Y119756D01*
X-9045D01*
X-9116Y119799D01*
X-9182Y119846D01*
X-9238Y119896D01*
X-9285Y119946D01*
X-9325Y119996D01*
X-9360Y120046D01*
X-9385Y120096D01*
X-9407Y120142D01*
X-9425Y120186D01*
X-9438Y120230D01*
X-9447Y120267D01*
X-9453Y120299D01*
X-9456Y120324D01*
X-9460Y120345D01*
Y120358D01*
Y120361D01*
X-9456Y120411D01*
X-9450Y120458D01*
X-9441Y120504D01*
X-9428Y120548D01*
X-9394Y120629D01*
X-9357Y120698D01*
X-9338Y120729D01*
X-9319Y120757D01*
X-9300Y120782D01*
X-9285Y120801D01*
X-9272Y120817D01*
X-9263Y120829D01*
X-9257Y120835D01*
X-9254Y120838D01*
X-9207Y120885D01*
X-9157Y120926D01*
X-9104Y120960D01*
X-9048Y120991D01*
X-8995Y121016D01*
X-8942Y121038D01*
X-8889Y121054D01*
X-8835Y121069D01*
X-8789Y121079D01*
X-8745Y121088D01*
X-8704Y121091D01*
X-8670Y121097D01*
X-8642D01*
X-8620Y121100D01*
X-8602D01*
X-8514Y121097D01*
D02*
G37*
G36*
X15469D02*
X15538Y121091D01*
X15603Y121082D01*
X15663Y121069D01*
X15722Y121054D01*
X15775Y121038D01*
X15822Y121019D01*
X15869Y121001D01*
X15909Y120982D01*
X15944Y120963D01*
X15975Y120948D01*
X16000Y120932D01*
X16018Y120919D01*
X16034Y120910D01*
X16043Y120904D01*
X16047Y120901D01*
X16093Y120860D01*
X16134Y120817D01*
X16171Y120766D01*
X16203Y120713D01*
X16230Y120660D01*
X16255Y120604D01*
X16277Y120551D01*
X16296Y120498D01*
X16312Y120448D01*
X16324Y120402D01*
X16333Y120358D01*
X16340Y120320D01*
X16346Y120289D01*
X16349Y120264D01*
X16352Y120252D01*
Y120246D01*
X15803Y120193D01*
X15800Y120236D01*
X15794Y120277D01*
X15778Y120349D01*
X15759Y120408D01*
X15741Y120455D01*
X15719Y120492D01*
X15703Y120517D01*
X15691Y120529D01*
X15688Y120536D01*
X15647Y120570D01*
X15600Y120598D01*
X15553Y120617D01*
X15510Y120629D01*
X15469Y120635D01*
X15438Y120642D01*
X15410D01*
X15348Y120639D01*
X15294Y120626D01*
X15248Y120610D01*
X15207Y120592D01*
X15176Y120573D01*
X15154Y120557D01*
X15138Y120545D01*
X15135Y120542D01*
X15101Y120501D01*
X15076Y120455D01*
X15060Y120408D01*
X15048Y120364D01*
X15042Y120320D01*
X15036Y120289D01*
Y120277D01*
Y120267D01*
Y120261D01*
Y120258D01*
X15042Y120196D01*
X15054Y120133D01*
X15073Y120077D01*
X15092Y120027D01*
X15114Y119983D01*
X15132Y119949D01*
X15142Y119937D01*
X15145Y119927D01*
X15151Y119924D01*
Y119921D01*
X15170Y119896D01*
X15195Y119865D01*
X15226Y119831D01*
X15257Y119796D01*
X15332Y119718D01*
X15413Y119640D01*
X15450Y119603D01*
X15488Y119565D01*
X15519Y119534D01*
X15550Y119506D01*
X15575Y119484D01*
X15594Y119465D01*
X15607Y119453D01*
X15610Y119450D01*
X15694Y119372D01*
X15769Y119297D01*
X15841Y119225D01*
X15903Y119160D01*
X15959Y119100D01*
X16009Y119041D01*
X16056Y118991D01*
X16093Y118945D01*
X16128Y118901D01*
X16156Y118867D01*
X16181Y118832D01*
X16199Y118807D01*
X16212Y118789D01*
X16224Y118773D01*
X16227Y118763D01*
X16230Y118760D01*
X16284Y118664D01*
X16324Y118567D01*
X16359Y118473D01*
X16383Y118389D01*
X16393Y118352D01*
X16399Y118317D01*
X16405Y118286D01*
X16411Y118261D01*
X16415Y118239D01*
Y118224D01*
X16418Y118214D01*
Y118211D01*
X14483D01*
Y118723D01*
X15582D01*
X15544Y118776D01*
X15525Y118801D01*
X15510Y118826D01*
X15494Y118845D01*
X15482Y118860D01*
X15472Y118870D01*
X15469Y118873D01*
X15454Y118888D01*
X15435Y118910D01*
X15413Y118932D01*
X15388Y118957D01*
X15335Y119010D01*
X15279Y119063D01*
X15226Y119113D01*
X15201Y119135D01*
X15179Y119153D01*
X15164Y119169D01*
X15151Y119182D01*
X15142Y119188D01*
X15138Y119191D01*
X15092Y119235D01*
X15048Y119275D01*
X15008Y119316D01*
X14970Y119350D01*
X14939Y119384D01*
X14908Y119413D01*
X14883Y119440D01*
X14858Y119465D01*
X14823Y119506D01*
X14795Y119534D01*
X14783Y119553D01*
X14777Y119559D01*
X14724Y119631D01*
X14677Y119700D01*
X14639Y119762D01*
X14608Y119815D01*
X14586Y119862D01*
X14577Y119880D01*
X14568Y119896D01*
X14561Y119908D01*
X14558Y119921D01*
X14555Y119924D01*
Y119927D01*
X14530Y119993D01*
X14514Y120058D01*
X14502Y120121D01*
X14493Y120180D01*
X14487Y120227D01*
Y120249D01*
X14483Y120264D01*
Y120280D01*
Y120289D01*
Y120295D01*
Y120299D01*
X14487Y120361D01*
X14493Y120420D01*
X14505Y120476D01*
X14521Y120533D01*
X14539Y120582D01*
X14561Y120629D01*
X14583Y120673D01*
X14605Y120710D01*
X14630Y120748D01*
X14652Y120779D01*
X14674Y120807D01*
X14692Y120829D01*
X14708Y120844D01*
X14720Y120860D01*
X14727Y120866D01*
X14730Y120870D01*
X14777Y120910D01*
X14830Y120944D01*
X14883Y120976D01*
X14936Y121004D01*
X14992Y121026D01*
X15048Y121044D01*
X15101Y121060D01*
X15154Y121072D01*
X15204Y121082D01*
X15251Y121088D01*
X15291Y121094D01*
X15326Y121097D01*
X15357Y121100D01*
X15397D01*
X15469Y121097D01*
D02*
G37*
G36*
X805Y118211D02*
X253D01*
Y119256D01*
X250Y119350D01*
X247Y119428D01*
X237Y119497D01*
X228Y119553D01*
X222Y119597D01*
X213Y119628D01*
X209Y119640D01*
Y119647D01*
X206Y119653D01*
X184Y119700D01*
X159Y119743D01*
X134Y119778D01*
X109Y119806D01*
X88Y119827D01*
X69Y119843D01*
X53Y119852D01*
X50Y119855D01*
X10Y119877D01*
X-34Y119896D01*
X-75Y119908D01*
X-115Y119915D01*
X-146Y119921D01*
X-174Y119924D01*
X-196D01*
X-240Y119921D01*
X-277Y119915D01*
X-312Y119908D01*
X-343Y119899D01*
X-365Y119887D01*
X-384Y119880D01*
X-393Y119874D01*
X-396Y119871D01*
X-424Y119849D01*
X-446Y119827D01*
X-465Y119802D01*
X-480Y119781D01*
X-493Y119759D01*
X-499Y119743D01*
X-505Y119731D01*
Y119728D01*
X-511Y119709D01*
X-518Y119684D01*
X-521Y119656D01*
X-524Y119625D01*
X-530Y119559D01*
X-536Y119487D01*
Y119422D01*
X-539Y119391D01*
Y119366D01*
Y119344D01*
Y119328D01*
Y119316D01*
Y119313D01*
Y118211D01*
X-1092D01*
Y119434D01*
Y119484D01*
Y119534D01*
X-1089Y119578D01*
X-1085Y119618D01*
Y119656D01*
X-1082Y119690D01*
X-1079Y119721D01*
X-1076Y119746D01*
X-1073Y119771D01*
X-1070Y119793D01*
X-1067Y119809D01*
Y119824D01*
X-1064Y119834D01*
X-1060Y119843D01*
Y119849D01*
X-1048Y119899D01*
X-1032Y119943D01*
X-1014Y119986D01*
X-998Y120021D01*
X-979Y120052D01*
X-967Y120074D01*
X-958Y120086D01*
X-954Y120093D01*
X-923Y120133D01*
X-889Y120168D01*
X-848Y120199D01*
X-814Y120224D01*
X-780Y120246D01*
X-752Y120261D01*
X-733Y120271D01*
X-730Y120274D01*
X-727D01*
X-667Y120299D01*
X-608Y120314D01*
X-552Y120327D01*
X-499Y120336D01*
X-452Y120342D01*
X-433D01*
X-415Y120345D01*
X-384D01*
X-315Y120342D01*
X-249Y120333D01*
X-187Y120317D01*
X-128Y120295D01*
X-71Y120274D01*
X-18Y120246D01*
X28Y120217D01*
X75Y120189D01*
X113Y120158D01*
X150Y120130D01*
X181Y120102D01*
X206Y120080D01*
X225Y120058D01*
X240Y120043D01*
X250Y120033D01*
X253Y120030D01*
Y121091D01*
X805D01*
Y118211D01*
D02*
G37*
G36*
X6234Y120342D02*
X6303Y120330D01*
X6365Y120314D01*
X6427Y120292D01*
X6484Y120267D01*
X6537Y120239D01*
X6587Y120211D01*
X6630Y120180D01*
X6671Y120149D01*
X6708Y120118D01*
X6740Y120089D01*
X6764Y120064D01*
X6786Y120043D01*
X6802Y120027D01*
X6811Y120015D01*
X6814Y120011D01*
Y120299D01*
X7323D01*
Y118211D01*
X6771D01*
Y119225D01*
Y119278D01*
X6768Y119328D01*
Y119375D01*
X6764Y119419D01*
X6761Y119456D01*
X6758Y119494D01*
X6752Y119525D01*
X6749Y119553D01*
X6746Y119575D01*
X6740Y119597D01*
X6736Y119615D01*
X6733Y119628D01*
X6730Y119640D01*
Y119647D01*
X6727Y119653D01*
X6708Y119700D01*
X6686Y119740D01*
X6662Y119774D01*
X6640Y119802D01*
X6618Y119824D01*
X6599Y119840D01*
X6587Y119849D01*
X6583Y119852D01*
X6543Y119877D01*
X6502Y119893D01*
X6465Y119905D01*
X6431Y119915D01*
X6399Y119921D01*
X6374Y119924D01*
X6353D01*
X6315Y119921D01*
X6281Y119918D01*
X6253Y119912D01*
X6228Y119902D01*
X6209Y119893D01*
X6197Y119887D01*
X6187Y119884D01*
X6184Y119880D01*
X6162Y119862D01*
X6144Y119840D01*
X6115Y119796D01*
X6106Y119778D01*
X6100Y119762D01*
X6094Y119749D01*
Y119746D01*
X6087Y119728D01*
X6084Y119706D01*
X6078Y119678D01*
X6075Y119650D01*
X6069Y119584D01*
X6066Y119518D01*
X6063Y119456D01*
Y119428D01*
Y119403D01*
Y119381D01*
Y119366D01*
Y119356D01*
Y119353D01*
Y118211D01*
X5510D01*
Y119213D01*
Y119266D01*
X5507Y119316D01*
Y119362D01*
X5504Y119406D01*
X5501Y119444D01*
X5498Y119478D01*
X5491Y119512D01*
X5488Y119540D01*
X5485Y119565D01*
X5479Y119584D01*
X5476Y119603D01*
X5473Y119618D01*
X5470Y119628D01*
Y119637D01*
X5466Y119643D01*
X5448Y119693D01*
X5426Y119734D01*
X5401Y119771D01*
X5376Y119799D01*
X5354Y119821D01*
X5336Y119840D01*
X5323Y119849D01*
X5320Y119852D01*
X5279Y119877D01*
X5242Y119893D01*
X5204Y119905D01*
X5173Y119915D01*
X5142Y119921D01*
X5120Y119924D01*
X5102D01*
X5045Y119918D01*
X4998Y119905D01*
X4958Y119887D01*
X4924Y119865D01*
X4899Y119843D01*
X4883Y119824D01*
X4871Y119812D01*
X4868Y119806D01*
X4858Y119787D01*
X4849Y119762D01*
X4839Y119734D01*
X4833Y119706D01*
X4824Y119637D01*
X4814Y119572D01*
X4811Y119506D01*
Y119478D01*
X4808Y119453D01*
Y119431D01*
Y119416D01*
Y119406D01*
Y119403D01*
Y118211D01*
X4256D01*
Y119544D01*
Y119597D01*
X4259Y119650D01*
X4262Y119696D01*
X4265Y119737D01*
X4268Y119778D01*
X4275Y119812D01*
X4281Y119843D01*
X4284Y119874D01*
X4290Y119899D01*
X4296Y119918D01*
X4303Y119937D01*
X4306Y119952D01*
X4309Y119962D01*
X4312Y119971D01*
X4315Y119977D01*
X4346Y120040D01*
X4384Y120096D01*
X4425Y120142D01*
X4462Y120183D01*
X4499Y120211D01*
X4527Y120233D01*
X4546Y120249D01*
X4549Y120252D01*
X4552D01*
X4615Y120283D01*
X4680Y120305D01*
X4746Y120324D01*
X4805Y120333D01*
X4858Y120339D01*
X4880Y120342D01*
X4902Y120345D01*
X4939D01*
X5005Y120342D01*
X5067Y120333D01*
X5127Y120317D01*
X5176Y120305D01*
X5220Y120289D01*
X5251Y120274D01*
X5264Y120271D01*
X5273Y120264D01*
X5276Y120261D01*
X5279D01*
X5339Y120227D01*
X5392Y120189D01*
X5442Y120146D01*
X5488Y120105D01*
X5523Y120068D01*
X5551Y120040D01*
X5563Y120027D01*
X5570Y120018D01*
X5573Y120015D01*
X5576Y120011D01*
X5613Y120071D01*
X5654Y120121D01*
X5694Y120164D01*
X5732Y120199D01*
X5766Y120227D01*
X5794Y120246D01*
X5813Y120258D01*
X5816Y120261D01*
X5819D01*
X5875Y120289D01*
X5934Y120311D01*
X5994Y120324D01*
X6047Y120336D01*
X6094Y120342D01*
X6115D01*
X6131Y120345D01*
X6165D01*
X6234Y120342D01*
D02*
G37*
G36*
X-14140Y118211D02*
X-14763D01*
X-15793Y121091D01*
X-15175D01*
X-14470Y118960D01*
X-13740Y121091D01*
X-13113D01*
X-14140Y118211D01*
D02*
G37*
G36*
X3994Y118211D02*
X3379D01*
X3139Y118867D01*
X1988D01*
X1735Y118211D01*
X1102D01*
X2256Y121091D01*
X2874D01*
X3994Y118211D01*
D02*
G37*
G36*
X-10046D02*
X-10598D01*
Y118763D01*
X-10046D01*
Y118211D01*
D02*
G37*
G36*
X-11048Y120542D02*
X-12302Y120542D01*
X-12230Y120448D01*
X-12165Y120355D01*
X-12099Y120258D01*
X-12040Y120161D01*
X-11984Y120068D01*
X-11934Y119974D01*
X-11887Y119887D01*
X-11843Y119802D01*
X-11806Y119725D01*
X-11772Y119653D01*
X-11743Y119587D01*
X-11722Y119534D01*
X-11703Y119491D01*
X-11687Y119456D01*
X-11684Y119444D01*
X-11681Y119434D01*
X-11678Y119431D01*
Y119428D01*
X-11637Y119313D01*
X-11600Y119197D01*
X-11569Y119085D01*
X-11544Y118976D01*
X-11519Y118870D01*
X-11500Y118770D01*
X-11484Y118676D01*
X-11469Y118586D01*
X-11460Y118505D01*
X-11450Y118433D01*
X-11444Y118367D01*
X-11441Y118314D01*
X-11438Y118271D01*
X-11434Y118239D01*
Y118227D01*
Y118218D01*
Y118214D01*
Y118211D01*
X-11968D01*
X-11971Y118358D01*
X-11987Y118508D01*
X-12005Y118651D01*
X-12015Y118720D01*
X-12027Y118785D01*
X-12040Y118848D01*
X-12049Y118904D01*
X-12062Y118951D01*
X-12071Y118994D01*
X-12077Y119029D01*
X-12083Y119054D01*
X-12090Y119069D01*
Y119076D01*
X-12143Y119253D01*
X-12171Y119341D01*
X-12202Y119425D01*
X-12233Y119503D01*
X-12261Y119581D01*
X-12292Y119650D01*
X-12321Y119718D01*
X-12349Y119778D01*
X-12377Y119831D01*
X-12399Y119877D01*
X-12417Y119918D01*
X-12436Y119949D01*
X-12449Y119974D01*
X-12455Y119986D01*
X-12458Y119993D01*
X-12505Y120071D01*
X-12548Y120146D01*
X-12592Y120214D01*
X-12636Y120277D01*
X-12676Y120336D01*
X-12717Y120392D01*
X-12754Y120442D01*
X-12789Y120486D01*
X-12820Y120523D01*
X-12848Y120557D01*
X-12873Y120589D01*
X-12895Y120610D01*
X-12913Y120629D01*
X-12926Y120645D01*
X-12932Y120651D01*
X-12935Y120654D01*
Y121054D01*
X-11048Y121054D01*
Y120542D01*
D02*
G37*
G36*
X13254Y121097D02*
X13326Y121088D01*
X13395Y121072D01*
X13457Y121054D01*
X13516Y121032D01*
X13569Y121007D01*
X13619Y120979D01*
X13663Y120954D01*
X13700Y120926D01*
X13735Y120898D01*
X13763Y120873D01*
X13788Y120851D01*
X13806Y120832D01*
X13819Y120817D01*
X13828Y120807D01*
X13831Y120804D01*
X13881Y120732D01*
X13925Y120651D01*
X13962Y120564D01*
X13994Y120470D01*
X14022Y120373D01*
X14043Y120277D01*
X14062Y120180D01*
X14078Y120083D01*
X14087Y119993D01*
X14096Y119908D01*
X14103Y119834D01*
X14109Y119765D01*
Y119737D01*
Y119712D01*
X14112Y119690D01*
Y119668D01*
Y119656D01*
Y119643D01*
Y119637D01*
Y119634D01*
X14109Y119484D01*
X14100Y119347D01*
X14087Y119219D01*
X14072Y119104D01*
X14053Y118998D01*
X14031Y118904D01*
X14009Y118820D01*
X13984Y118745D01*
X13959Y118682D01*
X13937Y118626D01*
X13916Y118579D01*
X13897Y118542D01*
X13881Y118514D01*
X13866Y118495D01*
X13859Y118483D01*
X13856Y118480D01*
X13806Y118423D01*
X13753Y118374D01*
X13697Y118330D01*
X13641Y118292D01*
X13585Y118264D01*
X13529Y118236D01*
X13476Y118214D01*
X13422Y118199D01*
X13373Y118186D01*
X13326Y118174D01*
X13285Y118168D01*
X13248Y118165D01*
X13220Y118161D01*
X13198Y118158D01*
X13179D01*
X13104Y118161D01*
X13033Y118171D01*
X12964Y118186D01*
X12901Y118205D01*
X12842Y118227D01*
X12789Y118252D01*
X12739Y118277D01*
X12696Y118305D01*
X12658Y118333D01*
X12624Y118358D01*
X12593Y118383D01*
X12571Y118405D01*
X12552Y118423D01*
X12537Y118439D01*
X12530Y118448D01*
X12527Y118451D01*
X12477Y118523D01*
X12433Y118604D01*
X12396Y118695D01*
X12362Y118785D01*
X12337Y118882D01*
X12312Y118982D01*
X12293Y119079D01*
X12278Y119175D01*
X12268Y119266D01*
X12259Y119350D01*
X12252Y119428D01*
X12246Y119494D01*
Y119525D01*
Y119550D01*
X12243Y119572D01*
Y119593D01*
Y119606D01*
Y119618D01*
Y119625D01*
Y119628D01*
X12246Y119774D01*
X12256Y119912D01*
X12268Y120040D01*
X12287Y120155D01*
X12309Y120261D01*
X12331Y120358D01*
X12359Y120445D01*
X12384Y120520D01*
X12409Y120589D01*
X12433Y120645D01*
X12459Y120695D01*
X12480Y120732D01*
X12499Y120763D01*
X12512Y120785D01*
X12521Y120798D01*
X12524Y120801D01*
X12571Y120854D01*
X12621Y120901D01*
X12674Y120941D01*
X12727Y120976D01*
X12780Y121004D01*
X12836Y121029D01*
X12889Y121047D01*
X12939Y121063D01*
X12989Y121075D01*
X13036Y121085D01*
X13076Y121091D01*
X13111Y121097D01*
X13139D01*
X13160Y121100D01*
X13179D01*
X13254Y121097D01*
D02*
G37*
G36*
X11017D02*
X11089Y121088D01*
X11157Y121072D01*
X11220Y121054D01*
X11279Y121032D01*
X11332Y121007D01*
X11382Y120979D01*
X11426Y120954D01*
X11463Y120926D01*
X11497Y120898D01*
X11526Y120873D01*
X11551Y120851D01*
X11569Y120832D01*
X11582Y120817D01*
X11591Y120807D01*
X11594Y120804D01*
X11644Y120732D01*
X11688Y120651D01*
X11725Y120564D01*
X11756Y120470D01*
X11784Y120373D01*
X11806Y120277D01*
X11825Y120180D01*
X11841Y120083D01*
X11850Y119993D01*
X11859Y119908D01*
X11866Y119834D01*
X11872Y119765D01*
Y119737D01*
Y119712D01*
X11875Y119690D01*
Y119668D01*
Y119656D01*
Y119643D01*
Y119637D01*
Y119634D01*
X11872Y119484D01*
X11863Y119347D01*
X11850Y119219D01*
X11834Y119104D01*
X11816Y118998D01*
X11794Y118904D01*
X11772Y118820D01*
X11747Y118745D01*
X11722Y118682D01*
X11700Y118626D01*
X11678Y118579D01*
X11660Y118542D01*
X11644Y118514D01*
X11629Y118495D01*
X11622Y118483D01*
X11619Y118480D01*
X11569Y118423D01*
X11516Y118374D01*
X11460Y118330D01*
X11404Y118292D01*
X11348Y118264D01*
X11292Y118236D01*
X11238Y118214D01*
X11186Y118199D01*
X11136Y118186D01*
X11089Y118174D01*
X11048Y118168D01*
X11011Y118165D01*
X10983Y118161D01*
X10961Y118158D01*
X10942D01*
X10867Y118161D01*
X10796Y118171D01*
X10727Y118186D01*
X10665Y118205D01*
X10605Y118227D01*
X10552Y118252D01*
X10502Y118277D01*
X10458Y118305D01*
X10421Y118333D01*
X10387Y118358D01*
X10356Y118383D01*
X10334Y118405D01*
X10315Y118423D01*
X10299Y118439D01*
X10293Y118448D01*
X10290Y118451D01*
X10240Y118523D01*
X10197Y118604D01*
X10159Y118695D01*
X10125Y118785D01*
X10100Y118882D01*
X10075Y118982D01*
X10056Y119079D01*
X10041Y119175D01*
X10031Y119266D01*
X10022Y119350D01*
X10016Y119428D01*
X10009Y119494D01*
Y119525D01*
Y119550D01*
X10006Y119572D01*
Y119593D01*
Y119606D01*
Y119618D01*
Y119625D01*
Y119628D01*
X10009Y119774D01*
X10019Y119912D01*
X10031Y120040D01*
X10050Y120155D01*
X10072Y120261D01*
X10093Y120358D01*
X10122Y120445D01*
X10147Y120520D01*
X10171Y120589D01*
X10197Y120645D01*
X10221Y120695D01*
X10243Y120732D01*
X10262Y120763D01*
X10274Y120785D01*
X10284Y120798D01*
X10287Y120801D01*
X10334Y120854D01*
X10384Y120901D01*
X10437Y120941D01*
X10490Y120976D01*
X10543Y121004D01*
X10599Y121029D01*
X10652Y121047D01*
X10702Y121063D01*
X10752Y121075D01*
X10799Y121085D01*
X10839Y121091D01*
X10874Y121097D01*
X10902D01*
X10923Y121100D01*
X10942D01*
X11017Y121097D01*
D02*
G37*
G36*
X8780D02*
X8852Y121088D01*
X8920Y121072D01*
X8983Y121054D01*
X9042Y121032D01*
X9095Y121007D01*
X9145Y120979D01*
X9189Y120954D01*
X9226Y120926D01*
X9261Y120898D01*
X9289Y120873D01*
X9313Y120851D01*
X9332Y120832D01*
X9345Y120817D01*
X9354Y120807D01*
X9357Y120804D01*
X9407Y120732D01*
X9451Y120651D01*
X9488Y120564D01*
X9519Y120470D01*
X9548Y120373D01*
X9569Y120277D01*
X9588Y120180D01*
X9604Y120083D01*
X9613Y119993D01*
X9622Y119908D01*
X9629Y119834D01*
X9635Y119765D01*
Y119737D01*
Y119712D01*
X9638Y119690D01*
Y119668D01*
Y119656D01*
Y119643D01*
Y119637D01*
Y119634D01*
X9635Y119484D01*
X9625Y119347D01*
X9613Y119219D01*
X9597Y119104D01*
X9579Y118998D01*
X9557Y118904D01*
X9535Y118820D01*
X9510Y118745D01*
X9485Y118682D01*
X9463Y118626D01*
X9441Y118579D01*
X9423Y118542D01*
X9407Y118514D01*
X9392Y118495D01*
X9385Y118483D01*
X9382Y118480D01*
X9332Y118423D01*
X9279Y118374D01*
X9223Y118330D01*
X9167Y118292D01*
X9111Y118264D01*
X9054Y118236D01*
X9002Y118214D01*
X8948Y118199D01*
X8899Y118186D01*
X8852Y118174D01*
X8811Y118168D01*
X8774Y118165D01*
X8746Y118161D01*
X8724Y118158D01*
X8705D01*
X8630Y118161D01*
X8558Y118171D01*
X8490Y118186D01*
X8427Y118205D01*
X8368Y118227D01*
X8315Y118252D01*
X8265Y118277D01*
X8222Y118305D01*
X8184Y118333D01*
X8150Y118358D01*
X8118Y118383D01*
X8097Y118405D01*
X8078Y118423D01*
X8062Y118439D01*
X8056Y118448D01*
X8053Y118451D01*
X8003Y118523D01*
X7959Y118604D01*
X7922Y118695D01*
X7888Y118785D01*
X7863Y118882D01*
X7838Y118982D01*
X7819Y119079D01*
X7803Y119175D01*
X7794Y119266D01*
X7785Y119350D01*
X7779Y119428D01*
X7772Y119494D01*
Y119525D01*
Y119550D01*
X7769Y119572D01*
Y119593D01*
Y119606D01*
Y119618D01*
Y119625D01*
Y119628D01*
X7772Y119774D01*
X7782Y119912D01*
X7794Y120040D01*
X7813Y120155D01*
X7835Y120261D01*
X7857Y120358D01*
X7885Y120445D01*
X7909Y120520D01*
X7935Y120589D01*
X7959Y120645D01*
X7984Y120695D01*
X8006Y120732D01*
X8025Y120763D01*
X8037Y120785D01*
X8047Y120798D01*
X8050Y120801D01*
X8097Y120854D01*
X8147Y120901D01*
X8200Y120941D01*
X8253Y120976D01*
X8306Y121004D01*
X8362Y121029D01*
X8415Y121047D01*
X8465Y121063D01*
X8515Y121075D01*
X8562Y121085D01*
X8602Y121091D01*
X8636Y121097D01*
X8664D01*
X8686Y121100D01*
X8705D01*
X8780Y121097D01*
D02*
G37*
G36*
X-4505Y121141D02*
X-4402Y121135D01*
X-4302Y121122D01*
X-4205Y121107D01*
X-4115Y121088D01*
X-4028Y121069D01*
X-3950Y121047D01*
X-3875Y121026D01*
X-3809Y121001D01*
X-3750Y120979D01*
X-3700Y120960D01*
X-3656Y120941D01*
X-3622Y120926D01*
X-3597Y120913D01*
X-3582Y120907D01*
X-3575Y120904D01*
X-3494Y120857D01*
X-3416Y120804D01*
X-3341Y120748D01*
X-3273Y120692D01*
X-3210Y120632D01*
X-3151Y120570D01*
X-3098Y120514D01*
X-3048Y120455D01*
X-3004Y120402D01*
X-2967Y120352D01*
X-2936Y120305D01*
X-2908Y120264D01*
X-2889Y120233D01*
X-2873Y120208D01*
X-2864Y120193D01*
X-2861Y120186D01*
X-2814Y120096D01*
X-2777Y120005D01*
X-2742Y119915D01*
X-2711Y119824D01*
X-2686Y119737D01*
X-2664Y119650D01*
X-2649Y119569D01*
X-2633Y119494D01*
X-2624Y119422D01*
X-2614Y119356D01*
X-2611Y119300D01*
X-2605Y119250D01*
Y119210D01*
X-2602Y119182D01*
Y119163D01*
Y119160D01*
Y119157D01*
X-2605Y119063D01*
X-2611Y118973D01*
X-2624Y118885D01*
X-2636Y118801D01*
X-2655Y118720D01*
X-2674Y118642D01*
X-2695Y118570D01*
X-2717Y118505D01*
X-2736Y118442D01*
X-2758Y118389D01*
X-2777Y118342D01*
X-2795Y118302D01*
X-2808Y118271D01*
X-2820Y118246D01*
X-2826Y118233D01*
X-2829Y118227D01*
X-2876Y118149D01*
X-2926Y118077D01*
X-2979Y118008D01*
X-3036Y117946D01*
X-3095Y117887D01*
X-3154Y117834D01*
X-3210Y117787D01*
X-3266Y117743D01*
X-3319Y117706D01*
X-3369Y117672D01*
X-3416Y117643D01*
X-3453Y117622D01*
X-3488Y117603D01*
X-3510Y117590D01*
X-3525Y117584D01*
X-3531Y117581D01*
X-3622Y117544D01*
X-3716Y117509D01*
X-3809Y117478D01*
X-3906Y117453D01*
X-3999Y117431D01*
X-4093Y117412D01*
X-4184Y117400D01*
X-4268Y117388D01*
X-4349Y117378D01*
X-4421Y117372D01*
X-4486Y117366D01*
X-4542Y117363D01*
X-4589Y117359D01*
X-4652D01*
X-4776Y117363D01*
X-4892Y117372D01*
X-5004Y117385D01*
X-5113Y117400D01*
X-5213Y117422D01*
X-5307Y117444D01*
X-5391Y117466D01*
X-5472Y117490D01*
X-5541Y117516D01*
X-5606Y117537D01*
X-5659Y117562D01*
X-5703Y117581D01*
X-5740Y117597D01*
X-5765Y117609D01*
X-5781Y117619D01*
X-5787Y117622D01*
X-5862Y117665D01*
X-5931Y117715D01*
X-5996Y117765D01*
X-6056Y117815D01*
X-6109Y117868D01*
X-6159Y117921D01*
X-6202Y117971D01*
X-6243Y118021D01*
X-6277Y118068D01*
X-6308Y118111D01*
X-6333Y118149D01*
X-6355Y118183D01*
X-6371Y118211D01*
X-6383Y118230D01*
X-6390Y118246D01*
X-6393Y118249D01*
X-5974D01*
X-5934Y118202D01*
X-5893Y118158D01*
X-5803Y118077D01*
X-5712Y118008D01*
X-5625Y117955D01*
X-5584Y117930D01*
X-5547Y117912D01*
X-5513Y117893D01*
X-5485Y117880D01*
X-5463Y117868D01*
X-5444Y117862D01*
X-5432Y117859D01*
X-5429Y117856D01*
X-5363Y117831D01*
X-5297Y117812D01*
X-5160Y117778D01*
X-5026Y117756D01*
X-4961Y117746D01*
X-4901Y117737D01*
X-4842Y117734D01*
X-4789Y117728D01*
X-4742Y117725D01*
X-4702D01*
X-4670Y117721D01*
X-4623D01*
X-4533Y117725D01*
X-4446Y117728D01*
X-4361Y117737D01*
X-4280Y117746D01*
X-4205Y117759D01*
X-4134Y117771D01*
X-4068Y117787D01*
X-4006Y117803D01*
X-3950Y117815D01*
X-3903Y117831D01*
X-3859Y117843D01*
X-3822Y117856D01*
X-3794Y117865D01*
X-3775Y117874D01*
X-3759Y117877D01*
X-3756Y117880D01*
X-3687Y117912D01*
X-3622Y117946D01*
X-3563Y117983D01*
X-3507Y118024D01*
X-3453Y118065D01*
X-3404Y118105D01*
X-3360Y118146D01*
X-3322Y118186D01*
X-3285Y118224D01*
X-3257Y118258D01*
X-3229Y118289D01*
X-3207Y118317D01*
X-3192Y118342D01*
X-3179Y118358D01*
X-3173Y118370D01*
X-3170Y118374D01*
X-3132Y118439D01*
X-3101Y118505D01*
X-3073Y118570D01*
X-3048Y118636D01*
X-3029Y118698D01*
X-3011Y118763D01*
X-2998Y118823D01*
X-2985Y118879D01*
X-2979Y118932D01*
X-2973Y118979D01*
X-2967Y119023D01*
X-2964Y119060D01*
X-2961Y119088D01*
Y119110D01*
Y119125D01*
Y119129D01*
X-2964Y119210D01*
X-2970Y119288D01*
X-2979Y119362D01*
X-2989Y119437D01*
X-3004Y119509D01*
X-3020Y119575D01*
X-3036Y119640D01*
X-3054Y119700D01*
X-3073Y119753D01*
X-3088Y119802D01*
X-3104Y119846D01*
X-3120Y119880D01*
X-3129Y119912D01*
X-3138Y119930D01*
X-3145Y119946D01*
X-3148Y119949D01*
X-3185Y120021D01*
X-3226Y120089D01*
X-3269Y120152D01*
X-3313Y120211D01*
X-3360Y120267D01*
X-3407Y120317D01*
X-3450Y120364D01*
X-3497Y120405D01*
X-3538Y120442D01*
X-3578Y120473D01*
X-3613Y120501D01*
X-3644Y120523D01*
X-3669Y120542D01*
X-3687Y120554D01*
X-3700Y120561D01*
X-3703Y120564D01*
X-3775Y120601D01*
X-3850Y120635D01*
X-3925Y120664D01*
X-4003Y120692D01*
X-4078Y120710D01*
X-4152Y120729D01*
X-4224Y120745D01*
X-4296Y120754D01*
X-4361Y120763D01*
X-4421Y120770D01*
X-4474Y120776D01*
X-4518Y120779D01*
X-4555Y120782D01*
X-4608D01*
X-4723Y120779D01*
X-4829Y120770D01*
X-4932Y120751D01*
X-5026Y120732D01*
X-5113Y120707D01*
X-5191Y120679D01*
X-5266Y120648D01*
X-5332Y120620D01*
X-5391Y120589D01*
X-5441Y120557D01*
X-5485Y120529D01*
X-5519Y120504D01*
X-5547Y120486D01*
X-5569Y120470D01*
X-5581Y120458D01*
X-5584Y120455D01*
X-5647Y120392D01*
X-5700Y120327D01*
X-5747Y120261D01*
X-5787Y120193D01*
X-5822Y120124D01*
X-5850Y120055D01*
X-5875Y119990D01*
X-5893Y119930D01*
X-5909Y119871D01*
X-5918Y119818D01*
X-5928Y119768D01*
X-5931Y119728D01*
X-5934Y119693D01*
X-5937Y119668D01*
Y119653D01*
Y119647D01*
X-5931Y119547D01*
X-5918Y119450D01*
X-5897Y119362D01*
X-5887Y119322D01*
X-5875Y119281D01*
X-5862Y119247D01*
X-5853Y119216D01*
X-5840Y119188D01*
X-5831Y119166D01*
X-5825Y119147D01*
X-5818Y119135D01*
X-5812Y119125D01*
Y119122D01*
X-5762Y119035D01*
X-5709Y118954D01*
X-5656Y118885D01*
X-5603Y118829D01*
X-5556Y118782D01*
X-5538Y118767D01*
X-5522Y118751D01*
X-5506Y118738D01*
X-5497Y118729D01*
X-5491Y118726D01*
X-5488Y118723D01*
X-5435Y118685D01*
X-5388Y118657D01*
X-5344Y118639D01*
X-5310Y118626D01*
X-5282Y118617D01*
X-5260Y118614D01*
X-5248Y118611D01*
X-5244D01*
X-5223Y118614D01*
X-5207Y118623D01*
X-5195Y118629D01*
X-5191Y118632D01*
X-5179Y118654D01*
X-5173Y118679D01*
X-5170Y118698D01*
Y118704D01*
Y118707D01*
Y118726D01*
X-5173Y118751D01*
X-5179Y118779D01*
X-5182Y118810D01*
X-5188Y118838D01*
X-5191Y118860D01*
X-5195Y118876D01*
Y118882D01*
X-5491Y120292D01*
X-4973D01*
X-4923Y120071D01*
X-4889Y120118D01*
X-4854Y120158D01*
X-4814Y120196D01*
X-4773Y120227D01*
X-4730Y120252D01*
X-4686Y120274D01*
X-4645Y120292D01*
X-4602Y120305D01*
X-4561Y120317D01*
X-4527Y120324D01*
X-4493Y120330D01*
X-4464Y120336D01*
X-4439D01*
X-4421Y120339D01*
X-4405D01*
X-4315Y120333D01*
X-4230Y120320D01*
X-4149Y120295D01*
X-4071Y120267D01*
X-4003Y120230D01*
X-3934Y120193D01*
X-3875Y120149D01*
X-3819Y120108D01*
X-3769Y120064D01*
X-3725Y120021D01*
X-3687Y119983D01*
X-3656Y119946D01*
X-3631Y119918D01*
X-3616Y119893D01*
X-3603Y119880D01*
X-3600Y119874D01*
X-3553Y119802D01*
X-3516Y119728D01*
X-3482Y119656D01*
X-3450Y119581D01*
X-3426Y119509D01*
X-3404Y119440D01*
X-3388Y119375D01*
X-3372Y119309D01*
X-3363Y119250D01*
X-3354Y119197D01*
X-3351Y119150D01*
X-3344Y119110D01*
Y119076D01*
X-3341Y119054D01*
Y119038D01*
Y119032D01*
X-3344Y118963D01*
X-3351Y118901D01*
X-3360Y118838D01*
X-3376Y118782D01*
X-3391Y118729D01*
X-3410Y118679D01*
X-3429Y118636D01*
X-3450Y118595D01*
X-3469Y118558D01*
X-3488Y118526D01*
X-3507Y118498D01*
X-3522Y118476D01*
X-3538Y118458D01*
X-3547Y118445D01*
X-3553Y118439D01*
X-3557Y118436D01*
X-3597Y118395D01*
X-3641Y118361D01*
X-3687Y118333D01*
X-3731Y118305D01*
X-3778Y118283D01*
X-3822Y118267D01*
X-3865Y118252D01*
X-3906Y118239D01*
X-3946Y118230D01*
X-3981Y118224D01*
X-4015Y118218D01*
X-4043Y118214D01*
X-4065D01*
X-4081Y118211D01*
X-4096D01*
X-4152Y118214D01*
X-4209Y118221D01*
X-4259Y118233D01*
X-4308Y118246D01*
X-4355Y118261D01*
X-4402Y118280D01*
X-4443Y118302D01*
X-4480Y118324D01*
X-4514Y118342D01*
X-4542Y118364D01*
X-4571Y118383D01*
X-4592Y118398D01*
X-4611Y118411D01*
X-4623Y118423D01*
X-4630Y118430D01*
X-4633Y118433D01*
X-4645Y118395D01*
X-4661Y118361D01*
X-4680Y118333D01*
X-4698Y118308D01*
X-4714Y118292D01*
X-4730Y118277D01*
X-4739Y118271D01*
X-4742Y118267D01*
X-4776Y118249D01*
X-4817Y118236D01*
X-4857Y118224D01*
X-4898Y118218D01*
X-4932Y118214D01*
X-4961Y118211D01*
X-4989D01*
X-5101Y118218D01*
X-5204Y118233D01*
X-5304Y118258D01*
X-5400Y118292D01*
X-5488Y118330D01*
X-5569Y118374D01*
X-5644Y118417D01*
X-5712Y118467D01*
X-5772Y118514D01*
X-5828Y118558D01*
X-5872Y118601D01*
X-5912Y118642D01*
X-5940Y118673D01*
X-5962Y118698D01*
X-5978Y118714D01*
X-5981Y118720D01*
X-6034Y118798D01*
X-6084Y118876D01*
X-6124Y118954D01*
X-6159Y119032D01*
X-6190Y119110D01*
X-6215Y119185D01*
X-6233Y119256D01*
X-6252Y119325D01*
X-6265Y119391D01*
X-6274Y119447D01*
X-6280Y119500D01*
X-6283Y119544D01*
X-6286Y119578D01*
X-6290Y119606D01*
Y119622D01*
Y119628D01*
X-6286Y119706D01*
X-6280Y119781D01*
X-6271Y119855D01*
X-6258Y119927D01*
X-6243Y119993D01*
X-6224Y120058D01*
X-6205Y120118D01*
X-6187Y120174D01*
X-6168Y120224D01*
X-6149Y120267D01*
X-6131Y120308D01*
X-6115Y120339D01*
X-6102Y120367D01*
X-6093Y120386D01*
X-6087Y120398D01*
X-6084Y120402D01*
X-6043Y120467D01*
X-5999Y120526D01*
X-5953Y120586D01*
X-5906Y120639D01*
X-5856Y120685D01*
X-5809Y120732D01*
X-5759Y120773D01*
X-5712Y120810D01*
X-5669Y120841D01*
X-5628Y120870D01*
X-5591Y120895D01*
X-5556Y120916D01*
X-5531Y120932D01*
X-5510Y120941D01*
X-5497Y120948D01*
X-5494Y120951D01*
X-5422Y120985D01*
X-5347Y121013D01*
X-5269Y121041D01*
X-5195Y121063D01*
X-5120Y121082D01*
X-5048Y121097D01*
X-4976Y121110D01*
X-4911Y121119D01*
X-4848Y121128D01*
X-4792Y121135D01*
X-4742Y121138D01*
X-4698Y121141D01*
X-4664Y121144D01*
X-4614D01*
X-4505Y121141D01*
D02*
G37*
G36*
X103535Y59306D02*
X102895D01*
Y60430D01*
X99751D01*
Y61192D01*
X102895D01*
Y62308D01*
X103535D01*
Y59306D01*
D02*
G37*
G36*
Y57654D02*
Y56842D01*
X99751Y55370D01*
Y56178D01*
X100612Y56494D01*
Y58007D01*
X99751Y58339D01*
Y59171D01*
X103535Y57654D01*
D02*
G37*
G36*
X100964Y55100D02*
X101075Y55079D01*
X101169Y55046D01*
X101256Y55014D01*
X101288Y54997D01*
X101321Y54981D01*
X101350Y54964D01*
X101374Y54948D01*
X101391Y54936D01*
X101403Y54927D01*
X101411Y54923D01*
X101415Y54919D01*
X101502Y54845D01*
X101571Y54759D01*
X101633Y54669D01*
X101678Y54587D01*
X101715Y54509D01*
X101727Y54476D01*
X101739Y54448D01*
X101748Y54423D01*
X101756Y54407D01*
X101760Y54395D01*
Y54390D01*
X101805Y54476D01*
X101858Y54554D01*
X101916Y54620D01*
X101969Y54677D01*
X102018Y54722D01*
X102055Y54755D01*
X102071Y54764D01*
X102084Y54772D01*
X102088Y54780D01*
X102092D01*
X102178Y54829D01*
X102260Y54862D01*
X102342Y54887D01*
X102420Y54907D01*
X102486Y54915D01*
X102510Y54919D01*
X102535D01*
X102555Y54923D01*
X102568D01*
X102576D01*
X102580D01*
X102670Y54919D01*
X102752Y54907D01*
X102830Y54887D01*
X102895Y54866D01*
X102949Y54841D01*
X102990Y54825D01*
X103002Y54817D01*
X103014Y54809D01*
X103018Y54804D01*
X103023D01*
X103092Y54759D01*
X103154Y54710D01*
X103207Y54661D01*
X103256Y54616D01*
X103289Y54575D01*
X103318Y54542D01*
X103334Y54522D01*
X103338Y54518D01*
Y54513D01*
X103379Y54448D01*
X103412Y54378D01*
X103441Y54312D01*
X103461Y54251D01*
X103478Y54198D01*
X103486Y54157D01*
X103490Y54140D01*
X103494Y54128D01*
Y54120D01*
X103502Y54075D01*
X103506Y54030D01*
X103519Y53923D01*
X103527Y53812D01*
X103531Y53702D01*
Y53652D01*
X103535Y53603D01*
Y51939D01*
X99751D01*
Y53357D01*
X99755Y53476D01*
Y53677D01*
X99759Y53763D01*
Y53837D01*
X99763Y53903D01*
Y53960D01*
X99767Y54005D01*
Y54046D01*
X99771Y54079D01*
Y54103D01*
X99775Y54124D01*
Y54144D01*
X99792Y54255D01*
X99816Y54353D01*
X99845Y54444D01*
X99878Y54518D01*
X99907Y54575D01*
X99919Y54599D01*
X99927Y54620D01*
X99939Y54636D01*
X99948Y54649D01*
X99952Y54653D01*
Y54657D01*
X100009Y54731D01*
X100075Y54796D01*
X100140Y54854D01*
X100202Y54899D01*
X100255Y54936D01*
X100300Y54964D01*
X100317Y54973D01*
X100329Y54981D01*
X100337Y54985D01*
X100341D01*
X100435Y55026D01*
X100526Y55055D01*
X100608Y55079D01*
X100686Y55092D01*
X100751Y55100D01*
X100780Y55104D01*
X100800Y55108D01*
X100821D01*
X100833D01*
X100841D01*
X100846D01*
X100907D01*
X100964Y55100D01*
D02*
G37*
G36*
X103535Y50737D02*
X100735Y49811D01*
X103535Y48851D01*
Y48027D01*
X99751Y49376D01*
Y50196D01*
X103535Y51549D01*
Y50737D01*
D02*
G37*
G36*
X94066Y62303D02*
X94152Y62295D01*
X94239Y62287D01*
X94317Y62279D01*
X94390Y62266D01*
X94460Y62254D01*
X94521Y62246D01*
X94575Y62234D01*
X94624Y62221D01*
X94669Y62209D01*
X94702Y62201D01*
X94731Y62193D01*
X94751Y62185D01*
X94763Y62180D01*
X94767D01*
X94899Y62131D01*
X95018Y62074D01*
X95124Y62012D01*
X95169Y61984D01*
X95210Y61955D01*
X95251Y61926D01*
X95284Y61902D01*
X95313Y61877D01*
X95337Y61861D01*
X95358Y61844D01*
X95370Y61832D01*
X95378Y61824D01*
X95382Y61820D01*
X95469Y61725D01*
X95542Y61631D01*
X95604Y61537D01*
X95649Y61446D01*
X95686Y61369D01*
X95702Y61336D01*
X95710Y61307D01*
X95719Y61282D01*
X95727Y61266D01*
X95731Y61254D01*
Y61250D01*
X95743Y61200D01*
X95756Y61147D01*
X95772Y61032D01*
X95788Y60913D01*
X95797Y60799D01*
X95801Y60745D01*
Y60651D01*
X95805Y60610D01*
Y59138D01*
X92020D01*
Y60651D01*
X92025Y60725D01*
X92029Y60795D01*
X92033Y60856D01*
X92037Y60918D01*
X92045Y60975D01*
X92053Y61024D01*
X92062Y61069D01*
X92066Y61110D01*
X92074Y61147D01*
X92082Y61180D01*
X92086Y61205D01*
X92090Y61225D01*
X92094Y61237D01*
X92098Y61246D01*
Y61250D01*
X92143Y61369D01*
X92193Y61475D01*
X92242Y61565D01*
X92291Y61643D01*
X92312Y61676D01*
X92332Y61705D01*
X92353Y61725D01*
X92369Y61746D01*
X92381Y61762D01*
X92394Y61774D01*
X92398Y61779D01*
X92402Y61783D01*
X92504Y61877D01*
X92615Y61959D01*
X92726Y62029D01*
X92832Y62086D01*
X92882Y62111D01*
X92927Y62131D01*
X92968Y62148D01*
X93000Y62164D01*
X93029Y62172D01*
X93054Y62180D01*
X93066Y62189D01*
X93070D01*
X93201Y62230D01*
X93337Y62258D01*
X93472Y62279D01*
X93599Y62291D01*
X93656Y62299D01*
X93710Y62303D01*
X93755D01*
X93796Y62308D01*
X93829D01*
X93853D01*
X93870D01*
X93874D01*
X93972D01*
X94066Y62303D01*
D02*
G37*
G36*
X95805Y57625D02*
X93263D01*
X95805Y56067D01*
Y55329D01*
X92020D01*
Y56034D01*
X94505D01*
X92020Y57568D01*
Y58331D01*
X95805D01*
Y57625D01*
D02*
G37*
G36*
X94046Y52972D02*
X93406D01*
Y53845D01*
X92923D01*
X92873Y53775D01*
X92832Y53706D01*
X92795Y53636D01*
X92763Y53570D01*
X92734Y53513D01*
X92713Y53468D01*
X92705Y53452D01*
X92701Y53439D01*
X92697Y53431D01*
Y53427D01*
X92664Y53337D01*
X92644Y53251D01*
X92627Y53173D01*
X92615Y53099D01*
X92607Y53037D01*
Y53009D01*
X92603Y52988D01*
Y52947D01*
X92607Y52857D01*
X92619Y52775D01*
X92636Y52697D01*
X92656Y52619D01*
X92681Y52549D01*
X92709Y52488D01*
X92738Y52426D01*
X92771Y52373D01*
X92804Y52328D01*
X92832Y52283D01*
X92861Y52250D01*
X92886Y52217D01*
X92906Y52197D01*
X92927Y52176D01*
X92935Y52168D01*
X92939Y52164D01*
X93005Y52111D01*
X93078Y52066D01*
X93156Y52025D01*
X93238Y51992D01*
X93324Y51963D01*
X93406Y51939D01*
X93492Y51918D01*
X93570Y51902D01*
X93648Y51889D01*
X93722Y51881D01*
X93783Y51873D01*
X93841Y51869D01*
X93886D01*
X93923Y51865D01*
X93943D01*
X93952D01*
X94066Y51869D01*
X94173Y51877D01*
X94271Y51894D01*
X94362Y51910D01*
X94448Y51934D01*
X94526Y51959D01*
X94595Y51984D01*
X94657Y52012D01*
X94714Y52041D01*
X94759Y52066D01*
X94800Y52090D01*
X94833Y52115D01*
X94862Y52131D01*
X94878Y52148D01*
X94890Y52156D01*
X94895Y52160D01*
X94952Y52217D01*
X95001Y52279D01*
X95042Y52345D01*
X95079Y52410D01*
X95112Y52476D01*
X95136Y52541D01*
X95157Y52607D01*
X95173Y52668D01*
X95186Y52726D01*
X95198Y52783D01*
X95206Y52832D01*
X95210Y52873D01*
X95214Y52906D01*
Y52955D01*
X95206Y53074D01*
X95190Y53181D01*
X95161Y53275D01*
X95132Y53353D01*
X95116Y53386D01*
X95104Y53419D01*
X95087Y53443D01*
X95075Y53464D01*
X95067Y53484D01*
X95059Y53497D01*
X95050Y53501D01*
Y53505D01*
X94985Y53583D01*
X94915Y53644D01*
X94841Y53698D01*
X94772Y53738D01*
X94710Y53771D01*
X94681Y53784D01*
X94657Y53792D01*
X94640Y53800D01*
X94624Y53804D01*
X94616Y53808D01*
X94612D01*
X94755Y54567D01*
X94849Y54542D01*
X94940Y54513D01*
X95026Y54476D01*
X95104Y54440D01*
X95173Y54399D01*
X95243Y54353D01*
X95305Y54312D01*
X95358Y54267D01*
X95407Y54226D01*
X95452Y54185D01*
X95485Y54149D01*
X95518Y54120D01*
X95542Y54091D01*
X95559Y54071D01*
X95567Y54058D01*
X95571Y54054D01*
X95624Y53976D01*
X95670Y53894D01*
X95706Y53808D01*
X95743Y53718D01*
X95772Y53624D01*
X95793Y53534D01*
X95813Y53443D01*
X95829Y53357D01*
X95842Y53275D01*
X95850Y53201D01*
X95858Y53132D01*
X95862Y53070D01*
X95866Y53025D01*
Y52857D01*
X95858Y52763D01*
X95850Y52672D01*
X95838Y52586D01*
X95821Y52504D01*
X95805Y52431D01*
X95788Y52361D01*
X95772Y52299D01*
X95756Y52242D01*
X95739Y52193D01*
X95723Y52152D01*
X95706Y52115D01*
X95694Y52086D01*
X95686Y52066D01*
X95682Y52053D01*
X95678Y52049D01*
X95628Y51963D01*
X95575Y51881D01*
X95522Y51803D01*
X95464Y51734D01*
X95403Y51668D01*
X95346Y51611D01*
X95288Y51553D01*
X95231Y51508D01*
X95178Y51463D01*
X95128Y51426D01*
X95083Y51397D01*
X95046Y51369D01*
X95013Y51348D01*
X94989Y51336D01*
X94972Y51328D01*
X94968Y51324D01*
X94882Y51279D01*
X94792Y51242D01*
X94702Y51209D01*
X94612Y51180D01*
X94521Y51160D01*
X94435Y51139D01*
X94349Y51123D01*
X94271Y51110D01*
X94198Y51098D01*
X94132Y51090D01*
X94071Y51086D01*
X94017Y51082D01*
X93976Y51078D01*
X93943D01*
X93927D01*
X93919D01*
X93816Y51082D01*
X93718Y51086D01*
X93624Y51098D01*
X93529Y51110D01*
X93443Y51131D01*
X93361Y51147D01*
X93283Y51168D01*
X93209Y51188D01*
X93144Y51209D01*
X93086Y51229D01*
X93033Y51250D01*
X92992Y51266D01*
X92955Y51279D01*
X92931Y51291D01*
X92914Y51295D01*
X92910Y51299D01*
X92824Y51344D01*
X92746Y51389D01*
X92672Y51442D01*
X92603Y51496D01*
X92541Y51549D01*
X92480Y51607D01*
X92426Y51660D01*
X92381Y51713D01*
X92336Y51762D01*
X92299Y51807D01*
X92271Y51853D01*
X92242Y51885D01*
X92221Y51918D01*
X92209Y51939D01*
X92201Y51955D01*
X92197Y51959D01*
X92152Y52045D01*
X92115Y52131D01*
X92082Y52217D01*
X92053Y52308D01*
X92033Y52398D01*
X92012Y52484D01*
X91996Y52566D01*
X91984Y52644D01*
X91971Y52718D01*
X91963Y52783D01*
X91959Y52845D01*
X91955Y52898D01*
X91951Y52939D01*
Y52996D01*
X91955Y53083D01*
X91959Y53169D01*
X91979Y53337D01*
X91992Y53419D01*
X92008Y53492D01*
X92025Y53566D01*
X92041Y53632D01*
X92057Y53693D01*
X92070Y53751D01*
X92086Y53800D01*
X92098Y53841D01*
X92111Y53874D01*
X92119Y53898D01*
X92127Y53915D01*
Y53919D01*
X92160Y54001D01*
X92197Y54079D01*
X92230Y54153D01*
X92266Y54218D01*
X92299Y54284D01*
X92332Y54341D01*
X92365Y54390D01*
X92398Y54440D01*
X92426Y54481D01*
X92451Y54518D01*
X92476Y54546D01*
X92496Y54571D01*
X92513Y54591D01*
X92525Y54604D01*
X92529Y54612D01*
X92533Y54616D01*
X94046D01*
Y52972D01*
D02*
G37*
G36*
X16495Y146454D02*
X17288Y146372D01*
X17999Y146262D01*
X18327Y146208D01*
X18600Y146153D01*
X18873Y146098D01*
X19119Y146044D01*
X19311Y145989D01*
X19475Y145934D01*
X19612Y145879D01*
X19721Y145852D01*
X19776Y145825D01*
X19803D01*
X20432Y145552D01*
X20978Y145251D01*
X21443Y144950D01*
X21826Y144649D01*
X22127Y144376D01*
X22345Y144157D01*
X22482Y144020D01*
X22537Y143993D01*
Y143966D01*
X22865Y143501D01*
X23138Y142982D01*
X23357Y142462D01*
X23549Y141970D01*
X23685Y141533D01*
X23740Y141341D01*
X23795Y141177D01*
X23822Y141040D01*
X23849Y140931D01*
X23877Y140876D01*
Y140849D01*
X20842Y140439D01*
X20732Y140794D01*
X20623Y141122D01*
X20404Y141669D01*
X20131Y142161D01*
X19885Y142517D01*
X19666Y142790D01*
X19475Y143009D01*
X19365Y143118D01*
X19311Y143146D01*
X18873Y143392D01*
X18354Y143583D01*
X17834Y143720D01*
X17315Y143829D01*
X16823Y143884D01*
X16632D01*
X16440Y143911D01*
X16085D01*
X15265Y143856D01*
X14554Y143747D01*
X13952Y143583D01*
X13460Y143392D01*
X13077Y143173D01*
X12941Y143091D01*
X12804Y143009D01*
X12695Y142954D01*
X12640Y142900D01*
X12585Y142845D01*
X12284Y142517D01*
X12066Y142107D01*
X11902Y141669D01*
X11792Y141232D01*
X11738Y140822D01*
X11683Y140494D01*
Y140384D01*
Y140275D01*
Y140220D01*
Y140193D01*
Y140111D01*
Y140001D01*
Y139728D01*
X11710Y139619D01*
Y139509D01*
Y139427D01*
Y139400D01*
X12066Y139291D01*
X12449Y139181D01*
X12886Y139072D01*
X13323Y138962D01*
X14226Y138771D01*
X15128Y138607D01*
X15565Y138552D01*
X15948Y138498D01*
X16303Y138443D01*
X16632Y138388D01*
X16878Y138361D01*
X17069Y138334D01*
X17178Y138306D01*
X17233D01*
X17889Y138224D01*
X18436Y138142D01*
X18928Y138060D01*
X19311Y138006D01*
X19612Y137924D01*
X19830Y137896D01*
X19940Y137842D01*
X19994D01*
X20432Y137705D01*
X20869Y137541D01*
X21252Y137377D01*
X21580Y137213D01*
X21853Y137076D01*
X22045Y136939D01*
X22182Y136857D01*
X22236Y136830D01*
X22592Y136557D01*
X22892Y136283D01*
X23166Y135983D01*
X23384Y135709D01*
X23576Y135436D01*
X23712Y135244D01*
X23795Y135108D01*
X23822Y135053D01*
X24013Y134616D01*
X24177Y134205D01*
X24287Y133795D01*
X24341Y133413D01*
X24396Y133084D01*
X24423Y132811D01*
Y132647D01*
Y132620D01*
Y132592D01*
X24396Y132182D01*
X24341Y131772D01*
X24287Y131389D01*
X24177Y131034D01*
X23904Y130378D01*
X23603Y129858D01*
X23467Y129612D01*
X23330Y129421D01*
X23193Y129229D01*
X23056Y129093D01*
X22947Y128983D01*
X22892Y128901D01*
X22838Y128847D01*
X22810Y128819D01*
X22482Y128573D01*
X22154Y128355D01*
X21771Y128136D01*
X21416Y127972D01*
X20651Y127726D01*
X19885Y127562D01*
X19557Y127480D01*
X19229Y127452D01*
X18928Y127425D01*
X18682Y127398D01*
X18491Y127370D01*
X18190D01*
X17506Y127398D01*
X16878Y127452D01*
X16303Y127562D01*
X15784Y127671D01*
X15374Y127780D01*
X15182Y127835D01*
X15046Y127890D01*
X14936Y127917D01*
X14854Y127945D01*
X14800Y127972D01*
X14772D01*
X14171Y128245D01*
X13569Y128546D01*
X13023Y128901D01*
X12503Y129257D01*
X12066Y129558D01*
X11902Y129722D01*
X11738Y129831D01*
X11601Y129940D01*
X11519Y130022D01*
X11464Y130050D01*
X11437Y130077D01*
X11382Y129585D01*
X11300Y129148D01*
X11191Y128765D01*
X11082Y128437D01*
X10999Y128163D01*
X10917Y127945D01*
X10863Y127835D01*
X10835Y127780D01*
X7609D01*
X7801Y128163D01*
X7965Y128573D01*
X8101Y128929D01*
X8211Y129257D01*
X8293Y129558D01*
X8348Y129776D01*
X8375Y129913D01*
Y129968D01*
X8402Y130214D01*
X8429Y130542D01*
X8457Y130897D01*
X8484Y131307D01*
X8512Y131745D01*
Y132210D01*
X8539Y133139D01*
Y133577D01*
X8566Y134014D01*
Y134397D01*
Y134752D01*
Y135026D01*
Y135244D01*
Y135381D01*
Y135436D01*
Y139564D01*
Y139947D01*
Y140275D01*
X8593Y140576D01*
Y140876D01*
X8621Y141368D01*
X8648Y141751D01*
X8676Y142052D01*
X8703Y142243D01*
X8730Y142380D01*
Y142407D01*
X8840Y142872D01*
X9004Y143282D01*
X9168Y143638D01*
X9332Y143938D01*
X9468Y144184D01*
X9605Y144376D01*
X9687Y144485D01*
X9714Y144512D01*
X10015Y144813D01*
X10343Y145087D01*
X10699Y145333D01*
X11054Y145524D01*
X11382Y145688D01*
X11628Y145798D01*
X11738Y145852D01*
X11820Y145879D01*
X11847Y145907D01*
X11874D01*
X12449Y146098D01*
X13077Y146235D01*
X13706Y146344D01*
X14308Y146399D01*
X14827Y146454D01*
X15073D01*
X15265Y146481D01*
X15647D01*
X16495Y146454D01*
D02*
G37*
G36*
X-52293Y127753D02*
X-52156Y127425D01*
X-52074Y127179D01*
X-52019Y127042D01*
X-51992Y126988D01*
X-51883Y126660D01*
X-51773Y126359D01*
X-51664Y126085D01*
X-51582Y125839D01*
X-51418Y125429D01*
X-51281Y125128D01*
X-51199Y124910D01*
X-51117Y124773D01*
X-51090Y124691D01*
X-51062Y124664D01*
X-50734Y124254D01*
X-50543Y124090D01*
X-50379Y123953D01*
X-50242Y123844D01*
X-50133Y123761D01*
X-50051Y123734D01*
X-50023Y123707D01*
X-49777Y123597D01*
X-49504Y123515D01*
X-49231Y123433D01*
X-48985Y123406D01*
X-48739Y123379D01*
X-48547Y123351D01*
X-48383D01*
X-48110Y123379D01*
X-47809Y123406D01*
X-47508Y123461D01*
X-47235Y123515D01*
X-46989Y123570D01*
X-46797Y123597D01*
X-46688Y123652D01*
X-46633D01*
X-46989Y120754D01*
X-47399Y120617D01*
X-47754Y120535D01*
X-48110Y120453D01*
X-48410Y120426D01*
X-48629Y120399D01*
X-48820Y120371D01*
X-48985D01*
X-49531Y120399D01*
X-49996Y120481D01*
X-50433Y120617D01*
X-50816Y120754D01*
X-51117Y120863D01*
X-51336Y121000D01*
X-51473Y121082D01*
X-51527Y121109D01*
X-51910Y121410D01*
X-52265Y121766D01*
X-52593Y122121D01*
X-52867Y122504D01*
X-53086Y122832D01*
X-53277Y123105D01*
X-53332Y123215D01*
X-53386Y123297D01*
X-53414Y123324D01*
Y123351D01*
X-53550Y123570D01*
X-53660Y123844D01*
X-53796Y124144D01*
X-53960Y124472D01*
X-54234Y125156D01*
X-54535Y125839D01*
X-54644Y126167D01*
X-54781Y126468D01*
X-54890Y126742D01*
X-54972Y126988D01*
X-55054Y127206D01*
X-55109Y127343D01*
X-55163Y127452D01*
Y127480D01*
X-62108Y146071D01*
X-59018D01*
X-55081Y135381D01*
X-54808Y134615D01*
X-54562Y133877D01*
X-54343Y133166D01*
X-54152Y132538D01*
X-54070Y132264D01*
X-54015Y132018D01*
X-53933Y131772D01*
X-53906Y131581D01*
X-53851Y131444D01*
X-53824Y131335D01*
X-53796Y131253D01*
Y131225D01*
X-53578Y132045D01*
X-53359Y132811D01*
X-53113Y133549D01*
X-52921Y134178D01*
X-52812Y134451D01*
X-52730Y134697D01*
X-52648Y134916D01*
X-52593Y135108D01*
X-52539Y135272D01*
X-52484Y135381D01*
X-52457Y135436D01*
Y135463D01*
X-48656Y146071D01*
X-45376D01*
X-52293Y127753D01*
D02*
G37*
G36*
X3262Y150582D02*
Y146071D01*
X5559D01*
Y143665D01*
X3262D01*
Y133112D01*
Y132620D01*
X3235Y132155D01*
Y131745D01*
X3207Y131362D01*
X3180Y131034D01*
X3153Y130733D01*
X3125Y130460D01*
X3071Y130241D01*
X3043Y130050D01*
X3016Y129886D01*
X2989Y129749D01*
X2961Y129640D01*
X2934Y129503D01*
X2907Y129448D01*
X2743Y129148D01*
X2551Y128874D01*
X2333Y128628D01*
X2114Y128437D01*
X1895Y128273D01*
X1731Y128163D01*
X1622Y128081D01*
X1595Y128054D01*
X1212Y127890D01*
X802Y127753D01*
X364Y127671D01*
X-73Y127589D01*
X-456Y127562D01*
X-757Y127534D01*
X-1030D01*
X-1850Y127589D01*
X-2233Y127616D01*
X-2589Y127671D01*
X-2917Y127726D01*
X-3163Y127753D01*
X-3327Y127808D01*
X-3381D01*
X-2971Y130542D01*
X-2671Y130515D01*
X-2397Y130487D01*
X-2151Y130460D01*
X-1960D01*
X-1796Y130432D01*
X-1331D01*
X-1112Y130460D01*
X-948Y130515D01*
X-784Y130542D01*
X-675Y130596D01*
X-593Y130624D01*
X-538Y130651D01*
X-511D01*
X-292Y130842D01*
X-128Y131034D01*
X-19Y131198D01*
X9Y131225D01*
Y131253D01*
X63Y131444D01*
X91Y131690D01*
X146Y131964D01*
Y132237D01*
X173Y132510D01*
Y132729D01*
Y132893D01*
Y132920D01*
Y132948D01*
Y143665D01*
X-2971D01*
Y146071D01*
X173D01*
Y152441D01*
X3262Y150582D01*
D02*
G37*
G36*
X-6526D02*
Y146071D01*
X-4229D01*
Y143665D01*
X-6526D01*
Y133112D01*
Y132620D01*
X-6553Y132155D01*
Y131745D01*
X-6580Y131362D01*
X-6607Y131034D01*
X-6635Y130733D01*
X-6662Y130460D01*
X-6717Y130241D01*
X-6744Y130050D01*
X-6772Y129886D01*
X-6799Y129749D01*
X-6826Y129640D01*
X-6854Y129503D01*
X-6881Y129448D01*
X-7045Y129148D01*
X-7236Y128874D01*
X-7455Y128628D01*
X-7674Y128437D01*
X-7892Y128273D01*
X-8056Y128163D01*
X-8166Y128081D01*
X-8193Y128054D01*
X-8576Y127890D01*
X-8986Y127753D01*
X-9424Y127671D01*
X-9861Y127589D01*
X-10244Y127562D01*
X-10544Y127534D01*
X-10818D01*
X-11638Y127589D01*
X-12021Y127616D01*
X-12376Y127671D01*
X-12704Y127726D01*
X-12950Y127753D01*
X-13114Y127808D01*
X-13169D01*
X-12759Y130542D01*
X-12458Y130515D01*
X-12185Y130487D01*
X-11939Y130460D01*
X-11747D01*
X-11583Y130432D01*
X-11119D01*
X-10900Y130460D01*
X-10736Y130515D01*
X-10572Y130542D01*
X-10463Y130596D01*
X-10380Y130624D01*
X-10326Y130651D01*
X-10298D01*
X-10080Y130842D01*
X-9916Y131034D01*
X-9806Y131198D01*
X-9779Y131225D01*
Y131253D01*
X-9724Y131444D01*
X-9697Y131690D01*
X-9642Y131964D01*
Y132237D01*
X-9615Y132510D01*
Y132729D01*
Y132893D01*
Y132920D01*
Y132948D01*
Y143665D01*
X-12759D01*
Y146071D01*
X-9615D01*
Y152441D01*
X-6526Y150582D01*
D02*
G37*
G36*
X-22601Y146454D02*
X-21918Y146372D01*
X-21316Y146235D01*
X-20715Y146071D01*
X-20168Y145879D01*
X-19649Y145661D01*
X-19184Y145442D01*
X-18774Y145196D01*
X-18391Y144950D01*
X-18063Y144731D01*
X-17762Y144512D01*
X-17544Y144321D01*
X-17352Y144157D01*
X-17215Y144020D01*
X-17133Y143938D01*
X-17106Y143911D01*
X-16696Y143419D01*
X-16341Y142872D01*
X-16013Y142298D01*
X-15739Y141724D01*
X-15520Y141122D01*
X-15329Y140521D01*
X-15165Y139947D01*
X-15056Y139373D01*
X-14946Y138853D01*
X-14891Y138334D01*
X-14837Y137896D01*
X-14782Y137513D01*
Y137185D01*
X-14755Y136939D01*
Y136803D01*
Y136748D01*
X-14782Y135928D01*
X-14864Y135162D01*
X-14974Y134451D01*
X-15110Y133795D01*
X-15302Y133166D01*
X-15493Y132592D01*
X-15712Y132073D01*
X-15931Y131608D01*
X-16122Y131198D01*
X-16341Y130842D01*
X-16532Y130542D01*
X-16723Y130296D01*
X-16860Y130077D01*
X-16969Y129940D01*
X-17051Y129858D01*
X-17079Y129831D01*
X-17544Y129393D01*
X-18036Y129011D01*
X-18528Y128683D01*
X-19075Y128409D01*
X-19594Y128163D01*
X-20141Y127972D01*
X-20660Y127808D01*
X-21152Y127671D01*
X-21617Y127589D01*
X-22055Y127507D01*
X-22437Y127452D01*
X-22793Y127398D01*
X-23066D01*
X-23285Y127370D01*
X-23449D01*
X-24023Y127398D01*
X-24597Y127425D01*
X-25117Y127507D01*
X-25609Y127616D01*
X-26074Y127726D01*
X-26484Y127863D01*
X-26894Y127999D01*
X-27249Y128136D01*
X-27577Y128273D01*
X-27851Y128409D01*
X-28097Y128546D01*
X-28315Y128655D01*
X-28452Y128765D01*
X-28589Y128847D01*
X-28644Y128874D01*
X-28671Y128901D01*
X-29054Y129202D01*
X-29382Y129530D01*
X-29682Y129886D01*
X-29983Y130241D01*
X-30475Y130979D01*
X-30858Y131663D01*
X-30995Y131991D01*
X-31132Y132292D01*
X-31241Y132565D01*
X-31323Y132811D01*
X-31405Y133002D01*
X-31460Y133139D01*
X-31487Y133248D01*
Y133276D01*
X-28261Y133686D01*
X-27987Y133002D01*
X-27659Y132401D01*
X-27331Y131881D01*
X-27031Y131499D01*
X-26757Y131171D01*
X-26538Y130952D01*
X-26402Y130842D01*
X-26374Y130788D01*
X-26347D01*
X-25882Y130487D01*
X-25390Y130296D01*
X-24898Y130132D01*
X-24461Y130022D01*
X-24050Y129968D01*
X-23722Y129940D01*
X-23613Y129913D01*
X-23449D01*
X-23039Y129940D01*
X-22629Y129995D01*
X-22246Y130050D01*
X-21891Y130159D01*
X-21234Y130405D01*
X-20688Y130706D01*
X-20442Y130842D01*
X-20223Y131007D01*
X-20059Y131143D01*
X-19895Y131253D01*
X-19785Y131362D01*
X-19703Y131444D01*
X-19649Y131471D01*
X-19621Y131499D01*
X-19348Y131827D01*
X-19102Y132155D01*
X-18911Y132538D01*
X-18719Y132893D01*
X-18418Y133686D01*
X-18200Y134424D01*
X-18118Y134780D01*
X-18063Y135108D01*
X-18008Y135381D01*
X-17981Y135654D01*
X-17954Y135846D01*
X-17926Y136010D01*
Y136119D01*
Y136146D01*
X-31569D01*
X-31596Y136502D01*
Y136775D01*
Y136912D01*
Y136967D01*
X-31569Y137787D01*
X-31487Y138552D01*
X-31378Y139291D01*
X-31241Y139974D01*
X-31049Y140603D01*
X-30858Y141177D01*
X-30639Y141697D01*
X-30448Y142161D01*
X-30229Y142571D01*
X-30011Y142954D01*
X-29819Y143255D01*
X-29628Y143501D01*
X-29491Y143720D01*
X-29382Y143856D01*
X-29300Y143938D01*
X-29272Y143966D01*
X-28835Y144403D01*
X-28343Y144786D01*
X-27851Y145141D01*
X-27359Y145415D01*
X-26866Y145661D01*
X-26347Y145879D01*
X-25882Y146044D01*
X-25417Y146180D01*
X-24980Y146262D01*
X-24570Y146344D01*
X-24215Y146399D01*
X-23886Y146454D01*
X-23640D01*
X-23449Y146481D01*
X-23285D01*
X-22601Y146454D01*
D02*
G37*
G36*
X46651Y127780D02*
X37054D01*
X36180Y127808D01*
X35387Y127835D01*
X34703Y127917D01*
X34375Y127945D01*
X34102Y127999D01*
X33856Y128026D01*
X33637Y128054D01*
X33446Y128109D01*
X33281Y128136D01*
X33145Y128163D01*
X33063D01*
X33008Y128191D01*
X32981D01*
X32379Y128355D01*
X31833Y128546D01*
X31368Y128765D01*
X30985Y128956D01*
X30657Y129148D01*
X30411Y129284D01*
X30274Y129393D01*
X30220Y129421D01*
X29809Y129776D01*
X29454Y130159D01*
X29126Y130542D01*
X28880Y130925D01*
X28661Y131253D01*
X28497Y131526D01*
X28442Y131635D01*
X28388Y131717D01*
X28360Y131745D01*
Y131772D01*
X28114Y132346D01*
X27923Y132948D01*
X27786Y133494D01*
X27677Y134014D01*
X27622Y134451D01*
Y134616D01*
X27595Y134780D01*
Y134916D01*
Y134998D01*
Y135053D01*
Y135080D01*
Y135490D01*
X27650Y135873D01*
X27786Y136611D01*
X28005Y137267D01*
X28224Y137814D01*
X28333Y138060D01*
X28442Y138279D01*
X28552Y138470D01*
X28661Y138634D01*
X28743Y138744D01*
X28798Y138826D01*
X28825Y138881D01*
X28852Y138908D01*
X29345Y139482D01*
X29919Y139947D01*
X30493Y140357D01*
X31067Y140658D01*
X31559Y140904D01*
X31778Y140986D01*
X31969Y141068D01*
X32133Y141122D01*
X32243Y141177D01*
X32325Y141204D01*
X32352D01*
X31723Y141560D01*
X31204Y141943D01*
X30739Y142325D01*
X30384Y142681D01*
X30083Y143009D01*
X29891Y143255D01*
X29809Y143364D01*
X29755Y143446D01*
X29727Y143474D01*
Y143501D01*
X29427Y144048D01*
X29208Y144567D01*
X29044Y145087D01*
X28934Y145552D01*
X28880Y145962D01*
X28825Y146262D01*
Y146372D01*
Y146454D01*
Y146508D01*
Y146536D01*
X28880Y147192D01*
X28989Y147793D01*
X29153Y148368D01*
X29317Y148860D01*
X29509Y149270D01*
X29591Y149461D01*
X29673Y149598D01*
X29755Y149707D01*
X29782Y149789D01*
X29837Y149844D01*
Y149871D01*
X30247Y150418D01*
X30684Y150910D01*
X31122Y151320D01*
X31559Y151648D01*
X31969Y151894D01*
X32270Y152086D01*
X32407Y152140D01*
X32489Y152195D01*
X32543Y152222D01*
X32571D01*
X33281Y152496D01*
X34020Y152687D01*
X34813Y152824D01*
X35523Y152906D01*
X35879Y152961D01*
X36180Y152988D01*
X36480D01*
X36726Y153015D01*
X46651D01*
Y127780D01*
D02*
G37*
G36*
X-41712Y146454D02*
X-41329Y146372D01*
X-41001Y146290D01*
X-40701Y146180D01*
X-40482Y146044D01*
X-40290Y145961D01*
X-40181Y145879D01*
X-40126Y145852D01*
X-39962Y145715D01*
X-39771Y145551D01*
X-39443Y145196D01*
X-39115Y144759D01*
X-38814Y144321D01*
X-38541Y143938D01*
X-38349Y143583D01*
X-38267Y143474D01*
X-38213Y143364D01*
X-38158Y143310D01*
Y146071D01*
X-35369D01*
Y127780D01*
X-38459D01*
Y137349D01*
X-38486Y138060D01*
X-38541Y138744D01*
X-38623Y139345D01*
X-38705Y139892D01*
X-38787Y140330D01*
X-38841Y140521D01*
X-38869Y140685D01*
X-38896Y140794D01*
X-38923Y140876D01*
X-38951Y140931D01*
Y140958D01*
X-39115Y141341D01*
X-39279Y141697D01*
X-39470Y141970D01*
X-39662Y142216D01*
X-39826Y142407D01*
X-39962Y142544D01*
X-40072Y142626D01*
X-40099Y142653D01*
X-40427Y142872D01*
X-40728Y143009D01*
X-41029Y143118D01*
X-41329Y143200D01*
X-41575Y143255D01*
X-41767Y143282D01*
X-41931D01*
X-42368Y143255D01*
X-42778Y143173D01*
X-43161Y143063D01*
X-43489Y142954D01*
X-43790Y142817D01*
X-44009Y142708D01*
X-44145Y142626D01*
X-44200Y142599D01*
X-45294Y145469D01*
X-44692Y145798D01*
X-44091Y146044D01*
X-43571Y146235D01*
X-43079Y146344D01*
X-42669Y146426D01*
X-42505Y146454D01*
X-42368D01*
X-42259Y146481D01*
X-42095D01*
X-41712Y146454D01*
D02*
G37*
G36*
X105967Y98817D02*
X106013Y98748D01*
X106067Y98683D01*
X106120Y98627D01*
X106166Y98573D01*
X106188Y98555D01*
X106204Y98536D01*
X106219Y98520D01*
X106232Y98511D01*
X106238Y98505D01*
X106241Y98502D01*
X106325Y98430D01*
X106416Y98368D01*
X106503Y98308D01*
X106584Y98258D01*
X106619Y98240D01*
X106653Y98221D01*
X106684Y98202D01*
X106709Y98190D01*
X106731Y98180D01*
X106747Y98171D01*
X106756Y98168D01*
X106759Y98165D01*
Y97825D01*
X106697Y97850D01*
X106631Y97878D01*
X106569Y97909D01*
X106513Y97937D01*
X106463Y97965D01*
X106441Y97974D01*
X106422Y97987D01*
X106406Y97993D01*
X106397Y97999D01*
X106391Y98006D01*
X106388D01*
X106313Y98053D01*
X106247Y98096D01*
X106188Y98137D01*
X106141Y98174D01*
X106101Y98205D01*
X106073Y98227D01*
X106057Y98243D01*
X106051Y98249D01*
Y95999D01*
X105698D01*
Y98889D01*
X105926D01*
X105967Y98817D01*
D02*
G37*
G36*
X109795Y95999D02*
X109430D01*
Y98258D01*
X107920Y95999D01*
X107527D01*
Y98879D01*
X107892D01*
Y96617D01*
X109405Y98879D01*
X109795D01*
Y95999D01*
D02*
G37*
G36*
X111520Y98926D02*
X111589Y98923D01*
X111717Y98901D01*
X111779Y98889D01*
X111835Y98873D01*
X111891Y98857D01*
X111941Y98842D01*
X111985Y98826D01*
X112026Y98811D01*
X112063Y98795D01*
X112091Y98782D01*
X112116Y98770D01*
X112132Y98761D01*
X112144Y98758D01*
X112147Y98755D01*
X112204Y98720D01*
X112260Y98683D01*
X112310Y98642D01*
X112356Y98602D01*
X112400Y98558D01*
X112441Y98517D01*
X112475Y98474D01*
X112509Y98436D01*
X112537Y98396D01*
X112562Y98361D01*
X112584Y98330D01*
X112603Y98302D01*
X112615Y98277D01*
X112625Y98261D01*
X112631Y98249D01*
X112634Y98246D01*
X112665Y98184D01*
X112690Y98115D01*
X112712Y98049D01*
X112734Y97984D01*
X112765Y97850D01*
X112775Y97787D01*
X112784Y97728D01*
X112790Y97672D01*
X112796Y97622D01*
X112799Y97575D01*
X112803Y97535D01*
X112806Y97503D01*
Y97478D01*
Y97466D01*
Y97460D01*
X112803Y97385D01*
X112799Y97310D01*
X112781Y97166D01*
X112771Y97098D01*
X112759Y97035D01*
X112743Y96976D01*
X112731Y96920D01*
X112715Y96870D01*
X112703Y96823D01*
X112690Y96786D01*
X112678Y96751D01*
X112668Y96727D01*
X112662Y96705D01*
X112659Y96692D01*
X112656Y96689D01*
X112625Y96623D01*
X112593Y96561D01*
X112559Y96505D01*
X112522Y96452D01*
X112484Y96402D01*
X112450Y96358D01*
X112413Y96318D01*
X112378Y96280D01*
X112344Y96246D01*
X112313Y96218D01*
X112285Y96196D01*
X112260Y96174D01*
X112241Y96159D01*
X112225Y96149D01*
X112216Y96143D01*
X112213Y96140D01*
X112157Y96106D01*
X112097Y96078D01*
X112035Y96052D01*
X111969Y96031D01*
X111907Y96015D01*
X111845Y95999D01*
X111782Y95987D01*
X111723Y95978D01*
X111667Y95968D01*
X111617Y95962D01*
X111570Y95959D01*
X111533Y95956D01*
X111498Y95953D01*
X111455D01*
X111371Y95956D01*
X111293Y95962D01*
X111218Y95974D01*
X111146Y95990D01*
X111077Y96009D01*
X111015Y96031D01*
X110959Y96052D01*
X110906Y96074D01*
X110856Y96096D01*
X110815Y96118D01*
X110778Y96140D01*
X110750Y96159D01*
X110725Y96174D01*
X110709Y96187D01*
X110696Y96193D01*
X110693Y96196D01*
X110637Y96246D01*
X110584Y96299D01*
X110537Y96355D01*
X110494Y96411D01*
X110453Y96471D01*
X110419Y96533D01*
X110388Y96589D01*
X110360Y96649D01*
X110335Y96702D01*
X110316Y96751D01*
X110297Y96798D01*
X110285Y96836D01*
X110272Y96870D01*
X110266Y96892D01*
X110260Y96907D01*
Y96914D01*
X110640Y97010D01*
X110656Y96945D01*
X110678Y96882D01*
X110700Y96823D01*
X110722Y96770D01*
X110747Y96720D01*
X110771Y96676D01*
X110796Y96636D01*
X110821Y96599D01*
X110846Y96567D01*
X110868Y96539D01*
X110890Y96514D01*
X110906Y96496D01*
X110921Y96480D01*
X110934Y96471D01*
X110940Y96464D01*
X110943Y96461D01*
X110987Y96430D01*
X111030Y96402D01*
X111074Y96377D01*
X111121Y96355D01*
X111168Y96337D01*
X111211Y96321D01*
X111299Y96299D01*
X111336Y96293D01*
X111374Y96286D01*
X111405Y96283D01*
X111433Y96280D01*
X111455Y96277D01*
X111486D01*
X111536Y96280D01*
X111583Y96283D01*
X111673Y96299D01*
X111757Y96321D01*
X111829Y96346D01*
X111860Y96358D01*
X111888Y96368D01*
X111913Y96380D01*
X111935Y96390D01*
X111954Y96399D01*
X111966Y96405D01*
X111973Y96411D01*
X111976D01*
X112016Y96439D01*
X112054Y96468D01*
X112122Y96533D01*
X112179Y96599D01*
X112225Y96667D01*
X112260Y96727D01*
X112275Y96751D01*
X112288Y96776D01*
X112294Y96795D01*
X112300Y96808D01*
X112306Y96817D01*
Y96820D01*
X112341Y96926D01*
X112369Y97035D01*
X112388Y97145D01*
X112394Y97194D01*
X112400Y97244D01*
X112403Y97291D01*
X112406Y97332D01*
X112409Y97369D01*
Y97400D01*
X112413Y97429D01*
Y97447D01*
Y97460D01*
Y97463D01*
X112409Y97569D01*
X112400Y97669D01*
X112384Y97762D01*
X112378Y97806D01*
X112369Y97847D01*
X112359Y97881D01*
X112353Y97915D01*
X112344Y97943D01*
X112338Y97968D01*
X112335Y97987D01*
X112328Y98002D01*
X112325Y98012D01*
Y98015D01*
X112285Y98112D01*
X112238Y98196D01*
X112188Y98268D01*
X112160Y98299D01*
X112135Y98330D01*
X112110Y98355D01*
X112088Y98377D01*
X112066Y98399D01*
X112051Y98414D01*
X112035Y98427D01*
X112022Y98436D01*
X112016Y98439D01*
X112013Y98443D01*
X111969Y98470D01*
X111926Y98496D01*
X111879Y98517D01*
X111832Y98536D01*
X111739Y98564D01*
X111648Y98586D01*
X111611Y98592D01*
X111573Y98595D01*
X111539Y98598D01*
X111511Y98602D01*
X111486Y98605D01*
X111402D01*
X111352Y98598D01*
X111258Y98583D01*
X111177Y98558D01*
X111143Y98545D01*
X111108Y98533D01*
X111077Y98520D01*
X111052Y98508D01*
X111030Y98496D01*
X111012Y98483D01*
X110996Y98474D01*
X110987Y98467D01*
X110980Y98464D01*
X110977Y98461D01*
X110943Y98433D01*
X110909Y98402D01*
X110853Y98330D01*
X110800Y98252D01*
X110759Y98177D01*
X110728Y98109D01*
X110712Y98080D01*
X110703Y98056D01*
X110693Y98034D01*
X110690Y98015D01*
X110684Y98006D01*
Y98002D01*
X110310Y98090D01*
X110335Y98162D01*
X110363Y98230D01*
X110391Y98296D01*
X110425Y98355D01*
X110456Y98411D01*
X110491Y98461D01*
X110525Y98508D01*
X110559Y98549D01*
X110594Y98586D01*
X110622Y98617D01*
X110650Y98645D01*
X110675Y98667D01*
X110693Y98686D01*
X110709Y98698D01*
X110718Y98704D01*
X110722Y98708D01*
X110778Y98748D01*
X110837Y98779D01*
X110896Y98811D01*
X110959Y98836D01*
X111021Y98857D01*
X111080Y98876D01*
X111140Y98889D01*
X111196Y98901D01*
X111249Y98910D01*
X111296Y98917D01*
X111339Y98923D01*
X111377Y98926D01*
X111408Y98929D01*
X111449D01*
X111520Y98926D01*
D02*
G37*
%LPC*%
G36*
X2571Y120420D02*
X2172Y119353D01*
X2961D01*
X2571Y120420D01*
D02*
G37*
G36*
X13195Y120642D02*
X13179D01*
X13142Y120639D01*
X13111Y120632D01*
X13079Y120620D01*
X13051Y120610D01*
X13033Y120598D01*
X13014Y120586D01*
X13004Y120579D01*
X13001Y120576D01*
X12973Y120548D01*
X12948Y120511D01*
X12926Y120470D01*
X12908Y120426D01*
X12892Y120386D01*
X12883Y120355D01*
X12880Y120342D01*
X12877Y120333D01*
X12873Y120327D01*
Y120324D01*
X12864Y120283D01*
X12855Y120239D01*
X12848Y120189D01*
X12842Y120133D01*
X12833Y120021D01*
X12827Y119905D01*
X12823Y119849D01*
Y119799D01*
X12820Y119749D01*
Y119709D01*
Y119675D01*
Y119650D01*
Y119634D01*
Y119628D01*
Y119537D01*
X12823Y119450D01*
X12827Y119372D01*
X12830Y119300D01*
X12833Y119235D01*
X12839Y119175D01*
X12845Y119122D01*
X12848Y119076D01*
X12855Y119035D01*
X12861Y119001D01*
X12867Y118973D01*
X12870Y118948D01*
X12873Y118929D01*
X12877Y118916D01*
X12880Y118910D01*
Y118907D01*
X12898Y118851D01*
X12917Y118801D01*
X12936Y118763D01*
X12958Y118732D01*
X12973Y118707D01*
X12989Y118692D01*
X12998Y118682D01*
X13001Y118679D01*
X13033Y118657D01*
X13061Y118642D01*
X13092Y118632D01*
X13120Y118626D01*
X13145Y118620D01*
X13164Y118617D01*
X13179D01*
X13217Y118620D01*
X13248Y118626D01*
X13279Y118636D01*
X13304Y118648D01*
X13326Y118660D01*
X13344Y118670D01*
X13354Y118676D01*
X13357Y118679D01*
X13385Y118707D01*
X13410Y118745D01*
X13432Y118785D01*
X13451Y118829D01*
X13466Y118867D01*
X13476Y118898D01*
X13479Y118910D01*
X13482Y118920D01*
X13485Y118926D01*
Y118929D01*
X13494Y118969D01*
X13500Y119013D01*
X13507Y119063D01*
X13513Y119119D01*
X13522Y119235D01*
X13529Y119350D01*
X13532Y119406D01*
Y119456D01*
Y119503D01*
X13535Y119547D01*
Y119581D01*
Y119606D01*
Y119622D01*
Y119628D01*
Y119718D01*
X13532Y119802D01*
X13529Y119884D01*
X13525Y119952D01*
X13522Y120018D01*
X13516Y120077D01*
X13513Y120130D01*
X13507Y120177D01*
X13500Y120217D01*
X13497Y120255D01*
X13491Y120283D01*
X13488Y120308D01*
X13485Y120327D01*
X13482Y120339D01*
X13479Y120345D01*
Y120349D01*
X13460Y120405D01*
X13441Y120455D01*
X13419Y120492D01*
X13401Y120523D01*
X13385Y120548D01*
X13370Y120564D01*
X13360Y120573D01*
X13357Y120576D01*
X13326Y120598D01*
X13298Y120614D01*
X13266Y120626D01*
X13239Y120632D01*
X13214Y120639D01*
X13195Y120642D01*
D02*
G37*
G36*
X10958D02*
X10942D01*
X10905Y120639D01*
X10874Y120632D01*
X10842Y120620D01*
X10814Y120610D01*
X10796Y120598D01*
X10777Y120586D01*
X10767Y120579D01*
X10764Y120576D01*
X10736Y120548D01*
X10711Y120511D01*
X10689Y120470D01*
X10671Y120426D01*
X10655Y120386D01*
X10646Y120355D01*
X10643Y120342D01*
X10639Y120333D01*
X10636Y120327D01*
Y120324D01*
X10627Y120283D01*
X10618Y120239D01*
X10611Y120189D01*
X10605Y120133D01*
X10596Y120021D01*
X10590Y119905D01*
X10587Y119849D01*
Y119799D01*
X10583Y119749D01*
Y119709D01*
Y119675D01*
Y119650D01*
Y119634D01*
Y119628D01*
Y119537D01*
X10587Y119450D01*
X10590Y119372D01*
X10593Y119300D01*
X10596Y119235D01*
X10602Y119175D01*
X10608Y119122D01*
X10611Y119076D01*
X10618Y119035D01*
X10624Y119001D01*
X10630Y118973D01*
X10633Y118948D01*
X10636Y118929D01*
X10639Y118916D01*
X10643Y118910D01*
Y118907D01*
X10661Y118851D01*
X10680Y118801D01*
X10699Y118763D01*
X10721Y118732D01*
X10736Y118707D01*
X10752Y118692D01*
X10761Y118682D01*
X10764Y118679D01*
X10796Y118657D01*
X10824Y118642D01*
X10855Y118632D01*
X10883Y118626D01*
X10908Y118620D01*
X10926Y118617D01*
X10942D01*
X10980Y118620D01*
X11011Y118626D01*
X11042Y118636D01*
X11067Y118648D01*
X11089Y118660D01*
X11107Y118670D01*
X11117Y118676D01*
X11120Y118679D01*
X11148Y118707D01*
X11173Y118745D01*
X11195Y118785D01*
X11214Y118829D01*
X11229Y118867D01*
X11238Y118898D01*
X11242Y118910D01*
X11245Y118920D01*
X11248Y118926D01*
Y118929D01*
X11257Y118969D01*
X11264Y119013D01*
X11270Y119063D01*
X11276Y119119D01*
X11285Y119235D01*
X11292Y119350D01*
X11295Y119406D01*
Y119456D01*
Y119503D01*
X11298Y119547D01*
Y119581D01*
Y119606D01*
Y119622D01*
Y119628D01*
Y119718D01*
X11295Y119802D01*
X11292Y119884D01*
X11288Y119952D01*
X11285Y120018D01*
X11279Y120077D01*
X11276Y120130D01*
X11270Y120177D01*
X11264Y120217D01*
X11260Y120255D01*
X11254Y120283D01*
X11251Y120308D01*
X11248Y120327D01*
X11245Y120339D01*
X11242Y120345D01*
Y120349D01*
X11223Y120405D01*
X11204Y120455D01*
X11182Y120492D01*
X11164Y120523D01*
X11148Y120548D01*
X11133Y120564D01*
X11123Y120573D01*
X11120Y120576D01*
X11089Y120598D01*
X11061Y120614D01*
X11029Y120626D01*
X11001Y120632D01*
X10977Y120639D01*
X10958Y120642D01*
D02*
G37*
G36*
X8721D02*
X8705D01*
X8668Y120639D01*
X8636Y120632D01*
X8605Y120620D01*
X8577Y120610D01*
X8558Y120598D01*
X8540Y120586D01*
X8530Y120579D01*
X8527Y120576D01*
X8499Y120548D01*
X8474Y120511D01*
X8452Y120470D01*
X8434Y120426D01*
X8418Y120386D01*
X8409Y120355D01*
X8406Y120342D01*
X8403Y120333D01*
X8399Y120327D01*
Y120324D01*
X8390Y120283D01*
X8381Y120239D01*
X8374Y120189D01*
X8368Y120133D01*
X8359Y120021D01*
X8353Y119905D01*
X8349Y119849D01*
Y119799D01*
X8346Y119749D01*
Y119709D01*
Y119675D01*
Y119650D01*
Y119634D01*
Y119628D01*
Y119537D01*
X8349Y119450D01*
X8353Y119372D01*
X8356Y119300D01*
X8359Y119235D01*
X8365Y119175D01*
X8371Y119122D01*
X8374Y119076D01*
X8381Y119035D01*
X8387Y119001D01*
X8393Y118973D01*
X8396Y118948D01*
X8399Y118929D01*
X8403Y118916D01*
X8406Y118910D01*
Y118907D01*
X8424Y118851D01*
X8443Y118801D01*
X8462Y118763D01*
X8484Y118732D01*
X8499Y118707D01*
X8515Y118692D01*
X8524Y118682D01*
X8527Y118679D01*
X8558Y118657D01*
X8586Y118642D01*
X8618Y118632D01*
X8646Y118626D01*
X8671Y118620D01*
X8689Y118617D01*
X8705D01*
X8743Y118620D01*
X8774Y118626D01*
X8805Y118636D01*
X8830Y118648D01*
X8852Y118660D01*
X8871Y118670D01*
X8880Y118676D01*
X8883Y118679D01*
X8911Y118707D01*
X8936Y118745D01*
X8958Y118785D01*
X8976Y118829D01*
X8992Y118867D01*
X9002Y118898D01*
X9005Y118910D01*
X9008Y118920D01*
X9011Y118926D01*
Y118929D01*
X9020Y118969D01*
X9026Y119013D01*
X9033Y119063D01*
X9039Y119119D01*
X9048Y119235D01*
X9054Y119350D01*
X9058Y119406D01*
Y119456D01*
Y119503D01*
X9061Y119547D01*
Y119581D01*
Y119606D01*
Y119622D01*
Y119628D01*
Y119718D01*
X9058Y119802D01*
X9054Y119884D01*
X9051Y119952D01*
X9048Y120018D01*
X9042Y120077D01*
X9039Y120130D01*
X9033Y120177D01*
X9026Y120217D01*
X9023Y120255D01*
X9017Y120283D01*
X9014Y120308D01*
X9011Y120327D01*
X9008Y120339D01*
X9005Y120345D01*
Y120349D01*
X8986Y120405D01*
X8967Y120455D01*
X8945Y120492D01*
X8927Y120523D01*
X8911Y120548D01*
X8895Y120564D01*
X8886Y120573D01*
X8883Y120576D01*
X8852Y120598D01*
X8824Y120614D01*
X8793Y120626D01*
X8764Y120632D01*
X8739Y120639D01*
X8721Y120642D01*
D02*
G37*
G36*
X-4436Y119986D02*
X-4452D01*
X-4508Y119980D01*
X-4558Y119968D01*
X-4602Y119949D01*
X-4639Y119927D01*
X-4670Y119902D01*
X-4692Y119884D01*
X-4708Y119871D01*
X-4711Y119865D01*
X-4745Y119815D01*
X-4773Y119762D01*
X-4792Y119706D01*
X-4804Y119650D01*
X-4811Y119603D01*
X-4814Y119581D01*
X-4817Y119562D01*
Y119547D01*
Y119534D01*
Y119528D01*
Y119525D01*
X-4814Y119450D01*
X-4804Y119375D01*
X-4792Y119303D01*
X-4780Y119238D01*
X-4764Y119182D01*
X-4758Y119157D01*
X-4752Y119138D01*
X-4745Y119119D01*
X-4742Y119107D01*
X-4739Y119100D01*
Y119097D01*
X-4711Y119016D01*
X-4680Y118945D01*
X-4648Y118885D01*
X-4623Y118835D01*
X-4599Y118798D01*
X-4580Y118770D01*
X-4564Y118754D01*
X-4561Y118748D01*
X-4533Y118720D01*
X-4505Y118692D01*
X-4480Y118673D01*
X-4458Y118654D01*
X-4439Y118642D01*
X-4424Y118629D01*
X-4414Y118626D01*
X-4411Y118623D01*
X-4374Y118604D01*
X-4337Y118592D01*
X-4302Y118582D01*
X-4271Y118576D01*
X-4243Y118573D01*
X-4221Y118570D01*
X-4202D01*
X-4149Y118576D01*
X-4099Y118589D01*
X-4059Y118607D01*
X-4021Y118629D01*
X-3993Y118648D01*
X-3971Y118667D01*
X-3959Y118679D01*
X-3953Y118685D01*
X-3918Y118735D01*
X-3897Y118795D01*
X-3878Y118854D01*
X-3865Y118913D01*
X-3859Y118969D01*
X-3856Y118991D01*
Y119013D01*
X-3853Y119029D01*
Y119044D01*
Y119051D01*
Y119054D01*
X-3856Y119125D01*
X-3865Y119200D01*
X-3875Y119272D01*
X-3890Y119338D01*
X-3903Y119397D01*
X-3909Y119419D01*
X-3912Y119440D01*
X-3918Y119459D01*
X-3921Y119472D01*
X-3925Y119478D01*
Y119481D01*
X-3956Y119569D01*
X-3990Y119643D01*
X-4025Y119706D01*
X-4059Y119759D01*
X-4090Y119802D01*
X-4115Y119831D01*
X-4134Y119849D01*
X-4140Y119855D01*
X-4196Y119899D01*
X-4249Y119930D01*
X-4302Y119955D01*
X-4349Y119971D01*
X-4393Y119980D01*
X-4424Y119983D01*
X-4436Y119986D01*
D02*
G37*
G36*
X101251Y57765D02*
Y56727D01*
X102654Y57240D01*
X101251Y57765D01*
D02*
G37*
G36*
X102502Y54181D02*
X102481D01*
X102473D01*
X102408Y54177D01*
X102350Y54165D01*
X102297Y54144D01*
X102256Y54124D01*
X102219Y54103D01*
X102194Y54083D01*
X102178Y54071D01*
X102174Y54066D01*
X102137Y54021D01*
X102108Y53972D01*
X102084Y53919D01*
X102067Y53870D01*
X102055Y53829D01*
X102047Y53792D01*
X102043Y53767D01*
Y53734D01*
X102039Y53702D01*
Y53665D01*
X102034Y53624D01*
Y53534D01*
X102030Y53439D01*
Y52701D01*
X102904D01*
Y53402D01*
X102900Y53472D01*
Y53583D01*
X102895Y53632D01*
Y53702D01*
X102891Y53730D01*
Y53767D01*
X102887Y53780D01*
Y53792D01*
X102875Y53861D01*
X102859Y53919D01*
X102838Y53968D01*
X102813Y54009D01*
X102793Y54042D01*
X102772Y54066D01*
X102760Y54079D01*
X102756Y54083D01*
X102711Y54116D01*
X102666Y54140D01*
X102617Y54157D01*
X102572Y54169D01*
X102535Y54177D01*
X102502Y54181D01*
D02*
G37*
G36*
X100911Y54321D02*
X100891D01*
X100882D01*
X100813Y54317D01*
X100747Y54304D01*
X100694Y54284D01*
X100649Y54267D01*
X100612Y54247D01*
X100583Y54226D01*
X100567Y54214D01*
X100563Y54210D01*
X100522Y54169D01*
X100489Y54120D01*
X100464Y54075D01*
X100444Y54030D01*
X100427Y53993D01*
X100419Y53960D01*
X100411Y53939D01*
Y53931D01*
X100407Y53907D01*
X100403Y53878D01*
Y53841D01*
X100399Y53804D01*
X100394Y53718D01*
Y53628D01*
X100390Y53542D01*
Y52701D01*
X101399D01*
Y53411D01*
X101395Y53497D01*
Y53575D01*
X101391Y53644D01*
X101387Y53706D01*
X101383Y53763D01*
X101374Y53812D01*
X101370Y53853D01*
X101366Y53890D01*
X101358Y53919D01*
X101354Y53944D01*
X101350Y53964D01*
X101346Y53980D01*
Y53989D01*
X101342Y53997D01*
X101317Y54050D01*
X101292Y54099D01*
X101264Y54140D01*
X101235Y54173D01*
X101210Y54202D01*
X101190Y54218D01*
X101173Y54230D01*
X101169Y54235D01*
X101124Y54263D01*
X101075Y54284D01*
X101026Y54300D01*
X100981Y54308D01*
X100944Y54317D01*
X100911Y54321D01*
D02*
G37*
G36*
X93984Y61520D02*
X93952D01*
X93931D01*
X93915D01*
X93911D01*
X93833D01*
X93755Y61516D01*
X93685Y61512D01*
X93615Y61508D01*
X93554Y61504D01*
X93501Y61496D01*
X93447Y61488D01*
X93398Y61483D01*
X93357Y61475D01*
X93320Y61467D01*
X93291Y61459D01*
X93263Y61455D01*
X93242Y61451D01*
X93230Y61446D01*
X93222Y61442D01*
X93218D01*
X93128Y61410D01*
X93054Y61377D01*
X92992Y61344D01*
X92939Y61311D01*
X92902Y61287D01*
X92873Y61262D01*
X92857Y61246D01*
X92853Y61242D01*
X92816Y61192D01*
X92783Y61143D01*
X92754Y61090D01*
X92730Y61041D01*
X92713Y61000D01*
X92701Y60967D01*
X92697Y60942D01*
X92693Y60938D01*
Y60934D01*
X92689Y60905D01*
X92681Y60873D01*
X92672Y60803D01*
X92668Y60725D01*
X92664Y60647D01*
X92660Y60581D01*
Y59901D01*
X95165D01*
Y60401D01*
X95161Y60471D01*
Y60536D01*
X95157Y60594D01*
X95153Y60647D01*
X95149Y60692D01*
Y60729D01*
X95145Y60766D01*
X95141Y60795D01*
X95136Y60819D01*
X95132Y60836D01*
Y60852D01*
X95128Y60860D01*
Y60868D01*
X95108Y60946D01*
X95079Y61016D01*
X95050Y61077D01*
X95022Y61127D01*
X94993Y61168D01*
X94968Y61200D01*
X94952Y61217D01*
X94948Y61225D01*
X94895Y61274D01*
X94837Y61319D01*
X94776Y61356D01*
X94718Y61385D01*
X94665Y61410D01*
X94620Y61430D01*
X94608Y61434D01*
X94595Y61438D01*
X94587Y61442D01*
X94583D01*
X94538Y61455D01*
X94489Y61467D01*
X94378Y61488D01*
X94267Y61500D01*
X94161Y61512D01*
X94107D01*
X94062Y61516D01*
X94021D01*
X93984Y61520D01*
D02*
G37*
G36*
X11710Y136967D02*
X11683D01*
X11710Y135818D01*
X11738Y135108D01*
X11792Y134479D01*
X11874Y133932D01*
X11956Y133494D01*
X12038Y133166D01*
X12120Y132920D01*
X12175Y132784D01*
X12202Y132729D01*
X12476Y132237D01*
X12804Y131827D01*
X13132Y131444D01*
X13460Y131143D01*
X13788Y130897D01*
X14034Y130706D01*
X14198Y130596D01*
X14226Y130569D01*
X14253D01*
X14800Y130323D01*
X15347Y130132D01*
X15866Y129995D01*
X16385Y129913D01*
X16795Y129858D01*
X16987Y129831D01*
X17151Y129804D01*
X17452D01*
X18080Y129831D01*
X18627Y129940D01*
X19119Y130077D01*
X19502Y130214D01*
X19803Y130378D01*
X20022Y130487D01*
X20131Y130596D01*
X20186Y130624D01*
X20486Y130952D01*
X20732Y131280D01*
X20897Y131635D01*
X21006Y131964D01*
X21061Y132237D01*
X21088Y132483D01*
X21115Y132620D01*
Y132674D01*
X21088Y132975D01*
X21061Y133248D01*
X20978Y133494D01*
X20897Y133713D01*
X20842Y133905D01*
X20760Y134041D01*
X20732Y134123D01*
X20705Y134151D01*
X20514Y134397D01*
X20322Y134588D01*
X20131Y134752D01*
X19912Y134916D01*
X19748Y135026D01*
X19612Y135108D01*
X19502Y135135D01*
X19475Y135162D01*
X19119Y135299D01*
X18709Y135408D01*
X18272Y135518D01*
X17834Y135600D01*
X17424Y135682D01*
X17069Y135736D01*
X16960Y135764D01*
X16850Y135791D01*
X16768D01*
X16139Y135873D01*
X15565Y135982D01*
X15046Y136065D01*
X14554Y136174D01*
X14089Y136283D01*
X13679Y136365D01*
X13296Y136475D01*
X12941Y136557D01*
X12667Y136639D01*
X12394Y136721D01*
X12175Y136775D01*
X12011Y136857D01*
X11874Y136912D01*
X11765Y136939D01*
X11710Y136967D01*
D02*
G37*
G36*
X-23066Y143938D02*
X-23285D01*
X-23722Y143911D01*
X-24133Y143856D01*
X-24515Y143774D01*
X-24871Y143665D01*
X-25527Y143364D01*
X-25828Y143200D01*
X-26101Y143036D01*
X-26320Y142872D01*
X-26538Y142708D01*
X-26730Y142544D01*
X-26866Y142407D01*
X-26976Y142298D01*
X-27085Y142216D01*
X-27112Y142161D01*
X-27140Y142134D01*
X-27468Y141669D01*
X-27741Y141122D01*
X-27933Y140548D01*
X-28097Y139974D01*
X-28206Y139482D01*
X-28234Y139263D01*
X-28261Y139072D01*
X-28288Y138908D01*
X-28315Y138798D01*
Y138716D01*
Y138689D01*
X-18090D01*
X-18145Y139127D01*
X-18200Y139537D01*
X-18391Y140275D01*
X-18665Y140931D01*
X-18801Y141232D01*
X-18938Y141478D01*
X-19075Y141724D01*
X-19211Y141915D01*
X-19348Y142079D01*
X-19457Y142243D01*
X-19539Y142353D01*
X-19621Y142435D01*
X-19649Y142462D01*
X-19676Y142489D01*
X-19949Y142735D01*
X-20250Y142982D01*
X-20551Y143173D01*
X-20852Y143337D01*
X-21481Y143583D01*
X-22027Y143747D01*
X-22547Y143856D01*
X-22738Y143884D01*
X-22930Y143911D01*
X-23066Y143938D01*
D02*
G37*
G36*
X43315Y150035D02*
X37793D01*
X37328Y150008D01*
X36918D01*
X36535Y149980D01*
X36180Y149953D01*
X35879Y149926D01*
X35578Y149899D01*
X35332Y149871D01*
X35141Y149817D01*
X34949Y149789D01*
X34785Y149762D01*
X34676Y149734D01*
X34567Y149707D01*
X34512D01*
X34457Y149680D01*
X34047Y149516D01*
X33719Y149324D01*
X33418Y149106D01*
X33172Y148887D01*
X32981Y148696D01*
X32844Y148531D01*
X32762Y148422D01*
X32735Y148368D01*
X32516Y148012D01*
X32379Y147629D01*
X32270Y147247D01*
X32188Y146891D01*
X32133Y146590D01*
X32106Y146372D01*
Y146208D01*
Y146180D01*
Y146153D01*
X32133Y145661D01*
X32215Y145251D01*
X32325Y144868D01*
X32434Y144540D01*
X32543Y144294D01*
X32653Y144102D01*
X32735Y143993D01*
X32762Y143938D01*
X33035Y143638D01*
X33336Y143364D01*
X33664Y143146D01*
X33965Y142982D01*
X34238Y142845D01*
X34457Y142763D01*
X34621Y142708D01*
X34648Y142681D01*
X34676D01*
X34867Y142626D01*
X35086Y142599D01*
X35578Y142517D01*
X36125Y142462D01*
X36644Y142435D01*
X37109D01*
X37328Y142407D01*
X43315D01*
Y150035D01*
D02*
G37*
G36*
Y139427D02*
X37492D01*
X36644Y139400D01*
X35906Y139373D01*
X35578Y139318D01*
X35277Y139291D01*
X35004Y139263D01*
X34731Y139209D01*
X34512Y139181D01*
X34321Y139127D01*
X34184Y139099D01*
X34047Y139072D01*
X33938Y139044D01*
X33856Y139017D01*
X33828Y138990D01*
X33801D01*
X33336Y138798D01*
X32954Y138580D01*
X32598Y138361D01*
X32297Y138115D01*
X32079Y137896D01*
X31914Y137705D01*
X31805Y137595D01*
X31778Y137541D01*
X31532Y137131D01*
X31340Y136721D01*
X31231Y136311D01*
X31122Y135928D01*
X31067Y135572D01*
X31040Y135326D01*
Y135217D01*
Y135135D01*
Y135108D01*
Y135080D01*
X31067Y134643D01*
X31122Y134233D01*
X31204Y133877D01*
X31286Y133577D01*
X31395Y133303D01*
X31477Y133112D01*
X31532Y133002D01*
X31559Y132948D01*
X31751Y132620D01*
X31969Y132346D01*
X32188Y132100D01*
X32379Y131909D01*
X32571Y131745D01*
X32707Y131635D01*
X32817Y131581D01*
X32844Y131553D01*
X33145Y131389D01*
X33473Y131253D01*
X33774Y131116D01*
X34074Y131034D01*
X34348Y130952D01*
X34567Y130897D01*
X34703Y130870D01*
X34758D01*
X35031Y130842D01*
X35387Y130815D01*
X35770Y130788D01*
X36125D01*
X36480Y130761D01*
X43315D01*
Y139427D01*
D02*
G37*
%LPD*%
D16*
X75473Y38253D02*
X75473Y266599D01*
X-74133D02*
X75473D01*
X-74133Y38253D02*
X-74133Y266599D01*
X75473Y38253D02*
X75473Y38253D01*
X-74133Y38253D02*
X-74133Y38253D01*
Y26442D02*
Y38253D01*
X75473Y26442D02*
Y38253D01*
D109*
X670Y32347D02*
D03*
M02*
