G04*
G04 #@! TF.GenerationSoftware,Altium Limited,Altium Designer,22.5.1 (42)*
G04*
G04 Layer_Color=8388736*
%FSLAX25Y25*%
%MOIN*%
G70*
G04*
G04 #@! TF.SameCoordinates,99E8522F-A59E-4A80-82A0-D8EFEBB404AF*
G04*
G04*
G04 #@! TF.FilePolarity,Negative*
G04*
G01*
G75*
%ADD19O,0.06706X0.03162*%
%ADD20R,0.06706X0.03162*%
%ADD21R,0.06509X0.05524*%
%ADD22R,0.03950X0.04343*%
%ADD23R,0.04540X0.04343*%
%ADD24R,0.11824X0.11824*%
%ADD25R,0.03556X0.01784*%
%ADD26R,0.01784X0.03556*%
%ADD27O,0.01784X0.03556*%
%ADD28R,0.04147X0.04737*%
%ADD29R,0.04737X0.04147*%
%ADD30R,0.04540X0.03950*%
%ADD31R,0.07887X0.08280*%
%ADD32R,0.04147X0.03556*%
%ADD33C,0.04737*%
%ADD34R,0.04343X0.04540*%
%ADD35R,0.01587X0.02178*%
%ADD36R,0.02572X0.02965*%
%ADD37R,0.02965X0.02572*%
%ADD38R,0.05131X0.06312*%
%ADD39R,0.06312X0.05131*%
%ADD40R,0.05524X0.03162*%
%ADD41R,0.03162X0.05131*%
%ADD42R,0.01981X0.05131*%
%ADD43R,0.06706X0.04343*%
%ADD44R,0.02375X0.03950*%
%ADD45R,0.03950X0.04540*%
%ADD46R,0.05524X0.11430*%
%ADD47R,0.02965X0.02965*%
%ADD48R,0.05918X0.06902*%
%ADD49R,0.05131X0.03162*%
%ADD50R,0.03162X0.02769*%
%ADD51R,0.05131X0.04737*%
%ADD52C,0.20485*%
%ADD53C,0.03556*%
%ADD54O,0.04737X0.09461*%
%ADD55O,0.04737X0.07887*%
%ADD56R,0.12217X0.12217*%
D19*
X76497Y167200D02*
D03*
D20*
Y162200D02*
D03*
Y157200D02*
D03*
Y152200D02*
D03*
X96576Y167200D02*
D03*
Y162200D02*
D03*
Y157200D02*
D03*
Y152200D02*
D03*
D21*
X64300Y144263D02*
D03*
Y152137D02*
D03*
X51600Y152037D02*
D03*
Y144163D02*
D03*
D22*
X75787Y194783D02*
D03*
X78937Y185138D02*
D03*
X72638D02*
D03*
D23*
X36443Y145900D02*
D03*
Y139601D02*
D03*
X35433Y110433D02*
D03*
Y104134D02*
D03*
X1969Y179331D02*
D03*
Y173031D02*
D03*
X28231Y179335D02*
D03*
Y173036D02*
D03*
X63246Y208733D02*
D03*
Y202433D02*
D03*
X-50212Y129028D02*
D03*
Y135327D02*
D03*
X-70771Y63474D02*
D03*
Y57174D02*
D03*
D24*
X27559Y125000D02*
D03*
D25*
X35236Y128937D02*
D03*
Y126969D02*
D03*
Y125000D02*
D03*
Y123031D02*
D03*
Y121063D02*
D03*
X19882D02*
D03*
Y123031D02*
D03*
Y125000D02*
D03*
Y126969D02*
D03*
Y128937D02*
D03*
D26*
X31496Y117323D02*
D03*
X29528D02*
D03*
X27559D02*
D03*
X25591D02*
D03*
X23622D02*
D03*
Y132677D02*
D03*
X25591D02*
D03*
X27559D02*
D03*
X29528D02*
D03*
D27*
X31496D02*
D03*
D28*
X39370Y152559D02*
D03*
X33268D02*
D03*
X26378D02*
D03*
X20276D02*
D03*
X5020Y128937D02*
D03*
X-1083D02*
D03*
X5020Y122047D02*
D03*
X-1083D02*
D03*
X18799Y70153D02*
D03*
X12697D02*
D03*
X64075Y54134D02*
D03*
X57972D02*
D03*
X-4476Y70153D02*
D03*
X1626D02*
D03*
X-38900Y66710D02*
D03*
X-32798D02*
D03*
X-45295Y211634D02*
D03*
X-51397D02*
D03*
X-20571Y36417D02*
D03*
X-26673D02*
D03*
X19587D02*
D03*
X25689D02*
D03*
X-39000Y102527D02*
D03*
X-32898D02*
D03*
X-39140Y84623D02*
D03*
X-33037D02*
D03*
X47937Y232927D02*
D03*
X54039D02*
D03*
X54151Y226127D02*
D03*
X48048D02*
D03*
D29*
X29569Y139290D02*
D03*
Y145392D02*
D03*
X62992Y17618D02*
D03*
Y23720D02*
D03*
X-58385Y142064D02*
D03*
Y135962D02*
D03*
X20733Y173134D02*
D03*
Y179237D02*
D03*
X9389Y173134D02*
D03*
Y179237D02*
D03*
X-86449Y57076D02*
D03*
Y63178D02*
D03*
D30*
X21654Y109843D02*
D03*
Y104724D02*
D03*
X20711Y139782D02*
D03*
Y144900D02*
D03*
D31*
X57399Y127963D02*
D03*
X44800D02*
D03*
X-59763Y231227D02*
D03*
X-47165D02*
D03*
X89173Y214567D02*
D03*
X101772D02*
D03*
D32*
X27559Y109744D02*
D03*
Y104823D02*
D03*
D33*
X29528Y18701D02*
D03*
X104333Y226839D02*
D03*
X93504Y68378D02*
D03*
X48851Y240033D02*
D03*
X101063Y68378D02*
D03*
X96212Y226839D02*
D03*
X59685Y194927D02*
D03*
X-38700Y160667D02*
D03*
X-38726Y171076D02*
D03*
X-44505Y176295D02*
D03*
X-44673Y165588D02*
D03*
D34*
X97835Y185039D02*
D03*
X91535D02*
D03*
X-51692Y240982D02*
D03*
X-45393D02*
D03*
X-51692Y218541D02*
D03*
X-45393D02*
D03*
X-80826Y178383D02*
D03*
X-87126D02*
D03*
X-80826Y170509D02*
D03*
X-87126D02*
D03*
X55835Y24581D02*
D03*
X49536D02*
D03*
X57874Y60039D02*
D03*
X64173D02*
D03*
D35*
X92126Y194783D02*
D03*
X93504D02*
D03*
X94882D02*
D03*
Y191043D02*
D03*
X93504D02*
D03*
X92126D02*
D03*
D36*
X92618Y200787D02*
D03*
X88484D02*
D03*
X97539Y179134D02*
D03*
X93405D02*
D03*
D37*
X85630Y184941D02*
D03*
Y189075D02*
D03*
D38*
X112169Y194168D02*
D03*
Y179601D02*
D03*
X106264D02*
D03*
Y194168D02*
D03*
D39*
X56626Y3974D02*
D03*
X42059D02*
D03*
Y9879D02*
D03*
X56626D02*
D03*
D40*
X-72165Y177202D02*
D03*
Y174052D02*
D03*
Y170903D02*
D03*
Y167753D02*
D03*
X-60354D02*
D03*
Y170903D02*
D03*
Y174052D02*
D03*
Y177202D02*
D03*
D41*
X12599Y27104D02*
D03*
X9449D02*
D03*
X-9448D02*
D03*
X-12598D02*
D03*
D42*
X4922D02*
D03*
X2953D02*
D03*
X985D02*
D03*
X-984D02*
D03*
X-2952D02*
D03*
X-4921D02*
D03*
X-6889D02*
D03*
X6890D02*
D03*
D43*
X37230Y193737D02*
D03*
Y199643D02*
D03*
Y205549D02*
D03*
Y211454D02*
D03*
Y217359D02*
D03*
Y223265D02*
D03*
Y229170D02*
D03*
Y235076D02*
D03*
Y240982D02*
D03*
X-33636Y193737D02*
D03*
Y199643D02*
D03*
Y205549D02*
D03*
Y211454D02*
D03*
Y217359D02*
D03*
Y223265D02*
D03*
Y229170D02*
D03*
Y235076D02*
D03*
Y240982D02*
D03*
D44*
X70546Y202143D02*
D03*
X74287D02*
D03*
X78027D02*
D03*
Y212183D02*
D03*
X70546D02*
D03*
D45*
X18911Y63247D02*
D03*
X12415D02*
D03*
X1826D02*
D03*
X-4670D02*
D03*
X-45652Y102537D02*
D03*
X-52148D02*
D03*
X-51993Y66710D02*
D03*
X-45497D02*
D03*
X-52148Y84624D02*
D03*
X-45652D02*
D03*
D46*
X79615Y223300D02*
D03*
X70560D02*
D03*
D47*
X-80440Y64848D02*
D03*
X-76699D02*
D03*
Y68588D02*
D03*
X-80440D02*
D03*
D48*
X70909Y100375D02*
D03*
Y68879D02*
D03*
X53193Y100375D02*
D03*
Y68879D02*
D03*
D49*
X11496Y52202D02*
D03*
Y48462D02*
D03*
Y44722D02*
D03*
X21339D02*
D03*
Y48462D02*
D03*
Y52202D02*
D03*
D50*
X-21024Y48228D02*
D03*
X-26221D02*
D03*
D51*
X-41920Y135277D02*
D03*
Y128978D02*
D03*
X-25778D02*
D03*
Y135277D02*
D03*
D52*
X103347Y135827D02*
D03*
X-103347D02*
D03*
D53*
X112957Y186688D02*
D03*
X105870D02*
D03*
X49146Y3186D02*
D03*
Y10273D02*
D03*
D54*
X-22441Y6041D02*
D03*
X22441D02*
D03*
D55*
X-22441Y21789D02*
D03*
X22441D02*
D03*
D56*
X5576Y216572D02*
D03*
M02*
