G04*
G04 #@! TF.GenerationSoftware,Altium Limited,Altium Designer,22.5.1 (42)*
G04*
G04 Layer_Physical_Order=3*
G04 Layer_Color=16440176*
%FSLAX25Y25*%
%MOIN*%
G70*
G04*
G04 #@! TF.SameCoordinates,99E8522F-A59E-4A80-82A0-D8EFEBB404AF*
G04*
G04*
G04 #@! TF.FilePolarity,Positive*
G04*
G01*
G75*
%ADD102C,0.02362*%
%ADD104C,0.03150*%
G36*
X94888Y239831D02*
X97307Y239009D01*
X99813Y238511D01*
X102362Y238344D01*
X104663Y238495D01*
X104911Y238511D01*
X105152Y238543D01*
X105152Y238543D01*
X106299Y238656D01*
X107871Y238501D01*
X109383Y238043D01*
X110776Y237298D01*
X111997Y236296D01*
X113000Y235075D01*
X113744Y233682D01*
X114203Y232170D01*
X114350Y230673D01*
X114335Y230598D01*
Y189002D01*
X113835Y188668D01*
X113387Y188853D01*
X112526D01*
X111730Y188523D01*
X111121Y187914D01*
X110791Y187119D01*
Y186257D01*
X111121Y185461D01*
X111730Y184852D01*
X112526Y184522D01*
X113387D01*
X113835Y184708D01*
X114335Y184374D01*
Y173280D01*
X65630D01*
X65323Y173219D01*
X65206Y173141D01*
X65135Y173188D01*
X64828Y173249D01*
X60630D01*
Y173542D01*
X60390Y174120D01*
X59947Y174563D01*
X59368Y174803D01*
X58742D01*
X58163Y174563D01*
X57720Y174120D01*
X57480Y173542D01*
Y173249D01*
X18593D01*
X18515Y173234D01*
X18436D01*
X18363Y173204D01*
X18286Y173188D01*
X18220Y173144D01*
X18147Y173114D01*
X18091Y173058D01*
X18025Y173014D01*
X17561Y173068D01*
X16838Y173368D01*
X16054D01*
X15331Y173068D01*
X15015Y172752D01*
X14699Y173068D01*
X13975Y173368D01*
X13192D01*
X12469Y173068D01*
X12004Y173014D01*
X11939Y173058D01*
X11883Y173114D01*
X11810Y173144D01*
X11744Y173188D01*
X11666Y173204D01*
X11593Y173234D01*
X11514D01*
X11437Y173249D01*
X-24606D01*
X-24914Y173188D01*
X-25174Y173014D01*
X-25348Y172754D01*
X-25409Y172447D01*
Y46260D01*
X-25982D01*
X-26706Y45960D01*
X-27259Y45406D01*
X-27559Y44683D01*
Y43900D01*
X-27259Y43176D01*
X-26706Y42623D01*
X-25982Y42323D01*
X-25409D01*
Y25806D01*
X-25384Y25677D01*
X-25367Y25548D01*
X-25353Y25524D01*
X-25348Y25498D01*
X-25275Y25390D01*
X-25210Y25276D01*
X-25189Y25260D01*
X-25174Y25238D01*
X-25129Y25208D01*
X-24871Y24798D01*
X-24848Y24753D01*
X-25126Y24083D01*
X-25220Y23363D01*
Y20214D01*
X-25126Y19494D01*
X-24848Y18824D01*
X-24871Y18779D01*
X-25129Y18369D01*
X-25174Y18339D01*
X-25189Y18317D01*
X-25210Y18301D01*
X-25275Y18188D01*
X-25348Y18079D01*
X-25353Y18053D01*
X-25367Y18030D01*
X-25384Y17900D01*
X-25409Y17772D01*
Y10845D01*
X-25384Y10717D01*
X-25367Y10587D01*
X-25353Y10564D01*
X-25348Y10538D01*
X-25275Y10429D01*
X-25210Y10316D01*
X-25189Y10299D01*
X-25174Y10277D01*
X-25129Y10247D01*
X-24871Y9837D01*
X-24848Y9793D01*
X-25126Y9122D01*
X-25220Y8403D01*
Y3678D01*
X-25126Y2959D01*
X-24848Y2289D01*
X-24768Y2185D01*
X-24989Y1736D01*
X-74734D01*
X-75086Y1806D01*
X-75575Y1832D01*
X-76658Y1939D01*
X-78170Y2397D01*
X-79563Y3142D01*
X-80784Y4144D01*
X-81786Y5365D01*
X-82531Y6759D01*
X-82989Y8270D01*
X-83144Y9843D01*
X-83031Y10989D01*
X-83031D01*
X-82999Y11230D01*
X-82983Y11478D01*
X-82832Y13780D01*
X-82999Y16329D01*
X-83498Y18834D01*
X-84319Y21253D01*
X-85449Y23544D01*
X-86868Y25669D01*
X-88552Y27589D01*
X-90473Y29274D01*
X-92597Y30693D01*
X-94888Y31823D01*
X-97307Y32644D01*
X-99813Y33143D01*
X-102362Y33310D01*
X-104663Y33159D01*
X-104911Y33143D01*
X-105152Y33110D01*
X-105152Y33110D01*
X-106299Y32997D01*
X-107871Y33152D01*
X-109383Y33611D01*
X-110776Y34356D01*
X-111997Y35358D01*
X-113000Y36579D01*
X-113744Y37972D01*
X-114203Y39484D01*
X-114350Y40981D01*
X-114335Y41056D01*
Y134061D01*
X-113835Y134100D01*
X-113715Y133338D01*
X-113198Y131746D01*
X-112438Y130255D01*
X-111454Y128902D01*
X-110271Y127719D01*
X-108918Y126735D01*
X-107427Y125976D01*
X-105836Y125459D01*
X-104183Y125197D01*
X-102510D01*
X-100857Y125459D01*
X-99266Y125976D01*
X-97775Y126735D01*
X-96421Y127719D01*
X-95238Y128902D01*
X-94255Y130255D01*
X-93495Y131746D01*
X-92978Y133338D01*
X-92716Y134990D01*
Y136663D01*
X-92978Y138316D01*
X-93495Y139907D01*
X-94255Y141398D01*
X-95238Y142752D01*
X-96421Y143935D01*
X-97775Y144918D01*
X-99266Y145678D01*
X-100857Y146195D01*
X-102510Y146457D01*
X-104183D01*
X-105836Y146195D01*
X-107427Y145678D01*
X-108918Y144918D01*
X-110271Y143935D01*
X-111454Y142752D01*
X-112438Y141398D01*
X-113198Y139907D01*
X-113715Y138316D01*
X-113835Y137554D01*
X-114335Y137593D01*
Y230598D01*
X-114350Y230673D01*
X-114203Y232170D01*
X-113744Y233682D01*
X-113000Y235075D01*
X-111997Y236296D01*
X-110776Y237298D01*
X-109383Y238043D01*
X-107871Y238501D01*
X-106299Y238656D01*
X-105152Y238543D01*
X-105152Y238543D01*
X-104911Y238511D01*
X-104663Y238495D01*
X-102362Y238344D01*
X-99813Y238511D01*
X-97307Y239009D01*
X-94888Y239831D01*
X-93857Y240339D01*
X-57836D01*
X-57618Y239812D01*
X-57064Y239258D01*
X-56341Y238959D01*
X-55558D01*
X-54834Y239258D01*
X-54280Y239812D01*
X-54062Y240339D01*
X93857D01*
X94888Y239831D01*
D02*
G37*
G36*
X64828Y160082D02*
X64889Y159775D01*
X65063Y159515D01*
X65323Y159341D01*
X65540Y159251D01*
X65629Y159035D01*
Y158409D01*
X65692Y158256D01*
X65323Y158103D01*
X65063Y157929D01*
X64889Y157668D01*
X64828Y157361D01*
Y121453D01*
X48349D01*
X48271Y121438D01*
X48192D01*
X48119Y121408D01*
X48041Y121392D01*
X47976Y121348D01*
X47903Y121318D01*
X47847Y121262D01*
X47781Y121218D01*
X47737Y121152D01*
X47681Y121097D01*
X47561Y120916D01*
X47531Y120843D01*
X47487Y120777D01*
X47471Y120700D01*
X47441Y120627D01*
Y120548D01*
X47425Y120470D01*
Y119847D01*
X47248Y119419D01*
X46920Y119090D01*
X46492Y118913D01*
X46028D01*
X45599Y119090D01*
X45272Y119419D01*
X45094Y119847D01*
Y120470D01*
X45079Y120548D01*
Y120627D01*
X45048Y120700D01*
X45033Y120777D01*
X44989Y120843D01*
X44959Y120916D01*
X44839Y121097D01*
X44783Y121152D01*
X44739Y121218D01*
X44673Y121262D01*
X44617Y121318D01*
X44544Y121348D01*
X44478Y121392D01*
X44401Y121408D01*
X44328Y121438D01*
X44249D01*
X44171Y121453D01*
X33352D01*
X33045Y121392D01*
X32784Y121218D01*
X32610Y120958D01*
X32549Y120650D01*
Y102362D01*
X32089D01*
X31365Y102062D01*
X31004Y101701D01*
X30643Y102062D01*
X29919Y102362D01*
X29136D01*
X28413Y102062D01*
X27859Y101509D01*
X27559Y100785D01*
Y100002D01*
X27859Y99279D01*
X28413Y98725D01*
X29136Y98425D01*
X29919D01*
X30643Y98725D01*
X31004Y99086D01*
X31365Y98725D01*
X32089Y98425D01*
X32872D01*
X33595Y98725D01*
X33605Y98735D01*
X34086Y98842D01*
X34151Y98798D01*
X34207Y98742D01*
X34280Y98712D01*
X34346Y98668D01*
X34424Y98652D01*
X34497Y98622D01*
X34576D01*
X34653Y98607D01*
X64828D01*
Y17671D01*
X64843Y17594D01*
Y17514D01*
X64873Y17441D01*
X64889Y17364D01*
X64933Y17298D01*
X64963Y17225D01*
X65019Y17169D01*
X65063Y17103D01*
X65128Y17059D01*
X65184Y17004D01*
X65189Y17001D01*
X65251Y16786D01*
X65257Y16739D01*
Y16725D01*
X65251Y16679D01*
X65189Y16463D01*
X65184Y16461D01*
X65128Y16405D01*
X65063Y16361D01*
X65019Y16296D01*
X64963Y16240D01*
X64933Y16166D01*
X64889Y16101D01*
X64873Y16023D01*
X64843Y15950D01*
Y15871D01*
X64828Y15793D01*
Y7740D01*
X64328Y7406D01*
X64059Y7517D01*
X63276D01*
X62552Y7217D01*
X61998Y6664D01*
X61699Y5940D01*
Y5157D01*
X61998Y4433D01*
X62552Y3880D01*
X63276Y3580D01*
X64059D01*
X64328Y3691D01*
X64828Y3357D01*
Y1736D01*
X51411D01*
X51096Y2236D01*
X51311Y2756D01*
Y3617D01*
X50981Y4413D01*
X50372Y5022D01*
X49576Y5352D01*
X48715D01*
X47919Y5022D01*
X47310Y4413D01*
X46980Y3617D01*
Y2756D01*
X47195Y2236D01*
X46880Y1736D01*
X24990D01*
X24769Y2185D01*
X24849Y2289D01*
X25126Y2959D01*
X25221Y3678D01*
Y8403D01*
X25126Y9122D01*
X24849Y9793D01*
X24407Y10368D01*
X23831Y10810D01*
X23161Y11088D01*
X22441Y11182D01*
X21722Y11088D01*
X21052Y10810D01*
X20595Y10459D01*
X20095Y10632D01*
Y17985D01*
X20595Y18157D01*
X21052Y17807D01*
X21722Y17529D01*
X22441Y17434D01*
X23161Y17529D01*
X23831Y17807D01*
X24407Y18248D01*
X24849Y18824D01*
X25126Y19494D01*
X25221Y20214D01*
Y23363D01*
X25126Y24083D01*
X24849Y24753D01*
X24407Y25329D01*
X23831Y25771D01*
X23161Y26048D01*
X22441Y26143D01*
X21722Y26048D01*
X21052Y25771D01*
X20514Y25358D01*
X20425Y25337D01*
X19916Y25421D01*
X19860Y25506D01*
X19599Y25680D01*
X19292Y25741D01*
X14567D01*
X14260Y25680D01*
X14000Y25506D01*
X13826Y25245D01*
X13769Y24959D01*
X-13768D01*
X-13825Y25245D01*
X-13999Y25506D01*
X-14259Y25680D01*
X-14567Y25741D01*
X-19291D01*
X-19598Y25680D01*
X-19859Y25506D01*
X-19915Y25421D01*
X-20424Y25337D01*
X-20513Y25358D01*
X-21051Y25771D01*
X-21721Y26048D01*
X-22441Y26143D01*
X-23160Y26048D01*
X-23830Y25771D01*
X-24106Y25559D01*
X-24606Y25806D01*
Y42568D01*
X-24475Y42623D01*
X-23922Y43176D01*
X-23622Y43900D01*
Y44683D01*
X-23922Y45406D01*
X-24475Y45960D01*
X-24606Y46014D01*
Y172447D01*
X11437D01*
X11715Y172031D01*
X11615Y171791D01*
Y171008D01*
X11915Y170284D01*
X12469Y169731D01*
X13192Y169431D01*
X13975D01*
X14699Y169731D01*
X15015Y170047D01*
X15331Y169731D01*
X16054Y169431D01*
X16838D01*
X17561Y169731D01*
X18115Y170284D01*
X18414Y171008D01*
Y171791D01*
X18315Y172031D01*
X18593Y172447D01*
X57674D01*
X57720Y172336D01*
X58163Y171893D01*
X58742Y171653D01*
X59368D01*
X59947Y171893D01*
X60390Y172336D01*
X60436Y172447D01*
X64828D01*
Y160082D01*
D02*
G37*
G36*
X114335Y137593D02*
X113835Y137554D01*
X113715Y138316D01*
X113198Y139907D01*
X112438Y141398D01*
X111454Y142752D01*
X110271Y143935D01*
X108918Y144918D01*
X107427Y145678D01*
X105836Y146195D01*
X104183Y146457D01*
X102510D01*
X100857Y146195D01*
X99266Y145678D01*
X97775Y144918D01*
X96421Y143935D01*
X95238Y142752D01*
X94255Y141398D01*
X93495Y139907D01*
X92978Y138316D01*
X92716Y136663D01*
Y134990D01*
X92978Y133338D01*
X93495Y131746D01*
X94255Y130255D01*
X95238Y128902D01*
X96421Y127719D01*
X97775Y126735D01*
X99266Y125976D01*
X100857Y125459D01*
X102510Y125197D01*
X104183D01*
X105836Y125459D01*
X107427Y125976D01*
X108918Y126735D01*
X110271Y127719D01*
X111454Y128902D01*
X112438Y130255D01*
X113198Y131746D01*
X113715Y133338D01*
X113835Y134100D01*
X114335Y134061D01*
Y41056D01*
X114351Y40977D01*
X114204Y39484D01*
X113745Y37972D01*
X113001Y36578D01*
X111998Y35357D01*
X110777Y34355D01*
X109383Y33610D01*
X107872Y33151D01*
X106299Y32996D01*
X105152Y33109D01*
Y33109D01*
X104911Y33143D01*
X104663Y33159D01*
X102362Y33310D01*
X99813Y33143D01*
X97307Y32644D01*
X94888Y31823D01*
X92597Y30693D01*
X90473Y29274D01*
X88552Y27589D01*
X86868Y25669D01*
X85449Y23544D01*
X84319Y21253D01*
X83498Y18834D01*
X82999Y16329D01*
X82832Y13780D01*
X82982Y11488D01*
X82999Y11230D01*
X83033Y10989D01*
X83033Y10989D01*
X83145Y9843D01*
X82991Y8270D01*
X82532Y6758D01*
X81787Y5365D01*
X80785Y4143D01*
X79563Y3141D01*
X78170Y2396D01*
X76658Y1938D01*
X75165Y1791D01*
X75086Y1806D01*
X74734Y1736D01*
X65630D01*
Y5144D01*
X65636Y5157D01*
Y5940D01*
X65630Y5953D01*
Y15793D01*
X66130Y15893D01*
X66245Y15617D01*
X66798Y15064D01*
X67522Y14764D01*
X68305D01*
X69029Y15064D01*
X69582Y15617D01*
X69882Y16341D01*
Y17124D01*
X69582Y17847D01*
X69029Y18401D01*
X68305Y18701D01*
X67522D01*
X66798Y18401D01*
X66245Y17847D01*
X66130Y17572D01*
X65630Y17671D01*
Y99410D01*
X34653D01*
X34376Y99825D01*
X34449Y100002D01*
Y100785D01*
X34149Y101509D01*
X33595Y102062D01*
X33352Y102163D01*
Y120650D01*
X44171D01*
X44291Y120470D01*
Y119687D01*
X44591Y118964D01*
X45145Y118410D01*
X45868Y118110D01*
X46651D01*
X47375Y118410D01*
X47929Y118964D01*
X48228Y119687D01*
Y120470D01*
X48349Y120650D01*
X65630D01*
Y157361D01*
X66130Y157568D01*
X66312Y157387D01*
X66891Y157147D01*
X67517D01*
X68096Y157387D01*
X68539Y157830D01*
X68779Y158409D01*
Y159035D01*
X68539Y159614D01*
X68096Y160057D01*
X67517Y160297D01*
X66891D01*
X66312Y160057D01*
X66130Y159875D01*
X65630Y160082D01*
Y172478D01*
X114335D01*
Y137593D01*
D02*
G37*
G36*
X-20094Y17985D02*
Y10632D01*
X-20594Y10459D01*
X-21051Y10810D01*
X-21721Y11088D01*
X-22441Y11182D01*
X-23160Y11088D01*
X-23830Y10810D01*
X-24106Y10598D01*
X-24606Y10845D01*
Y17772D01*
X-24106Y18018D01*
X-23830Y17807D01*
X-23160Y17529D01*
X-22441Y17434D01*
X-21721Y17529D01*
X-21051Y17807D01*
X-20594Y18157D01*
X-20094Y17985D01*
D02*
G37*
%LPC*%
G36*
X43592Y234846D02*
X42809D01*
X42086Y234546D01*
X41532Y233992D01*
X41232Y233269D01*
Y232486D01*
X41532Y231762D01*
X42086Y231208D01*
X42809Y230909D01*
X43592D01*
X44316Y231208D01*
X44870Y231762D01*
X45169Y232486D01*
Y233269D01*
X44870Y233992D01*
X44316Y234546D01*
X43592Y234846D01*
D02*
G37*
G36*
X-105986Y229921D02*
X-106613D01*
X-107191Y229681D01*
X-107634Y229239D01*
X-107874Y228660D01*
Y228033D01*
X-107634Y227454D01*
X-107191Y227011D01*
X-106613Y226772D01*
X-105986D01*
X-105407Y227011D01*
X-104964Y227454D01*
X-104724Y228033D01*
Y228660D01*
X-104964Y229239D01*
X-105407Y229681D01*
X-105986Y229921D01*
D02*
G37*
G36*
X108659Y229331D02*
X107876D01*
X107153Y229031D01*
X106599Y228477D01*
X106299Y227754D01*
Y226971D01*
X106599Y226247D01*
X107153Y225693D01*
X107876Y225394D01*
X108659D01*
X109383Y225693D01*
X109936Y226247D01*
X110236Y226971D01*
Y227754D01*
X109936Y228477D01*
X109383Y229031D01*
X108659Y229331D01*
D02*
G37*
G36*
X43769Y228304D02*
X42986D01*
X42262Y228005D01*
X41708Y227451D01*
X41409Y226727D01*
Y225944D01*
X41708Y225221D01*
X42262Y224667D01*
X42986Y224367D01*
X43769D01*
X44492Y224667D01*
X45046Y225221D01*
X45346Y225944D01*
Y226727D01*
X45046Y227451D01*
X44492Y228005D01*
X43769Y228304D01*
D02*
G37*
G36*
X-55914Y226397D02*
X-56697D01*
X-57421Y226097D01*
X-57975Y225543D01*
X-58274Y224820D01*
Y224037D01*
X-57975Y223313D01*
X-57421Y222759D01*
X-56697Y222460D01*
X-55914D01*
X-55191Y222759D01*
X-54637Y223313D01*
X-54337Y224037D01*
Y224820D01*
X-54637Y225543D01*
X-55191Y226097D01*
X-55914Y226397D01*
D02*
G37*
G36*
X-27891Y225231D02*
X-28674D01*
X-29397Y224932D01*
X-29951Y224378D01*
X-30251Y223654D01*
Y222871D01*
X-29951Y222148D01*
X-29397Y221594D01*
X-28674Y221294D01*
X-27891D01*
X-27167Y221594D01*
X-26613Y222148D01*
X-26314Y222871D01*
Y223654D01*
X-26613Y224378D01*
X-27167Y224932D01*
X-27891Y225231D01*
D02*
G37*
G36*
X-11355Y223265D02*
X-12138D01*
X-12862Y222965D01*
X-13416Y222412D01*
X-13715Y221688D01*
Y220905D01*
X-13416Y220181D01*
X-12862Y219628D01*
X-12138Y219328D01*
X-11355D01*
X-10632Y219628D01*
X-10078Y220181D01*
X-9778Y220905D01*
Y221688D01*
X-10078Y222412D01*
X-10632Y222965D01*
X-11355Y223265D01*
D02*
G37*
G36*
X110549Y222047D02*
X109923D01*
X109344Y221808D01*
X108901Y221364D01*
X108661Y220786D01*
Y220159D01*
X108901Y219580D01*
X109124Y219358D01*
X109222Y219260D01*
X108939Y218836D01*
X108812Y218888D01*
X108388Y219064D01*
X107605D01*
X106882Y218764D01*
X106328Y218210D01*
X106028Y217487D01*
Y216704D01*
X106328Y215980D01*
X106882Y215426D01*
X107066Y215350D01*
Y214809D01*
X106882Y214732D01*
X106328Y214178D01*
X106028Y213455D01*
Y212672D01*
X106328Y211948D01*
X106882Y211395D01*
X107605Y211095D01*
X108388D01*
X109112Y211395D01*
X109666Y211948D01*
X109965Y212672D01*
Y213455D01*
X109666Y214178D01*
X109112Y214732D01*
X108927Y214809D01*
Y215350D01*
X109112Y215426D01*
X109666Y215980D01*
X109965Y216704D01*
Y217487D01*
X109666Y218210D01*
X109333Y218543D01*
X109234Y218642D01*
X109517Y219066D01*
X109644Y219013D01*
X109923Y218898D01*
X110549D01*
X111128Y219137D01*
X111571Y219580D01*
X111811Y220159D01*
Y220786D01*
X111571Y221364D01*
X111128Y221808D01*
X110549Y222047D01*
D02*
G37*
G36*
X44305Y221946D02*
X43522D01*
X42799Y221647D01*
X42245Y221093D01*
X41945Y220369D01*
Y219586D01*
X42245Y218863D01*
X42799Y218309D01*
X43522Y218009D01*
X44305D01*
X45029Y218309D01*
X45583Y218863D01*
X45882Y219586D01*
Y220369D01*
X45583Y221093D01*
X45029Y221647D01*
X44305Y221946D01*
D02*
G37*
G36*
X-55558Y220496D02*
X-56341D01*
X-57064Y220196D01*
X-57618Y219642D01*
X-57918Y218919D01*
Y218136D01*
X-57618Y217412D01*
X-57064Y216858D01*
X-56341Y216559D01*
X-55558D01*
X-54834Y216858D01*
X-54280Y217412D01*
X-53981Y218136D01*
Y218919D01*
X-54280Y219642D01*
X-54834Y220196D01*
X-55558Y220496D01*
D02*
G37*
G36*
X59447Y214567D02*
X58664D01*
X57940Y214267D01*
X57386Y213714D01*
X57087Y212990D01*
Y212207D01*
X57386Y211483D01*
X57940Y210930D01*
X58664Y210630D01*
X59447D01*
X60170Y210930D01*
X60724Y211483D01*
X61024Y212207D01*
Y212990D01*
X60724Y213714D01*
X60170Y214267D01*
X59447Y214567D01*
D02*
G37*
G36*
X12072Y223068D02*
X-920D01*
Y210076D01*
X12072D01*
Y223068D01*
D02*
G37*
G36*
X-105986Y210236D02*
X-106613D01*
X-107191Y209997D01*
X-107634Y209554D01*
X-107874Y208975D01*
Y208348D01*
X-107634Y207769D01*
X-107191Y207326D01*
X-106613Y207087D01*
X-105986D01*
X-105407Y207326D01*
X-104964Y207769D01*
X-104724Y208348D01*
Y208975D01*
X-104964Y209554D01*
X-105407Y209997D01*
X-105986Y210236D01*
D02*
G37*
G36*
X74643Y208389D02*
X73860D01*
X73137Y208090D01*
X72583Y207536D01*
X72283Y206812D01*
Y206029D01*
X72583Y205306D01*
X73137Y204752D01*
X73860Y204452D01*
X74643D01*
X75367Y204752D01*
X75920Y205306D01*
X76220Y206029D01*
Y206812D01*
X75920Y207536D01*
X75367Y208090D01*
X74643Y208389D01*
D02*
G37*
G36*
X31142Y207496D02*
X30359D01*
X29636Y207196D01*
X29082Y206642D01*
X28782Y205919D01*
Y205136D01*
X29082Y204412D01*
X29636Y203858D01*
X30359Y203559D01*
X31142D01*
X31866Y203858D01*
X32420Y204412D01*
X32719Y205136D01*
Y205919D01*
X32420Y206642D01*
X31866Y207196D01*
X31142Y207496D01*
D02*
G37*
G36*
X-44514Y206796D02*
X-45297D01*
X-46021Y206496D01*
X-46574Y205942D01*
X-46874Y205219D01*
Y204435D01*
X-46574Y203712D01*
X-46021Y203158D01*
X-45297Y202859D01*
X-44514D01*
X-43791Y203158D01*
X-43237Y203712D01*
X-42937Y204435D01*
Y205219D01*
X-43237Y205942D01*
X-43791Y206496D01*
X-44514Y206796D01*
D02*
G37*
G36*
X-27167Y206693D02*
X-27951D01*
X-28674Y206393D01*
X-29228Y205839D01*
X-29528Y205116D01*
Y204333D01*
X-29228Y203609D01*
X-28674Y203056D01*
X-27951Y202756D01*
X-27167D01*
X-26444Y203056D01*
X-25890Y203609D01*
X-25591Y204333D01*
Y205116D01*
X-25890Y205839D01*
X-26444Y206393D01*
X-27167Y206693D01*
D02*
G37*
G36*
X8095Y204814D02*
X7312D01*
X6588Y204514D01*
X6035Y203960D01*
X5735Y203237D01*
Y202454D01*
X6035Y201730D01*
X6588Y201177D01*
X7312Y200877D01*
X8095D01*
X8819Y201177D01*
X9372Y201730D01*
X9672Y202454D01*
Y203237D01*
X9372Y203960D01*
X8819Y204514D01*
X8095Y204814D01*
D02*
G37*
G36*
X-7482Y204724D02*
X-8266D01*
X-8989Y204425D01*
X-9543Y203871D01*
X-9843Y203148D01*
Y202364D01*
X-9543Y201641D01*
X-8989Y201087D01*
X-8266Y200787D01*
X-7482D01*
X-6759Y201087D01*
X-6205Y201641D01*
X-5906Y202364D01*
Y203148D01*
X-6205Y203871D01*
X-6759Y204425D01*
X-7482Y204724D01*
D02*
G37*
G36*
X30942Y201596D02*
X30159D01*
X29436Y201296D01*
X28882Y200742D01*
X28582Y200019D01*
Y199236D01*
X28882Y198512D01*
X29436Y197958D01*
X30159Y197659D01*
X30942D01*
X31666Y197958D01*
X32220Y198512D01*
X32519Y199236D01*
Y200019D01*
X32220Y200742D01*
X31666Y201296D01*
X30942Y201596D01*
D02*
G37*
G36*
X-27190Y201534D02*
X-27973D01*
X-28697Y201234D01*
X-29250Y200680D01*
X-29550Y199957D01*
Y199173D01*
X-29250Y198450D01*
X-28697Y197896D01*
X-27973Y197597D01*
X-27190D01*
X-26467Y197896D01*
X-25913Y198450D01*
X-25613Y199173D01*
Y199957D01*
X-25913Y200680D01*
X-26467Y201234D01*
X-27190Y201534D01*
D02*
G37*
G36*
X95395Y199635D02*
X94612D01*
X93888Y199335D01*
X93335Y198781D01*
X93035Y198058D01*
Y197274D01*
X93335Y196551D01*
X93888Y195997D01*
X94612Y195697D01*
X95395D01*
X96119Y195997D01*
X96672Y196551D01*
X96972Y197274D01*
Y198058D01*
X96672Y198781D01*
X96119Y199335D01*
X95395Y199635D01*
D02*
G37*
G36*
X-38896Y195706D02*
X-39679D01*
X-40403Y195406D01*
X-40957Y194852D01*
X-41256Y194129D01*
Y193346D01*
X-40957Y192622D01*
X-40403Y192069D01*
X-39679Y191769D01*
X-38896D01*
X-38173Y192069D01*
X-37619Y192622D01*
X-37319Y193346D01*
Y194129D01*
X-37619Y194852D01*
X-38173Y195406D01*
X-38896Y195706D01*
D02*
G37*
G36*
X30642Y195696D02*
X29859D01*
X29136Y195396D01*
X28582Y194842D01*
X28282Y194119D01*
Y193336D01*
X28582Y192612D01*
X29136Y192058D01*
X29859Y191759D01*
X30642D01*
X31366Y192058D01*
X31920Y192612D01*
X32219Y193336D01*
Y194119D01*
X31920Y194842D01*
X31366Y195396D01*
X30642Y195696D01*
D02*
G37*
G36*
X-105986Y190551D02*
X-106613D01*
X-107191Y190311D01*
X-107634Y189868D01*
X-107874Y189290D01*
Y188663D01*
X-107634Y188084D01*
X-107191Y187641D01*
X-106613Y187402D01*
X-105986D01*
X-105407Y187641D01*
X-104964Y188084D01*
X-104724Y188663D01*
Y189290D01*
X-104964Y189868D01*
X-105407Y190311D01*
X-105986Y190551D01*
D02*
G37*
G36*
X89507Y191024D02*
X88724D01*
X88001Y190724D01*
X87447Y190171D01*
X87147Y189447D01*
Y188664D01*
X87447Y187941D01*
X88001Y187387D01*
X88724Y187087D01*
X89507D01*
X90231Y187387D01*
X90785Y187941D01*
X91084Y188664D01*
Y189447D01*
X90785Y190171D01*
X90231Y190724D01*
X89507Y191024D01*
D02*
G37*
G36*
X106301Y188853D02*
X105439D01*
X104643Y188523D01*
X104034Y187914D01*
X103705Y187119D01*
Y186257D01*
X104034Y185461D01*
X104643Y184852D01*
X105439Y184522D01*
X106301D01*
X107097Y184852D01*
X107706Y185461D01*
X108035Y186257D01*
Y187119D01*
X107706Y187914D01*
X107097Y188523D01*
X106301Y188853D01*
D02*
G37*
G36*
X26246Y185244D02*
X25463D01*
X24739Y184944D01*
X24185Y184391D01*
X23886Y183667D01*
Y182884D01*
X24185Y182160D01*
X24739Y181607D01*
X25463Y181307D01*
X26246D01*
X26969Y181607D01*
X27523Y182160D01*
X27823Y182884D01*
Y183667D01*
X27523Y184391D01*
X26969Y184944D01*
X26246Y185244D01*
D02*
G37*
G36*
X5383D02*
X4600D01*
X3877Y184944D01*
X3323Y184391D01*
X3023Y183667D01*
Y182884D01*
X3323Y182160D01*
X3877Y181607D01*
X4600Y181307D01*
X5383D01*
X6107Y181607D01*
X6661Y182160D01*
X6960Y182884D01*
Y183667D01*
X6661Y184391D01*
X6107Y184944D01*
X5383Y185244D01*
D02*
G37*
G36*
X-85188Y184752D02*
X-85971D01*
X-86694Y184452D01*
X-87248Y183898D01*
X-87548Y183175D01*
Y182392D01*
X-87248Y181668D01*
X-86694Y181114D01*
X-85971Y180815D01*
X-85188D01*
X-84464Y181114D01*
X-83910Y181668D01*
X-83611Y182392D01*
Y183175D01*
X-83910Y183898D01*
X-84464Y184452D01*
X-85188Y184752D01*
D02*
G37*
G36*
X43620Y182677D02*
X42994D01*
X42415Y182437D01*
X41972Y181994D01*
X41732Y181416D01*
Y180789D01*
X41972Y180210D01*
X42415Y179767D01*
X42994Y179528D01*
X43620D01*
X44199Y179767D01*
X44642Y180210D01*
X44882Y180789D01*
Y181416D01*
X44642Y181994D01*
X44199Y182437D01*
X43620Y182677D01*
D02*
G37*
G36*
X-64258Y179196D02*
X-65041D01*
X-65764Y178896D01*
X-66318Y178342D01*
X-66618Y177619D01*
Y176836D01*
X-66318Y176112D01*
X-65764Y175558D01*
X-65041Y175259D01*
X-64258D01*
X-63534Y175558D01*
X-62980Y176112D01*
X-62681Y176836D01*
Y177619D01*
X-62980Y178342D01*
X-63534Y178896D01*
X-64258Y179196D01*
D02*
G37*
G36*
X-67358Y175796D02*
X-68141D01*
X-68864Y175496D01*
X-69418Y174942D01*
X-69718Y174219D01*
Y173436D01*
X-69418Y172712D01*
X-68864Y172158D01*
X-68141Y171859D01*
X-67358D01*
X-66634Y172158D01*
X-66080Y172712D01*
X-65781Y173436D01*
Y174219D01*
X-66080Y174942D01*
X-66634Y175496D01*
X-67358Y175796D01*
D02*
G37*
G36*
X-85384Y168178D02*
X-86168D01*
X-86891Y167878D01*
X-87445Y167324D01*
X-87744Y166601D01*
Y165818D01*
X-87445Y165094D01*
X-86891Y164540D01*
X-86168Y164241D01*
X-85384D01*
X-84661Y164540D01*
X-84107Y165094D01*
X-83807Y165818D01*
Y166601D01*
X-84107Y167324D01*
X-84661Y167878D01*
X-85384Y168178D01*
D02*
G37*
G36*
X-105986Y166929D02*
X-106613D01*
X-107191Y166689D01*
X-107634Y166246D01*
X-107874Y165668D01*
Y165041D01*
X-107634Y164462D01*
X-107191Y164019D01*
X-106613Y163779D01*
X-105986D01*
X-105407Y164019D01*
X-104964Y164462D01*
X-104724Y165041D01*
Y165668D01*
X-104964Y166246D01*
X-105407Y166689D01*
X-105986Y166929D01*
D02*
G37*
G36*
X-58016Y148465D02*
X-58799D01*
X-59523Y148166D01*
X-60076Y147612D01*
X-60376Y146888D01*
Y146105D01*
X-60076Y145382D01*
X-59523Y144828D01*
X-58799Y144528D01*
X-58016D01*
X-57292Y144828D01*
X-56739Y145382D01*
X-56439Y146105D01*
Y146888D01*
X-56739Y147612D01*
X-57292Y148166D01*
X-58016Y148465D01*
D02*
G37*
G36*
X-36558Y137396D02*
X-37341D01*
X-38064Y137096D01*
X-38618Y136542D01*
X-38918Y135819D01*
Y135036D01*
X-38618Y134312D01*
X-38064Y133758D01*
X-37341Y133459D01*
X-36558D01*
X-35834Y133758D01*
X-35280Y134312D01*
X-34981Y135036D01*
Y135819D01*
X-35280Y136542D01*
X-35834Y137096D01*
X-36558Y137396D01*
D02*
G37*
G36*
X-30258Y137296D02*
X-31041D01*
X-31764Y136996D01*
X-32318Y136442D01*
X-32618Y135719D01*
Y134936D01*
X-32318Y134212D01*
X-31764Y133658D01*
X-31041Y133359D01*
X-30258D01*
X-29534Y133658D01*
X-28980Y134212D01*
X-28681Y134936D01*
Y135719D01*
X-28980Y136442D01*
X-29534Y136996D01*
X-30258Y137296D01*
D02*
G37*
G36*
X-78427Y135433D02*
X-79053D01*
X-79632Y135193D01*
X-80075Y134750D01*
X-80315Y134171D01*
Y133545D01*
X-80075Y132966D01*
X-79632Y132523D01*
X-79053Y132283D01*
X-78427D01*
X-77848Y132523D01*
X-77405Y132966D01*
X-77165Y133545D01*
Y134171D01*
X-77405Y134750D01*
X-77848Y135193D01*
X-78427Y135433D01*
D02*
G37*
G36*
X-30158Y131196D02*
X-30941D01*
X-31664Y130896D01*
X-32218Y130342D01*
X-32518Y129619D01*
Y128836D01*
X-32218Y128112D01*
X-31664Y127558D01*
X-30941Y127259D01*
X-30158D01*
X-29434Y127558D01*
X-28880Y128112D01*
X-28581Y128836D01*
Y129619D01*
X-28880Y130342D01*
X-29434Y130896D01*
X-30158Y131196D01*
D02*
G37*
G36*
X-44986Y131096D02*
X-45769D01*
X-46493Y130796D01*
X-47046Y130242D01*
X-47346Y129519D01*
Y128736D01*
X-47046Y128012D01*
X-46493Y127458D01*
X-45769Y127159D01*
X-44986D01*
X-44262Y127458D01*
X-43709Y128012D01*
X-43409Y128736D01*
Y129519D01*
X-43709Y130242D01*
X-44262Y130796D01*
X-44986Y131096D01*
D02*
G37*
G36*
X-105986Y119685D02*
X-106613D01*
X-107191Y119445D01*
X-107634Y119002D01*
X-107874Y118423D01*
Y117797D01*
X-107634Y117218D01*
X-107191Y116775D01*
X-106613Y116535D01*
X-105986D01*
X-105407Y116775D01*
X-104964Y117218D01*
X-104724Y117797D01*
Y118423D01*
X-104964Y119002D01*
X-105407Y119445D01*
X-105986Y119685D01*
D02*
G37*
G36*
X-66616Y107874D02*
X-67242D01*
X-67821Y107634D01*
X-68264Y107191D01*
X-68504Y106613D01*
Y105986D01*
X-68264Y105407D01*
X-67821Y104964D01*
X-67242Y104724D01*
X-66616D01*
X-66037Y104964D01*
X-65594Y105407D01*
X-65354Y105986D01*
Y106613D01*
X-65594Y107191D01*
X-66037Y107634D01*
X-66616Y107874D01*
D02*
G37*
G36*
X-53562Y99409D02*
X-54345D01*
X-55068Y99110D01*
X-55622Y98556D01*
X-55922Y97833D01*
Y97049D01*
X-55622Y96326D01*
X-55068Y95772D01*
X-54345Y95472D01*
X-53562D01*
X-52838Y95772D01*
X-52284Y96326D01*
X-51985Y97049D01*
Y97833D01*
X-52284Y98556D01*
X-52838Y99110D01*
X-53562Y99409D01*
D02*
G37*
G36*
X-105986Y96063D02*
X-106613D01*
X-107191Y95823D01*
X-107634Y95380D01*
X-107874Y94801D01*
Y94175D01*
X-107634Y93596D01*
X-107191Y93153D01*
X-106613Y92913D01*
X-105986D01*
X-105407Y93153D01*
X-104964Y93596D01*
X-104724Y94175D01*
Y94801D01*
X-104964Y95380D01*
X-105407Y95823D01*
X-105986Y96063D01*
D02*
G37*
G36*
X-78427Y88189D02*
X-79053D01*
X-79632Y87949D01*
X-80075Y87506D01*
X-80315Y86927D01*
Y86301D01*
X-80075Y85722D01*
X-79632Y85279D01*
X-79053Y85039D01*
X-78427D01*
X-77848Y85279D01*
X-77405Y85722D01*
X-77165Y86301D01*
Y86927D01*
X-77405Y87506D01*
X-77848Y87949D01*
X-78427Y88189D01*
D02*
G37*
G36*
X-52758Y81693D02*
X-53541D01*
X-54265Y81393D01*
X-54818Y80840D01*
X-55118Y80116D01*
Y79333D01*
X-54818Y78609D01*
X-54265Y78056D01*
X-53541Y77756D01*
X-52758D01*
X-52034Y78056D01*
X-51481Y78609D01*
X-51181Y79333D01*
Y80116D01*
X-51481Y80840D01*
X-52034Y81393D01*
X-52758Y81693D01*
D02*
G37*
G36*
X-105986Y72441D02*
X-106613D01*
X-107191Y72201D01*
X-107634Y71758D01*
X-107874Y71179D01*
Y70553D01*
X-107634Y69974D01*
X-107191Y69531D01*
X-106613Y69291D01*
X-105986D01*
X-105407Y69531D01*
X-104964Y69974D01*
X-104724Y70553D01*
Y71179D01*
X-104964Y71758D01*
X-105407Y72201D01*
X-105986Y72441D01*
D02*
G37*
G36*
X-83458Y70696D02*
X-84241D01*
X-84964Y70396D01*
X-85518Y69842D01*
X-85818Y69119D01*
Y68336D01*
X-85518Y67612D01*
X-84964Y67058D01*
X-84241Y66759D01*
X-83458D01*
X-82734Y67058D01*
X-82180Y67612D01*
X-81881Y68336D01*
Y69119D01*
X-82180Y69842D01*
X-82734Y70396D01*
X-83458Y70696D01*
D02*
G37*
G36*
X-52758Y63976D02*
X-53541D01*
X-54265Y63677D01*
X-54818Y63123D01*
X-55118Y62399D01*
Y61616D01*
X-54818Y60893D01*
X-54265Y60339D01*
X-53541Y60039D01*
X-52758D01*
X-52034Y60339D01*
X-51481Y60893D01*
X-51181Y61616D01*
Y62399D01*
X-51481Y63123D01*
X-52034Y63677D01*
X-52758Y63976D01*
D02*
G37*
G36*
X-65953Y60523D02*
X-66736D01*
X-67460Y60224D01*
X-68014Y59670D01*
X-68313Y58946D01*
Y58163D01*
X-68014Y57440D01*
X-67460Y56886D01*
X-66736Y56586D01*
X-65953D01*
X-65230Y56886D01*
X-64676Y57440D01*
X-64376Y58163D01*
Y58946D01*
X-64676Y59670D01*
X-65230Y60224D01*
X-65953Y60523D01*
D02*
G37*
G36*
X-81758Y59296D02*
X-82541D01*
X-83264Y58996D01*
X-83818Y58442D01*
X-84118Y57719D01*
Y56936D01*
X-83818Y56212D01*
X-83264Y55658D01*
X-82541Y55359D01*
X-81758D01*
X-81034Y55658D01*
X-80480Y56212D01*
X-80181Y56936D01*
Y57719D01*
X-80480Y58442D01*
X-81034Y58996D01*
X-81758Y59296D01*
D02*
G37*
G36*
X-42994Y52756D02*
X-43620D01*
X-44199Y52516D01*
X-44642Y52073D01*
X-44882Y51494D01*
Y50868D01*
X-44642Y50289D01*
X-44199Y49846D01*
X-43620Y49606D01*
X-42994D01*
X-42415Y49846D01*
X-41972Y50289D01*
X-41732Y50868D01*
Y51494D01*
X-41972Y52073D01*
X-42415Y52516D01*
X-42994Y52756D01*
D02*
G37*
G36*
X-62679Y44882D02*
X-63305D01*
X-63884Y44642D01*
X-64327Y44199D01*
X-64567Y43620D01*
Y42994D01*
X-64327Y42415D01*
X-63884Y41972D01*
X-63305Y41732D01*
X-62679D01*
X-62100Y41972D01*
X-61657Y42415D01*
X-61417Y42994D01*
Y43620D01*
X-61657Y44199D01*
X-62100Y44642D01*
X-62679Y44882D01*
D02*
G37*
G36*
X-105986D02*
X-106613D01*
X-107191Y44642D01*
X-107634Y44199D01*
X-107874Y43620D01*
Y42994D01*
X-107634Y42415D01*
X-107191Y41972D01*
X-106613Y41732D01*
X-105986D01*
X-105407Y41972D01*
X-104964Y42415D01*
X-104724Y42994D01*
Y43620D01*
X-104964Y44199D01*
X-105407Y44642D01*
X-105986Y44882D01*
D02*
G37*
G36*
X-30120Y38386D02*
X-30903D01*
X-31627Y38086D01*
X-32181Y37532D01*
X-32480Y36809D01*
Y36026D01*
X-32181Y35302D01*
X-31627Y34749D01*
X-30903Y34449D01*
X-30120D01*
X-29397Y34749D01*
X-28843Y35302D01*
X-28543Y36026D01*
Y36809D01*
X-28843Y37532D01*
X-29397Y38086D01*
X-30120Y38386D01*
D02*
G37*
G36*
X-35120Y9449D02*
X-35746D01*
X-36325Y9209D01*
X-36768Y8766D01*
X-37008Y8187D01*
Y7561D01*
X-36768Y6982D01*
X-36325Y6539D01*
X-35746Y6299D01*
X-35120D01*
X-34541Y6539D01*
X-34098Y6982D01*
X-33858Y7561D01*
Y8187D01*
X-34098Y8766D01*
X-34541Y9209D01*
X-35120Y9449D01*
D02*
G37*
G36*
X-54805D02*
X-55431D01*
X-56010Y9209D01*
X-56453Y8766D01*
X-56693Y8187D01*
Y7561D01*
X-56453Y6982D01*
X-56010Y6539D01*
X-55431Y6299D01*
X-54805D01*
X-54226Y6539D01*
X-53783Y6982D01*
X-53543Y7561D01*
Y8187D01*
X-53783Y8766D01*
X-54226Y9209D01*
X-54805Y9449D01*
D02*
G37*
G36*
X-74490D02*
X-75116D01*
X-75695Y9209D01*
X-76138Y8766D01*
X-76378Y8187D01*
Y7561D01*
X-76138Y6982D01*
X-75695Y6539D01*
X-75116Y6299D01*
X-74490D01*
X-73911Y6539D01*
X-73468Y6982D01*
X-73228Y7561D01*
Y8187D01*
X-73468Y8766D01*
X-73911Y9209D01*
X-74490Y9449D01*
D02*
G37*
G36*
X42263Y168256D02*
X41537D01*
X40836Y168068D01*
X40208Y167705D01*
X39695Y167192D01*
X39332Y166564D01*
X39144Y165863D01*
Y165137D01*
X39332Y164436D01*
X39695Y163808D01*
X40208Y163295D01*
X40836Y162932D01*
X41537Y162744D01*
X42263D01*
X42964Y162932D01*
X43592Y163295D01*
X44105Y163808D01*
X44468Y164436D01*
X44656Y165137D01*
Y165863D01*
X44468Y166564D01*
X44105Y167192D01*
X43592Y167705D01*
X42964Y168068D01*
X42263Y168256D01*
D02*
G37*
G36*
X-15435Y162992D02*
X-16061D01*
X-16640Y162752D01*
X-17083Y162309D01*
X-17323Y161731D01*
Y161104D01*
X-17083Y160525D01*
X-16640Y160082D01*
X-16061Y159843D01*
X-15435D01*
X-14856Y160082D01*
X-14413Y160525D01*
X-14173Y161104D01*
Y161731D01*
X-14413Y162309D01*
X-14856Y162752D01*
X-15435Y162992D01*
D02*
G37*
G36*
X59063Y161156D02*
X58337D01*
X57636Y160968D01*
X57008Y160605D01*
X56495Y160092D01*
X56132Y159464D01*
X55944Y158763D01*
Y158037D01*
X56132Y157336D01*
X56495Y156708D01*
X57008Y156195D01*
X57636Y155832D01*
X58337Y155644D01*
X59063D01*
X59764Y155832D01*
X60392Y156195D01*
X60905Y156708D01*
X61268Y157336D01*
X61456Y158037D01*
Y158763D01*
X61268Y159464D01*
X60905Y160092D01*
X60392Y160605D01*
X59764Y160968D01*
X59063Y161156D01*
D02*
G37*
G36*
X19978Y158465D02*
X19195D01*
X18472Y158165D01*
X17918Y157611D01*
X17618Y156888D01*
Y156105D01*
X17918Y155381D01*
X18472Y154827D01*
X19195Y154528D01*
X19978D01*
X20702Y154827D01*
X21255Y155381D01*
X21555Y156105D01*
Y156888D01*
X21255Y157611D01*
X20702Y158165D01*
X19978Y158465D01*
D02*
G37*
G36*
X40746Y150591D02*
X39963D01*
X39239Y150291D01*
X38686Y149737D01*
X38386Y149014D01*
Y148231D01*
X38686Y147507D01*
X39239Y146953D01*
X39963Y146653D01*
X40746D01*
X41469Y146953D01*
X42023Y147507D01*
X42323Y148231D01*
Y149014D01*
X42023Y149737D01*
X41469Y150291D01*
X40746Y150591D01*
D02*
G37*
G36*
X16465Y146136D02*
X15682D01*
X14958Y145836D01*
X14404Y145282D01*
X14105Y144559D01*
Y143776D01*
X14404Y143052D01*
X14958Y142499D01*
X15682Y142199D01*
X16465D01*
X17188Y142499D01*
X17742Y143052D01*
X18042Y143776D01*
Y144559D01*
X17742Y145282D01*
X17188Y145836D01*
X16465Y146136D01*
D02*
G37*
G36*
X5092Y141068D02*
X4308D01*
X3585Y140769D01*
X3031Y140215D01*
X2732Y139492D01*
Y138708D01*
X3031Y137985D01*
X3585Y137431D01*
X4308Y137132D01*
X5092D01*
X5815Y137431D01*
X6369Y137985D01*
X6668Y138708D01*
Y139492D01*
X6369Y140215D01*
X5815Y140769D01*
X5092Y141068D01*
D02*
G37*
G36*
X53541Y136811D02*
X52758D01*
X52034Y136511D01*
X51481Y135958D01*
X51181Y135234D01*
Y134451D01*
X51481Y133727D01*
X52034Y133174D01*
X52758Y132874D01*
X53541D01*
X54265Y133174D01*
X54818Y133727D01*
X55118Y134451D01*
Y135234D01*
X54818Y135958D01*
X54265Y136511D01*
X53541Y136811D01*
D02*
G37*
G36*
X30077Y128937D02*
X29372D01*
X28721Y128667D01*
X28223Y128169D01*
X27953Y127518D01*
Y126813D01*
X28223Y126162D01*
X28721Y125663D01*
X29372Y125394D01*
X30077D01*
X30728Y125663D01*
X31226Y126162D01*
X31496Y126813D01*
Y127518D01*
X31226Y128169D01*
X30728Y128667D01*
X30077Y128937D01*
D02*
G37*
G36*
X25746D02*
X25041D01*
X24390Y128667D01*
X23892Y128169D01*
X23622Y127518D01*
Y126813D01*
X23892Y126162D01*
X24390Y125663D01*
X25041Y125394D01*
X25746D01*
X26397Y125663D01*
X26896Y126162D01*
X27165Y126813D01*
Y127518D01*
X26896Y128169D01*
X26397Y128667D01*
X25746Y128937D01*
D02*
G37*
G36*
X30077Y124606D02*
X29372D01*
X28721Y124337D01*
X28223Y123838D01*
X27953Y123187D01*
Y122482D01*
X28223Y121831D01*
X28721Y121333D01*
X29372Y121063D01*
X30077D01*
X30728Y121333D01*
X31226Y121831D01*
X31496Y122482D01*
Y123187D01*
X31226Y123838D01*
X30728Y124337D01*
X30077Y124606D01*
D02*
G37*
G36*
X25746D02*
X25041D01*
X24390Y124337D01*
X23892Y123838D01*
X23622Y123187D01*
Y122482D01*
X23892Y121831D01*
X24390Y121333D01*
X25041Y121063D01*
X25746D01*
X26397Y121333D01*
X26896Y121831D01*
X27165Y122482D01*
Y123187D01*
X26896Y123838D01*
X26397Y124337D01*
X25746Y124606D01*
D02*
G37*
G36*
X4250Y107874D02*
X3624D01*
X3045Y107634D01*
X2602Y107191D01*
X2362Y106613D01*
Y105986D01*
X2602Y105407D01*
X3045Y104964D01*
X3624Y104724D01*
X4250D01*
X4829Y104964D01*
X5272Y105407D01*
X5512Y105986D01*
Y106613D01*
X5272Y107191D01*
X4829Y107634D01*
X4250Y107874D01*
D02*
G37*
G36*
X-19372D02*
X-19998D01*
X-20577Y107634D01*
X-21020Y107191D01*
X-21260Y106613D01*
Y105986D01*
X-21020Y105407D01*
X-20577Y104964D01*
X-19998Y104724D01*
X-19372D01*
X-18793Y104964D01*
X-18350Y105407D01*
X-18110Y105986D01*
Y106613D01*
X-18350Y107191D01*
X-18793Y107634D01*
X-19372Y107874D01*
D02*
G37*
G36*
X19092Y102362D02*
X18309D01*
X17586Y102062D01*
X17032Y101509D01*
X16732Y100785D01*
Y100002D01*
X17032Y99279D01*
X17586Y98725D01*
X18309Y98425D01*
X19092D01*
X19816Y98725D01*
X20370Y99279D01*
X20669Y100002D01*
Y100785D01*
X20370Y101509D01*
X19816Y102062D01*
X19092Y102362D01*
D02*
G37*
G36*
X43620Y96063D02*
X42994D01*
X42415Y95823D01*
X41972Y95380D01*
X41732Y94801D01*
Y94175D01*
X41972Y93596D01*
X42415Y93153D01*
X42994Y92913D01*
X43620D01*
X44199Y93153D01*
X44642Y93596D01*
X44882Y94175D01*
Y94801D01*
X44642Y95380D01*
X44199Y95823D01*
X43620Y96063D01*
D02*
G37*
G36*
X16061D02*
X15435D01*
X14856Y95823D01*
X14413Y95380D01*
X14173Y94801D01*
Y94175D01*
X14413Y93596D01*
X14856Y93153D01*
X15435Y92913D01*
X16061D01*
X16640Y93153D01*
X17083Y93596D01*
X17323Y94175D01*
Y94801D01*
X17083Y95380D01*
X16640Y95823D01*
X16061Y96063D01*
D02*
G37*
G36*
X-7561D02*
X-8187D01*
X-8766Y95823D01*
X-9209Y95380D01*
X-9449Y94801D01*
Y94175D01*
X-9209Y93596D01*
X-8766Y93153D01*
X-8187Y92913D01*
X-7561D01*
X-6982Y93153D01*
X-6539Y93596D01*
X-6299Y94175D01*
Y94801D01*
X-6539Y95380D01*
X-6982Y95823D01*
X-7561Y96063D01*
D02*
G37*
G36*
X7010Y72083D02*
X6226D01*
X5503Y71784D01*
X4949Y71230D01*
X4650Y70506D01*
Y69723D01*
X4949Y69000D01*
X5503Y68446D01*
X6226Y68146D01*
X7010D01*
X7733Y68446D01*
X8287Y69000D01*
X8586Y69723D01*
Y70506D01*
X8287Y71230D01*
X7733Y71784D01*
X7010Y72083D01*
D02*
G37*
G36*
X23029Y71850D02*
X22246D01*
X21523Y71551D01*
X20969Y70997D01*
X20669Y70274D01*
Y69490D01*
X20969Y68767D01*
X21523Y68213D01*
X22246Y67913D01*
X23029D01*
X23753Y68213D01*
X24307Y68767D01*
X24606Y69490D01*
Y70274D01*
X24307Y70997D01*
X23753Y71551D01*
X23029Y71850D01*
D02*
G37*
G36*
X43620Y56693D02*
X42994D01*
X42415Y56453D01*
X41972Y56010D01*
X41732Y55431D01*
Y54805D01*
X41972Y54226D01*
X42415Y53783D01*
X42994Y53543D01*
X43620D01*
X44199Y53783D01*
X44642Y54226D01*
X44882Y54805D01*
Y55431D01*
X44642Y56010D01*
X44199Y56453D01*
X43620Y56693D01*
D02*
G37*
G36*
X16882Y54367D02*
X16098D01*
X15375Y54068D01*
X14821Y53514D01*
X14522Y52790D01*
Y52007D01*
X14821Y51284D01*
X15375Y50730D01*
X16098Y50430D01*
X16882D01*
X17605Y50730D01*
X18159Y51284D01*
X18459Y52007D01*
Y52790D01*
X18159Y53514D01*
X17605Y54068D01*
X16882Y54367D01*
D02*
G37*
G36*
X7151Y50405D02*
X6368D01*
X5644Y50105D01*
X5091Y49551D01*
X4791Y48828D01*
Y48045D01*
X5091Y47321D01*
X5644Y46768D01*
X6368Y46468D01*
X7151D01*
X7875Y46768D01*
X8428Y47321D01*
X8728Y48045D01*
Y48828D01*
X8428Y49551D01*
X7875Y50105D01*
X7151Y50405D01*
D02*
G37*
G36*
X26966Y52194D02*
X26183D01*
X25460Y51894D01*
X24906Y51340D01*
X24606Y50617D01*
Y49834D01*
X24906Y49110D01*
X25281Y48735D01*
X24906Y48359D01*
X24606Y47636D01*
Y46852D01*
X24906Y46129D01*
X25460Y45575D01*
X26183Y45276D01*
X26966D01*
X27690Y45575D01*
X28244Y46129D01*
X28543Y46852D01*
Y47636D01*
X28244Y48359D01*
X27868Y48735D01*
X28244Y49110D01*
X28543Y49834D01*
Y50617D01*
X28244Y51340D01*
X27690Y51894D01*
X26966Y52194D01*
D02*
G37*
G36*
X16882Y46493D02*
X16098D01*
X15375Y46194D01*
X14821Y45640D01*
X14522Y44916D01*
Y44133D01*
X14821Y43410D01*
X15375Y42856D01*
X16098Y42556D01*
X16882D01*
X17605Y42856D01*
X18159Y43410D01*
X18459Y44133D01*
Y44916D01*
X18159Y45640D01*
X17605Y46194D01*
X16882Y46493D01*
D02*
G37*
G36*
X55431Y40945D02*
X54805D01*
X54226Y40705D01*
X53783Y40262D01*
X53543Y39683D01*
Y39057D01*
X53783Y38478D01*
X54226Y38035D01*
X54805Y37795D01*
X55431D01*
X56010Y38035D01*
X56453Y38478D01*
X56693Y39057D01*
Y39683D01*
X56453Y40262D01*
X56010Y40705D01*
X55431Y40945D01*
D02*
G37*
G36*
X35746D02*
X35120D01*
X34541Y40705D01*
X34098Y40262D01*
X33858Y39683D01*
Y39057D01*
X34098Y38478D01*
X34541Y38035D01*
X35120Y37795D01*
X35746D01*
X36325Y38035D01*
X36768Y38478D01*
X37008Y39057D01*
Y39683D01*
X36768Y40262D01*
X36325Y40705D01*
X35746Y40945D01*
D02*
G37*
G36*
X29919Y38386D02*
X29136D01*
X28413Y38086D01*
X27859Y37532D01*
X27559Y36809D01*
Y36026D01*
X27859Y35302D01*
X28413Y34749D01*
X29136Y34449D01*
X29919D01*
X30643Y34749D01*
X31196Y35302D01*
X31496Y36026D01*
Y36809D01*
X31196Y37532D01*
X30643Y38086D01*
X29919Y38386D01*
D02*
G37*
G36*
X2727Y38675D02*
X1943D01*
X1220Y38375D01*
X666Y37821D01*
X367Y37098D01*
Y36315D01*
X666Y35591D01*
X1220Y35037D01*
X1943Y34738D01*
X2638D01*
Y34183D01*
X2938Y33459D01*
X3492Y32906D01*
X4215Y32606D01*
X4998D01*
X5722Y32906D01*
X6276Y33459D01*
X6575Y34183D01*
Y34966D01*
X6276Y35689D01*
X5722Y36243D01*
X4998Y36543D01*
X4304D01*
Y37098D01*
X4004Y37821D01*
X3450Y38375D01*
X2727Y38675D01*
D02*
G37*
G36*
X17235Y31747D02*
X16452D01*
X15729Y31447D01*
X15175Y30893D01*
X14875Y30170D01*
Y29387D01*
X15175Y28663D01*
X15729Y28110D01*
X16452Y27810D01*
X17235D01*
X17959Y28110D01*
X18512Y28663D01*
X18812Y29387D01*
Y30170D01*
X18512Y30893D01*
X17959Y31447D01*
X17235Y31747D01*
D02*
G37*
G36*
X-16345D02*
X-17128D01*
X-17851Y31447D01*
X-18405Y30893D01*
X-18705Y30170D01*
Y29387D01*
X-18405Y28663D01*
X-17851Y28110D01*
X-17128Y27810D01*
X-16345D01*
X-15621Y28110D01*
X-15067Y28663D01*
X-14768Y29387D01*
Y30170D01*
X-15067Y30893D01*
X-15621Y31447D01*
X-16345Y31747D01*
D02*
G37*
G36*
X49442Y22596D02*
X48659D01*
X47936Y22296D01*
X47382Y21742D01*
X47082Y21019D01*
Y20236D01*
X47382Y19512D01*
X47936Y18958D01*
X48659Y18659D01*
X49442D01*
X50166Y18958D01*
X50720Y19512D01*
X51019Y20236D01*
Y21019D01*
X50720Y21742D01*
X50166Y22296D01*
X49442Y22596D01*
D02*
G37*
G36*
X49576Y12438D02*
X48715D01*
X47919Y12109D01*
X47310Y11500D01*
X46980Y10704D01*
Y9842D01*
X47310Y9046D01*
X47919Y8437D01*
X48715Y8107D01*
X49576D01*
X50372Y8437D01*
X50981Y9046D01*
X51311Y9842D01*
Y10704D01*
X50981Y11500D01*
X50372Y12109D01*
X49576Y12438D01*
D02*
G37*
G36*
X31809Y9449D02*
X31183D01*
X30604Y9209D01*
X30161Y8766D01*
X29921Y8187D01*
Y7561D01*
X30161Y6982D01*
X30604Y6539D01*
X31183Y6299D01*
X31809D01*
X32388Y6539D01*
X32831Y6982D01*
X33071Y7561D01*
Y8187D01*
X32831Y8766D01*
X32388Y9209D01*
X31809Y9449D01*
D02*
G37*
G36*
X36258Y7480D02*
X35475D01*
X34751Y7181D01*
X34197Y6627D01*
X33898Y5903D01*
Y5120D01*
X34197Y4397D01*
X34751Y3843D01*
X35475Y3543D01*
X36258D01*
X36981Y3843D01*
X37535Y4397D01*
X37835Y5120D01*
Y5903D01*
X37535Y6627D01*
X36981Y7181D01*
X36258Y7480D01*
D02*
G37*
G36*
X82990Y131496D02*
X82364D01*
X81785Y131256D01*
X81342Y130813D01*
X81102Y130235D01*
Y129608D01*
X81342Y129029D01*
X81785Y128586D01*
X82364Y128347D01*
X82990D01*
X83569Y128586D01*
X84012Y129029D01*
X84252Y129608D01*
Y130235D01*
X84012Y130813D01*
X83569Y131256D01*
X82990Y131496D01*
D02*
G37*
G36*
X106613Y111811D02*
X105986D01*
X105407Y111571D01*
X104964Y111128D01*
X104724Y110549D01*
Y109923D01*
X104964Y109344D01*
X105407Y108901D01*
X105986Y108661D01*
X106613D01*
X107191Y108901D01*
X107634Y109344D01*
X107874Y109923D01*
Y110549D01*
X107634Y111128D01*
X107191Y111571D01*
X106613Y111811D01*
D02*
G37*
G36*
X82990Y100000D02*
X82364D01*
X81785Y99760D01*
X81342Y99317D01*
X81102Y98738D01*
Y98112D01*
X81342Y97533D01*
X81785Y97090D01*
X82364Y96850D01*
X82990D01*
X83569Y97090D01*
X84012Y97533D01*
X84252Y98112D01*
Y98738D01*
X84012Y99317D01*
X83569Y99760D01*
X82990Y100000D01*
D02*
G37*
G36*
X71342Y95896D02*
X70559D01*
X69836Y95596D01*
X69282Y95042D01*
X68982Y94319D01*
Y93536D01*
X69282Y92812D01*
X69836Y92258D01*
X70559Y91959D01*
X71342D01*
X72066Y92258D01*
X72620Y92812D01*
X72919Y93536D01*
Y94319D01*
X72620Y95042D01*
X72066Y95596D01*
X71342Y95896D01*
D02*
G37*
G36*
X106613Y92126D02*
X105986D01*
X105407Y91886D01*
X104964Y91443D01*
X104724Y90864D01*
Y90238D01*
X104964Y89659D01*
X105407Y89216D01*
X105986Y88976D01*
X106613D01*
X107191Y89216D01*
X107634Y89659D01*
X107874Y90238D01*
Y90864D01*
X107634Y91443D01*
X107191Y91886D01*
X106613Y92126D01*
D02*
G37*
G36*
X95549Y85558D02*
X94766D01*
X94043Y85258D01*
X93608Y84823D01*
X93173Y85258D01*
X92449Y85558D01*
X91666D01*
X90943Y85258D01*
X90389Y84705D01*
X90089Y83981D01*
Y83198D01*
X90389Y82474D01*
X90674Y82189D01*
X90389Y81905D01*
X90089Y81181D01*
Y80398D01*
X90389Y79674D01*
X90674Y79389D01*
X90389Y79105D01*
X90089Y78381D01*
Y77598D01*
X90389Y76874D01*
X90943Y76321D01*
X91666Y76021D01*
X92449D01*
X93173Y76321D01*
X93608Y76755D01*
X94043Y76321D01*
X94766Y76021D01*
X95549D01*
X96273Y76321D01*
X96827Y76874D01*
X97126Y77598D01*
Y78381D01*
X96827Y79105D01*
X96542Y79389D01*
X96827Y79674D01*
X97126Y80398D01*
Y81181D01*
X96827Y81905D01*
X96542Y82189D01*
X96827Y82474D01*
X97126Y83198D01*
Y83981D01*
X96827Y84705D01*
X96273Y85258D01*
X95549Y85558D01*
D02*
G37*
G36*
X71259Y77296D02*
X70476D01*
X69752Y76996D01*
X69199Y76442D01*
X68899Y75719D01*
Y74936D01*
X69199Y74212D01*
X69752Y73658D01*
X70476Y73359D01*
X71259D01*
X71982Y73658D01*
X72536Y74212D01*
X72836Y74936D01*
Y75719D01*
X72536Y76442D01*
X71982Y76996D01*
X71259Y77296D01*
D02*
G37*
G36*
X106613Y64567D02*
X105986D01*
X105407Y64327D01*
X104964Y63884D01*
X104724Y63305D01*
Y62679D01*
X104964Y62100D01*
X105407Y61657D01*
X105986Y61417D01*
X106613D01*
X107191Y61657D01*
X107634Y62100D01*
X107874Y62679D01*
Y63305D01*
X107634Y63884D01*
X107191Y64327D01*
X106613Y64567D01*
D02*
G37*
G36*
X69289Y62008D02*
X68506D01*
X67783Y61708D01*
X67229Y61154D01*
X66929Y60431D01*
Y59648D01*
X67229Y58924D01*
X67783Y58371D01*
X68506Y58071D01*
X69289D01*
X70013Y58371D01*
X70566Y58924D01*
X70866Y59648D01*
Y60431D01*
X70566Y61154D01*
X70013Y61708D01*
X69289Y62008D01*
D02*
G37*
G36*
X82990Y60630D02*
X82364D01*
X81785Y60390D01*
X81342Y59947D01*
X81102Y59368D01*
Y58742D01*
X81342Y58163D01*
X81785Y57720D01*
X82364Y57480D01*
X82990D01*
X83569Y57720D01*
X84012Y58163D01*
X84252Y58742D01*
Y59368D01*
X84012Y59947D01*
X83569Y60390D01*
X82990Y60630D01*
D02*
G37*
G36*
X69289Y56102D02*
X68506D01*
X67783Y55803D01*
X67229Y55249D01*
X66929Y54525D01*
Y53742D01*
X67229Y53019D01*
X67783Y52465D01*
X68506Y52165D01*
X69289D01*
X70013Y52465D01*
X70566Y53019D01*
X70866Y53742D01*
Y54525D01*
X70566Y55249D01*
X70013Y55803D01*
X69289Y56102D01*
D02*
G37*
G36*
X106613Y40945D02*
X105986D01*
X105407Y40705D01*
X104964Y40262D01*
X104724Y39683D01*
Y39057D01*
X104964Y38478D01*
X105407Y38035D01*
X105986Y37795D01*
X106613D01*
X107191Y38035D01*
X107634Y38478D01*
X107874Y39057D01*
Y39683D01*
X107634Y40262D01*
X107191Y40705D01*
X106613Y40945D01*
D02*
G37*
G36*
X71179Y9449D02*
X70553D01*
X69974Y9209D01*
X69531Y8766D01*
X69291Y8187D01*
Y7561D01*
X69531Y6982D01*
X69974Y6539D01*
X70553Y6299D01*
X71179D01*
X71758Y6539D01*
X72201Y6982D01*
X72441Y7561D01*
Y8187D01*
X72201Y8766D01*
X71758Y9209D01*
X71179Y9449D01*
D02*
G37*
%LPD*%
D102*
X39500Y157200D02*
D03*
X15245Y122101D02*
D03*
X49213Y134843D02*
D03*
X25591Y137795D02*
D03*
X-66345Y61981D02*
D03*
X46260Y120079D02*
D03*
X42646Y117746D02*
D03*
X-21654Y44291D02*
D03*
X16418Y48462D02*
D03*
X42646Y110856D02*
D03*
X42646Y114301D02*
D03*
X23702Y63278D02*
D03*
X34449Y18701D02*
D03*
X101063Y77989D02*
D03*
X104163Y80789D02*
D03*
X101063D02*
D03*
X104163Y77989D02*
D03*
Y83589D02*
D03*
X101063D02*
D03*
X6618Y63278D02*
D03*
X-32849Y61927D02*
D03*
X-52706Y224422D02*
D03*
X-55949Y211627D02*
D03*
X-82576Y166209D02*
D03*
X-82476Y182783D02*
D03*
X-32949Y79427D02*
D03*
X-32849Y97627D02*
D03*
X91159Y221525D02*
D03*
X87207Y221468D02*
D03*
X91102Y225477D02*
D03*
X87093Y229372D02*
D03*
X91045Y229430D02*
D03*
X87150Y225420D02*
D03*
D104*
X11151Y32827D02*
D03*
X-9449Y32527D02*
D03*
M02*
