G04*
G04 #@! TF.GenerationSoftware,Altium Limited,Altium Designer,22.2.1 (43)*
G04*
G04 Layer_Physical_Order=4*
G04 Layer_Color=16711680*
%FSLAX25Y25*%
%MOIN*%
G70*
G04*
G04 #@! TF.SameCoordinates,54FADD59-BBF9-4A11-9494-7AB4E3D874E1*
G04*
G04*
G04 #@! TF.FilePolarity,Positive*
G04*
G01*
G75*
%ADD10C,0.00984*%
%ADD66C,0.02953*%
%ADD92C,0.01181*%
%ADD93C,0.01500*%
%ADD94C,0.01968*%
%ADD97C,0.02953*%
%ADD98O,0.03937X0.08661*%
%ADD99O,0.03937X0.07087*%
%ADD100R,0.11417X0.11417*%
%ADD101C,0.02756*%
%ADD102C,0.06000*%
%ADD103C,0.02362*%
%ADD104C,0.03937*%
%ADD105C,0.01575*%
%ADD106R,0.05906X0.13386*%
%ADD107R,0.03937X0.13780*%
G36*
X24807Y294089D02*
X26319Y293630D01*
X27713Y292885D01*
X28934Y291883D01*
X29936Y290662D01*
X30681Y289268D01*
X31140Y287756D01*
X31295Y286184D01*
X31182Y285037D01*
X31182D01*
X31148Y284796D01*
X31132Y284547D01*
X30981Y282247D01*
X31148Y279698D01*
X31647Y277192D01*
X32468Y274773D01*
X33598Y272482D01*
X35017Y270358D01*
X36702Y268437D01*
X38622Y266753D01*
X40746Y265333D01*
X43038Y264203D01*
X45457Y263382D01*
X47962Y262884D01*
X50511Y262717D01*
X52803Y262867D01*
X53061Y262884D01*
X53301Y262917D01*
X53301Y262917D01*
X54448Y263030D01*
X56021Y262875D01*
X57533Y262417D01*
X58926Y261672D01*
X60148Y260669D01*
X61150Y259448D01*
X61895Y258055D01*
X62353Y256543D01*
X62500Y255049D01*
X62485Y254970D01*
Y224780D01*
X54357D01*
Y197221D01*
X62485D01*
Y103230D01*
X55312D01*
Y88269D01*
X62485D01*
Y65429D01*
X62500Y65350D01*
X62353Y63856D01*
X61895Y62344D01*
X61150Y60951D01*
X60148Y59730D01*
X58926Y58727D01*
X57533Y57982D01*
X56021Y57524D01*
X54448Y57369D01*
X53301Y57482D01*
Y57482D01*
X53061Y57515D01*
X52812Y57531D01*
X50511Y57682D01*
X47962Y57515D01*
X45457Y57017D01*
X43038Y56196D01*
X40746Y55066D01*
X38622Y53646D01*
X36702Y51962D01*
X35017Y50041D01*
X33598Y47917D01*
X32468Y45626D01*
X31647Y43207D01*
X31148Y40701D01*
X30981Y38152D01*
X31132Y35860D01*
X31148Y35603D01*
X31182Y35362D01*
X31182Y35362D01*
X31295Y34215D01*
X31140Y32643D01*
X30681Y31131D01*
X29936Y29738D01*
X28934Y28516D01*
X27713Y27514D01*
X26319Y26769D01*
X24807Y26311D01*
X23314Y26163D01*
X23235Y26179D01*
X22883Y26109D01*
X-26861D01*
X-27082Y26557D01*
X-27002Y26661D01*
X-26724Y27332D01*
X-26630Y28051D01*
Y32776D01*
X-26724Y33495D01*
X-27002Y34165D01*
X-27444Y34741D01*
X-28020Y35183D01*
X-28690Y35461D01*
X-29409Y35555D01*
X-30129Y35461D01*
X-30799Y35183D01*
X-31375Y34741D01*
X-31817Y34165D01*
X-32094Y33495D01*
X-32189Y32776D01*
Y28051D01*
X-32094Y27332D01*
X-31817Y26661D01*
X-31737Y26557D01*
X-31958Y26109D01*
X-32859D01*
Y48524D01*
X-32920Y48831D01*
X-33094Y49091D01*
X-33354Y49265D01*
X-33661Y49326D01*
X-34675D01*
X-34700Y49331D01*
X-69027D01*
X-69052Y49326D01*
X-70039D01*
X-70347Y49265D01*
X-70607Y49091D01*
X-70781Y48831D01*
X-70842Y48524D01*
Y26109D01*
X-71743D01*
X-71964Y26557D01*
X-71884Y26661D01*
X-71606Y27332D01*
X-71512Y28051D01*
Y32776D01*
X-71606Y33495D01*
X-71884Y34165D01*
X-72326Y34741D01*
X-72901Y35183D01*
X-73572Y35461D01*
X-74291Y35555D01*
X-75011Y35461D01*
X-75681Y35183D01*
X-76257Y34741D01*
X-76699Y34165D01*
X-76976Y33495D01*
X-77071Y32776D01*
Y28051D01*
X-76976Y27332D01*
X-76699Y26661D01*
X-76619Y26557D01*
X-76840Y26109D01*
X-126584D01*
X-126937Y26179D01*
X-127426Y26204D01*
X-128509Y26311D01*
X-130021Y26769D01*
X-131414Y27514D01*
X-132636Y28516D01*
X-133638Y29738D01*
X-134383Y31131D01*
X-134841Y32643D01*
X-134996Y34215D01*
X-134883Y35362D01*
X-134883D01*
X-134850Y35603D01*
X-134834Y35852D01*
X-134683Y38152D01*
X-134850Y40701D01*
X-135348Y43207D01*
X-136170Y45626D01*
X-137300Y47917D01*
X-138719Y50041D01*
X-140403Y51962D01*
X-142324Y53646D01*
X-144448Y55066D01*
X-146739Y56196D01*
X-149158Y57017D01*
X-151664Y57515D01*
X-154213Y57682D01*
X-156505Y57532D01*
X-156762Y57515D01*
X-157003Y57482D01*
X-157003Y57482D01*
X-158150Y57369D01*
X-159722Y57524D01*
X-161234Y57982D01*
X-162628Y58727D01*
X-163849Y59730D01*
X-164851Y60951D01*
X-165596Y62344D01*
X-166055Y63856D01*
X-166202Y65350D01*
X-166186Y65429D01*
Y254970D01*
X-166202Y255049D01*
X-166055Y256543D01*
X-165596Y258055D01*
X-164851Y259448D01*
X-163849Y260669D01*
X-162628Y261672D01*
X-161234Y262417D01*
X-159722Y262875D01*
X-158150Y263030D01*
X-157003Y262917D01*
Y262917D01*
X-156762Y262884D01*
X-156514Y262868D01*
X-154213Y262717D01*
X-151664Y262884D01*
X-149158Y263382D01*
X-146739Y264203D01*
X-144448Y265333D01*
X-142324Y266753D01*
X-140403Y268437D01*
X-138719Y270358D01*
X-137300Y272482D01*
X-136170Y274773D01*
X-135348Y277192D01*
X-134850Y279698D01*
X-134683Y282247D01*
X-134833Y284539D01*
X-134850Y284796D01*
X-134883Y285037D01*
X-134883Y285037D01*
X-134996Y286184D01*
X-134841Y287756D01*
X-134383Y289268D01*
X-133638Y290662D01*
X-132636Y291883D01*
X-131414Y292885D01*
X-130021Y293630D01*
X-128509Y294089D01*
X-127016Y294236D01*
X-126937Y294220D01*
X-109912D01*
Y269291D01*
X-109851Y268984D01*
X-109677Y268724D01*
X-109416Y268550D01*
X-109109Y268489D01*
X9001D01*
X9308Y268550D01*
X9569Y268724D01*
X9743Y268984D01*
X9804Y269291D01*
Y294220D01*
X23235D01*
X23314Y294236D01*
X24807Y294089D01*
D02*
G37*
%LPC*%
G36*
X33734Y259405D02*
X32833D01*
X32002Y259061D01*
X31884Y258943D01*
X21870Y258906D01*
X21527Y258837D01*
X21185Y258769D01*
X21182Y258767D01*
X21179Y258766D01*
X20890Y258571D01*
X20599Y258377D01*
X17314Y255092D01*
X16923Y254930D01*
X16369Y254376D01*
X16320Y254259D01*
X15779D01*
X15755Y254319D01*
X15201Y254873D01*
X14477Y255173D01*
X13694D01*
X12971Y254873D01*
X12417Y254319D01*
X12117Y253596D01*
Y252813D01*
X12417Y252089D01*
X12971Y251535D01*
X13088Y251487D01*
Y250946D01*
X13028Y250921D01*
X12474Y250367D01*
X12174Y249644D01*
Y248861D01*
X12474Y248137D01*
X13028Y247583D01*
X13145Y247535D01*
Y246994D01*
X13085Y246969D01*
X12531Y246415D01*
X12231Y245692D01*
Y244908D01*
X12531Y244185D01*
X13085Y243631D01*
X13808Y243332D01*
X14592D01*
X15315Y243631D01*
X15869Y244185D01*
X15917Y244302D01*
X16458D01*
X16483Y244242D01*
X17037Y243688D01*
X17761Y243389D01*
X18544D01*
X19267Y243688D01*
X19821Y244242D01*
X20121Y244966D01*
Y245749D01*
X19821Y246472D01*
X19267Y247026D01*
X19150Y247074D01*
Y247616D01*
X19210Y247640D01*
X19461Y247891D01*
X19556Y247955D01*
X19620Y248050D01*
X19764Y248194D01*
X19842Y248382D01*
X19948Y248541D01*
X19985Y248728D01*
X20064Y248918D01*
Y249123D01*
X20085Y249232D01*
X20064Y249341D01*
Y249701D01*
X19764Y250424D01*
X19210Y250978D01*
X19093Y251027D01*
Y251568D01*
X19153Y251592D01*
X19707Y252146D01*
X19869Y252538D01*
X22627Y255296D01*
X31512Y255329D01*
X31713Y255294D01*
X31924Y255300D01*
X32002Y255223D01*
X32833Y254878D01*
X33734D01*
X34566Y255223D01*
X35203Y255859D01*
X35548Y256691D01*
Y257592D01*
X35203Y258424D01*
X34566Y259061D01*
X33734Y259405D01*
D02*
G37*
G36*
X-104165Y250763D02*
X-104948D01*
X-105672Y250463D01*
X-106226Y249909D01*
X-106525Y249186D01*
Y248403D01*
X-106226Y247679D01*
X-105672Y247126D01*
X-104948Y246826D01*
X-104165D01*
X-103442Y247126D01*
X-102888Y247679D01*
X-102588Y248403D01*
Y249186D01*
X-102888Y249909D01*
X-103442Y250463D01*
X-104165Y250763D01*
D02*
G37*
G36*
X-79741Y249604D02*
X-80524D01*
X-81248Y249305D01*
X-81802Y248751D01*
X-82101Y248027D01*
Y247244D01*
X-81802Y246521D01*
X-81248Y245967D01*
X-80524Y245667D01*
X-79741D01*
X-79018Y245967D01*
X-78654Y246331D01*
X-66338D01*
X-65566Y245560D01*
Y245278D01*
X-65266Y244554D01*
X-64713Y244001D01*
X-63989Y243701D01*
X-63206D01*
X-62482Y244001D01*
X-61929Y244554D01*
X-61629Y245278D01*
Y246061D01*
X-61929Y246784D01*
X-62482Y247338D01*
X-63206Y247638D01*
X-63954D01*
X-64875Y248558D01*
X-65298Y248841D01*
X-65797Y248940D01*
X-78654D01*
X-79018Y249305D01*
X-79741Y249604D01*
D02*
G37*
G36*
X-39566Y247654D02*
X-45275D01*
Y241945D01*
X-39566D01*
Y247654D01*
D02*
G37*
G36*
X-47275D02*
X-52983D01*
Y241945D01*
X-47275D01*
Y247654D01*
D02*
G37*
G36*
X-107408Y237968D02*
X-108192D01*
X-108915Y237669D01*
X-109469Y237115D01*
X-109768Y236392D01*
Y235608D01*
X-109469Y234885D01*
X-108915Y234331D01*
X-108192Y234032D01*
X-107408D01*
X-106685Y234331D01*
X-106131Y234885D01*
X-105832Y235608D01*
Y236392D01*
X-106131Y237115D01*
X-106685Y237669D01*
X-107408Y237968D01*
D02*
G37*
G36*
X-20908Y225969D02*
X-21692D01*
X-22415Y225669D01*
X-22663Y225421D01*
X-29921D01*
X-30459Y225314D01*
X-30915Y225009D01*
X-66953Y188971D01*
X-67258Y188515D01*
X-67365Y187977D01*
Y153122D01*
X-104894Y115594D01*
X-105198Y115138D01*
X-105305Y114600D01*
Y105179D01*
X-105569Y104915D01*
X-105868Y104192D01*
Y103408D01*
X-105569Y102685D01*
X-105015Y102131D01*
X-104292Y101831D01*
X-103508D01*
X-102785Y102131D01*
X-102231Y102685D01*
X-101932Y103408D01*
Y104192D01*
X-102231Y104915D01*
X-102495Y105179D01*
Y114018D01*
X-64966Y151547D01*
X-64662Y152003D01*
X-64555Y152540D01*
Y187395D01*
X-29339Y222611D01*
X-22695D01*
X-22415Y222331D01*
X-21692Y222031D01*
X-20908D01*
X-20185Y222331D01*
X-19631Y222885D01*
X-19331Y223608D01*
Y224392D01*
X-19631Y225115D01*
X-20185Y225669D01*
X-20908Y225969D01*
D02*
G37*
G36*
X-21208Y220069D02*
X-21992D01*
X-22715Y219769D01*
X-22979Y219505D01*
X-27963D01*
X-28501Y219398D01*
X-28956Y219093D01*
X-62229Y185821D01*
X-62533Y185365D01*
X-62640Y184828D01*
Y150147D01*
X-100493Y112294D01*
X-100798Y111838D01*
X-100905Y111300D01*
Y91082D01*
X-103718Y88269D01*
X-104092D01*
X-104815Y87969D01*
X-105369Y87415D01*
X-105668Y86692D01*
Y85908D01*
X-105369Y85185D01*
X-104815Y84631D01*
X-104092Y84332D01*
X-103308D01*
X-102585Y84631D01*
X-102031Y85185D01*
X-101732Y85908D01*
Y86282D01*
X-98507Y89507D01*
X-98202Y89962D01*
X-98095Y90500D01*
Y110718D01*
X-87130Y121683D01*
X-86589Y121517D01*
X-86369Y120985D01*
X-85815Y120431D01*
X-85092Y120132D01*
X-84308D01*
X-83585Y120431D01*
X-83031Y120985D01*
X-82731Y121708D01*
Y122492D01*
X-83031Y123215D01*
X-83585Y123769D01*
X-84117Y123989D01*
X-84283Y124530D01*
X-60242Y148571D01*
X-59937Y149027D01*
X-59830Y149565D01*
Y184246D01*
X-27381Y216695D01*
X-22979D01*
X-22715Y216431D01*
X-21992Y216131D01*
X-21208D01*
X-20485Y216431D01*
X-19931Y216985D01*
X-19632Y217708D01*
Y218492D01*
X-19931Y219215D01*
X-20485Y219769D01*
X-21208Y220069D01*
D02*
G37*
G36*
X41000Y213908D02*
X36500D01*
X35617Y213732D01*
X34868Y213232D01*
X34368Y212483D01*
X34192Y211600D01*
X34368Y210717D01*
X34868Y209968D01*
X35617Y209468D01*
X36500Y209292D01*
X41000D01*
X41223Y209336D01*
X41450D01*
X41660Y209423D01*
X41883Y209468D01*
X42072Y209594D01*
X42282Y209681D01*
X42443Y209842D01*
X42632Y209968D01*
X42758Y210157D01*
X42919Y210318D01*
X43006Y210528D01*
X43132Y210717D01*
X43177Y210940D01*
X43264Y211150D01*
Y211377D01*
X43308Y211600D01*
X43264Y211823D01*
Y212050D01*
X43177Y212260D01*
X43132Y212483D01*
X43006Y212672D01*
X42919Y212882D01*
X42758Y213043D01*
X42632Y213232D01*
X42443Y213358D01*
X42282Y213519D01*
X42072Y213606D01*
X41883Y213732D01*
X41660Y213777D01*
X41450Y213864D01*
X41223D01*
X41000Y213908D01*
D02*
G37*
G36*
X-131108Y208869D02*
X-131892D01*
X-132615Y208569D01*
X-133169Y208015D01*
X-133468Y207292D01*
Y206508D01*
X-133169Y205785D01*
X-132615Y205231D01*
X-131892Y204931D01*
X-131108D01*
X-130385Y205231D01*
X-129831Y205785D01*
X-129532Y206508D01*
Y207292D01*
X-129831Y208015D01*
X-130385Y208569D01*
X-131108Y208869D01*
D02*
G37*
G36*
X-34849Y192968D02*
X-35632D01*
X-36355Y192669D01*
X-36909Y192115D01*
X-36950Y192017D01*
X-37491D01*
X-37531Y192115D01*
X-38085Y192669D01*
X-38808Y192968D01*
X-39592D01*
X-40315Y192669D01*
X-40869Y192115D01*
X-41168Y191392D01*
Y190608D01*
X-40869Y189885D01*
X-40315Y189331D01*
X-39805Y189120D01*
Y68274D01*
X-39938Y68215D01*
X-40539Y68477D01*
X-40656Y68757D01*
X-41209Y69311D01*
X-41933Y69611D01*
X-42716D01*
X-43440Y69311D01*
X-43993Y68757D01*
X-44293Y68034D01*
Y67251D01*
X-43993Y66527D01*
X-43440Y65974D01*
X-42975Y65781D01*
X-43074Y65281D01*
X-51508D01*
X-58449Y72223D01*
X-58873Y72505D01*
X-59372Y72605D01*
X-59738D01*
X-60102Y72969D01*
X-60825Y73269D01*
X-61608D01*
X-62332Y72969D01*
X-62886Y72415D01*
X-63185Y71692D01*
Y70908D01*
X-62886Y70185D01*
X-62332Y69631D01*
X-61608Y69332D01*
X-60825D01*
X-60102Y69631D01*
X-59825Y69908D01*
X-52971Y63054D01*
X-52548Y62771D01*
X-52048Y62672D01*
X-41535D01*
X-41035Y62771D01*
X-40612Y63054D01*
X-39834Y63832D01*
X-39254D01*
X-39155Y63712D01*
X-39003Y63375D01*
X-40374Y62005D01*
X-58691D01*
X-62146Y65460D01*
Y65975D01*
X-62445Y66698D01*
X-62999Y67252D01*
X-63723Y67552D01*
X-64506D01*
X-65229Y67252D01*
X-65783Y66698D01*
X-66083Y65975D01*
Y65192D01*
X-65783Y64468D01*
X-65229Y63915D01*
X-64506Y63615D01*
X-63991D01*
X-60407Y60031D01*
X-60666Y59583D01*
X-60937Y59656D01*
X-61663D01*
X-62363Y59468D01*
X-62992Y59105D01*
X-63505Y58592D01*
X-63868Y57964D01*
X-64056Y57263D01*
Y56537D01*
X-63868Y55836D01*
X-63505Y55208D01*
X-62992Y54694D01*
X-62363Y54332D01*
X-61663Y54144D01*
X-60937D01*
X-60236Y54332D01*
X-59608Y54694D01*
X-59095Y55208D01*
X-58732Y55836D01*
X-58544Y56537D01*
Y57263D01*
X-58732Y57964D01*
X-59095Y58592D01*
X-59427Y58925D01*
X-59269Y59303D01*
X-59191Y59395D01*
X-43055D01*
X-42864Y58934D01*
X-42905Y58892D01*
X-43268Y58264D01*
X-43456Y57563D01*
Y56837D01*
X-43268Y56136D01*
X-42905Y55508D01*
X-42392Y54995D01*
X-41764Y54632D01*
X-41063Y54444D01*
X-40337D01*
X-39636Y54632D01*
X-39008Y54995D01*
X-38495Y55508D01*
X-38132Y56136D01*
X-37944Y56837D01*
Y57563D01*
X-38132Y58264D01*
X-38495Y58892D01*
X-38832Y59229D01*
X-38897Y59677D01*
X-38816Y59872D01*
X-34511Y64178D01*
X-34228Y64601D01*
X-34128Y65101D01*
Y71355D01*
X-33764Y71720D01*
X-33465Y72443D01*
Y73226D01*
X-33764Y73950D01*
X-34032Y74217D01*
Y189424D01*
X-33571Y189885D01*
X-33272Y190608D01*
Y191392D01*
X-33571Y192115D01*
X-34125Y192669D01*
X-34849Y192968D01*
D02*
G37*
G36*
X-131208Y192868D02*
X-131992D01*
X-132715Y192569D01*
X-133269Y192015D01*
X-133569Y191292D01*
Y190508D01*
X-133269Y189785D01*
X-132715Y189231D01*
X-131992Y188932D01*
X-131208D01*
X-130485Y189231D01*
X-129931Y189785D01*
X-129631Y190508D01*
Y191292D01*
X-129931Y192015D01*
X-130485Y192569D01*
X-131208Y192868D01*
D02*
G37*
G36*
X-8258Y259219D02*
X-9042D01*
X-9765Y258919D01*
X-10319Y258365D01*
X-10618Y257642D01*
Y256858D01*
X-10319Y256135D01*
X-9765Y255581D01*
X-9042Y255281D01*
X-8668D01*
X6195Y240418D01*
Y176700D01*
X6302Y176162D01*
X6607Y175707D01*
X45097Y137216D01*
Y125906D01*
X44894Y125490D01*
X44597Y125490D01*
X42926D01*
Y117600D01*
Y109710D01*
X44597D01*
X44894Y109710D01*
X45097Y109294D01*
Y108300D01*
X45158Y107993D01*
X45332Y107732D01*
X45593Y107558D01*
X45900Y107497D01*
X53500D01*
X53807Y107558D01*
X54068Y107732D01*
X54242Y107993D01*
X54303Y108300D01*
Y138644D01*
X54242Y138951D01*
X54068Y139211D01*
X53807Y139386D01*
X53500Y139447D01*
X52106D01*
Y140005D01*
X52219Y140118D01*
X52564Y140950D01*
Y141850D01*
X52219Y142682D01*
X51582Y143319D01*
X50750Y143664D01*
X49850D01*
X49018Y143319D01*
X48381Y142682D01*
X48036Y141850D01*
Y140950D01*
X48381Y140118D01*
X48494Y140005D01*
Y139447D01*
X46840D01*
X9005Y177282D01*
Y181804D01*
X9505Y182011D01*
X9585Y181931D01*
X10308Y181632D01*
X11092D01*
X11815Y181931D01*
X12369Y182485D01*
X12668Y183208D01*
Y183992D01*
X12369Y184715D01*
X11871Y185213D01*
X11840Y185500D01*
X11871Y185787D01*
X12369Y186285D01*
X12668Y187008D01*
Y187792D01*
X12369Y188515D01*
X11815Y189069D01*
X11092Y189368D01*
X10308D01*
X9585Y189069D01*
X9505Y188989D01*
X9005Y189196D01*
Y241000D01*
X8898Y241538D01*
X8593Y241993D01*
X-6681Y257268D01*
Y257642D01*
X-6981Y258365D01*
X-7535Y258919D01*
X-8258Y259219D01*
D02*
G37*
G36*
X36600Y175766D02*
X36197Y175599D01*
X35501Y174903D01*
X35334Y174500D01*
X36600D01*
Y175766D01*
D02*
G37*
G36*
X38600D02*
Y173500D01*
Y171234D01*
X39003Y171401D01*
X39196Y171594D01*
X42500D01*
X43191Y171731D01*
X43777Y172123D01*
X44169Y172709D01*
X44306Y173400D01*
X44169Y174091D01*
X43777Y174677D01*
X43191Y175069D01*
X42500Y175206D01*
X39396D01*
X39003Y175599D01*
X38600Y175766D01*
D02*
G37*
G36*
X36600Y172500D02*
X35334D01*
X35501Y172097D01*
X36197Y171401D01*
X36600Y171234D01*
Y172500D01*
D02*
G37*
G36*
X-88408Y161768D02*
X-89192D01*
X-89915Y161469D01*
X-90469Y160915D01*
X-90768Y160192D01*
Y159408D01*
X-90469Y158685D01*
X-89915Y158131D01*
X-89192Y157832D01*
X-88718D01*
X-84368Y153482D01*
Y153208D01*
X-84069Y152485D01*
X-83515Y151931D01*
X-82792Y151631D01*
X-82008D01*
X-81285Y151931D01*
X-80731Y152485D01*
X-80431Y153208D01*
Y153992D01*
X-80731Y154715D01*
X-81285Y155269D01*
X-82008Y155569D01*
X-82482D01*
X-86831Y159918D01*
Y160192D01*
X-87131Y160915D01*
X-87685Y161469D01*
X-88408Y161768D01*
D02*
G37*
G36*
X52349Y168861D02*
X50643D01*
X48969Y168528D01*
X47393Y167875D01*
X45974Y166927D01*
X44768Y165721D01*
X43820Y164302D01*
X43167Y162726D01*
X42834Y161053D01*
Y159346D01*
X43167Y157673D01*
X43820Y156097D01*
X44768Y154678D01*
X45974Y153472D01*
X47393Y152524D01*
X48969Y151871D01*
X50643Y151538D01*
X52349D01*
X54022Y151871D01*
X55598Y152524D01*
X57017Y153472D01*
X58223Y154678D01*
X59171Y156097D01*
X59824Y157673D01*
X60157Y159346D01*
Y161053D01*
X59824Y162726D01*
X59171Y164302D01*
X58223Y165721D01*
X57017Y166927D01*
X55598Y167875D01*
X54022Y168528D01*
X52349Y168861D01*
D02*
G37*
G36*
X-154344D02*
X-156050D01*
X-157724Y168528D01*
X-159300Y167875D01*
X-160719Y166927D01*
X-161925Y165721D01*
X-162873Y164302D01*
X-163526Y162726D01*
X-163859Y161053D01*
Y159346D01*
X-163526Y157673D01*
X-162873Y156097D01*
X-161925Y154678D01*
X-160719Y153472D01*
X-159300Y152524D01*
X-157724Y151871D01*
X-156050Y151538D01*
X-154344D01*
X-152671Y151871D01*
X-151094Y152524D01*
X-149676Y153472D01*
X-148469Y154678D01*
X-147522Y156097D01*
X-146869Y157673D01*
X-146536Y159346D01*
Y161053D01*
X-146869Y162726D01*
X-147522Y164302D01*
X-148469Y165721D01*
X-149676Y166927D01*
X-151094Y167875D01*
X-152671Y168528D01*
X-154344Y168861D01*
D02*
G37*
G36*
X19892Y137369D02*
X19108D01*
X18385Y137069D01*
X17831Y136515D01*
X17531Y135792D01*
Y135008D01*
X17831Y134285D01*
X18385Y133731D01*
X19108Y133431D01*
X19892D01*
X20615Y133731D01*
X21169Y134285D01*
X21468Y135008D01*
Y135792D01*
X21169Y136515D01*
X20615Y137069D01*
X19892Y137369D01*
D02*
G37*
G36*
X40926Y125490D02*
X38958D01*
Y118600D01*
X40926D01*
Y125490D01*
D02*
G37*
G36*
X-47737Y117856D02*
X-48463D01*
X-49164Y117668D01*
X-49792Y117305D01*
X-50305Y116792D01*
X-50668Y116164D01*
X-50856Y115463D01*
Y114737D01*
X-50668Y114036D01*
X-50305Y113408D01*
X-49792Y112895D01*
X-49164Y112532D01*
X-48463Y112344D01*
X-47737D01*
X-47036Y112532D01*
X-46408Y112895D01*
X-45895Y113408D01*
X-45532Y114036D01*
X-45344Y114737D01*
Y115463D01*
X-45532Y116164D01*
X-45895Y116792D01*
X-46408Y117305D01*
X-47036Y117668D01*
X-47737Y117856D01*
D02*
G37*
G36*
X40926Y116600D02*
X38958D01*
Y109710D01*
X40926D01*
Y116600D01*
D02*
G37*
G36*
X-84408Y106369D02*
X-85192D01*
X-85915Y106069D01*
X-86469Y105515D01*
X-86769Y104792D01*
Y104008D01*
X-86469Y103285D01*
X-85915Y102731D01*
X-85192Y102431D01*
X-84408D01*
X-83685Y102731D01*
X-83131Y103285D01*
X-82832Y104008D01*
Y104792D01*
X-83131Y105515D01*
X-83685Y106069D01*
X-84408Y106369D01*
D02*
G37*
G36*
X36414Y103230D02*
X28934D01*
Y88269D01*
X36414D01*
Y103230D01*
D02*
G37*
G36*
X-19505Y261436D02*
X-20288D01*
X-21012Y261136D01*
X-21565Y260582D01*
X-21865Y259859D01*
Y259076D01*
X-21565Y258352D01*
X-21302Y258088D01*
Y247597D01*
X-21195Y247059D01*
X-20890Y246603D01*
X-4262Y229975D01*
Y88423D01*
X-4483Y88219D01*
X-4983Y88439D01*
Y224588D01*
X-5090Y225126D01*
X-5395Y225582D01*
X-13706Y233893D01*
X-14162Y234198D01*
X-14700Y234305D01*
X-39566D01*
Y239945D01*
X-52983D01*
Y234305D01*
X-77360D01*
X-77898Y234198D01*
X-78354Y233893D01*
X-79987Y232260D01*
X-80360D01*
X-81084Y231960D01*
X-81637Y231407D01*
X-81937Y230683D01*
Y229900D01*
X-81637Y229176D01*
X-81084Y228623D01*
X-80360Y228323D01*
X-79577D01*
X-78853Y228623D01*
X-78300Y229176D01*
X-78000Y229900D01*
Y230273D01*
X-76778Y231495D01*
X-34873D01*
X-34721Y230995D01*
X-34873Y230893D01*
X-72465Y193301D01*
X-72769Y192846D01*
X-72876Y192308D01*
Y155310D01*
X-104218Y123969D01*
X-104592D01*
X-105315Y123669D01*
X-105869Y123115D01*
X-106168Y122392D01*
Y121608D01*
X-105869Y120885D01*
X-105315Y120331D01*
X-104592Y120031D01*
X-103808D01*
X-103085Y120331D01*
X-102531Y120885D01*
X-102232Y121608D01*
Y121982D01*
X-70478Y153735D01*
X-70174Y154191D01*
X-70066Y154728D01*
Y191726D01*
X-33298Y228495D01*
X-22479D01*
X-22215Y228231D01*
X-21492Y227931D01*
X-20708D01*
X-19985Y228231D01*
X-19431Y228785D01*
X-19131Y229508D01*
Y230292D01*
X-19431Y231015D01*
X-19449Y231033D01*
X-19258Y231495D01*
X-15282D01*
X-7793Y224006D01*
Y82930D01*
X-8000Y82829D01*
X-8293Y82777D01*
X-8785Y83269D01*
X-9508Y83569D01*
X-10292D01*
X-11015Y83269D01*
X-11569Y82715D01*
X-11868Y81992D01*
Y81208D01*
X-11569Y80485D01*
X-11015Y79931D01*
X-10292Y79632D01*
X-9508D01*
X-8785Y79931D01*
X-8293Y80423D01*
X-8000Y80371D01*
X-7793Y80269D01*
Y75286D01*
X-7686Y74748D01*
X-7382Y74293D01*
X22102Y44809D01*
Y37416D01*
X21838Y37152D01*
X21538Y36429D01*
Y35646D01*
X21838Y34922D01*
X22392Y34369D01*
X23115Y34069D01*
X23898D01*
X24622Y34369D01*
X25175Y34922D01*
X25475Y35646D01*
Y36429D01*
X25175Y37152D01*
X24912Y37416D01*
Y45391D01*
X24805Y45929D01*
X24500Y46385D01*
X-4983Y75868D01*
Y85550D01*
X-4678Y85680D01*
X-4483Y85703D01*
X-4036Y85255D01*
Y85231D01*
X-3929Y84693D01*
X-3624Y84237D01*
X13880Y66733D01*
Y66408D01*
X14179Y65685D01*
X14733Y65131D01*
X15457Y64832D01*
X16240D01*
X16963Y65131D01*
X17517Y65685D01*
X17817Y66408D01*
Y67192D01*
X17517Y67915D01*
X16963Y68469D01*
X16240Y68769D01*
X15818D01*
X-1179Y85766D01*
X-888Y86469D01*
Y87252D01*
X-1188Y87975D01*
X-1452Y88239D01*
Y112915D01*
X-990Y113106D01*
X-915Y113031D01*
X-192Y112732D01*
X592D01*
X1315Y113031D01*
X1869Y113585D01*
X2169Y114308D01*
Y115001D01*
X4085Y116918D01*
X4389Y117373D01*
X4496Y117911D01*
Y233322D01*
X4389Y233860D01*
X4085Y234316D01*
X-5969Y244369D01*
Y244742D01*
X-6268Y245466D01*
X-6822Y246019D01*
X-7546Y246319D01*
X-8329D01*
X-9052Y246019D01*
X-9606Y245466D01*
X-9906Y244742D01*
Y243959D01*
X-9606Y243235D01*
X-9052Y242682D01*
X-8329Y242382D01*
X-7955D01*
X1686Y232740D01*
Y118493D01*
X-138Y116668D01*
X-192D01*
X-915Y116369D01*
X-990Y116294D01*
X-1452Y116486D01*
Y230557D01*
X-1559Y231094D01*
X-1863Y231550D01*
X-18492Y248179D01*
Y258088D01*
X-18228Y258352D01*
X-17928Y259076D01*
Y259859D01*
X-18228Y260582D01*
X-18782Y261136D01*
X-19505Y261436D01*
D02*
G37*
G36*
X-84308Y88569D02*
X-85092D01*
X-85815Y88269D01*
X-86369Y87715D01*
X-86668Y86992D01*
Y86208D01*
X-86369Y85485D01*
X-85815Y84931D01*
X-85092Y84632D01*
X-84308D01*
X-83585Y84931D01*
X-83031Y85485D01*
X-82731Y86208D01*
Y86992D01*
X-83031Y87715D01*
X-83585Y88269D01*
X-84308Y88569D01*
D02*
G37*
G36*
X2192Y88368D02*
X1408D01*
X685Y88069D01*
X131Y87515D01*
X-169Y86792D01*
Y86008D01*
X131Y85285D01*
X685Y84731D01*
X1408Y84431D01*
X2192D01*
X2915Y84731D01*
X3469Y85285D01*
X3768Y86008D01*
Y86792D01*
X3469Y87515D01*
X2915Y88069D01*
X2192Y88368D01*
D02*
G37*
G36*
X-117804Y88322D02*
X-118587D01*
X-119311Y88022D01*
X-119864Y87468D01*
X-120164Y86745D01*
Y85962D01*
X-119864Y85238D01*
X-119311Y84685D01*
X-118587Y84385D01*
X-117804D01*
X-117080Y84685D01*
X-116527Y85238D01*
X-116227Y85962D01*
Y86745D01*
X-116527Y87468D01*
X-117080Y88022D01*
X-117804Y88322D01*
D02*
G37*
G36*
X-45208Y86468D02*
X-45992D01*
X-46715Y86169D01*
X-47269Y85615D01*
X-47569Y84892D01*
Y84108D01*
X-47269Y83385D01*
X-46715Y82831D01*
X-45992Y82531D01*
X-45208D01*
X-44485Y82831D01*
X-43931Y83385D01*
X-43632Y84108D01*
Y84892D01*
X-43931Y85615D01*
X-44485Y86169D01*
X-45208Y86468D01*
D02*
G37*
G36*
X-15455Y84500D02*
X-16238D01*
X-16961Y84200D01*
X-17515Y83647D01*
X-17815Y82923D01*
Y82140D01*
X-17515Y81416D01*
X-16961Y80863D01*
X-16238Y80563D01*
X-15455D01*
X-14731Y80863D01*
X-14177Y81416D01*
X-13878Y82140D01*
Y82923D01*
X-14177Y83647D01*
X-14731Y84200D01*
X-15455Y84500D01*
D02*
G37*
G36*
X-79608Y225368D02*
X-80392D01*
X-81115Y225069D01*
X-81669Y224515D01*
X-81968Y223792D01*
Y223418D01*
X-111393Y193993D01*
X-111698Y193538D01*
X-111805Y193000D01*
Y105882D01*
X-134018Y83669D01*
X-134392D01*
X-135115Y83369D01*
X-135669Y82815D01*
X-135968Y82092D01*
Y81308D01*
X-135669Y80585D01*
X-135115Y80031D01*
X-134392Y79732D01*
X-133608D01*
X-132885Y80031D01*
X-132331Y80585D01*
X-132032Y81308D01*
Y81682D01*
X-109406Y104306D01*
X-109102Y104762D01*
X-108995Y105300D01*
Y192418D01*
X-79982Y221431D01*
X-79608D01*
X-78885Y221731D01*
X-78331Y222285D01*
X-78031Y223008D01*
Y223792D01*
X-78331Y224515D01*
X-78885Y225069D01*
X-79608Y225368D01*
D02*
G37*
G36*
X23492Y77368D02*
X22708D01*
X21985Y77069D01*
X21431Y76515D01*
X21132Y75792D01*
Y75008D01*
X21431Y74285D01*
X21985Y73731D01*
X22708Y73431D01*
X23492D01*
X24215Y73731D01*
X24769Y74285D01*
X25069Y75008D01*
Y75792D01*
X24769Y76515D01*
X24215Y77069D01*
X23492Y77368D01*
D02*
G37*
G36*
X-29409Y50516D02*
X-30129Y50421D01*
X-30799Y50143D01*
X-31375Y49702D01*
X-31817Y49126D01*
X-32094Y48456D01*
X-32189Y47736D01*
Y44587D01*
X-32094Y43867D01*
X-31817Y43197D01*
X-31375Y42621D01*
X-30799Y42179D01*
X-30129Y41902D01*
X-29409Y41807D01*
X-28690Y41902D01*
X-28020Y42179D01*
X-27444Y42621D01*
X-27002Y43197D01*
X-26724Y43867D01*
X-26630Y44587D01*
Y47736D01*
X-26724Y48456D01*
X-27002Y49126D01*
X-27444Y49702D01*
X-28020Y50143D01*
X-28690Y50421D01*
X-29409Y50516D01*
D02*
G37*
G36*
X-74291D02*
X-75011Y50421D01*
X-75681Y50143D01*
X-76257Y49702D01*
X-76699Y49126D01*
X-76976Y48456D01*
X-77071Y47736D01*
Y44587D01*
X-76976Y43867D01*
X-76699Y43197D01*
X-76257Y42621D01*
X-75681Y42179D01*
X-75011Y41902D01*
X-74291Y41807D01*
X-73572Y41902D01*
X-72901Y42179D01*
X-72326Y42621D01*
X-71884Y43197D01*
X-71606Y43867D01*
X-71512Y44587D01*
Y47736D01*
X-71606Y48456D01*
X-71884Y49126D01*
X-72326Y49702D01*
X-72901Y50143D01*
X-73572Y50421D01*
X-74291Y50516D01*
D02*
G37*
G36*
X-21050Y45864D02*
X-21950D01*
X-22782Y45519D01*
X-23419Y44882D01*
X-23764Y44050D01*
Y43150D01*
X-23419Y42318D01*
X-22782Y41681D01*
X-21950Y41336D01*
X-21050D01*
X-20218Y41681D01*
X-19816Y42083D01*
X-18466D01*
X-18415Y42031D01*
X-17692Y41732D01*
X-16908D01*
X-16185Y42031D01*
X-15631Y42585D01*
X-15331Y43308D01*
Y44092D01*
X-15631Y44815D01*
X-16185Y45369D01*
X-16908Y45669D01*
X-17692D01*
X-18415Y45369D01*
X-18566Y45217D01*
X-19916D01*
X-20218Y45519D01*
X-21050Y45864D01*
D02*
G37*
G36*
X-2275Y38349D02*
X-3136D01*
X-3932Y38019D01*
X-4541Y37410D01*
X-4871Y36615D01*
Y35753D01*
X-4541Y34957D01*
X-3932Y34348D01*
X-3136Y34018D01*
X-2275D01*
X-1479Y34348D01*
X-869Y34957D01*
X-540Y35753D01*
Y36615D01*
X-869Y37410D01*
X-1479Y38019D01*
X-2275Y38349D01*
D02*
G37*
G36*
Y31262D02*
X-3136D01*
X-3932Y30933D01*
X-4541Y30324D01*
X-4871Y29528D01*
Y28666D01*
X-4541Y27871D01*
X-3932Y27261D01*
X-3136Y26932D01*
X-2275D01*
X-1479Y27261D01*
X-869Y27871D01*
X-540Y28666D01*
Y29528D01*
X-869Y30324D01*
X-1479Y30933D01*
X-2275Y31262D01*
D02*
G37*
%LPD*%
G36*
X-36641Y189153D02*
Y74875D01*
X-36695Y74839D01*
X-37195Y75106D01*
Y188921D01*
X-36695Y189189D01*
X-36641Y189153D01*
D02*
G37*
G36*
X53500Y108300D02*
X45900D01*
Y138644D01*
X53500D01*
Y108300D01*
D02*
G37*
%LPC*%
G36*
X52768Y125490D02*
X50800D01*
Y118600D01*
X52768D01*
Y125490D01*
D02*
G37*
G36*
X48800D02*
X46832D01*
Y118600D01*
X48800D01*
Y125490D01*
D02*
G37*
G36*
X52768Y116600D02*
X50800D01*
Y109710D01*
X52768D01*
Y116600D01*
D02*
G37*
G36*
X48800D02*
X46832D01*
Y109710D01*
X48800D01*
Y116600D01*
D02*
G37*
%LPD*%
D10*
X-59231Y60700D02*
X-39834D01*
X-64114Y65583D02*
X-59231Y60700D01*
X-35337Y191000D02*
X-35336Y191000D01*
X-39834Y60700D02*
X-35433Y65101D01*
X-35337Y72931D02*
Y191000D01*
X-35433Y65101D02*
Y72835D01*
X-35337Y72931D01*
X-61217Y71300D02*
X-59372D01*
X-52048Y63976D02*
X-41535D01*
X-59372Y71300D02*
X-52048Y63976D01*
X-80133Y247636D02*
X-65797D01*
X-63831Y245669D01*
X-63598D01*
X-39600Y65800D02*
Y65965D01*
X-38500Y67066D01*
Y189927D01*
X-39200Y190627D02*
Y191000D01*
Y190627D02*
X-38500Y189927D01*
X-39711Y65800D02*
X-39600D01*
X-41535Y63976D02*
X-39711Y65800D01*
D66*
X37600Y173500D02*
D03*
X-21500Y43600D02*
D03*
X41000Y211600D02*
D03*
X50300Y141400D02*
D03*
X33284Y257142D02*
D03*
D92*
X-27963Y218100D02*
X-21600D01*
X-61235Y149565D02*
Y184828D01*
X-27963Y218100D01*
X-29921Y224016D02*
X-21316D01*
X-65960Y152540D02*
Y187977D01*
X-29921Y224016D01*
X-71472Y154728D02*
Y192308D01*
X-33880Y229900D02*
X-21100D01*
X-71472Y192308D02*
X-33880Y229900D01*
X-14700Y232900D02*
X-6388Y224588D01*
Y75286D02*
X23507Y45391D01*
X-6388Y75286D02*
Y224588D01*
X23507Y36037D02*
Y45391D01*
X-7937Y244351D02*
X3091Y233322D01*
Y117911D02*
Y233322D01*
X-19897Y247597D02*
X-2857Y230557D01*
Y86860D02*
Y230557D01*
X-19897Y247597D02*
Y259467D01*
X-2631Y85231D02*
X15800Y66800D01*
X-2857Y86860D02*
X-2631Y86634D01*
Y85231D02*
Y86634D01*
X-110400Y193000D02*
X-80000Y223400D01*
X-110400Y105300D02*
Y193000D01*
X-8650Y257250D02*
X7600Y241000D01*
Y176700D02*
Y241000D01*
Y176700D02*
X47323Y136977D01*
X200Y115020D02*
X3091Y117911D01*
X200Y114700D02*
Y115020D01*
X-79969Y230292D02*
X-77360Y232900D01*
X-14700D01*
X-103900Y103800D02*
Y114600D01*
X-65960Y152540D01*
X-103700Y86300D02*
X-99500Y90500D01*
Y111300D02*
X-61235Y149565D01*
X-99500Y90500D02*
Y111300D01*
X-104200Y122000D02*
X-71472Y154728D01*
X-134000Y81700D02*
X-110400Y105300D01*
X-88700Y159800D02*
X-82500Y153600D01*
X-82400D01*
X-88800Y159800D02*
X-88700D01*
X-21316Y224016D02*
X-21300Y224000D01*
D93*
X-21450Y43650D02*
X-17350D01*
X-21500Y43600D02*
X-21450Y43650D01*
X-17350D02*
X-17300Y43700D01*
D94*
X37145Y173400D02*
X42500D01*
X50300Y134307D02*
Y141400D01*
Y134307D02*
X51200Y133406D01*
Y130500D02*
Y133406D01*
X31666Y257100D02*
X33284Y257142D01*
X21877Y257100D02*
X33284Y257142D01*
X18172Y249232D02*
X18174Y249234D01*
X18038Y253261D02*
X21877Y257100D01*
X18277Y249234D02*
X18279Y249232D01*
X18174Y249234D02*
X18277D01*
D97*
X36500Y211600D02*
X41000D01*
D98*
X-74291Y30413D02*
D03*
X-29409D02*
D03*
D99*
X-74291Y46161D02*
D03*
X-29409D02*
D03*
D100*
X-46275Y240945D02*
D03*
D101*
X-2705Y29097D02*
D03*
Y36184D02*
D03*
D102*
X51496Y160200D02*
D03*
X-155197D02*
D03*
D103*
X-64114Y65583D02*
D03*
X-42325Y67642D02*
D03*
X-35433Y72835D02*
D03*
X-27559Y55118D02*
D03*
X-76772D02*
D03*
X-61217Y71300D02*
D03*
X-61472Y67911D02*
D03*
X-68587Y54151D02*
D03*
X-35007D02*
D03*
X-15846Y82531D02*
D03*
X32664Y231895D02*
D03*
X-23688Y207606D02*
D03*
X-51052D02*
D03*
X11817Y29921D02*
D03*
X23507Y36037D02*
D03*
X-103700Y86300D02*
D03*
X-103900Y103800D02*
D03*
X-104200Y122000D02*
D03*
X-45400Y88400D02*
D03*
X-45600Y84500D02*
D03*
X42500Y173400D02*
D03*
X36500Y211600D02*
D03*
X-17300Y43700D02*
D03*
X-107800Y236000D02*
D03*
Y242900D02*
D03*
X-7937Y244351D02*
D03*
X44300Y240500D02*
D03*
X15848Y66800D02*
D03*
X-51332Y153208D02*
D03*
X-118196Y86353D02*
D03*
Y82928D02*
D03*
X-135700Y93100D02*
D03*
X-134800Y190900D02*
D03*
X-131600D02*
D03*
X-134603Y206900D02*
D03*
X-131500D02*
D03*
X-8650Y257250D02*
D03*
X-8473Y250708D02*
D03*
X-2857Y86860D02*
D03*
X23100Y75400D02*
D03*
X5200Y86400D02*
D03*
X1800D02*
D03*
X784Y144744D02*
D03*
X200Y114700D02*
D03*
X-17200Y113500D02*
D03*
X19016Y99700D02*
D03*
X19100Y118300D02*
D03*
X-9900Y78600D02*
D03*
Y81600D02*
D03*
X-2800Y45000D02*
D03*
X23200Y79200D02*
D03*
X19500Y135400D02*
D03*
X27300Y135700D02*
D03*
X40300Y133200D02*
D03*
X43400D02*
D03*
X48100Y130500D02*
D03*
X51200D02*
D03*
X48100Y127700D02*
D03*
X51200D02*
D03*
Y133300D02*
D03*
X48100D02*
D03*
X-19897Y259467D02*
D03*
X-80000Y223400D02*
D03*
X-79969Y230292D02*
D03*
X-80133Y247636D02*
D03*
X-84700Y86600D02*
D03*
X-84800Y104400D02*
D03*
X-84700Y122100D02*
D03*
X-134000Y81700D02*
D03*
X18152Y245357D02*
D03*
X14200Y245300D02*
D03*
X18095Y249309D02*
D03*
X14086Y253204D02*
D03*
X18038Y253261D02*
D03*
X14143Y249252D02*
D03*
X14400Y220276D02*
D03*
X18432D02*
D03*
X-20900Y170400D02*
D03*
X-16700D02*
D03*
X-35240Y191000D02*
D03*
X-39200D02*
D03*
X10700Y187400D02*
D03*
Y183600D02*
D03*
X-39600Y65800D02*
D03*
X-62400Y138400D02*
D03*
X-60599Y134200D02*
D03*
X-82400Y153600D02*
D03*
X-88800Y159800D02*
D03*
X-98100Y153500D02*
D03*
X-82500Y159700D02*
D03*
X-107800Y265300D02*
D03*
X-104557Y248794D02*
D03*
X-108157Y248801D02*
D03*
X-116500Y201600D02*
D03*
X-119600Y198200D02*
D03*
X-91138Y218110D02*
D03*
X-53701Y172099D02*
D03*
X43400Y127600D02*
D03*
X40300D02*
D03*
X43400Y130400D02*
D03*
X40300D02*
D03*
X6500Y54000D02*
D03*
X15848Y70200D02*
D03*
X-15985Y29885D02*
D03*
X-67000Y115200D02*
D03*
X-21600Y218100D02*
D03*
X-21300Y224000D02*
D03*
X-21100Y229900D02*
D03*
X-63598Y245669D02*
D03*
D104*
X-40700Y57200D02*
D03*
X-48100Y115100D02*
D03*
X-61300Y56900D02*
D03*
D105*
X-47849Y244094D02*
D03*
X-44700D02*
D03*
X-49424Y242520D02*
D03*
X-46275D02*
D03*
X-43125D02*
D03*
X-47849Y240945D02*
D03*
X-44700D02*
D03*
X-49424Y239370D02*
D03*
X-46275D02*
D03*
X-43125D02*
D03*
X-47849Y237795D02*
D03*
X-44700D02*
D03*
D106*
X32674Y95750D02*
D03*
X59052D02*
D03*
D107*
X41926Y117600D02*
D03*
X49800D02*
D03*
M02*
