G04*
G04 #@! TF.GenerationSoftware,Altium Limited,Altium Designer,22.5.1 (42)*
G04*
G04 Layer_Color=16711935*
%FSLAX25Y25*%
%MOIN*%
G70*
G04*
G04 #@! TF.SameCoordinates,99E8522F-A59E-4A80-82A0-D8EFEBB404AF*
G04*
G04*
G04 #@! TF.FilePolarity,Positive*
G04*
G01*
G75*
%ADD10C,0.01000*%
%ADD12C,0.00984*%
%ADD16C,0.00800*%
%ADD18C,0.00394*%
%ADD109R,1.49606X0.11811*%
D10*
X-33636Y189801D02*
Y268541D01*
X37230Y189801D02*
Y268541D01*
X-33636D02*
X37230D01*
X-33636Y189801D02*
X37230D01*
X-43692Y138033D02*
X-24007D01*
X-43692Y126222D02*
Y138033D01*
Y126222D02*
X-24007D01*
Y138033D01*
D12*
X92849Y191090D02*
X92111Y191516D01*
Y190664D01*
X92849Y191090D01*
X14902Y52962D02*
X14164Y53388D01*
Y52536D01*
X14902Y52962D01*
D16*
X81670Y64979D02*
X113560D01*
X81670D02*
Y100215D01*
X113560Y64979D02*
Y100215D01*
X81670D02*
X113560D01*
X109413Y185310D02*
Y188066D01*
X108035Y186688D02*
X110791D01*
X102819Y197908D02*
X117583D01*
X102819Y175763D02*
Y197908D01*
Y175763D02*
X117583D01*
Y197908D01*
X47768Y6730D02*
X50524D01*
X49146Y5352D02*
Y8107D01*
X60366Y-1440D02*
Y13324D01*
X38220D02*
X60366D01*
X38220Y-1440D02*
Y13324D01*
Y-1440D02*
X60366D01*
X-24311Y-2080D02*
Y26021D01*
X24213D01*
Y-2080D02*
Y26021D01*
X-24311Y-2080D02*
X24213D01*
X0Y13570D02*
Y18787D01*
X-2608Y16178D02*
X2609D01*
X-3238Y156363D02*
X4637D01*
X670Y152431D02*
Y160305D01*
X75473Y266599D02*
X75473Y26442D01*
X-74133Y266604D02*
X75473Y266604D01*
X-74133Y266604D02*
X-74133Y26442D01*
X-81916Y63371D02*
Y70064D01*
Y63371D02*
X-75223D01*
Y70064D01*
X-81916D02*
X-75223D01*
X62051Y83249D02*
Y86005D01*
X60673Y84627D02*
X63429D01*
X50240Y100375D02*
X73862D01*
X50240Y68879D02*
Y100375D01*
Y68879D02*
X73862D01*
Y100375D01*
D18*
X84174Y165999D02*
X83910Y166983D01*
X83190Y167704D01*
X82205Y167968D01*
X81221Y167704D01*
X80501Y166983D01*
X80237Y165999D01*
X80501Y165015D01*
X81221Y164294D01*
X82205Y164031D01*
X83190Y164294D01*
X83910Y165015D01*
X84174Y165999D01*
X34154Y129626D02*
X33890Y130610D01*
X33169Y131331D01*
X32185Y131595D01*
X31201Y131331D01*
X30480Y130610D01*
X30217Y129626D01*
X30480Y128642D01*
X31201Y127921D01*
X32185Y127657D01*
X33169Y127921D01*
X33890Y128642D01*
X34154Y129626D01*
X-64282Y177324D02*
X-64856Y177898D01*
X-65430Y177324D01*
X-64856Y176750D01*
X-64282Y177324D01*
X78662Y149857D02*
Y169543D01*
X94410Y149857D02*
Y169543D01*
X78662D02*
X94410D01*
X78662Y149857D02*
X94410D01*
X61642Y144066D02*
X66957D01*
X61642Y152334D02*
X66957D01*
X61642Y144066D02*
Y152334D01*
X66957Y144066D02*
Y152334D01*
X48943Y152234D02*
X54258D01*
X48943Y143966D02*
X54258D01*
Y152234D01*
X48943Y143966D02*
Y152234D01*
X81772Y187205D02*
Y192717D01*
X69803Y187205D02*
Y192717D01*
X81772D01*
X69803Y187205D02*
X81772D01*
X34672Y146097D02*
X38215D01*
X34672Y139404D02*
X38215D01*
Y146097D01*
X34672Y139404D02*
Y146097D01*
X19390Y116831D02*
Y133169D01*
X35728Y116831D02*
Y133169D01*
X19390Y116831D02*
X35728D01*
X19390Y133169D02*
X35728D01*
X32972Y150787D02*
X39665D01*
X32972Y154331D02*
X39665D01*
Y150787D02*
Y154331D01*
X32972Y150787D02*
Y154331D01*
X19980Y150787D02*
X26673D01*
X19980Y154331D02*
X26673D01*
Y150787D02*
Y154331D01*
X19980Y150787D02*
Y154331D01*
X-1378Y127165D02*
X5315D01*
X-1378Y130709D02*
X5315D01*
Y127165D02*
Y130709D01*
X-1378Y127165D02*
Y130709D01*
Y120276D02*
X5315D01*
X-1378Y123819D02*
X5315D01*
Y120276D02*
Y123819D01*
X-1378Y120276D02*
Y123819D01*
X27797Y138994D02*
Y145687D01*
X31341Y138994D02*
Y145687D01*
X27797Y138994D02*
X31341D01*
X27797Y145687D02*
X31341D01*
X19783Y110531D02*
X23524D01*
X19783Y104035D02*
X23524D01*
Y110531D01*
X19783Y104035D02*
Y110531D01*
X18841Y139093D02*
X22581D01*
X18841Y145589D02*
X22581D01*
X18841Y139093D02*
Y145589D01*
X22581Y139093D02*
Y145589D01*
X57596Y124617D02*
Y131309D01*
X44604Y124617D02*
Y131309D01*
Y124617D02*
X57596D01*
X44604Y131309D02*
X57596D01*
X37205Y103937D02*
Y110630D01*
X33661Y103937D02*
Y110630D01*
X37205D01*
X33661Y103937D02*
X37205D01*
X25689Y110728D02*
X29429D01*
X25689Y103839D02*
X29429D01*
Y110728D01*
X25689Y103839D02*
Y110728D01*
X12402Y68382D02*
X19094D01*
X12402Y71925D02*
X19094D01*
Y68382D02*
Y71925D01*
X12402Y68382D02*
Y71925D01*
X91339Y183268D02*
X98032D01*
X91339Y186811D02*
X98032D01*
Y183268D02*
Y186811D01*
X91339Y183268D02*
Y186811D01*
X197Y179528D02*
X3740D01*
X197Y172835D02*
X3740D01*
Y179528D01*
X197Y172835D02*
Y179528D01*
X26459Y179532D02*
X30002D01*
X26459Y172839D02*
X30002D01*
Y179532D01*
X26459Y172839D02*
Y179532D01*
X95473Y190250D02*
Y195602D01*
X91535Y190250D02*
Y195602D01*
X95473D01*
X91535Y190250D02*
X95473D01*
X92716Y199803D02*
Y201772D01*
X88386Y199803D02*
Y201772D01*
Y199803D02*
X92716D01*
X88386Y201772D02*
X92716D01*
X84646Y184843D02*
X86614D01*
X84646Y189173D02*
X86614D01*
X84646Y184843D02*
Y189173D01*
X86614Y184843D02*
Y189173D01*
X97638Y178150D02*
Y180118D01*
X93307Y178150D02*
Y180118D01*
Y178150D02*
X97638D01*
X93307Y180118D02*
X97638D01*
X-72165Y166375D02*
Y178580D01*
X-60059Y166375D02*
Y178580D01*
X-72165D02*
X-60059D01*
X-72165Y166375D02*
X-60059D01*
X-51889Y239210D02*
Y242753D01*
X-45196Y239210D02*
Y242753D01*
X-51889D02*
X-45196D01*
X-51889Y239210D02*
X-45196D01*
X-59960Y227881D02*
Y234574D01*
X-46968Y227881D02*
Y234574D01*
X-59960D02*
X-46968D01*
X-59960Y227881D02*
X-46968D01*
X61221Y17323D02*
Y24016D01*
X64764Y17323D02*
Y24016D01*
X61221Y17323D02*
X64764D01*
X61221Y24016D02*
X64764D01*
X57677Y52362D02*
X64370D01*
X57677Y55905D02*
X64370D01*
Y52362D02*
Y55905D01*
X57677Y52362D02*
Y55905D01*
X-56614Y135667D02*
Y142359D01*
X-60157Y135667D02*
Y142359D01*
X-56614D01*
X-60157Y135667D02*
X-56614D01*
X18961Y172839D02*
Y179532D01*
X22504Y172839D02*
Y179532D01*
X18961Y172839D02*
X22504D01*
X18961Y179532D02*
X22504D01*
X7617Y172839D02*
Y179532D01*
X11161Y172839D02*
Y179532D01*
X7617Y172839D02*
X11161D01*
X7617Y179532D02*
X11161D01*
X61475Y208929D02*
X65018D01*
X61475Y202237D02*
X65018D01*
Y208929D01*
X61475Y202237D02*
Y208929D01*
X68381Y203718D02*
X80192D01*
X68381Y210608D02*
X80192D01*
X68381Y203718D02*
Y210608D01*
X80192Y203718D02*
Y210608D01*
X17663Y62247D02*
Y64247D01*
X16663Y63247D02*
X18663D01*
X12163Y61247D02*
X19217D01*
X12163Y65247D02*
X19217D01*
Y61247D02*
Y65247D01*
X12163Y61247D02*
Y65247D01*
X12663Y63247D02*
X14663D01*
X-4771Y68382D02*
Y71925D01*
X1922Y68382D02*
Y71925D01*
X-4771D02*
X1922D01*
X-4771Y68382D02*
X1922D01*
X69182Y217394D02*
X80993D01*
X69182Y229205D02*
X80993D01*
Y217394D02*
Y229205D01*
X69182Y217394D02*
Y229205D01*
X-39196Y68482D02*
X-32503D01*
X-39196Y64938D02*
X-32503D01*
X-39196D02*
Y68482D01*
X-32503Y64938D02*
Y68482D01*
X-88221Y56781D02*
Y63474D01*
X-84677Y56781D02*
Y63474D01*
X-88221Y56781D02*
X-84677D01*
X-88221Y63474D02*
X-84677D01*
X12973Y42556D02*
Y54367D01*
X19863Y42556D02*
Y54367D01*
X12973D02*
X19863D01*
X12973Y42556D02*
X19863D01*
X578Y62247D02*
Y64247D01*
X-422Y63247D02*
X1578D01*
X-4922Y61247D02*
X2132D01*
X-4922Y65247D02*
X2132D01*
Y61247D02*
Y65247D01*
X-4922Y61247D02*
Y65247D01*
X-4422Y63247D02*
X-2422D01*
X-21063Y46457D02*
Y50000D01*
X-26181Y46457D02*
Y50000D01*
Y46457D02*
X-21063D01*
X-26181Y50000D02*
X-21063D01*
X-51984Y128831D02*
X-48441D01*
X-51984Y135524D02*
X-48441D01*
X-51984Y128831D02*
Y135524D01*
X-48441Y128831D02*
Y135524D01*
X-51889Y216769D02*
Y220312D01*
X-45196Y216769D02*
Y220312D01*
X-51889D02*
X-45196D01*
X-51889Y216769D02*
X-45196D01*
X-45000Y209862D02*
Y213406D01*
X-51692Y209862D02*
Y213406D01*
Y209862D02*
X-45000D01*
X-51692Y213406D02*
X-45000D01*
X88976Y217913D02*
X101969D01*
X88976Y211221D02*
X101969D01*
X88976D02*
Y217913D01*
X101969Y211221D02*
Y217913D01*
X-46900Y101537D02*
Y103537D01*
X-47900Y102537D02*
X-45900D01*
X-52400Y100537D02*
X-45347D01*
X-52400Y104537D02*
X-45347D01*
Y100537D02*
Y104537D01*
X-52400Y100537D02*
Y104537D01*
X-51900Y102537D02*
X-49900D01*
X-87322Y176611D02*
X-80629D01*
X-87322Y180155D02*
X-80629D01*
Y176611D02*
Y180155D01*
X-87322Y176611D02*
Y180155D01*
Y168737D02*
X-80629D01*
X-87322Y172281D02*
X-80629D01*
Y168737D02*
Y172281D01*
X-87322Y168737D02*
Y172281D01*
X-26969Y34646D02*
X-20276D01*
X-26969Y38189D02*
X-20276D01*
Y34646D02*
Y38189D01*
X-26969Y34646D02*
Y38189D01*
X19291Y38189D02*
X25984D01*
X19291Y34646D02*
X25984D01*
X19291D02*
Y38189D01*
X25984Y34646D02*
Y38189D01*
X49339Y22809D02*
X56032D01*
X49339Y26353D02*
X56032D01*
Y22809D02*
Y26353D01*
X49339Y22809D02*
Y26353D01*
X-68999Y56978D02*
Y63670D01*
X-72543Y56978D02*
Y63670D01*
X-68999D01*
X-72543Y56978D02*
X-68999D01*
X-39296Y104299D02*
X-32603D01*
X-39296Y100756D02*
X-32603D01*
X-39296D02*
Y104299D01*
X-32603Y100756D02*
Y104299D01*
X-39435Y86395D02*
X-32742D01*
X-39435Y82852D02*
X-32742D01*
X-39435D02*
Y86395D01*
X-32742Y82852D02*
Y86395D01*
X57677Y61811D02*
X64370D01*
X57677Y58268D02*
X64370D01*
X57677D02*
Y61811D01*
X64370Y58268D02*
Y61811D01*
X47642Y234699D02*
X54334D01*
X47642Y231156D02*
X54334D01*
X47642D02*
Y234699D01*
X54334Y231156D02*
Y234699D01*
X47753Y224356D02*
X54446D01*
X47753Y227899D02*
X54446D01*
Y224356D02*
Y227899D01*
X47753Y224356D02*
Y227899D01*
X-51745Y66710D02*
X-49745D01*
X-52245Y64710D02*
Y68710D01*
X-45191Y64710D02*
Y68710D01*
X-52245D02*
X-45191D01*
X-52245Y64710D02*
X-45191D01*
X-47745Y66710D02*
X-45745D01*
X-46745Y65710D02*
Y67710D01*
X-51900Y84624D02*
X-49900D01*
X-52400Y82624D02*
Y86624D01*
X-45347Y82624D02*
Y86624D01*
X-52400D02*
X-45347D01*
X-52400Y82624D02*
X-45347D01*
X-47900Y84624D02*
X-45900D01*
X-46900Y83624D02*
Y85624D01*
D109*
X670Y32347D02*
D03*
M02*
