G04*
G04 #@! TF.GenerationSoftware,Altium Limited,Altium Designer,22.2.1 (43)*
G04*
G04 Layer_Color=32768*
%FSLAX25Y25*%
%MOIN*%
G70*
G04*
G04 #@! TF.SameCoordinates,54FADD59-BBF9-4A11-9494-7AB4E3D874E1*
G04*
G04*
G04 #@! TF.FilePolarity,Positive*
G04*
G01*
G75*
%ADD12C,0.01000*%
%ADD17C,0.00800*%
%ADD18C,0.00394*%
%ADD113C,0.00197*%
%ADD114R,1.51575X0.11811*%
D12*
X-90310Y213090D02*
X-9208D01*
X-90310Y294094D02*
X-9208D01*
Y213090D02*
Y294094D01*
X-90310Y213090D02*
Y294094D01*
X-97511Y162406D02*
X-73889D01*
X-97511Y150594D02*
Y162406D01*
Y150594D02*
X-73889D01*
Y162406D01*
X-89637Y156500D02*
X-81763D01*
X-85700Y152563D02*
Y160437D01*
D17*
X24803Y46877D02*
Y48059D01*
X24803Y48059D02*
X24803Y48059D01*
X-126772Y292946D02*
X24803Y292946D01*
X-126772Y47276D02*
Y295308D01*
X24803Y48059D02*
X24803Y292940D01*
X-55088Y180736D02*
X-47214D01*
X-51181Y176804D02*
Y184678D01*
X-76161Y22293D02*
Y53396D01*
X-27638D01*
Y22293D02*
Y53396D01*
X-76161Y22293D02*
X-27638D01*
X-51850Y37943D02*
Y43159D01*
X-54459Y40551D02*
X-49242D01*
X45863Y104116D02*
Y109234D01*
X43304Y106675D02*
X48422D01*
X61709Y60415D02*
Y124687D01*
X29820Y60415D02*
X61709D01*
X29820D02*
Y124687D01*
X61709D01*
X-50054Y237008D02*
Y246457D01*
X-54779Y241732D02*
X-45330D01*
X-133767Y87744D02*
Y94437D01*
Y87744D02*
X-127074D01*
Y94437D01*
X-133767D02*
X-127074D01*
X10200Y107622D02*
Y110378D01*
X8822Y109000D02*
X11578D01*
X-1611Y124748D02*
X22011D01*
X-1611Y93252D02*
Y124748D01*
Y93252D02*
X22011D01*
Y124748D01*
X68924Y192102D02*
Y229898D01*
X49239D02*
X68924D01*
X49239Y192102D02*
Y229898D01*
Y192102D02*
X68924D01*
X-4083Y32640D02*
X-1327D01*
X-2705Y31263D02*
Y34018D01*
X8515Y24471D02*
Y39235D01*
X-13630D02*
X8515D01*
X-13630Y24471D02*
Y39235D01*
Y24471D02*
X8515D01*
D18*
X-59368Y110400D02*
X-55431D01*
X-57400Y108431D02*
Y112369D01*
X-64315Y145700D02*
X-60772D01*
X-62543Y143928D02*
Y147472D01*
X-105315Y253631D02*
Y257569D01*
X-107283Y255600D02*
X-103347D01*
X15748Y40194D02*
Y44131D01*
X13780Y42163D02*
X17717D01*
X31563Y248639D02*
X35500D01*
X33531Y246670D02*
Y250607D01*
X30694Y232634D02*
X34631D01*
X32662Y230666D02*
Y234603D01*
X-140072Y84500D02*
X-136528D01*
X-138300Y82728D02*
Y86272D01*
X-53755Y67716D02*
X-49818D01*
X-51787Y65748D02*
Y69685D01*
X-53251Y87635D02*
Y91178D01*
X-55023Y89407D02*
X-51480D01*
X-53248Y80925D02*
Y84075D01*
X-54823Y82500D02*
X-51673D01*
X-6134Y77931D02*
Y81868D01*
X-8102Y79900D02*
X-4165D01*
X-102063Y154779D02*
Y158322D01*
X-103835Y156550D02*
X-100292D01*
X-89868Y171700D02*
X-85931D01*
X-87900Y169731D02*
Y173669D01*
X7800Y144016D02*
Y145984D01*
X6816Y145000D02*
X8784D01*
X21531Y144500D02*
X25469D01*
X23500Y142532D02*
Y146468D01*
X-5200Y142776D02*
Y146713D01*
X-7169Y144744D02*
X-3232D01*
X-102165Y242913D02*
X-98622D01*
X-100394Y241142D02*
Y244685D01*
X-101969Y236007D02*
X-98425D01*
X-100197Y234235D02*
Y237778D01*
X-34070Y202528D02*
X-30133D01*
X-32101Y200560D02*
Y204497D01*
X-44306Y202528D02*
X-40369D01*
X-42338Y200560D02*
Y204497D01*
X-10668Y108291D02*
X-6731D01*
X-8700Y106323D02*
Y110260D01*
X14266Y232800D02*
X18203D01*
X16235Y230832D02*
Y234769D01*
X5694Y68504D02*
Y72441D01*
X3725Y70472D02*
X7662D01*
X-54300Y125932D02*
Y129868D01*
X-56269Y127900D02*
X-52332D01*
X-100751Y125335D02*
Y128485D01*
X-102326Y126910D02*
X-99176D01*
X-100394Y263583D02*
Y267126D01*
X-102165Y265354D02*
X-98622D01*
X-25392Y200394D02*
X-21848D01*
X-23620Y198622D02*
Y202165D01*
X-52771Y200394D02*
X-49227D01*
X-50999Y198622D02*
Y202165D01*
X-133000Y200728D02*
Y204272D01*
X-134772Y202500D02*
X-131228D01*
X-133000Y193428D02*
Y196972D01*
X-134772Y195200D02*
X-131228D01*
X-74900Y58528D02*
Y62072D01*
X-76672Y60300D02*
X-73128D01*
X-29346Y58528D02*
Y62072D01*
X-31117Y60300D02*
X-27574D01*
X834Y47182D02*
Y50726D01*
X-937Y48954D02*
X2606D01*
X23932Y200000D02*
X27869D01*
X25900Y198031D02*
Y201969D01*
X-124393Y84697D02*
X-120850D01*
X-122622Y82925D02*
Y86468D01*
X-18800Y167431D02*
Y171369D01*
X-20768Y169400D02*
X-16831D01*
X-47800Y163831D02*
Y167769D01*
X-49768Y165800D02*
X-45832D01*
X-41200Y139316D02*
Y141284D01*
X-42184Y140300D02*
X-40216D01*
X42620Y232800D02*
X46163D01*
X44392Y231028D02*
Y234572D01*
X-51700Y141532D02*
Y145468D01*
X-53668Y143500D02*
X-49731D01*
X-87800Y125128D02*
Y128672D01*
X-89572Y126900D02*
X-86028D01*
X-87700Y89428D02*
Y92972D01*
X-89472Y91200D02*
X-85928D01*
X-87939Y107283D02*
Y110827D01*
X-89711Y109055D02*
X-86168D01*
X23932Y185400D02*
X27869D01*
X25900Y183431D02*
Y187369D01*
X-18953Y105800D02*
X-15410D01*
X-17181Y104028D02*
Y107572D01*
X-24775Y82500D02*
X-21625D01*
X-23200Y80925D02*
Y84075D01*
X3332Y79938D02*
Y83481D01*
X1560Y81710D02*
X5103D01*
X-863Y255528D02*
Y259072D01*
X-2634Y257300D02*
X909D01*
X1560Y58153D02*
X5103D01*
X3332Y56381D02*
Y59924D01*
X16528Y77300D02*
X20072D01*
X18300Y75528D02*
Y79072D01*
X-23031Y87635D02*
Y91178D01*
X-24803Y89407D02*
X-21260D01*
X-751Y248728D02*
Y252272D01*
X-2523Y250500D02*
X1020D01*
X-102170Y91083D02*
X-99021D01*
X-100596Y89508D02*
Y92658D01*
X-102326Y108996D02*
X-99176D01*
X-100751Y107422D02*
Y110571D01*
D113*
X-64290Y102821D02*
Y117979D01*
X-50510Y102821D02*
Y117979D01*
X-64290Y102821D02*
X-50510D01*
X-64290Y117979D02*
X-50510D01*
X-59788Y139991D02*
Y151409D01*
X-65299Y139991D02*
Y151409D01*
X-59788D01*
X-65299Y139991D02*
X-59788D01*
X-114370Y250876D02*
X-96260D01*
X-114370Y260324D02*
X-96260D01*
Y250876D02*
Y260324D01*
X-114370Y250876D02*
Y260324D01*
X11417Y51021D02*
X20079D01*
X11417Y33304D02*
X20079D01*
Y51021D01*
X11417Y33304D02*
Y51021D01*
X42882Y241749D02*
Y255528D01*
X24181Y241749D02*
Y255528D01*
Y241749D02*
X42882D01*
X24181Y255528D02*
X42882D01*
X25773Y225154D02*
Y240114D01*
X39552Y225154D02*
Y240114D01*
X25773D02*
X39552D01*
X25773Y225154D02*
X39552D01*
X-141056Y78791D02*
Y90209D01*
X-135544Y78791D02*
Y90209D01*
X-141056Y78791D02*
X-135544D01*
X-141056Y90209D02*
X-135544D01*
X-124606Y190059D02*
Y203543D01*
X-111319Y190059D02*
Y203543D01*
X-124606D02*
X-111319D01*
X-124606Y190059D02*
X-111319D01*
X-59956Y60827D02*
Y74606D01*
X-43617Y60827D02*
Y74606D01*
X-59956D02*
X-43617D01*
X-59956Y60827D02*
X-43617D01*
X-58960Y86651D02*
X-47543D01*
X-58960Y92162D02*
X-47543D01*
Y86651D02*
Y92162D01*
X-58960Y86651D02*
Y92162D01*
X-59153Y79547D02*
X-47343D01*
X-59153Y85453D02*
X-47343D01*
Y79547D02*
Y85453D01*
X-59153Y79547D02*
Y85453D01*
X-8496Y84723D02*
X-3772D01*
X-8496Y75077D02*
X-3772D01*
Y84723D01*
X-8496Y75077D02*
Y84723D01*
X-105016Y150645D02*
X-99110D01*
X-105016Y162456D02*
X-99110D01*
X-105016Y150645D02*
Y162456D01*
X-99110Y150645D02*
Y162456D01*
X-96758Y167369D02*
Y176031D01*
X-79042Y167369D02*
Y176031D01*
X-96758D02*
X-79042D01*
X-96758Y167369D02*
X-79042D01*
X4257Y143228D02*
X11343D01*
X4257Y146772D02*
X11343D01*
Y143228D02*
Y146772D01*
X4257Y143228D02*
Y146772D01*
X30390Y137020D02*
Y151980D01*
X16610Y137020D02*
Y151980D01*
X30390D01*
X16610Y137020D02*
X30390D01*
X-12090Y152323D02*
X1690D01*
X-12090Y137165D02*
X1690D01*
Y152323D01*
X-12090Y137165D02*
Y152323D01*
X-106299Y239961D02*
Y245866D01*
X-94488Y239961D02*
Y245866D01*
X-106299D02*
X-94488D01*
X-106299Y239961D02*
X-94488D01*
X-94488Y233251D02*
Y238763D01*
X-105905Y233251D02*
Y238763D01*
Y233251D02*
X-94488D01*
X-105905Y238763D02*
X-94488D01*
X-36432Y193670D02*
Y211386D01*
X-27771Y193670D02*
Y211386D01*
X-36432Y193670D02*
X-27771D01*
X-36432Y211386D02*
X-27771D01*
X-46668Y193670D02*
Y211386D01*
X-38007Y193670D02*
Y211386D01*
X-46668Y193670D02*
X-38007D01*
X-46668Y211386D02*
X-38007D01*
X-4369Y99433D02*
Y117150D01*
X-13031Y99433D02*
Y117150D01*
X-4369D01*
X-13031Y99433D02*
X-4369D01*
X20959Y223745D02*
Y241855D01*
X11510Y223745D02*
Y241855D01*
X20959D01*
X11510Y223745D02*
X20959D01*
X-2574Y77559D02*
X13962D01*
X-2574Y63386D02*
X13962D01*
X-2574D02*
Y77559D01*
X13962Y63386D02*
Y77559D01*
X-63355Y132624D02*
X-45245D01*
X-63355Y123176D02*
X-45245D01*
X-63355D02*
Y132624D01*
X-45245Y123176D02*
Y132624D01*
X-106657Y123957D02*
X-94846D01*
X-106657Y129863D02*
X-94846D01*
Y123957D02*
Y129863D01*
X-106657Y123957D02*
Y129863D01*
X-106299Y262402D02*
X-94488D01*
X-106299Y268307D02*
X-94488D01*
Y262402D02*
Y268307D01*
X-106299Y262402D02*
Y268307D01*
X-26573Y194488D02*
Y206299D01*
X-20667Y194488D02*
Y206299D01*
X-26573Y194488D02*
X-20667D01*
X-26573Y206299D02*
X-20667D01*
X-53952Y194488D02*
Y206299D01*
X-48046Y194488D02*
Y206299D01*
X-53952Y194488D02*
X-48046D01*
X-53952Y206299D02*
X-48046D01*
X-138906Y199547D02*
X-127094D01*
X-138906Y205453D02*
X-127094D01*
Y199547D02*
Y205453D01*
X-138906Y199547D02*
Y205453D01*
Y192247D02*
X-127094D01*
X-138906Y198153D02*
X-127094D01*
Y192247D02*
Y198153D01*
X-138906Y192247D02*
Y198153D01*
X-80609Y57544D02*
X-69191D01*
X-80609Y63056D02*
X-69191D01*
Y57544D02*
Y63056D01*
X-80609Y57544D02*
Y63056D01*
X-35054Y63056D02*
X-23637D01*
X-35054Y57544D02*
X-23637D01*
X-35054D02*
Y63056D01*
X-23637Y57544D02*
Y63056D01*
X-5071Y46001D02*
X6740D01*
X-5071Y51907D02*
X6740D01*
Y46001D02*
Y51907D01*
X-5071Y46001D02*
Y51907D01*
X37908Y193307D02*
Y206693D01*
X13892Y193307D02*
Y206693D01*
Y193307D02*
X37908D01*
X13892Y206693D02*
X37908D01*
X-119669Y78791D02*
Y90602D01*
X-125574Y78791D02*
Y90602D01*
X-119669D01*
X-125574Y78791D02*
X-119669D01*
X-35729Y149321D02*
X-1871D01*
X-35729Y189479D02*
X-1871D01*
X-35729Y149321D02*
Y189479D01*
X-1871Y149321D02*
Y189479D01*
X-52524Y156745D02*
X-43076D01*
X-52524Y174855D02*
X-43076D01*
X-52524Y156745D02*
Y174855D01*
X-43076Y156745D02*
Y174855D01*
X-42972Y143843D02*
X-39428D01*
X-42972Y136757D02*
X-39428D01*
Y143843D01*
X-42972Y136757D02*
Y143843D01*
X41439Y226894D02*
Y238705D01*
X47344Y226894D02*
Y238705D01*
X41439Y226894D02*
X47344D01*
X41439Y238705D02*
X47344D01*
X-58590Y151768D02*
X-44810D01*
X-58590Y135232D02*
X-44810D01*
Y151768D01*
X-58590Y135232D02*
Y151768D01*
X-93509Y129656D02*
X-82091D01*
X-93509Y124144D02*
X-82091D01*
X-93509D02*
Y129656D01*
X-82091Y124144D02*
Y129656D01*
X-93409Y93956D02*
X-81991D01*
X-93409Y88444D02*
X-81991D01*
X-93409D02*
Y93956D01*
X-81991Y88444D02*
Y93956D01*
X-93648Y111811D02*
X-82231D01*
X-93648Y106299D02*
X-82231D01*
X-93648D02*
Y111811D01*
X-82231Y106299D02*
Y111811D01*
X37908Y178707D02*
Y192093D01*
X13892Y178707D02*
Y192093D01*
Y178707D02*
X37908D01*
X13892Y192093D02*
X37908D01*
X-20134Y99894D02*
Y111706D01*
X-14229Y99894D02*
Y111706D01*
X-20134Y99894D02*
X-14229D01*
X-20134Y111706D02*
X-14229D01*
X-29105Y79547D02*
Y85453D01*
X-17294Y79547D02*
Y85453D01*
X-29105D02*
X-17294D01*
X-29105Y79547D02*
X-17294D01*
X-2574Y78757D02*
X9237D01*
X-2574Y84662D02*
X9237D01*
X-2574Y78757D02*
Y84662D01*
X9237Y78757D02*
Y84662D01*
X-6572Y260056D02*
X4846D01*
X-6572Y254544D02*
X4846D01*
X-6572D02*
Y260056D01*
X4846Y254544D02*
Y260056D01*
X8450Y55003D02*
Y61302D01*
X-1786Y55003D02*
Y61302D01*
X8450D01*
X-1786Y55003D02*
X8450D01*
X21253Y71394D02*
Y83205D01*
X15347Y71394D02*
Y83205D01*
Y71394D02*
X21253D01*
X15347Y83205D02*
X21253D01*
X-28740Y92162D02*
X-17323D01*
X-28740Y86651D02*
X-17323D01*
X-28740D02*
Y92162D01*
X-17323Y86651D02*
Y92162D01*
X-6460Y247744D02*
X4958D01*
X-6460Y253256D02*
X4958D01*
Y247744D02*
Y253256D01*
X-6460Y247744D02*
Y253256D01*
X-106501Y88130D02*
Y94036D01*
X-94690Y88130D02*
Y94036D01*
X-106501D02*
X-94690D01*
X-106501Y88130D02*
X-94690D01*
X-106657Y106044D02*
Y111949D01*
X-94846Y106044D02*
Y111949D01*
X-106657D02*
X-94846D01*
X-106657Y106044D02*
X-94846D01*
D114*
X-50984Y52783D02*
D03*
M02*
