G04*
G04 #@! TF.GenerationSoftware,Altium Limited,Altium Designer,22.5.1 (42)*
G04*
G04 Layer_Color=16711935*
%FSLAX25Y25*%
%MOIN*%
G70*
G04*
G04 #@! TF.SameCoordinates,99E8522F-A59E-4A80-82A0-D8EFEBB404AF*
G04*
G04*
G04 #@! TF.FilePolarity,Positive*
G04*
G01*
G75*
%ADD92C,0.01968*%
D92*
X-84827Y11249D02*
X-84713Y12239D01*
X-84654Y13235D01*
X-84651Y14232D01*
X-84705Y15227D01*
X-84814Y16218D01*
X-84979Y17202D01*
X-85199Y18174D01*
X-85474Y19133D01*
X-85802Y20074D01*
X-86182Y20996D01*
X-86614Y21895D01*
X-87095Y22768D01*
X-87625Y23613D01*
X-88201Y24426D01*
X-88823Y25206D01*
X-89487Y25949D01*
X-90192Y26655D01*
X-90936Y27319D01*
X-91716Y27940D01*
X-92529Y28517D01*
X-93374Y29047D01*
X-94247Y29528D01*
X-95146Y29960D01*
X-96067Y30340D01*
X-97009Y30668D01*
X-97968Y30942D01*
X-98940Y31162D01*
X-99923Y31327D01*
X-100915Y31437D01*
X-101910Y31490D01*
X-102907Y31488D01*
X-103903Y31429D01*
X-104893Y31314D01*
X-84827Y11249D02*
X-84919Y10261D01*
X-84912Y9269D01*
X-84804Y8283D01*
X-84598Y7312D01*
X-84295Y6368D01*
X-83898Y5458D01*
X-83412Y4594D01*
X-82841Y3782D01*
X-82192Y3032D01*
X-81470Y2352D01*
X-80684Y1747D01*
X-79840Y1225D01*
X-78949Y790D01*
X-78018Y447D01*
X-77057Y200D01*
X-76077Y50D01*
X-75086Y0D01*
X84827Y260405D02*
X84713Y259415D01*
X84654Y258419D01*
X84651Y257422D01*
X84705Y256426D01*
X84814Y255435D01*
X84979Y254452D01*
X85199Y253480D01*
X85474Y252521D01*
X85802Y251579D01*
X86182Y250658D01*
X86614Y249759D01*
X87095Y248886D01*
X87625Y248041D01*
X88201Y247227D01*
X88823Y246448D01*
X89487Y245704D01*
X90192Y244999D01*
X90936Y244335D01*
X91716Y243713D01*
X92529Y243137D01*
X93374Y242607D01*
X94247Y242126D01*
X95146Y241694D01*
X96067Y241314D01*
X97009Y240986D01*
X97968Y240711D01*
X98940Y240491D01*
X99923Y240326D01*
X100915Y240217D01*
X101910Y240163D01*
X102907Y240166D01*
X103903Y240225D01*
X104893Y240339D01*
X116142Y230598D02*
X116092Y231588D01*
X115942Y232569D01*
X115695Y233530D01*
X115352Y234461D01*
X114917Y235352D01*
X114395Y236196D01*
X113790Y236982D01*
X113109Y237704D01*
X112359Y238353D01*
X111548Y238924D01*
X110683Y239410D01*
X109774Y239806D01*
X108829Y240109D01*
X107859Y240316D01*
X106873Y240423D01*
X105881Y240431D01*
X104893Y240339D01*
Y31314D02*
X105881Y31222D01*
X106873Y31230D01*
X107859Y31338D01*
X108829Y31544D01*
X109774Y31847D01*
X110683Y32244D01*
X111548Y32730D01*
X112359Y33300D01*
X113109Y33950D01*
X113790Y34672D01*
X114395Y35458D01*
X114917Y36301D01*
X115352Y37193D01*
X115695Y38124D01*
X115942Y39085D01*
X116092Y40065D01*
X116142Y41056D01*
X104893Y31314D02*
X103903Y31429D01*
X102907Y31488D01*
X101910Y31490D01*
X100915Y31437D01*
X99923Y31327D01*
X98940Y31162D01*
X97968Y30942D01*
X97009Y30668D01*
X96067Y30340D01*
X95146Y29960D01*
X94247Y29528D01*
X93374Y29047D01*
X92529Y28517D01*
X91716Y27940D01*
X90936Y27319D01*
X90192Y26655D01*
X89487Y25949D01*
X88823Y25206D01*
X88201Y24426D01*
X87625Y23613D01*
X87095Y22768D01*
X86614Y21895D01*
X86182Y20996D01*
X85802Y20074D01*
X85474Y19133D01*
X85199Y18174D01*
X84979Y17202D01*
X84814Y16218D01*
X84705Y15227D01*
X84651Y14232D01*
X84654Y13235D01*
X84713Y12239D01*
X84827Y11249D01*
X75086Y0D02*
X76077Y50D01*
X77057Y200D01*
X78018Y447D01*
X78949Y790D01*
X79840Y1225D01*
X80684Y1747D01*
X81470Y2352D01*
X82192Y3032D01*
X82841Y3782D01*
X83412Y4594D01*
X83898Y5458D01*
X84295Y6368D01*
X84598Y7312D01*
X84804Y8283D01*
X84912Y9269D01*
X84919Y10261D01*
X84827Y11249D01*
X-116142Y41056D02*
X-116092Y40065D01*
X-115942Y39085D01*
X-115695Y38124D01*
X-115352Y37193D01*
X-114917Y36301D01*
X-114395Y35458D01*
X-113790Y34672D01*
X-113109Y33950D01*
X-112359Y33300D01*
X-111548Y32730D01*
X-110683Y32244D01*
X-109774Y31847D01*
X-108829Y31544D01*
X-107859Y31338D01*
X-106873Y31230D01*
X-105881Y31222D01*
X-104893Y31314D01*
Y240339D02*
X-105881Y240431D01*
X-106873Y240423D01*
X-107859Y240316D01*
X-108829Y240109D01*
X-109774Y239806D01*
X-110683Y239410D01*
X-111548Y238924D01*
X-112359Y238353D01*
X-113109Y237704D01*
X-113790Y236982D01*
X-114395Y236196D01*
X-114917Y235352D01*
X-115352Y234461D01*
X-115695Y233530D01*
X-115942Y232569D01*
X-116092Y231588D01*
X-116142Y230598D01*
X-104893Y240339D02*
X-103903Y240225D01*
X-102907Y240166D01*
X-101910Y240163D01*
X-100915Y240217D01*
X-99923Y240326D01*
X-98940Y240491D01*
X-97968Y240711D01*
X-97009Y240986D01*
X-96067Y241314D01*
X-95146Y241694D01*
X-94247Y242126D01*
X-93374Y242607D01*
X-92529Y243137D01*
X-91716Y243713D01*
X-90936Y244335D01*
X-90192Y244999D01*
X-89487Y245704D01*
X-88823Y246448D01*
X-88201Y247227D01*
X-87625Y248041D01*
X-87095Y248886D01*
X-86614Y249759D01*
X-86182Y250658D01*
X-85802Y251579D01*
X-85474Y252521D01*
X-85199Y253479D01*
X-84979Y254452D01*
X-84814Y255435D01*
X-84705Y256426D01*
X-84651Y257422D01*
X-84654Y258419D01*
X-84713Y259414D01*
X-84827Y260405D01*
X-75086Y271654D02*
X-76077Y271604D01*
X-77057Y271454D01*
X-78018Y271207D01*
X-78949Y270864D01*
X-79840Y270429D01*
X-80684Y269907D01*
X-81470Y269302D01*
X-82192Y268621D01*
X-82841Y267871D01*
X-83412Y267060D01*
X-83898Y266195D01*
X-84295Y265286D01*
X-84598Y264341D01*
X-84804Y263371D01*
X-84912Y262385D01*
X-84919Y261393D01*
X-84827Y260405D01*
X84827D02*
X84919Y261393D01*
X84912Y262385D01*
X84804Y263371D01*
X84598Y264341D01*
X84295Y265286D01*
X83898Y266195D01*
X83412Y267060D01*
X82841Y267871D01*
X82192Y268621D01*
X81470Y269302D01*
X80684Y269907D01*
X79840Y270429D01*
X78949Y270864D01*
X78018Y271207D01*
X77057Y271454D01*
X76077Y271604D01*
X75086Y271654D01*
X-56212Y246030D02*
X59788Y246030D01*
X-56212D02*
Y271654D01*
X59788Y246030D02*
Y271654D01*
X75086D01*
X-75086D02*
X-56212D01*
X75016Y-70D02*
X75086Y0D01*
X-75086D02*
X-75016Y-70D01*
X-17176D02*
Y5500D01*
X-75016Y-70D02*
X-17176D01*
X17151D02*
Y23152D01*
X-17176D02*
X17151D01*
X-17176Y5500D02*
Y23152D01*
X17151Y-70D02*
X75016D01*
X116142Y41056D02*
Y230598D01*
X-116142Y41056D02*
Y230598D01*
M02*
