G04*
G04 #@! TF.GenerationSoftware,Altium Limited,Altium Designer,22.2.1 (43)*
G04*
G04 Layer_Physical_Order=3*
G04 Layer_Color=16440176*
%FSLAX25Y25*%
%MOIN*%
G70*
G04*
G04 #@! TF.SameCoordinates,54FADD59-BBF9-4A11-9494-7AB4E3D874E1*
G04*
G04*
G04 #@! TF.FilePolarity,Positive*
G04*
G01*
G75*
%ADD103C,0.02362*%
%ADD104C,0.03937*%
G36*
X57532Y262416D02*
X58925Y261671D01*
X59055Y261564D01*
Y224780D01*
X54357D01*
Y197653D01*
X13780D01*
X13472Y197592D01*
X13355Y197514D01*
X13284Y197561D01*
X12977Y197622D01*
X-68322D01*
X-68629Y197561D01*
X-68890Y197387D01*
X-69064Y197127D01*
X-69125Y196819D01*
Y117315D01*
X-69108Y117233D01*
X-69107Y117149D01*
X-69078Y117081D01*
X-69064Y117008D01*
X-69017Y116938D01*
X-68984Y116861D01*
X-68931Y116809D01*
X-68890Y116748D01*
X-68669Y116315D01*
X-68968Y115592D01*
Y114808D01*
X-68669Y114085D01*
X-68890Y113652D01*
X-68931Y113591D01*
X-68984Y113539D01*
X-69017Y113462D01*
X-69064Y113392D01*
X-69078Y113319D01*
X-69107Y113251D01*
X-69108Y113167D01*
X-69125Y113085D01*
Y56120D01*
X-69114Y56064D01*
X-69702Y55820D01*
X-70256Y55266D01*
X-70556Y54543D01*
Y53760D01*
X-70256Y53036D01*
X-69702Y52482D01*
X-69114Y52239D01*
X-69125Y52183D01*
Y49331D01*
X-69129Y49326D01*
X-70039D01*
X-70347Y49265D01*
X-70607Y49091D01*
X-70781Y48831D01*
X-70842Y48524D01*
Y36511D01*
X-134425D01*
X-134767Y36876D01*
X-134683Y38152D01*
X-134850Y40701D01*
X-135348Y43207D01*
X-136170Y45626D01*
X-137300Y47917D01*
X-138719Y50041D01*
X-140403Y51962D01*
X-142324Y53646D01*
X-144448Y55066D01*
X-146739Y56196D01*
X-149158Y57017D01*
X-151664Y57515D01*
X-154213Y57682D01*
X-156514Y57531D01*
X-156762Y57515D01*
X-157003Y57483D01*
X-157003Y57483D01*
X-158150Y57370D01*
X-159722Y57525D01*
X-161234Y57984D01*
X-161417Y58082D01*
Y153517D01*
X-160955Y153709D01*
X-160719Y153472D01*
X-159300Y152524D01*
X-157724Y151871D01*
X-156050Y151538D01*
X-154344D01*
X-152671Y151871D01*
X-151094Y152524D01*
X-149676Y153472D01*
X-148469Y154678D01*
X-147522Y156097D01*
X-146869Y157673D01*
X-146536Y159346D01*
Y161053D01*
X-146869Y162726D01*
X-147522Y164302D01*
X-148469Y165721D01*
X-149676Y166927D01*
X-151094Y167875D01*
X-152671Y168528D01*
X-154344Y168861D01*
X-156050D01*
X-157724Y168528D01*
X-159300Y167875D01*
X-160719Y166927D01*
X-160955Y166691D01*
X-161417Y166882D01*
Y262317D01*
X-161234Y262416D01*
X-160292Y262701D01*
X56591D01*
X57532Y262416D01*
D02*
G37*
G36*
X59055Y165721D02*
Y165337D01*
X58577Y165192D01*
X58223Y165721D01*
X57017Y166927D01*
X55598Y167875D01*
X54022Y168528D01*
X52349Y168861D01*
X50643D01*
X48969Y168528D01*
X47393Y167875D01*
X45974Y166927D01*
X44768Y165721D01*
X43820Y164302D01*
X43167Y162726D01*
X42834Y161053D01*
Y159346D01*
X43167Y157673D01*
X43820Y156097D01*
X44768Y154678D01*
X45974Y153472D01*
X47393Y152524D01*
X48969Y151871D01*
X50643Y151538D01*
X52349D01*
X54022Y151871D01*
X55598Y152524D01*
X57017Y153472D01*
X58223Y154678D01*
X58577Y155207D01*
X59055Y155062D01*
Y151538D01*
Y137369D01*
Y134031D01*
Y130008D01*
Y126485D01*
Y120268D01*
Y116631D01*
Y101669D01*
Y98031D01*
Y81169D01*
Y78085D01*
X59055Y72168D01*
Y69808D01*
Y65131D01*
Y58833D01*
X58926Y58727D01*
X57533Y57982D01*
X56021Y57524D01*
X54448Y57369D01*
X53301Y57482D01*
Y57482D01*
X53061Y57515D01*
X52812Y57531D01*
X50511Y57682D01*
X47962Y57515D01*
X45457Y57017D01*
X43038Y56196D01*
X40746Y55066D01*
X38622Y53646D01*
X36702Y51962D01*
X35017Y50041D01*
X33598Y47917D01*
X32468Y45626D01*
X31647Y43207D01*
X31148Y40701D01*
X30981Y38152D01*
X31078Y36686D01*
X30737Y36320D01*
X25605Y36299D01*
X25475Y36429D01*
X25175Y37152D01*
X24622Y37706D01*
X23898Y38006D01*
X23115D01*
X22392Y37706D01*
X21838Y37152D01*
X21538Y36429D01*
Y36282D01*
X14134Y36251D01*
X13780Y36604D01*
Y65432D01*
X13813Y65453D01*
X14279Y65585D01*
X14733Y65131D01*
X15457Y64832D01*
X16240D01*
X16963Y65131D01*
X17517Y65685D01*
X17817Y66408D01*
Y67192D01*
X17517Y67915D01*
X17259Y68173D01*
X16989Y68500D01*
X17259Y68827D01*
X17517Y69085D01*
X17817Y69808D01*
Y70592D01*
X17517Y71315D01*
X16963Y71869D01*
X16240Y72168D01*
X15457D01*
X14733Y71869D01*
X14279Y71415D01*
X13813Y71547D01*
X13780Y71568D01*
Y196850D01*
X59055D01*
Y165721D01*
D02*
G37*
G36*
X12977Y71568D02*
X12994Y71481D01*
X12996Y71393D01*
X13024Y71329D01*
X13038Y71261D01*
X13087Y71187D01*
X13123Y71106D01*
X13173Y71058D01*
X13212Y71001D01*
X13286Y70951D01*
X13289Y70948D01*
X13316Y70917D01*
X13329Y70910D01*
X13350Y70890D01*
X13384Y70869D01*
X13444Y70846D01*
X13472Y70827D01*
X13880Y70591D01*
Y69808D01*
X14179Y69085D01*
X14438Y68827D01*
X14707Y68500D01*
X14438Y68173D01*
X14179Y67915D01*
X13880Y67192D01*
Y66408D01*
X13472Y66173D01*
X13444Y66154D01*
X13384Y66131D01*
X13350Y66110D01*
X13329Y66090D01*
X13316Y66083D01*
X13289Y66052D01*
X13286Y66049D01*
X13212Y65999D01*
X13173Y65942D01*
X13123Y65894D01*
X13087Y65813D01*
X13038Y65739D01*
X13024Y65671D01*
X12996Y65607D01*
X12994Y65519D01*
X12977Y65432D01*
Y36604D01*
X12487Y36511D01*
X-540D01*
Y36615D01*
X-869Y37410D01*
X-1479Y38019D01*
X-2275Y38349D01*
X-3136D01*
X-3932Y38019D01*
X-4541Y37410D01*
X-4871Y36615D01*
Y36511D01*
X-32859D01*
Y48524D01*
X-32920Y48831D01*
X-33094Y49091D01*
X-33354Y49265D01*
X-33661Y49326D01*
X-34675D01*
X-34700Y49331D01*
X-68322D01*
Y52183D01*
X-68195D01*
X-67472Y52482D01*
X-66918Y53036D01*
X-66619Y53760D01*
Y54543D01*
X-66918Y55266D01*
X-67472Y55820D01*
X-68195Y56120D01*
X-68322D01*
Y113085D01*
X-67822Y113410D01*
X-67392Y113232D01*
X-66608D01*
X-65885Y113531D01*
X-65331Y114085D01*
X-65031Y114808D01*
Y115592D01*
X-65331Y116315D01*
X-65885Y116869D01*
X-66608Y117168D01*
X-67392D01*
X-67822Y116990D01*
X-68322Y117315D01*
Y196819D01*
X12977D01*
Y71568D01*
D02*
G37*
%LPC*%
G36*
X-19505Y261436D02*
X-20288D01*
X-21012Y261136D01*
X-21565Y260582D01*
X-21865Y259859D01*
Y259076D01*
X-21565Y258352D01*
X-21012Y257798D01*
X-20288Y257499D01*
X-19505D01*
X-18782Y257798D01*
X-18228Y258352D01*
X-17928Y259076D01*
Y259859D01*
X-18228Y260582D01*
X-18782Y261136D01*
X-19505Y261436D01*
D02*
G37*
G36*
X-8258Y259219D02*
X-9042D01*
X-9765Y258919D01*
X-10319Y258365D01*
X-10618Y257642D01*
Y256858D01*
X-10319Y256135D01*
X-9765Y255581D01*
X-9042Y255281D01*
X-8258D01*
X-7535Y255581D01*
X-6981Y256135D01*
X-6681Y256858D01*
Y257642D01*
X-6981Y258365D01*
X-7535Y258919D01*
X-8258Y259219D01*
D02*
G37*
G36*
X-8082Y252677D02*
X-8865D01*
X-9589Y252377D01*
X-10142Y251823D01*
X-10442Y251100D01*
Y250317D01*
X-10142Y249593D01*
X-9589Y249040D01*
X-8865Y248740D01*
X-8082D01*
X-7358Y249040D01*
X-6805Y249593D01*
X-6505Y250317D01*
Y251100D01*
X-6805Y251823D01*
X-7358Y252377D01*
X-8082Y252677D01*
D02*
G37*
G36*
X-107765Y250769D02*
X-108548D01*
X-109272Y250470D01*
X-109826Y249916D01*
X-110125Y249193D01*
Y248409D01*
X-109826Y247686D01*
X-109272Y247132D01*
X-108548Y246832D01*
X-107765D01*
X-107042Y247132D01*
X-106488Y247686D01*
X-106188Y248409D01*
Y249193D01*
X-106488Y249916D01*
X-107042Y250470D01*
X-107765Y250769D01*
D02*
G37*
G36*
X-79741Y249604D02*
X-80524D01*
X-81248Y249305D01*
X-81802Y248751D01*
X-82101Y248027D01*
Y247244D01*
X-81802Y246521D01*
X-81248Y245967D01*
X-80524Y245667D01*
X-79741D01*
X-79018Y245967D01*
X-78464Y246521D01*
X-78164Y247244D01*
Y248027D01*
X-78464Y248751D01*
X-79018Y249305D01*
X-79741Y249604D01*
D02*
G37*
G36*
X-63206Y247638D02*
X-63989D01*
X-64713Y247338D01*
X-65266Y246784D01*
X-65566Y246061D01*
Y245278D01*
X-65266Y244554D01*
X-64713Y244001D01*
X-63989Y243701D01*
X-63206D01*
X-62482Y244001D01*
X-61929Y244554D01*
X-61629Y245278D01*
Y246061D01*
X-61929Y246784D01*
X-62482Y247338D01*
X-63206Y247638D01*
D02*
G37*
G36*
X-7546Y246319D02*
X-8329D01*
X-9052Y246019D01*
X-9606Y245466D01*
X-9906Y244742D01*
Y243959D01*
X-9606Y243235D01*
X-9052Y242682D01*
X-8329Y242382D01*
X-7546D01*
X-6822Y242682D01*
X-6268Y243235D01*
X-5969Y243959D01*
Y244742D01*
X-6268Y245466D01*
X-6822Y246019D01*
X-7546Y246319D01*
D02*
G37*
G36*
X-107408Y244868D02*
X-108192D01*
X-108915Y244569D01*
X-109469Y244015D01*
X-109768Y243292D01*
Y242508D01*
X-109469Y241785D01*
X-108915Y241231D01*
X-108192Y240932D01*
X-107408D01*
X-106685Y241231D01*
X-106131Y241785D01*
X-105832Y242508D01*
Y243292D01*
X-106131Y244015D01*
X-106685Y244569D01*
X-107408Y244868D01*
D02*
G37*
G36*
X44692Y242469D02*
X43908D01*
X43185Y242169D01*
X42631Y241615D01*
X42331Y240892D01*
Y240108D01*
X42631Y239385D01*
X43185Y238831D01*
X43908Y238531D01*
X44692D01*
X45415Y238831D01*
X45969Y239385D01*
X46268Y240108D01*
Y240892D01*
X45969Y241615D01*
X45415Y242169D01*
X44692Y242469D01*
D02*
G37*
G36*
X-39779Y247441D02*
X-52771D01*
Y234449D01*
X-39779D01*
Y247441D01*
D02*
G37*
G36*
X33055Y233864D02*
X32272D01*
X31549Y233564D01*
X30995Y233010D01*
X30695Y232287D01*
Y231504D01*
X30995Y230780D01*
X31549Y230226D01*
X32272Y229927D01*
X33055D01*
X33779Y230226D01*
X34333Y230780D01*
X34632Y231504D01*
Y232287D01*
X34333Y233010D01*
X33779Y233564D01*
X33055Y233864D01*
D02*
G37*
G36*
X-79577Y232260D02*
X-80360D01*
X-81084Y231960D01*
X-81637Y231407D01*
X-81937Y230683D01*
Y229900D01*
X-81637Y229176D01*
X-81084Y228623D01*
X-80360Y228323D01*
X-79577D01*
X-78853Y228623D01*
X-78300Y229176D01*
X-78000Y229900D01*
Y230683D01*
X-78300Y231407D01*
X-78853Y231960D01*
X-79577Y232260D01*
D02*
G37*
G36*
X-20708Y231869D02*
X-21492D01*
X-22215Y231569D01*
X-22769Y231015D01*
X-23068Y230292D01*
Y229508D01*
X-22769Y228785D01*
X-22215Y228231D01*
X-21492Y227931D01*
X-20708D01*
X-19985Y228231D01*
X-19431Y228785D01*
X-19131Y229508D01*
Y230292D01*
X-19431Y231015D01*
X-19985Y231569D01*
X-20708Y231869D01*
D02*
G37*
G36*
X-20908Y225969D02*
X-21692D01*
X-22415Y225669D01*
X-22969Y225115D01*
X-23268Y224392D01*
Y223608D01*
X-22969Y222885D01*
X-22415Y222331D01*
X-21692Y222031D01*
X-20908D01*
X-20185Y222331D01*
X-19631Y222885D01*
X-19331Y223608D01*
Y224392D01*
X-19631Y225115D01*
X-20185Y225669D01*
X-20908Y225969D01*
D02*
G37*
G36*
X-79608Y225368D02*
X-80392D01*
X-81115Y225069D01*
X-81669Y224515D01*
X-81968Y223792D01*
Y223008D01*
X-81669Y222285D01*
X-81115Y221731D01*
X-80392Y221431D01*
X-79608D01*
X-78885Y221731D01*
X-78331Y222285D01*
X-78031Y223008D01*
Y223792D01*
X-78331Y224515D01*
X-78885Y225069D01*
X-79608Y225368D01*
D02*
G37*
G36*
X18823Y222244D02*
X18040D01*
X17317Y221944D01*
X16763Y221391D01*
X16687Y221206D01*
X16145D01*
X16069Y221391D01*
X15515Y221944D01*
X14792Y222244D01*
X14008D01*
X13285Y221944D01*
X12731Y221391D01*
X12432Y220667D01*
Y219884D01*
X12731Y219161D01*
X13285Y218607D01*
X14008Y218307D01*
X14792D01*
X15515Y218607D01*
X16069Y219161D01*
X16145Y219345D01*
X16687D01*
X16763Y219161D01*
X17317Y218607D01*
X18040Y218307D01*
X18823D01*
X19547Y218607D01*
X20101Y219161D01*
X20400Y219884D01*
Y220667D01*
X20101Y221391D01*
X19547Y221944D01*
X18823Y222244D01*
D02*
G37*
G36*
X-90747Y220079D02*
X-91530D01*
X-92254Y219779D01*
X-92807Y219225D01*
X-93107Y218502D01*
Y217719D01*
X-92807Y216995D01*
X-92254Y216441D01*
X-91530Y216142D01*
X-90747D01*
X-90023Y216441D01*
X-89470Y216995D01*
X-89170Y217719D01*
Y218502D01*
X-89470Y219225D01*
X-90023Y219779D01*
X-90747Y220079D01*
D02*
G37*
G36*
X-21208Y220069D02*
X-21992D01*
X-22715Y219769D01*
X-23269Y219215D01*
X-23569Y218492D01*
Y217708D01*
X-23269Y216985D01*
X-22715Y216431D01*
X-21992Y216131D01*
X-21208D01*
X-20485Y216431D01*
X-19931Y216985D01*
X-19632Y217708D01*
Y218492D01*
X-19931Y219215D01*
X-20485Y219769D01*
X-21208Y220069D01*
D02*
G37*
G36*
X36892Y213568D02*
X36108D01*
X35385Y213269D01*
X34831Y212715D01*
X34532Y211992D01*
Y211208D01*
X34831Y210485D01*
X35385Y209931D01*
X36108Y209631D01*
X36892D01*
X37615Y209931D01*
X38169Y210485D01*
X38469Y211208D01*
Y211992D01*
X38169Y212715D01*
X37615Y213269D01*
X36892Y213568D01*
D02*
G37*
G36*
X-23297Y209574D02*
X-24080D01*
X-24803Y209275D01*
X-25357Y208721D01*
X-25657Y207997D01*
Y207214D01*
X-25357Y206491D01*
X-24803Y205937D01*
X-24080Y205637D01*
X-23297D01*
X-22573Y205937D01*
X-22020Y206491D01*
X-21720Y207214D01*
Y207997D01*
X-22020Y208721D01*
X-22573Y209275D01*
X-23297Y209574D01*
D02*
G37*
G36*
X-50660D02*
X-51443D01*
X-52167Y209275D01*
X-52721Y208721D01*
X-53020Y207997D01*
Y207214D01*
X-52721Y206491D01*
X-52167Y205937D01*
X-51443Y205637D01*
X-50660D01*
X-49937Y205937D01*
X-49383Y206491D01*
X-49083Y207214D01*
Y207997D01*
X-49383Y208721D01*
X-49937Y209275D01*
X-50660Y209574D01*
D02*
G37*
G36*
X-134212Y208869D02*
X-134995D01*
X-135718Y208569D01*
X-136272Y208015D01*
X-136572Y207292D01*
Y206508D01*
X-136272Y205785D01*
X-135718Y205231D01*
X-134995Y204931D01*
X-134212D01*
X-133488Y205231D01*
X-132934Y205785D01*
X-132635Y206508D01*
Y207292D01*
X-132934Y208015D01*
X-133488Y208569D01*
X-134212Y208869D01*
D02*
G37*
G36*
X-116108Y203569D02*
X-116892D01*
X-117615Y203269D01*
X-118169Y202715D01*
X-118468Y201992D01*
Y201208D01*
X-118169Y200485D01*
X-117615Y199931D01*
X-116892Y199632D01*
X-116108D01*
X-115385Y199931D01*
X-114831Y200485D01*
X-114532Y201208D01*
Y201992D01*
X-114831Y202715D01*
X-115385Y203269D01*
X-116108Y203569D01*
D02*
G37*
G36*
X-119208Y200168D02*
X-119992D01*
X-120715Y199869D01*
X-121269Y199315D01*
X-121569Y198592D01*
Y197808D01*
X-121269Y197085D01*
X-120715Y196531D01*
X-119992Y196231D01*
X-119208D01*
X-118485Y196531D01*
X-117931Y197085D01*
X-117631Y197808D01*
Y198592D01*
X-117931Y199315D01*
X-118485Y199869D01*
X-119208Y200168D01*
D02*
G37*
G36*
X-134408Y192868D02*
X-135192D01*
X-135915Y192569D01*
X-136469Y192015D01*
X-136768Y191292D01*
Y190508D01*
X-136469Y189785D01*
X-135915Y189231D01*
X-135192Y188932D01*
X-134408D01*
X-133685Y189231D01*
X-133131Y189785D01*
X-132832Y190508D01*
Y191292D01*
X-133131Y192015D01*
X-133685Y192569D01*
X-134408Y192868D01*
D02*
G37*
G36*
X-88408Y161768D02*
X-89192D01*
X-89915Y161469D01*
X-90469Y160915D01*
X-90768Y160192D01*
Y159408D01*
X-90469Y158685D01*
X-89915Y158131D01*
X-89192Y157832D01*
X-88408D01*
X-87685Y158131D01*
X-87131Y158685D01*
X-86831Y159408D01*
Y160192D01*
X-87131Y160915D01*
X-87685Y161469D01*
X-88408Y161768D01*
D02*
G37*
G36*
X-82108Y161669D02*
X-82892D01*
X-83615Y161369D01*
X-84169Y160815D01*
X-84469Y160092D01*
Y159308D01*
X-84169Y158585D01*
X-83615Y158031D01*
X-82892Y157731D01*
X-82108D01*
X-81385Y158031D01*
X-80831Y158585D01*
X-80532Y159308D01*
Y160092D01*
X-80831Y160815D01*
X-81385Y161369D01*
X-82108Y161669D01*
D02*
G37*
G36*
X-82008Y155569D02*
X-82792D01*
X-83515Y155269D01*
X-84069Y154715D01*
X-84368Y153992D01*
Y153208D01*
X-84069Y152485D01*
X-83515Y151931D01*
X-82792Y151631D01*
X-82008D01*
X-81285Y151931D01*
X-80731Y152485D01*
X-80431Y153208D01*
Y153992D01*
X-80731Y154715D01*
X-81285Y155269D01*
X-82008Y155569D01*
D02*
G37*
G36*
X-97708Y155468D02*
X-98492D01*
X-99215Y155169D01*
X-99769Y154615D01*
X-100068Y153892D01*
Y153108D01*
X-99769Y152385D01*
X-99215Y151831D01*
X-98492Y151532D01*
X-97708D01*
X-96985Y151831D01*
X-96431Y152385D01*
X-96131Y153108D01*
Y153892D01*
X-96431Y154615D01*
X-96985Y155169D01*
X-97708Y155468D01*
D02*
G37*
G36*
X-103808Y123969D02*
X-104592D01*
X-105315Y123669D01*
X-105869Y123115D01*
X-106168Y122392D01*
Y121608D01*
X-105869Y120885D01*
X-105315Y120331D01*
X-104592Y120031D01*
X-103808D01*
X-103085Y120331D01*
X-102531Y120885D01*
X-102232Y121608D01*
Y122392D01*
X-102531Y123115D01*
X-103085Y123669D01*
X-103808Y123969D01*
D02*
G37*
G36*
X-103508Y105769D02*
X-104292D01*
X-105015Y105469D01*
X-105569Y104915D01*
X-105868Y104192D01*
Y103408D01*
X-105569Y102685D01*
X-105015Y102131D01*
X-104292Y101831D01*
X-103508D01*
X-102785Y102131D01*
X-102231Y102685D01*
X-101932Y103408D01*
Y104192D01*
X-102231Y104915D01*
X-102785Y105469D01*
X-103508Y105769D01*
D02*
G37*
G36*
X-135308Y95069D02*
X-136092D01*
X-136815Y94769D01*
X-137369Y94215D01*
X-137669Y93492D01*
Y92708D01*
X-137369Y91985D01*
X-136815Y91431D01*
X-136092Y91132D01*
X-135308D01*
X-134585Y91431D01*
X-134031Y91985D01*
X-133731Y92708D01*
Y93492D01*
X-134031Y94215D01*
X-134585Y94769D01*
X-135308Y95069D01*
D02*
G37*
G36*
X-103308Y88269D02*
X-104092D01*
X-104815Y87969D01*
X-105369Y87415D01*
X-105668Y86692D01*
Y85908D01*
X-105369Y85185D01*
X-104815Y84631D01*
X-104092Y84332D01*
X-103308D01*
X-102585Y84631D01*
X-102031Y85185D01*
X-101732Y85908D01*
Y86692D01*
X-102031Y87415D01*
X-102585Y87969D01*
X-103308Y88269D01*
D02*
G37*
G36*
X-117804Y84896D02*
X-118587D01*
X-119311Y84596D01*
X-119864Y84043D01*
X-120164Y83319D01*
Y82536D01*
X-119864Y81813D01*
X-119311Y81259D01*
X-118587Y80959D01*
X-117804D01*
X-117080Y81259D01*
X-116527Y81813D01*
X-116227Y82536D01*
Y83319D01*
X-116527Y84043D01*
X-117080Y84596D01*
X-117804Y84896D01*
D02*
G37*
G36*
X-133608Y83669D02*
X-134392D01*
X-135115Y83369D01*
X-135669Y82815D01*
X-135968Y82092D01*
Y81308D01*
X-135669Y80585D01*
X-135115Y80031D01*
X-134392Y79732D01*
X-133608D01*
X-132885Y80031D01*
X-132331Y80585D01*
X-132032Y81308D01*
Y82092D01*
X-132331Y82815D01*
X-132885Y83369D01*
X-133608Y83669D01*
D02*
G37*
G36*
X-76380Y57087D02*
X-77163D01*
X-77887Y56787D01*
X-78440Y56233D01*
X-78740Y55510D01*
Y54726D01*
X-78440Y54003D01*
X-77887Y53449D01*
X-77163Y53150D01*
X-76380D01*
X-75657Y53449D01*
X-75103Y54003D01*
X-74803Y54726D01*
Y55510D01*
X-75103Y56233D01*
X-75657Y56787D01*
X-76380Y57087D01*
D02*
G37*
G36*
X-74291Y50516D02*
X-75011Y50421D01*
X-75681Y50143D01*
X-76257Y49702D01*
X-76699Y49126D01*
X-76976Y48456D01*
X-77071Y47736D01*
Y44587D01*
X-76976Y43867D01*
X-76699Y43197D01*
X-76257Y42621D01*
X-75681Y42179D01*
X-75011Y41902D01*
X-74291Y41807D01*
X-73572Y41902D01*
X-72901Y42179D01*
X-72326Y42621D01*
X-71884Y43197D01*
X-71606Y43867D01*
X-71512Y44587D01*
Y47736D01*
X-71606Y48456D01*
X-71884Y49126D01*
X-72326Y49702D01*
X-72901Y50143D01*
X-73572Y50421D01*
X-74291Y50516D01*
D02*
G37*
G36*
X42892Y175368D02*
X42108D01*
X41385Y175069D01*
X40831Y174515D01*
X40532Y173792D01*
Y173008D01*
X40831Y172285D01*
X41385Y171731D01*
X42108Y171432D01*
X42892D01*
X43615Y171731D01*
X44169Y172285D01*
X44469Y173008D01*
Y173792D01*
X44169Y174515D01*
X43615Y175069D01*
X42892Y175368D01*
D02*
G37*
G36*
X43792Y135169D02*
X43008D01*
X42285Y134869D01*
X41850Y134434D01*
X41415Y134869D01*
X40692Y135169D01*
X39908D01*
X39185Y134869D01*
X38631Y134315D01*
X38331Y133592D01*
Y132808D01*
X38631Y132085D01*
X38916Y131800D01*
X38631Y131515D01*
X38331Y130792D01*
Y130008D01*
X38631Y129285D01*
X38916Y129000D01*
X38631Y128715D01*
X38331Y127992D01*
Y127208D01*
X38631Y126485D01*
X39185Y125931D01*
X39908Y125631D01*
X40692D01*
X41415Y125931D01*
X41850Y126366D01*
X42285Y125931D01*
X43008Y125631D01*
X43792D01*
X44515Y125931D01*
X45069Y126485D01*
X45368Y127208D01*
Y127992D01*
X45069Y128715D01*
X44784Y129000D01*
X45069Y129285D01*
X45368Y130008D01*
Y130792D01*
X45069Y131515D01*
X44784Y131800D01*
X45069Y132085D01*
X45368Y132808D01*
Y133592D01*
X45069Y134315D01*
X44515Y134869D01*
X43792Y135169D01*
D02*
G37*
G36*
X27692Y137669D02*
X26908D01*
X26185Y137369D01*
X25631Y136815D01*
X25332Y136092D01*
Y135308D01*
X25631Y134585D01*
X26185Y134031D01*
X26908Y133731D01*
X27692D01*
X28415Y134031D01*
X28969Y134585D01*
X29269Y135308D01*
Y136092D01*
X28969Y136815D01*
X28415Y137369D01*
X27692Y137669D01*
D02*
G37*
G36*
X19492Y120268D02*
X18708D01*
X17985Y119969D01*
X17431Y119415D01*
X17131Y118692D01*
Y117908D01*
X17431Y117185D01*
X17985Y116631D01*
X18708Y116332D01*
X19492D01*
X20215Y116631D01*
X20769Y117185D01*
X21068Y117908D01*
Y118692D01*
X20769Y119415D01*
X20215Y119969D01*
X19492Y120268D01*
D02*
G37*
G36*
X19408Y101669D02*
X18625D01*
X17901Y101369D01*
X17348Y100815D01*
X17048Y100092D01*
Y99308D01*
X17348Y98585D01*
X17901Y98031D01*
X18625Y97732D01*
X19408D01*
X20132Y98031D01*
X20685Y98585D01*
X20985Y99308D01*
Y100092D01*
X20685Y100815D01*
X20132Y101369D01*
X19408Y101669D01*
D02*
G37*
G36*
X23592Y81169D02*
X22808D01*
X22085Y80869D01*
X21531Y80315D01*
X21231Y79592D01*
Y78808D01*
X21531Y78085D01*
X22085Y77531D01*
X22808Y77232D01*
X23592D01*
X24315Y77531D01*
X24869Y78085D01*
X25168Y78808D01*
Y79592D01*
X24869Y80315D01*
X24315Y80869D01*
X23592Y81169D01*
D02*
G37*
G36*
X-34849Y192968D02*
X-35632D01*
X-36355Y192669D01*
X-36909Y192115D01*
X-36950Y192017D01*
X-37491D01*
X-37531Y192115D01*
X-38085Y192669D01*
X-38808Y192968D01*
X-39592D01*
X-40315Y192669D01*
X-40869Y192115D01*
X-41168Y191392D01*
Y190608D01*
X-40869Y189885D01*
X-40315Y189331D01*
X-39592Y189032D01*
X-38808D01*
X-38085Y189331D01*
X-37531Y189885D01*
X-37491Y189983D01*
X-36950D01*
X-36909Y189885D01*
X-36355Y189331D01*
X-35632Y189032D01*
X-34849D01*
X-34125Y189331D01*
X-33571Y189885D01*
X-33272Y190608D01*
Y191392D01*
X-33571Y192115D01*
X-34125Y192669D01*
X-34849Y192968D01*
D02*
G37*
G36*
X-16308Y172369D02*
X-17092D01*
X-17815Y172069D01*
X-18369Y171515D01*
X-18529Y171127D01*
X-19071D01*
X-19231Y171515D01*
X-19785Y172069D01*
X-20508Y172369D01*
X-21292D01*
X-22015Y172069D01*
X-22569Y171515D01*
X-22869Y170792D01*
Y170008D01*
X-22569Y169285D01*
X-22015Y168731D01*
X-21292Y168431D01*
X-20508D01*
X-19785Y168731D01*
X-19231Y169285D01*
X-19071Y169673D01*
X-18529D01*
X-18369Y169285D01*
X-17815Y168731D01*
X-17092Y168431D01*
X-16308D01*
X-15585Y168731D01*
X-15031Y169285D01*
X-14731Y170008D01*
Y170792D01*
X-15031Y171515D01*
X-15585Y172069D01*
X-16308Y172369D01*
D02*
G37*
G36*
X-53309Y174068D02*
X-54092D01*
X-54816Y173768D01*
X-55370Y173214D01*
X-55669Y172491D01*
Y171708D01*
X-55370Y170984D01*
X-54816Y170430D01*
X-54092Y170131D01*
X-53309D01*
X-52586Y170430D01*
X-52032Y170984D01*
X-51732Y171708D01*
Y172491D01*
X-52032Y173214D01*
X-52586Y173768D01*
X-53309Y174068D01*
D02*
G37*
G36*
X-50940Y155177D02*
X-51723D01*
X-52447Y154877D01*
X-53000Y154323D01*
X-53300Y153600D01*
Y152817D01*
X-53000Y152093D01*
X-52447Y151540D01*
X-51723Y151240D01*
X-50940D01*
X-50216Y151540D01*
X-49663Y152093D01*
X-49363Y152817D01*
Y153600D01*
X-49663Y154323D01*
X-50216Y154877D01*
X-50940Y155177D01*
D02*
G37*
G36*
X1176Y146713D02*
X393D01*
X-331Y146413D01*
X-885Y145859D01*
X-1184Y145136D01*
Y144352D01*
X-885Y143629D01*
X-331Y143075D01*
X393Y142776D01*
X1176D01*
X1899Y143075D01*
X2453Y143629D01*
X2753Y144352D01*
Y145136D01*
X2453Y145859D01*
X1899Y146413D01*
X1176Y146713D01*
D02*
G37*
G36*
X-62008Y140368D02*
X-62792D01*
X-63515Y140069D01*
X-64069Y139515D01*
X-64368Y138792D01*
Y138008D01*
X-64069Y137285D01*
X-63515Y136731D01*
X-62792Y136432D01*
X-62008D01*
X-61285Y136731D01*
X-60731Y137285D01*
X-60431Y138008D01*
Y138792D01*
X-60731Y139515D01*
X-61285Y140069D01*
X-62008Y140368D01*
D02*
G37*
G36*
X-60208Y136169D02*
X-60991D01*
X-61714Y135869D01*
X-62268Y135315D01*
X-62568Y134592D01*
Y133808D01*
X-62268Y133085D01*
X-61714Y132531D01*
X-60991Y132231D01*
X-60208D01*
X-59484Y132531D01*
X-58930Y133085D01*
X-58631Y133808D01*
Y134592D01*
X-58930Y135315D01*
X-59484Y135869D01*
X-60208Y136169D01*
D02*
G37*
G36*
X592Y116668D02*
X-192D01*
X-915Y116369D01*
X-1469Y115815D01*
X-1768Y115092D01*
Y114308D01*
X-1469Y113585D01*
X-915Y113031D01*
X-192Y112732D01*
X592D01*
X1315Y113031D01*
X1869Y113585D01*
X2169Y114308D01*
Y115092D01*
X1869Y115815D01*
X1315Y116369D01*
X592Y116668D01*
D02*
G37*
G36*
X-16808Y115469D02*
X-17592D01*
X-18315Y115169D01*
X-18869Y114615D01*
X-19169Y113892D01*
Y113108D01*
X-18869Y112385D01*
X-18315Y111831D01*
X-17592Y111531D01*
X-16808D01*
X-16085Y111831D01*
X-15531Y112385D01*
X-15232Y113108D01*
Y113892D01*
X-15531Y114615D01*
X-16085Y115169D01*
X-16808Y115469D01*
D02*
G37*
G36*
X-45008Y90368D02*
X-45792D01*
X-46515Y90069D01*
X-47069Y89515D01*
X-47368Y88792D01*
Y88008D01*
X-47069Y87285D01*
X-46515Y86731D01*
X-45792Y86431D01*
X-45008D01*
X-44285Y86731D01*
X-43731Y87285D01*
X-43431Y88008D01*
Y88792D01*
X-43731Y89515D01*
X-44285Y90069D01*
X-45008Y90368D01*
D02*
G37*
G36*
X-2465Y88829D02*
X-3248D01*
X-3972Y88529D01*
X-4526Y87975D01*
X-4825Y87252D01*
Y86469D01*
X-4526Y85745D01*
X-3972Y85192D01*
X-3248Y84892D01*
X-2465D01*
X-1742Y85192D01*
X-1188Y85745D01*
X-888Y86469D01*
Y87252D01*
X-1188Y87975D01*
X-1742Y88529D01*
X-2465Y88829D01*
D02*
G37*
G36*
X5592Y88368D02*
X4808D01*
X4085Y88069D01*
X3531Y87515D01*
X3232Y86792D01*
Y86008D01*
X3531Y85285D01*
X4085Y84731D01*
X4808Y84431D01*
X5592D01*
X6315Y84731D01*
X6869Y85285D01*
X7169Y86008D01*
Y86792D01*
X6869Y87515D01*
X6315Y88069D01*
X5592Y88368D01*
D02*
G37*
G36*
X-9508Y80568D02*
X-10292D01*
X-11015Y80269D01*
X-11569Y79715D01*
X-11868Y78992D01*
Y78208D01*
X-11569Y77485D01*
X-11015Y76931D01*
X-10292Y76631D01*
X-9508D01*
X-8785Y76931D01*
X-8231Y77485D01*
X-7931Y78208D01*
Y78992D01*
X-8231Y79715D01*
X-8785Y80269D01*
X-9508Y80568D01*
D02*
G37*
G36*
X-35041Y74803D02*
X-35825D01*
X-36548Y74503D01*
X-37102Y73950D01*
X-37402Y73226D01*
Y72443D01*
X-37102Y71720D01*
X-36548Y71166D01*
X-35825Y70866D01*
X-35041D01*
X-34318Y71166D01*
X-33764Y71720D01*
X-33465Y72443D01*
Y73226D01*
X-33764Y73950D01*
X-34318Y74503D01*
X-35041Y74803D01*
D02*
G37*
G36*
X-39208Y67769D02*
X-39992D01*
X-40715Y67469D01*
X-41269Y66915D01*
X-41568Y66192D01*
Y65408D01*
X-41269Y64685D01*
X-40715Y64131D01*
X-39992Y63832D01*
X-39208D01*
X-38485Y64131D01*
X-37931Y64685D01*
X-37631Y65408D01*
Y66192D01*
X-37931Y66915D01*
X-38485Y67469D01*
X-39208Y67769D01*
D02*
G37*
G36*
X-60825Y73269D02*
X-61608D01*
X-62332Y72969D01*
X-62886Y72415D01*
X-63185Y71692D01*
Y70908D01*
X-62886Y70185D01*
X-62536Y69835D01*
X-62587Y69580D01*
X-63141Y69026D01*
X-63440Y68303D01*
Y67976D01*
X-63723Y67552D01*
X-64506D01*
X-65229Y67252D01*
X-65783Y66698D01*
X-66083Y65975D01*
Y65192D01*
X-65783Y64468D01*
X-65229Y63915D01*
X-64506Y63615D01*
X-63723D01*
X-62999Y63915D01*
X-62445Y64468D01*
X-62146Y65192D01*
Y65518D01*
X-61863Y65943D01*
X-61080D01*
X-60357Y66242D01*
X-59803Y66796D01*
X-59503Y67519D01*
Y68303D01*
X-59803Y69026D01*
X-60153Y69376D01*
X-60102Y69631D01*
X-59548Y70185D01*
X-59248Y70908D01*
Y71692D01*
X-59548Y72415D01*
X-60102Y72969D01*
X-60825Y73269D01*
D02*
G37*
G36*
X-27167Y57087D02*
X-27951D01*
X-28674Y56787D01*
X-29228Y56233D01*
X-29528Y55510D01*
Y54726D01*
X-29228Y54003D01*
X-28674Y53449D01*
X-27951Y53150D01*
X-27167D01*
X-26444Y53449D01*
X-25890Y54003D01*
X-25591Y54726D01*
Y55510D01*
X-25890Y56233D01*
X-26444Y56787D01*
X-27167Y57087D01*
D02*
G37*
G36*
X-34616Y56120D02*
X-35399D01*
X-36122Y55820D01*
X-36676Y55266D01*
X-36976Y54543D01*
Y53760D01*
X-36676Y53036D01*
X-36122Y52482D01*
X-35399Y52183D01*
X-34616D01*
X-33892Y52482D01*
X-33338Y53036D01*
X-33039Y53760D01*
Y54543D01*
X-33338Y55266D01*
X-33892Y55820D01*
X-34616Y56120D01*
D02*
G37*
G36*
X6892Y55968D02*
X6108D01*
X5385Y55669D01*
X4831Y55115D01*
X4532Y54392D01*
Y53608D01*
X4831Y52885D01*
X5385Y52331D01*
X6108Y52031D01*
X6892D01*
X7615Y52331D01*
X8169Y52885D01*
X8468Y53608D01*
Y54392D01*
X8169Y55115D01*
X7615Y55669D01*
X6892Y55968D01*
D02*
G37*
G36*
X-2408Y46968D02*
X-3192D01*
X-3915Y46669D01*
X-4469Y46115D01*
X-4769Y45392D01*
Y44608D01*
X-4469Y43885D01*
X-3915Y43331D01*
X-3192Y43031D01*
X-2408D01*
X-1685Y43331D01*
X-1131Y43885D01*
X-831Y44608D01*
Y45392D01*
X-1131Y46115D01*
X-1685Y46669D01*
X-2408Y46968D01*
D02*
G37*
G36*
X-29409Y50516D02*
X-30129Y50421D01*
X-30799Y50143D01*
X-31375Y49702D01*
X-31817Y49126D01*
X-32094Y48456D01*
X-32189Y47736D01*
Y44587D01*
X-32094Y43867D01*
X-31817Y43197D01*
X-31375Y42621D01*
X-30799Y42179D01*
X-30129Y41902D01*
X-29409Y41807D01*
X-28690Y41902D01*
X-28020Y42179D01*
X-27444Y42621D01*
X-27002Y43197D01*
X-26724Y43867D01*
X-26630Y44587D01*
Y47736D01*
X-26724Y48456D01*
X-27002Y49126D01*
X-27444Y49702D01*
X-28020Y50143D01*
X-28690Y50421D01*
X-29409Y50516D01*
D02*
G37*
%LPD*%
D103*
X-42325Y67642D02*
D03*
X-15846Y82531D02*
D03*
X-45600Y84500D02*
D03*
X-17300Y43700D02*
D03*
X-107800Y236000D02*
D03*
X-118196Y86353D02*
D03*
X-131600Y190900D02*
D03*
X-131500Y206900D02*
D03*
X23100Y75400D02*
D03*
X1800Y86400D02*
D03*
X-9900Y81600D02*
D03*
X19500Y135400D02*
D03*
X48100Y130500D02*
D03*
X51200D02*
D03*
X48100Y127700D02*
D03*
X51200D02*
D03*
Y133300D02*
D03*
X48100D02*
D03*
X-84700Y86600D02*
D03*
X-84800Y104400D02*
D03*
X-84700Y122100D02*
D03*
X18152Y245357D02*
D03*
X14200Y245300D02*
D03*
X18095Y249309D02*
D03*
X14086Y253204D02*
D03*
X18038Y253261D02*
D03*
X14143Y249252D02*
D03*
X10700Y187400D02*
D03*
Y183600D02*
D03*
X-104557Y248794D02*
D03*
D104*
X-40700Y57200D02*
D03*
X-48100Y115100D02*
D03*
X-61300Y56900D02*
D03*
M02*
