G04*
G04 #@! TF.GenerationSoftware,Altium Limited,Altium Designer,22.2.1 (43)*
G04*
G04 Layer_Color=16711935*
%FSLAX25Y25*%
%MOIN*%
G70*
G04*
G04 #@! TF.SameCoordinates,54FADD59-BBF9-4A11-9494-7AB4E3D874E1*
G04*
G04*
G04 #@! TF.FilePolarity,Positive*
G04*
G01*
G75*
%ADD10C,0.00984*%
%ADD12C,0.01000*%
%ADD17C,0.00800*%
%ADD18C,0.00394*%
%ADD110R,1.49606X0.11811*%
%ADD111C,0.00500*%
%ADD112R,0.02436X0.11417*%
D10*
X-53302Y72216D02*
X-54040Y72643D01*
Y71790D01*
X-53302Y72216D01*
D12*
X-85487Y214173D02*
Y292913D01*
X-14621Y214173D02*
Y292913D01*
X-85487D02*
X-14621D01*
X-85487Y214173D02*
X-14621D01*
X-95543Y162406D02*
X-75858D01*
X-95543Y150594D02*
Y162406D01*
Y150594D02*
X-75858D01*
Y162406D01*
D17*
X-55088Y180736D02*
X-47214D01*
X-51181Y176804D02*
Y184678D01*
X23622Y290972D02*
X23622Y50814D01*
X-125984Y290977D02*
X23622Y290977D01*
X-125984Y290977D02*
X-125984Y50814D01*
X-76161Y22293D02*
Y53396D01*
X-27638D01*
Y22293D02*
Y53396D01*
X-76161Y22293D02*
X-27638D01*
X-51850Y37943D02*
Y43159D01*
X-54459Y40551D02*
X-49242D01*
X29820Y89352D02*
X61709D01*
X29820D02*
Y124588D01*
X61709Y89352D02*
Y124588D01*
X29820D02*
X61709D01*
X-133767Y87744D02*
Y94437D01*
Y87744D02*
X-127074D01*
Y94437D01*
X-133767D02*
X-127074D01*
X10200Y107622D02*
Y110378D01*
X8822Y109000D02*
X11578D01*
X-1611Y124748D02*
X22011D01*
X-1611Y93252D02*
Y124748D01*
Y93252D02*
X22011D01*
Y124748D01*
X68924Y194071D02*
Y227929D01*
X50813D02*
X68924D01*
X50813Y194071D02*
Y227929D01*
Y194071D02*
X68924D01*
X-4083Y32640D02*
X-1327D01*
X-2705Y31263D02*
Y34018D01*
X8515Y24471D02*
Y39235D01*
X-13630D02*
X8515D01*
X-13630Y24471D02*
Y39235D01*
Y24471D02*
X8515D01*
D18*
X-115076Y201476D02*
X-115650Y202050D01*
X-116224Y201476D01*
X-115650Y200903D01*
X-115076Y201476D01*
X-63384Y107644D02*
Y113156D01*
X-51416Y107644D02*
Y113156D01*
X-63384Y107644D02*
X-51416D01*
X-63384Y113156D02*
X-51416D01*
X-60772Y142353D02*
Y149047D01*
X-64315Y142353D02*
Y149047D01*
X-60772D01*
X-64315Y142353D02*
X-60772D01*
X-111811Y252254D02*
X-98819D01*
X-111811Y258946D02*
X-98819D01*
Y252254D02*
Y258946D01*
X-111811Y252254D02*
Y258946D01*
X12402Y48560D02*
X19094D01*
X12402Y35765D02*
X19094D01*
Y48560D01*
X12402Y35765D02*
Y48560D01*
X39437Y242733D02*
Y254544D01*
X27626Y242733D02*
Y254544D01*
Y242733D02*
X39437D01*
X27626Y254544D02*
X39437D01*
X26757Y229189D02*
Y236079D01*
X38568Y229189D02*
Y236079D01*
X26757D02*
X38568D01*
X26757Y229189D02*
X38568D01*
X-140072Y81154D02*
Y87846D01*
X-136528Y81154D02*
Y87846D01*
X-140072Y81154D02*
X-136528D01*
X-140072Y87846D02*
X-136528D01*
X-124016Y190748D02*
Y202953D01*
X-111909Y190748D02*
Y202953D01*
X-124016D02*
X-111909D01*
X-124016Y190748D02*
X-111909D01*
X-55231Y61811D02*
Y73622D01*
X-48342Y61811D02*
Y73622D01*
X-55231D02*
X-48342D01*
X-55231Y61811D02*
X-48342D01*
X-56598Y87635D02*
X-49905D01*
X-56598Y91178D02*
X-49905D01*
Y87635D02*
Y91178D01*
X-56598Y87635D02*
Y91178D01*
X-51248Y81500D02*
Y83500D01*
X-52248Y82500D02*
X-50248D01*
X-56748Y80500D02*
X-49694D01*
X-56748Y84500D02*
X-49694D01*
Y80500D02*
Y84500D01*
X-56748Y80500D02*
Y84500D01*
X-56248Y82500D02*
X-54248D01*
X-7906Y82459D02*
X-4362D01*
X-7906Y77341D02*
X-4362D01*
Y82459D01*
X-7906Y77341D02*
Y82459D01*
X-103835Y153204D02*
X-100292D01*
X-103835Y159897D02*
X-100292D01*
X-103835Y153204D02*
Y159897D01*
X-100292Y153204D02*
Y159897D01*
X-94298Y168353D02*
Y175047D01*
X-81502Y168353D02*
Y175047D01*
X-94298D02*
X-81502D01*
X-94298Y168353D02*
X-81502D01*
X5635Y144016D02*
X9965D01*
X5635Y145984D02*
X9965D01*
Y144016D02*
Y145984D01*
X5635Y144016D02*
Y145984D01*
X29406Y141744D02*
Y147256D01*
X17594Y141744D02*
Y147256D01*
X29406D01*
X17594Y141744D02*
X29406D01*
X-11184Y147500D02*
X784D01*
X-11184Y141988D02*
X784D01*
Y147500D01*
X-11184Y141988D02*
Y147500D01*
X-103740Y241142D02*
Y244685D01*
X-97047Y241142D02*
Y244685D01*
X-103740D02*
X-97047D01*
X-103740Y241142D02*
X-97047D01*
X-96850Y234235D02*
Y237778D01*
X-103543Y234235D02*
Y237778D01*
Y234235D02*
X-96850D01*
X-103543Y237778D02*
X-96850D01*
X-35448Y196131D02*
Y208926D01*
X-28755Y196131D02*
Y208926D01*
X-35448Y196131D02*
X-28755D01*
X-35448Y208926D02*
X-28755D01*
X-45684Y196131D02*
Y208926D01*
X-38991Y196131D02*
Y208926D01*
X-45684Y196131D02*
X-38991D01*
X-45684Y208926D02*
X-38991D01*
X-5353Y101894D02*
Y114689D01*
X-12047Y101894D02*
Y114689D01*
X-5353D01*
X-12047Y101894D02*
X-5353D01*
X19581Y226304D02*
Y239296D01*
X12888Y226304D02*
Y239296D01*
X19581D01*
X12888Y226304D02*
X19581D01*
X2151Y76575D02*
X9237D01*
X2151Y64370D02*
X9237D01*
X2151D02*
Y76575D01*
X9237Y64370D02*
Y76575D01*
X-60796Y131246D02*
X-47804D01*
X-60796Y124554D02*
X-47804D01*
X-60796D02*
Y131246D01*
X-47804Y124554D02*
Y131246D01*
X-98751Y125910D02*
Y127910D01*
X-99751Y126910D02*
X-97751D01*
X-104251Y124910D02*
X-97197D01*
X-104251Y128910D02*
X-97197D01*
Y124910D02*
Y128910D01*
X-104251Y124910D02*
Y128910D01*
X-103751Y126910D02*
X-101751D01*
X-103740Y263583D02*
X-97047D01*
X-103740Y267126D02*
X-97047D01*
Y263583D02*
Y267126D01*
X-103740Y263583D02*
Y267126D01*
X-25392Y197047D02*
Y203740D01*
X-21848Y197047D02*
Y203740D01*
X-25392Y197047D02*
X-21848D01*
X-25392Y203740D02*
X-21848D01*
X-52771Y197047D02*
Y203740D01*
X-49227Y197047D02*
Y203740D01*
X-52771Y197047D02*
X-49227D01*
X-52771Y203740D02*
X-49227D01*
X-136346Y200728D02*
X-129654D01*
X-136346Y204272D02*
X-129654D01*
Y200728D02*
Y204272D01*
X-136346Y200728D02*
Y204272D01*
Y193428D02*
X-129654D01*
X-136346Y196972D02*
X-129654D01*
Y193428D02*
Y196972D01*
X-136346Y193428D02*
Y196972D01*
X-78246Y58528D02*
X-71553D01*
X-78246Y62072D02*
X-71553D01*
Y58528D02*
Y62072D01*
X-78246Y58528D02*
Y62072D01*
X-32692Y62072D02*
X-25999D01*
X-32692Y58528D02*
X-25999D01*
X-32692D02*
Y62072D01*
X-25999Y58528D02*
Y62072D01*
X-2512Y47182D02*
X4181D01*
X-2512Y50726D02*
X4181D01*
Y47182D02*
Y50726D01*
X-2512Y47182D02*
Y50726D01*
X34955Y194291D02*
Y205709D01*
X16845Y194291D02*
Y205709D01*
Y194291D02*
X34955D01*
X16845Y205709D02*
X34955D01*
X-120850Y81350D02*
Y88043D01*
X-124393Y81350D02*
Y88043D01*
X-120850D01*
X-124393Y81350D02*
X-120850D01*
X-31792Y161083D02*
X-27117Y156408D01*
X-31792Y161083D02*
Y182392D01*
X-5808D01*
Y161083D02*
Y182392D01*
X-10483Y156408D02*
X-5808Y161083D01*
X-27117Y156408D02*
X-10483D01*
X-51147Y159304D02*
X-44454D01*
X-51147Y172296D02*
X-44454D01*
X-51147Y159304D02*
Y172296D01*
X-44454Y159304D02*
Y172296D01*
X-42184Y142465D02*
X-40216D01*
X-42184Y138135D02*
X-40216D01*
Y142465D01*
X-42184Y138135D02*
Y142465D01*
X42620Y229453D02*
Y236146D01*
X46163Y229453D02*
Y236146D01*
X42620Y229453D02*
X46163D01*
X42620Y236146D02*
X46163D01*
X-57605Y146846D02*
X-45794D01*
X-57605Y140154D02*
X-45794D01*
Y146846D01*
X-57605Y140154D02*
Y146846D01*
X-91146Y128672D02*
X-84453D01*
X-91146Y125128D02*
X-84453D01*
X-91146D02*
Y128672D01*
X-84453Y125128D02*
Y128672D01*
X-91047Y92972D02*
X-84354D01*
X-91047Y89428D02*
X-84354D01*
X-91047D02*
Y92972D01*
X-84354Y89428D02*
Y92972D01*
X-91286Y110827D02*
X-84593D01*
X-91286Y107283D02*
X-84593D01*
X-91286D02*
Y110827D01*
X-84593Y107283D02*
Y110827D01*
X34955Y179691D02*
Y191109D01*
X16845Y179691D02*
Y191109D01*
Y179691D02*
X34955D01*
X16845Y191109D02*
X34955D01*
X-18953Y102453D02*
Y109146D01*
X-15410Y102453D02*
Y109146D01*
X-18953Y102453D02*
X-15410D01*
X-18953Y109146D02*
X-15410D01*
X-26200Y82500D02*
X-24200D01*
X-26700Y80500D02*
Y84500D01*
X-19646Y80500D02*
Y84500D01*
X-26700D02*
X-19646D01*
X-26700Y80500D02*
X-19646D01*
X-22200Y82500D02*
X-20200D01*
X-21200Y81500D02*
Y83500D01*
X-15Y79938D02*
X6678D01*
X-15Y83481D02*
X6678D01*
X-15Y79938D02*
Y83481D01*
X6678Y79938D02*
Y83481D01*
X-4209Y259072D02*
X2484D01*
X-4209Y255528D02*
X2484D01*
X-4209D02*
Y259072D01*
X2484Y255528D02*
Y259072D01*
X6580Y56381D02*
Y59924D01*
X84Y56381D02*
Y59924D01*
X6580D01*
X84Y56381D02*
X6580D01*
X20072Y73953D02*
Y80647D01*
X16528Y73953D02*
Y80647D01*
Y73953D02*
X20072D01*
X16528Y80647D02*
X20072D01*
X-26378Y91178D02*
X-19685D01*
X-26378Y87635D02*
X-19685D01*
X-26378D02*
Y91178D01*
X-19685Y87635D02*
Y91178D01*
X-4098Y248728D02*
X2595D01*
X-4098Y252272D02*
X2595D01*
Y248728D02*
Y252272D01*
X-4098Y248728D02*
Y252272D01*
X-103596Y91083D02*
X-101596D01*
X-104096Y89083D02*
Y93083D01*
X-97042Y89083D02*
Y93083D01*
X-104096D02*
X-97042D01*
X-104096Y89083D02*
X-97042D01*
X-99596Y91083D02*
X-97596D01*
X-98596Y90083D02*
Y92083D01*
X-103751Y108996D02*
X-101751D01*
X-104251Y106996D02*
Y110996D01*
X-97197Y106996D02*
Y110996D01*
X-104251D02*
X-97197D01*
X-104251Y106996D02*
X-97197D01*
X-99751Y108996D02*
X-97751D01*
X-98751Y107996D02*
Y109996D01*
D110*
X-51181Y56720D02*
D03*
D111*
X36100Y172000D02*
X39100D01*
X36100Y175000D02*
X39100D01*
Y172000D02*
Y175000D01*
X36100Y172000D02*
Y175000D01*
X-23000Y42100D02*
X-20000D01*
X-23000Y45100D02*
X-20000D01*
Y42100D02*
Y45100D01*
X-23000Y42100D02*
Y45100D01*
X39500Y210100D02*
X42500D01*
X39500Y213100D02*
X42500D01*
Y210100D02*
Y213100D01*
X39500Y210100D02*
Y213100D01*
X48800Y139900D02*
X51800D01*
X48800Y142900D02*
X51800D01*
Y139900D02*
Y142900D01*
X48800Y139900D02*
Y142900D01*
X31784Y255642D02*
X34784D01*
X31784Y258642D02*
X34784D01*
Y255642D02*
Y258642D01*
X31784Y255642D02*
Y258642D01*
X-4500Y262905D02*
X-1500D01*
X-4500Y265905D02*
X-1500D01*
X-4500Y262905D02*
Y265905D01*
X-1500Y262905D02*
Y265905D01*
X-92200Y187500D02*
Y190500D01*
X-95200Y187500D02*
Y190500D01*
Y187500D02*
X-92200D01*
X-95200Y190500D02*
X-92200D01*
X-92300Y193800D02*
Y196800D01*
X-95300Y193800D02*
Y196800D01*
Y193800D02*
X-92300D01*
X-95300Y196800D02*
X-92300D01*
X-97100D02*
Y199800D01*
X-100100Y196800D02*
Y199800D01*
Y196800D02*
X-97100D01*
X-100100Y199800D02*
X-97100D01*
X-97054Y190900D02*
Y193900D01*
X-100054Y190900D02*
Y193900D01*
Y190900D02*
X-97054D01*
X-100054Y193900D02*
X-97054D01*
D112*
X33740Y200000D02*
D03*
X33737Y185400D02*
D03*
M02*
